;TYPE=PLATED
;Layer: PTH_Through
;EasyEDA Pro v2.2.34.8, 2025-01-04 05:47:55
;Gerber Generator version 0.3
M48
METRIC,LZ,0000.00000
;Hole size 1 = 0.30500 METRIC
T01C0.30500
;Hole size 2 = 3.50000 METRIC
T02C3.50000
%
G05
G90
T01
X1.45969Y-23.70001
X-1.40001Y-39.37762
X0.60001Y-81.11801
X-0.512Y7.18198
X-0.894Y-19.381
X-5.694Y-19.381
X-4.894Y-26.79998
X-0.094Y-124.39999
X-8.89401Y-76.39993
X-6.31988Y-31.18414
X3.28013Y-26.38414
X2.48013Y-21.58413
X-2.494Y-121.39999
X-0.094Y-118.4
X3.10601Y-49.59992
X1.506Y-36.7999
X-0.094Y-115.40001
X-4.894Y-38.59992
X0.706Y-31.39991
X-7.29401Y-112.40001
X-8.09401Y-37.19992
X-2.04608Y-32.752
X-3.294Y-100.39999
X-2.11709Y-44.22302
X-0.894Y-94.4
X-3.294Y-81.59998
X-0.094Y-43.99994
X-0.094Y-91.40001
X1.888Y-49.79996
X1.088Y-46.59995
X-1.694Y4.406
X-0.094Y-78.0
X1.088Y1.982
X-2.112Y-1.892
X-1.312Y-4.432
X-0.894Y-8.421
X0.706Y-10.961
X-1.694Y-13.501
X-3.294Y-15.901
X-5.694Y-22.30101
X-4.51201Y-25.25901
T02
X-5.0Y12.0
X-5.0Y-12.0
X-5.0Y-108.0
X-5.0Y-132.0
X-5.0Y-46.882
X-5.0Y-73.118
M30