G04 Layer: TopSilkscreenLayer*
G04 EasyEDA Pro v2.2.34.8, 2025-01-04 05:47:55*
G04 Gerber Generator version 0.3*
G04 Scale: 100 percent, Rotated: No, Reflected: No*
G04 Dimensions in millimeters*
G04 Leading zeros omitted, absolute positions, 4 integers and 5 decimals*
%FSLAX45Y45*%
%MOMM*%
%ADD10C,0.254*%
G75*


G04 PolygonModel Start*
G54D10*
G01X311501Y518112D02*
G01X311501Y761997D01*
G01X311501Y761997D02*
G01X-412399Y761997D01*
G01X-412399Y761997D02*
G01X-412399Y-761997D01*
G01X-412399Y-761997D02*
G01X311501Y-761997D01*
G01X311501Y-761997D02*
G01X311501Y-518112D01*
G01X311501Y-381886D02*
G01X311501Y381886D01*
G01X311501Y-11481888D02*
G01X311501Y-11238003D01*
G01X311501Y-11238003D02*
G01X-412399Y-11238003D01*
G01X-412399Y-11238003D02*
G01X-412399Y-12761998D01*
G01X-412399Y-12761998D02*
G01X311501Y-12761998D01*
G01X311501Y-12761998D02*
G01X311501Y-12518112D01*
G01X311501Y-12381887D02*
G01X311501Y-11618114D01*
G01X311501Y-1881888D02*
G01X311501Y-1638003D01*
G01X311501Y-1638003D02*
G01X-412399Y-1638003D01*
G01X-412399Y-1638003D02*
G01X-412399Y-3161997D01*
G01X-412399Y-3161997D02*
G01X311501Y-3161997D01*
G01X311501Y-3161997D02*
G01X311501Y-2918112D01*
G01X311501Y-2781886D02*
G01X311501Y-2018114D01*
G01X311501Y-9081888D02*
G01X311501Y-8838003D01*
G01X311501Y-8838003D02*
G01X-412399Y-8838003D01*
G01X-412399Y-8838003D02*
G01X-412399Y-10361998D01*
G01X-412399Y-10361998D02*
G01X311501Y-10361998D01*
G01X311501Y-10361998D02*
G01X311501Y-10118112D01*
G01X311501Y-9981887D02*
G01X311501Y-9218114D01*

M02*

