G04 Layer: TopPasteMaskLayer*
G04 EasyEDA Pro v2.2.34.8, 2025-01-04 05:47:55*
G04 Gerber Generator version 0.3*
G04 Scale: 100 percent, Rotated: No, Reflected: No*
G04 Dimensions in millimeters*
G04 Leading zeros omitted, absolute positions, 4 integers and 5 decimals*
%FSLAX45Y45*%
%MOMM*%
%ADD10R,1.8X0.9*%
%ADD11R,4.5X1.6*%
%ADD12O,7.0X2.5*%
G75*


G04 Pad Start*
G54D10*
G01X259999Y-449999D03*
G01X259999Y449999D03*
G54D11*
G01X-169400Y599999D03*
G01X-169400Y299999D03*
G01X-169400Y0D03*
G01X-169400Y-299999D03*
G01X-169400Y-599999D03*
G54D10*
G01X259999Y-12449999D03*
G01X259999Y-11550001D03*
G54D11*
G01X-169400Y-11400001D03*
G01X-169400Y-11700001D03*
G01X-169400Y-12000000D03*
G01X-169400Y-12300000D03*
G01X-169400Y-12599999D03*
G54D10*
G01X259999Y-2849999D03*
G01X259999Y-1950001D03*
G54D11*
G01X-169400Y-1800001D03*
G01X-169400Y-2100001D03*
G01X-169400Y-2400000D03*
G01X-169400Y-2699999D03*
G01X-169400Y-2999999D03*
G54D10*
G01X259999Y-10049999D03*
G01X259999Y-9150001D03*
G54D11*
G01X-169400Y-9000001D03*
G01X-169400Y-9300001D03*
G01X-169400Y-9600000D03*
G01X-169400Y-9900000D03*
G01X-169400Y-10199999D03*
G54D12*
G01X-1000000Y-2400000D03*
G01X-1000000Y-2700000D03*
G01X-1000000Y-3000000D03*
G01X-1000000Y-2100000D03*
G01X-1000000Y-1800000D03*
G01X-1000000Y-9600000D03*
G01X-1000000Y-9900000D03*
G01X-1000000Y-10200000D03*
G01X-1000000Y-9300000D03*
G01X-1000000Y-9000000D03*
G01X-1000000Y-12000000D03*
G01X-1000000Y-12300000D03*
G01X-1000000Y-12600000D03*
G01X-1000000Y-11700000D03*
G01X-1000000Y-11400000D03*
G01X-1000000Y0D03*
G01X-1000000Y-300000D03*
G01X-1000000Y-600000D03*
G01X-1000000Y300000D03*
G01X-1000000Y600000D03*
G04 Pad End*

M02*

