G04 Layer: BottomSolderMaskLayer*
G04 EasyEDA Pro v2.2.34.8, 2025-01-04 05:47:55*
G04 Gerber Generator version 0.3*
G04 Scale: 100 percent, Rotated: No, Reflected: No*
G04 Dimensions in millimeters*
G04 Leading zeros omitted, absolute positions, 4 integers and 5 decimals*
%FSLAX45Y45*%
%MOMM*%
%AMRoundRect*1,1,$1,$2,$3*1,1,$1,$4,$5*1,1,$1,0-$2,0-$3*1,1,$1,0-$4,0-$5*20,1,$1,$2,$3,$4,$5,0*20,1,$1,$4,$5,0-$2,0-$3,0*20,1,$1,0-$2,0-$3,0-$4,0-$5,0*20,1,$1,0-$4,0-$5,$2,$3,0*4,1,4,$2,$3,$4,$5,0-$2,0-$3,0-$4,0-$5,$2,$3,0*%
%ADD10C,6.102*%
%ADD11RoundRect,0.09424X2.50368X0.60368X2.50368X-0.60368*%
%ADD12RoundRect,0.09424X2.50368X0.60368X2.50368X-0.60368*%
G75*


G04 Pad Start*
G54D10*
G01X-500000Y1200000D03*
G01X-500000Y-1200000D03*
G01X-500000Y-10800000D03*
G01X-500000Y-13200000D03*
G01X-500000Y-4688200D03*
G01X-500000Y-7311800D03*
G54D11*
G01X108800Y-203200D03*
G01X108800Y50800D03*
G01X108800Y304800D03*
G01X108800Y558800D03*
G01X108800Y812800D03*
G54D12*
G01X108800Y-1739900D03*
G01X108800Y-1485900D03*
G01X108800Y-1231900D03*
G01X108800Y-977900D03*
G01X108800Y-723900D03*
G01X108800Y-3275200D03*
G01X108800Y-3021200D03*
G01X108800Y-2767200D03*
G01X108800Y-2513200D03*
G01X108800Y-2259200D03*
G01X108800Y-4811900D03*
G01X108800Y-4557900D03*
G01X108800Y-4303900D03*
G01X108800Y-4049900D03*
G01X108800Y-3795900D03*
G36*
G01X-166497Y702945D02*
G01X-166497Y620395D01*
G02X-182164Y611857I-10160J0D01*
G01X-211709Y630911D01*
G01X-241254Y611857D01*
G02X-256921Y620395I-5507J8538D01*
G01X-256921Y702945D01*
G02X-246761Y713105I10160J0D01*
G01X-176657Y713105D01*
G02X-166497Y702945I0J-10160D01*
G37*
G36*
G01X-166497Y590169D02*
G01X-166497Y530225D01*
G02X-176657Y520065I-10160J0D01*
G01X-246761Y520065D01*
G02X-256921Y530225I0J10160D01*
G01X-256921Y590169D01*
G02X-252268Y598707I10160J0D01*
G01X-217216Y621313D01*
G02X-206202Y621313I5507J-8538D01*
G01X-171150Y598707D01*
G02X-166497Y590169I-5507J-8538D01*
G37*
G36*
G01X-166497Y-835025D02*
G01X-166497Y-917575D01*
G02X-182164Y-926113I-10160J0D01*
G01X-211709Y-907059D01*
G01X-241254Y-926113D01*
G02X-256921Y-917575I-5507J8538D01*
G01X-256921Y-835025D01*
G02X-246761Y-824865I10160J0D01*
G01X-176657Y-824865D01*
G02X-166497Y-835025I0J-10160D01*
G37*
G36*
G01X-166497Y-947801D02*
G01X-166497Y-1007745D01*
G02X-176657Y-1017905I-10160J0D01*
G01X-246761Y-1017905D01*
G02X-256921Y-1007745I0J10160D01*
G01X-256921Y-947801D01*
G02X-252268Y-939263I10160J0D01*
G01X-217216Y-916657D01*
G02X-206202Y-916657I5507J-8538D01*
G01X-171150Y-939263D01*
G02X-166497Y-947801I-5507J-8538D01*
G37*
G36*
G01X-166497Y-2377707D02*
G01X-166497Y-2460257D01*
G02X-182164Y-2468795I-10160J0D01*
G01X-211709Y-2449740D01*
G01X-241254Y-2468795D01*
G02X-256921Y-2460257I-5507J8538D01*
G01X-256921Y-2377707D01*
G02X-246761Y-2367547I10160J0D01*
G01X-176657Y-2367547D01*
G02X-166497Y-2377707I0J-10160D01*
G37*
G36*
G01X-166497Y-2490483D02*
G01X-166497Y-2550427D01*
G02X-176657Y-2560587I-10160J0D01*
G01X-246761Y-2560587D01*
G02X-256921Y-2550427I0J10160D01*
G01X-256921Y-2490483D01*
G02X-252268Y-2481944I10160J0D01*
G01X-217216Y-2459338D01*
G02X-206202Y-2459338I5507J-8538D01*
G01X-171150Y-2481944D01*
G02X-166497Y-2490483I-5507J-8538D01*
G37*
G36*
G01X-166497Y-3907790D02*
G01X-166497Y-3990340D01*
G02X-182164Y-3998878I-10160J0D01*
G01X-211709Y-3979824D01*
G01X-241254Y-3998878D01*
G02X-256921Y-3990340I-5507J8538D01*
G01X-256921Y-3907790D01*
G02X-246761Y-3897630I10160J0D01*
G01X-176657Y-3897630D01*
G02X-166497Y-3907790I0J-10160D01*
G37*
G36*
G01X-166497Y-4020566D02*
G01X-166497Y-4080510D01*
G02X-176657Y-4090670I-10160J0D01*
G01X-246761Y-4090670D01*
G02X-256921Y-4080510I0J10160D01*
G01X-256921Y-4020566D01*
G02X-252268Y-4012028I10160J0D01*
G01X-217216Y-3989422D01*
G02X-206202Y-3989422I5507J-8538D01*
G01X-171150Y-4012028D01*
G02X-166497Y-4020566I-5507J-8538D01*
G37*
G04 Pad End*

M02*

