G04 Layer: BottomLayer*
G04 EasyEDA Pro v2.2.34.8, 2025-01-04 05:47:55*
G04 Gerber Generator version 0.3*
G04 Scale: 100 percent, Rotated: No, Reflected: No*
G04 Dimensions in millimeters*
G04 Leading zeros omitted, absolute positions, 4 integers and 5 decimals*
%FSLAX45Y45*%
%MOMM*%
%AMPolygonMacro1*4,1,5,0.0,-0.18669,-0.35052,-0.41275,-0.35052,0.41275,0.35052,0.41275,0.35052,-0.41275,0.0,-0.18669,0*%
%AMPolygonMacro2*4,1,5,-0.35052,-0.41275,-0.35052,0.18669,0.0,0.41275,0.35052,0.18669,0.35052,-0.41275,-0.35052,-0.41275,0*%
%ADD10C,0.2032*%
%ADD11C,6.0*%
%ADD12R,5.0X1.2*%
%ADD13R,5.0X1.2*%
%ADD14PolygonMacro1*%
%ADD15PolygonMacro2*%
%ADD16C,0.61*%
%ADD17C,0.63094*%
%ADD18C,0.8007*%
%ADD19C,0.8*%
G75*


G04 Copper Start*
G36*
G01X44209Y-11893609D02*
G01X364186Y-11573631D01*
G01X364186Y-13764186D01*
G01X-1364186Y-13764186D01*
G01X-1364186Y-10692451D01*
G03X-1343010Y-10733609I74785J12451D01*
G01X-783009Y-11293610D01*
G03X-659626Y-11269653I53609J53609D01*
G01X-316761Y-11612518D01*
G01X-316761Y-12139999D01*
G03X-188014Y-12167735I67361J0D01*
G01X-188014Y-12337198D01*
G03X-165809Y-12390807I75814J0D01*
G01X-63008Y-12493607D01*
G03X44209Y-12386390I53609J53609D01*
G01X-36386Y-12305795D01*
G01X-36386Y-11910848D01*
G03X44209Y-11893609I26986J70849D01*
G37*
G36*
G01X364186Y1764186D02*
G01X364186Y908207D01*
G03X358800Y908614I-5386J-35407D01*
G01X-141200Y908614D01*
G03X-177014Y872800I0J-35814D01*
G01X-177014Y752800D01*
G03X-141200Y716986I35814J0D01*
G01X-127005Y716986D01*
G03X-92489Y654614I75804J1212D01*
G01X-141200Y654614D01*
G03X-174682Y631512I0J-35814D01*
G01X-192298Y642873D01*
G03X-231120Y642873I-19411J-30098D01*
G01X-266172Y620267D01*
G03X-282575Y590169I19411J-30098D01*
G01X-282575Y530225D01*
G03X-246761Y494411I35814J0D01*
G01X-226189Y494411D01*
G03X-212878Y492846I14480J65786D01*
G01X-212424Y492838D01*
G01X-217031Y488232D01*
G03X-175927Y373557I47631J-47631D01*
G03X-177014Y364800I34727J-8757D01*
G01X-177014Y244800D01*
G03X-141200Y208986I35814J0D01*
G01X32986Y208986D01*
G01X32986Y198200D01*
G03X53242Y146614I75814J0D01*
G01X-141200Y146614D01*
G03X-177014Y110800I0J-35814D01*
G01X-177014Y32203D01*
G01X-264809Y-55592D01*
G03X-287015Y-109200I53609J-53609D01*
G01X-287015Y-189200D01*
G03X-177014Y-256869I75814J0D01*
G01X-177014Y-263200D01*
G03X-141200Y-299014I35814J0D01*
G01X-94231Y-299014D01*
G01X-184809Y-389592D01*
G03X-77592Y-496809I53609J-53609D01*
G01X120203Y-299014D01*
G01X358800Y-299014D01*
G03X364186Y-298607I0J35814D01*
G01X364186Y-628493D01*
G03X358800Y-628086I-5386J-35407D01*
G01X-141200Y-628086D01*
G03X-177014Y-663900I0J-35814D01*
G01X-177014Y-783900D01*
G03X-159972Y-814400I35814J0D01*
G03X-152614Y-883953I70573J-27700D01*
G03X-175055Y-906218I11414J-33947D01*
G01X-192298Y-895097D01*
G03X-231120Y-895097I-19411J-30098D01*
G01X-266172Y-917703D01*
G03X-282575Y-947801I19411J-30098D01*
G01X-282575Y-1007745D01*
G03X-246761Y-1043559I35814J0D01*
G01X-226628Y-1043559D01*
G03X-211582Y-1045261I15046J65659D01*
G01X-176250Y-1045261D01*
G03X-141200Y-1073714I35049J7361D01*
G01X-47048Y-1073714D01*
G01X15324Y-1136086D01*
G01X-141200Y-1136086D01*
G03X-177014Y-1171900I0J-35814D01*
G01X-177014Y-1250497D01*
G01X-223009Y-1296491D01*
G03X-177012Y-1425531I53609J-53609D01*
G01X-177014Y-1425900D01*
G01X-177014Y-1504497D01*
G01X-254070Y-1581552D01*
G03X-383009Y-1536491I-75331J-8548D01*
G01X-463009Y-1616491D01*
G03X-485214Y-1670100I53609J-53609D01*
G01X-485214Y-2038697D01*
G01X-623009Y-2176492D01*
G03X-515792Y-2283709I53609J-53609D01*
G01X-386214Y-2154132D01*
G01X-386214Y-2353697D01*
G01X-504809Y-2472293D01*
G03X-526363Y-2535818I53609J-53609D01*
G01X-653587Y-2408595D01*
G01X-653587Y-2129503D01*
G01X-515792Y-1991708D01*
G03X-623009Y-1884491I-53609J53609D01*
G01X-783009Y-2044491D01*
G03X-805215Y-2098100I53609J-53609D01*
G01X-805215Y-2439998D01*
G03X-783009Y-2493607I75814J0D01*
G01X-543009Y-2733607D01*
G03X-518404Y-2750045I53609J53609D01*
G01X-819341Y-3050982D01*
G03X-839070Y-3098613I47631J-47631D01*
G01X-839070Y-3302298D01*
G03X-819341Y-3349929I67361J0D01*
G01X-759070Y-3410200D01*
G01X-759070Y-3663295D01*
G03X-863009Y-3666384I-50330J-56698D01*
G01X-1343010Y-4146384D01*
G03X-1364186Y-4187542I53609J-53609D01*
G01X-1364186Y1764186D01*
G01X364186Y1764186D01*
G37*
G36*
G01X-965215Y-4303023D02*
G01X-965215Y-7459996D01*
G03X-943009Y-7513604I75814J0D01*
G01X-892376Y-7564237D01*
G03X-965215Y-7639993I2976J-75756D01*
G01X-965215Y-8839995D01*
G03X-943009Y-8893603I75814J0D01*
G01X-188014Y-9648598D01*
G01X-188014Y-11556881D01*
G03X-201769Y-11536985I-61386J-27735D01*
G01X-1104349Y-10634405D01*
G01X-1104349Y-9372232D01*
G01X-1103010Y-9373606D01*
G01X-383009Y-10093607D01*
G03X-275792Y-9986390I53609J53609D01*
G01X-973587Y-9288595D01*
G01X-973587Y-4311395D01*
G01X-965215Y-4303023D01*
G37*
G36*
G01X358800Y-3891714D02*
G03X364186Y-3891307I0J35814D01*
G01X364186Y-3954493D01*
G03X358800Y-3954086I-5386J-35407D01*
G01X-141200Y-3954086D01*
G03X-175266Y-3978847I0J-35814D01*
G01X-192298Y-3967862D01*
G03X-231120Y-3967862I-19411J-30098D01*
G01X-266172Y-3990468D01*
G03X-282575Y-4020566I19411J-30098D01*
G01X-282575Y-4080510D01*
G03X-279070Y-4095963I35814J0D01*
G01X-279070Y-4422302D01*
G03X-144348Y-4422302I67361J0D01*
G01X-144348Y-4399575D01*
G03X-141200Y-4399714I3148J35675D01*
G01X-85213Y-4399714D01*
G03X-52901Y-4462086I75814J-280D01*
G01X-141200Y-4462086D01*
G03X-177014Y-4497900I0J-35814D01*
G01X-177014Y-4617900D01*
G03X-141200Y-4653714I35814J0D01*
G01X32986Y-4653714D01*
G01X32986Y-4659995D01*
G03X57794Y-4716086I75814J0D01*
G01X-141200Y-4716086D01*
G03X-177014Y-4751900I0J-35814D01*
G01X-177014Y-4871900D01*
G03X-141200Y-4907714I35814J0D01*
G01X-81834Y-4907714D01*
G03X-85214Y-4930100I72434J-22386D01*
G01X-85214Y-7800000D01*
G03X66414Y-7800000I75814J0D01*
G01X66414Y-4961503D01*
G01X120203Y-4907714D01*
G01X165928Y-4907714D01*
G03X112986Y-4979996I22872J-72282D01*
G01X112986Y-8910398D01*
G01X-63008Y-9086392D01*
G03X-82453Y-9119727I53609J-53609D01*
G01X-93586Y-9108595D01*
G01X-93586Y-8179997D01*
G03X-115791Y-8126388I-75814J0D01*
G01X-813587Y-7428593D01*
G01X-813587Y-4291395D01*
G01X-435792Y-3913600D01*
G03X-414497Y-3871707I-53609J53609D01*
G01X-413492Y-3871714D01*
G01X-173334Y-3871714D01*
G03X-141200Y-3891714I32133J15814D01*
G01X358800Y-3891714D01*
G37*
G36*
G01X364186Y-1835307D02*
G01X364186Y-2163793D01*
G03X358800Y-2163386I-5386J-35407D01*
G01X323664Y-2163386D01*
G03X248013Y-2082599I-75651J4973D01*
G01X209587Y-2082599D01*
G03X155978Y-2104804I0J-75814D01*
G01X97397Y-2163386D01*
G01X-141200Y-2163386D01*
G03X-177014Y-2199200I0J-35814D01*
G01X-177014Y-2319200D01*
G03X-141200Y-2355014I35814J0D01*
G01X358800Y-2355014D01*
G03X364186Y-2354607I0J35814D01*
G01X364186Y-2417793D01*
G03X358800Y-2417386I-5386J-35407D01*
G01X-141200Y-2417386D01*
G03X-176619Y-2447891I0J-35814D01*
G01X-192298Y-2437779D01*
G03X-231120Y-2437779I-19411J-30098D01*
G01X-266172Y-2460385D01*
G03X-282575Y-2490483I19411J-30098D01*
G01X-282575Y-2514216D01*
G01X-419354Y-2650994D01*
G03X-435792Y-2626390I-70047J-29004D01*
G01X-461118Y-2601064D01*
G03X-397592Y-2579510I9917J75163D01*
G01X-256792Y-2438709D01*
G03X-234586Y-2385101I-53609J53609D01*
G01X-234586Y-1776503D01*
G01X-177014Y-1718931D01*
G01X-177014Y-1799900D01*
G03X-141200Y-1835714I35814J0D01*
G01X-94231Y-1835714D01*
G01X-143008Y-1884491D01*
G03X-35791Y-1991708I53609J-53609D01*
G01X120203Y-1835714D01*
G01X358800Y-1835714D01*
G03X364186Y-1835307I0J35814D01*
G37*
G54D10*
G01X44209Y-11893609D02*
G01X364186Y-11573631D01*
G01X364186Y-13764186D01*
G01X-1364186Y-13764186D01*
G01X-1364186Y-10692451D01*
G03X-1343010Y-10733609I74785J12451D01*
G01X-783009Y-11293610D01*
G03X-659626Y-11269653I53609J53609D01*
G01X-316761Y-11612518D01*
G01X-316761Y-12139999D01*
G03X-188014Y-12167735I67361J0D01*
G01X-188014Y-12337198D01*
G03X-165809Y-12390807I75814J0D01*
G01X-63008Y-12493607D01*
G03X44209Y-12386390I53609J53609D01*
G01X-36386Y-12305795D01*
G01X-36386Y-11910848D01*
G03X44209Y-11893609I26986J70849D01*
G01X364186Y1764186D02*
G01X364186Y908207D01*
G03X358800Y908614I-5386J-35407D01*
G01X-141200Y908614D01*
G03X-177014Y872800I0J-35814D01*
G01X-177014Y752800D01*
G03X-141200Y716986I35814J0D01*
G01X-127005Y716986D01*
G03X-92489Y654614I75804J1212D01*
G01X-141200Y654614D01*
G03X-174682Y631512I0J-35814D01*
G01X-192298Y642873D01*
G03X-231120Y642873I-19411J-30098D01*
G01X-266172Y620267D01*
G03X-282575Y590169I19411J-30098D01*
G01X-282575Y530225D01*
G03X-246761Y494411I35814J0D01*
G01X-226189Y494411D01*
G03X-212878Y492846I14480J65786D01*
G01X-212424Y492838D01*
G01X-217031Y488232D01*
G03X-175927Y373557I47631J-47631D01*
G03X-177014Y364800I34727J-8757D01*
G01X-177014Y244800D01*
G03X-141200Y208986I35814J0D01*
G01X32986Y208986D01*
G01X32986Y198200D01*
G03X53242Y146614I75814J0D01*
G01X-141200Y146614D01*
G03X-177014Y110800I0J-35814D01*
G01X-177014Y32203D01*
G01X-264809Y-55592D01*
G03X-287015Y-109200I53609J-53609D01*
G01X-287015Y-189200D01*
G03X-177014Y-256869I75814J0D01*
G01X-177014Y-263200D01*
G03X-141200Y-299014I35814J0D01*
G01X-94231Y-299014D01*
G01X-184809Y-389592D01*
G03X-77592Y-496809I53609J-53609D01*
G01X120203Y-299014D01*
G01X358800Y-299014D01*
G03X364186Y-298607I0J35814D01*
G01X364186Y-628493D01*
G03X358800Y-628086I-5386J-35407D01*
G01X-141200Y-628086D01*
G03X-177014Y-663900I0J-35814D01*
G01X-177014Y-783900D01*
G03X-159972Y-814400I35814J0D01*
G03X-152614Y-883953I70573J-27700D01*
G03X-175055Y-906218I11414J-33947D01*
G01X-192298Y-895097D01*
G03X-231120Y-895097I-19411J-30098D01*
G01X-266172Y-917703D01*
G03X-282575Y-947801I19411J-30098D01*
G01X-282575Y-1007745D01*
G03X-246761Y-1043559I35814J0D01*
G01X-226628Y-1043559D01*
G03X-211582Y-1045261I15046J65659D01*
G01X-176250Y-1045261D01*
G03X-141200Y-1073714I35049J7361D01*
G01X-47048Y-1073714D01*
G01X15324Y-1136086D01*
G01X-141200Y-1136086D01*
G03X-177014Y-1171900I0J-35814D01*
G01X-177014Y-1250497D01*
G01X-223009Y-1296491D01*
G03X-177012Y-1425531I53609J-53609D01*
G01X-177014Y-1425900D01*
G01X-177014Y-1504497D01*
G01X-254070Y-1581552D01*
G03X-383009Y-1536491I-75331J-8548D01*
G01X-463009Y-1616491D01*
G03X-485214Y-1670100I53609J-53609D01*
G01X-485214Y-2038697D01*
G01X-623009Y-2176492D01*
G03X-515792Y-2283709I53609J-53609D01*
G01X-386214Y-2154132D01*
G01X-386214Y-2353697D01*
G01X-504809Y-2472293D01*
G03X-526363Y-2535818I53609J-53609D01*
G01X-653587Y-2408595D01*
G01X-653587Y-2129503D01*
G01X-515792Y-1991708D01*
G03X-623009Y-1884491I-53609J53609D01*
G01X-783009Y-2044491D01*
G03X-805215Y-2098100I53609J-53609D01*
G01X-805215Y-2439998D01*
G03X-783009Y-2493607I75814J0D01*
G01X-543009Y-2733607D01*
G03X-518404Y-2750045I53609J53609D01*
G01X-819341Y-3050982D01*
G03X-839070Y-3098613I47631J-47631D01*
G01X-839070Y-3302298D01*
G03X-819341Y-3349929I67361J0D01*
G01X-759070Y-3410200D01*
G01X-759070Y-3663295D01*
G03X-863009Y-3666384I-50330J-56698D01*
G01X-1343010Y-4146384D01*
G03X-1364186Y-4187542I53609J-53609D01*
G01X-1364186Y1764186D01*
G01X364186Y1764186D01*
G01X-965215Y-4303023D02*
G01X-965215Y-7459996D01*
G03X-943009Y-7513604I75814J0D01*
G01X-892376Y-7564237D01*
G03X-965215Y-7639993I2976J-75756D01*
G01X-965215Y-8839995D01*
G03X-943009Y-8893603I75814J0D01*
G01X-188014Y-9648598D01*
G01X-188014Y-11556881D01*
G03X-201769Y-11536985I-61386J-27735D01*
G01X-1104349Y-10634405D01*
G01X-1104349Y-9372232D01*
G01X-1103010Y-9373606D01*
G01X-383009Y-10093607D01*
G03X-275792Y-9986390I53609J53609D01*
G01X-973587Y-9288595D01*
G01X-973587Y-4311395D01*
G01X-965215Y-4303023D01*
G01X358800Y-3891714D02*
G03X364186Y-3891307I0J35814D01*
G01X364186Y-3954493D01*
G03X358800Y-3954086I-5386J-35407D01*
G01X-141200Y-3954086D01*
G03X-175266Y-3978847I0J-35814D01*
G01X-192298Y-3967862D01*
G03X-231120Y-3967862I-19411J-30098D01*
G01X-266172Y-3990468D01*
G03X-282575Y-4020566I19411J-30098D01*
G01X-282575Y-4080510D01*
G03X-279070Y-4095963I35814J0D01*
G01X-279070Y-4422302D01*
G03X-144348Y-4422302I67361J0D01*
G01X-144348Y-4399575D01*
G03X-141200Y-4399714I3148J35675D01*
G01X-85213Y-4399714D01*
G03X-52901Y-4462086I75814J-280D01*
G01X-141200Y-4462086D01*
G03X-177014Y-4497900I0J-35814D01*
G01X-177014Y-4617900D01*
G03X-141200Y-4653714I35814J0D01*
G01X32986Y-4653714D01*
G01X32986Y-4659995D01*
G03X57794Y-4716086I75814J0D01*
G01X-141200Y-4716086D01*
G03X-177014Y-4751900I0J-35814D01*
G01X-177014Y-4871900D01*
G03X-141200Y-4907714I35814J0D01*
G01X-81834Y-4907714D01*
G03X-85214Y-4930100I72434J-22386D01*
G01X-85214Y-7800000D01*
G03X66414Y-7800000I75814J0D01*
G01X66414Y-4961503D01*
G01X120203Y-4907714D01*
G01X165928Y-4907714D01*
G03X112986Y-4979996I22872J-72282D01*
G01X112986Y-8910398D01*
G01X-63008Y-9086392D01*
G03X-82453Y-9119727I53609J-53609D01*
G01X-93586Y-9108595D01*
G01X-93586Y-8179997D01*
G03X-115791Y-8126388I-75814J0D01*
G01X-813587Y-7428593D01*
G01X-813587Y-4291395D01*
G01X-435792Y-3913600D01*
G03X-414497Y-3871707I-53609J53609D01*
G01X-413492Y-3871714D01*
G01X-173334Y-3871714D01*
G03X-141200Y-3891714I32133J15814D01*
G01X358800Y-3891714D01*
G01X364186Y-1835307D02*
G01X364186Y-2163793D01*
G03X358800Y-2163386I-5386J-35407D01*
G01X323664Y-2163386D01*
G03X248013Y-2082599I-75651J4973D01*
G01X209587Y-2082599D01*
G03X155978Y-2104804I0J-75814D01*
G01X97397Y-2163386D01*
G01X-141200Y-2163386D01*
G03X-177014Y-2199200I0J-35814D01*
G01X-177014Y-2319200D01*
G03X-141200Y-2355014I35814J0D01*
G01X358800Y-2355014D01*
G03X364186Y-2354607I0J35814D01*
G01X364186Y-2417793D01*
G03X358800Y-2417386I-5386J-35407D01*
G01X-141200Y-2417386D01*
G03X-176619Y-2447891I0J-35814D01*
G01X-192298Y-2437779D01*
G03X-231120Y-2437779I-19411J-30098D01*
G01X-266172Y-2460385D01*
G03X-282575Y-2490483I19411J-30098D01*
G01X-282575Y-2514216D01*
G01X-419354Y-2650994D01*
G03X-435792Y-2626390I-70047J-29004D01*
G01X-461118Y-2601064D01*
G03X-397592Y-2579510I9917J75163D01*
G01X-256792Y-2438709D01*
G03X-234586Y-2385101I-53609J53609D01*
G01X-234586Y-1776503D01*
G01X-177014Y-1718931D01*
G01X-177014Y-1799900D01*
G03X-141200Y-1835714I35814J0D01*
G01X-94231Y-1835714D01*
G01X-143008Y-1884491D01*
G03X-35791Y-1991708I53609J-53609D01*
G01X120203Y-1835714D01*
G01X358800Y-1835714D01*
G03X364186Y-1835307I0J35814D01*
G04 Copper End*

G04 Pad Start*
G54D11*
G01X-500000Y1200000D03*
G01X-500000Y-1200000D03*
G01X-500000Y-10800000D03*
G01X-500000Y-13200000D03*
G01X-500000Y-4688200D03*
G01X-500000Y-7311800D03*
G54D12*
G01X108800Y-203200D03*
G01X108800Y50800D03*
G01X108800Y304800D03*
G01X108800Y558800D03*
G01X108800Y812800D03*
G54D13*
G01X108800Y-1739900D03*
G01X108800Y-1485900D03*
G01X108800Y-1231900D03*
G01X108800Y-977900D03*
G01X108800Y-723900D03*
G01X108800Y-3275200D03*
G01X108800Y-3021200D03*
G01X108800Y-2767200D03*
G01X108800Y-2513200D03*
G01X108800Y-2259200D03*
G01X108800Y-4811900D03*
G01X108800Y-4557900D03*
G01X108800Y-4303900D03*
G01X108800Y-4049900D03*
G01X108800Y-3795900D03*
G54D14*
G01X-211709Y661670D03*
G54D15*
G01X-211709Y571500D03*
G54D14*
G01X-211709Y-876300D03*
G54D15*
G01X-211709Y-966470D03*
G54D14*
G01X-211709Y-2418982D03*
G54D15*
G01X-211709Y-2509152D03*
G54D14*
G01X-211709Y-3949065D03*
G54D15*
G01X-211709Y-4039235D03*
G04 Pad End*

G04 Via Start*
G54D16*
G01X145969Y-2370001D03*
G01X-140001Y-3937762D03*
G01X60001Y-8111801D03*
G01X-51200Y718198D03*
G01X-89400Y-1938100D03*
G01X-569400Y-1938100D03*
G01X-489400Y-2679998D03*
G01X-9400Y-12439999D03*
G01X-889401Y-7639993D03*
G01X-631988Y-3118414D03*
G01X328013Y-2638414D03*
G01X248013Y-2158413D03*
G01X-249400Y-12139999D03*
G01X-9400Y-11840000D03*
G01X310601Y-4959992D03*
G01X150600Y-3679990D03*
G01X-9400Y-11540001D03*
G01X-489400Y-3859992D03*
G01X70600Y-3139991D03*
G01X-729401Y-11240001D03*
G01X-809401Y-3719992D03*
G01X-204608Y-3275200D03*
G01X-329400Y-10039999D03*
G01X-211709Y-4422302D03*
G01X-89400Y-9440000D03*
G01X-329400Y-8159998D03*
G01X-9400Y-4399994D03*
G01X-9400Y-9140001D03*
G01X188800Y-4979996D03*
G01X108800Y-4659995D03*
G01X-169400Y440600D03*
G01X-9400Y-7800000D03*
G01X108800Y198200D03*
G01X-211200Y-189200D03*
G01X-131200Y-443200D03*
G01X-89400Y-842100D03*
G01X70600Y-1096100D03*
G01X-169400Y-1350100D03*
G01X-329400Y-1590100D03*
G01X-569400Y-2230101D03*
G01X-451201Y-2525901D03*
G04 Via End*

G04 Track Start*
G54D17*
G01X-500000Y1200000D02*
G01X-260000Y960000D01*
G01X-260000Y719999D01*
G01X-211709Y672973D01*
G01X-260000Y719999D02*
G01X-340000Y639999D01*
G01X-340000Y-736706D01*
G01X-211709Y-864997D01*
G01X-291709Y-864997D01*
G01X-500000Y-1073288D01*
G01X-500000Y-1200000D01*
G01X145969Y-2370001D02*
G01X-174032Y-2370001D01*
G01X-211709Y-2407679D01*
G01X-140001Y-3937762D02*
G01X-211709Y-3937762D01*
G01X-291709Y-3937762D01*
G01X-500000Y-4146053D01*
G01X-500000Y-4688200D01*
G54D19*
G01X-500000Y-4688200D02*
G01X-500000Y-7311800D01*
G01X-500000Y-7551800D01*
G01X60001Y-8111801D01*
G01X108800Y812800D02*
G01X43401Y812800D01*
G01X-51200Y718198D01*
G01X108800Y-1739900D02*
G01X-89400Y-1938100D01*
G01X-569400Y-1938100D02*
G01X-729401Y-2098100D01*
G01X-729401Y-2439998D01*
G01X-489400Y-2679998D01*
G01X-9400Y-12439999D02*
G01X-112200Y-12337198D01*
G01X-112200Y-9617195D01*
G01X-889401Y-8839995D01*
G01X-889401Y-7639993D01*
G01X-631988Y-3118414D02*
G01X-151987Y-2638414D01*
G01X328013Y-2638414D01*
G01X248013Y-2158413D02*
G01X209587Y-2158413D01*
G01X108800Y-2259200D01*
G54D17*
G01X-249400Y-12139999D02*
G01X-249400Y-11584617D01*
G01X-1171710Y-10662307D01*
G01X-1171710Y-4262299D01*
G01X-691710Y-3782299D01*
G01X-691710Y-3382298D01*
G01X-771710Y-3302298D01*
G01X-771710Y-3098613D01*
G01X-211709Y-2538612D01*
G01X-211709Y-2520455D01*
G01X101545Y-2520455D01*
G01X108800Y-2513200D01*
G54D19*
G01X-9400Y-11840000D02*
G01X310601Y-11520000D01*
G01X310601Y-4959992D01*
G01X150600Y-3679990D02*
G01X28800Y-3679990D01*
G01X-371201Y-3279990D01*
G01X-371201Y-3087200D01*
G01X-51200Y-2767200D01*
G01X108800Y-2767200D01*
G01X-9400Y-11540001D02*
G01X70600Y-11460000D01*
G01X70600Y-9379998D01*
G01X-169400Y-9139998D01*
G01X-169400Y-8179997D01*
G01X-889401Y-7459996D01*
G01X-889401Y-4259992D01*
G01X-489400Y-3859992D01*
G01X70600Y-3139991D02*
G01X70600Y-3059400D01*
G01X108800Y-3021200D01*
G01X-729401Y-11240001D02*
G01X-1289401Y-10680000D01*
G01X-1289401Y-4199993D01*
G01X-809401Y-3719992D01*
G01X-204608Y-3275200D02*
G01X108800Y-3275200D01*
G01X-329400Y-10039999D02*
G01X-1049401Y-9319998D01*
G01X-1049401Y-4279992D01*
G01X-527355Y-3757945D01*
G01X-451446Y-3757945D01*
G01X-413492Y-3795900D01*
G01X108800Y-3795900D01*
G54D17*
G01X-211709Y-4422302D02*
G01X-211709Y-4050538D01*
G01X108800Y-4049900D01*
G54D19*
G01X-89400Y-9440000D02*
G01X-329400Y-9200000D01*
G01X-329400Y-8159998D01*
G01X-9400Y-4399994D02*
G01X12706Y-4399994D01*
G01X108800Y-4303900D01*
G01X-9400Y-9140001D02*
G01X188800Y-8941801D01*
G01X188800Y-4979996D01*
G01X108800Y-4659995D02*
G01X108800Y-4557900D01*
G54D17*
G01X108800Y558800D02*
G01X-131200Y558800D01*
G01X-211709Y560197D01*
G01X-131200Y558800D02*
G01X-131200Y478800D01*
G01X-169400Y440600D01*
G54D19*
G01X-9400Y-7800000D02*
G01X-9400Y-4930100D01*
G01X108800Y-4811900D01*
G01X108800Y304800D02*
G01X108800Y198200D01*
G01X108800Y50800D02*
G01X-51200Y50800D01*
G01X-211200Y-109200D01*
G01X-211200Y-189200D01*
G01X108800Y-203200D02*
G01X-131200Y-443200D01*
G01X108800Y-723900D02*
G01X28800Y-723900D01*
G01X-89400Y-842100D01*
G54D17*
G01X-47599Y-977900D02*
G01X70600Y-1096100D01*
G54D19*
G01X108800Y-1231900D02*
G01X-51200Y-1231900D01*
G01X-169400Y-1350100D01*
G01X-329400Y-1590100D02*
G01X-409400Y-1670100D01*
G01X-409400Y-2070101D01*
G01X-569400Y-2230101D01*
G01X108800Y-1485900D02*
G01X-51200Y-1485900D01*
G01X-310400Y-1745100D01*
G01X-310400Y-2385101D01*
G01X-451201Y-2525901D01*
G54D17*
G01X108800Y-977900D02*
G01X-47599Y-977900D01*
G01X-211582Y-977900D01*
G04 Track End*

M02*

