G04 Layer: TopLayer*
G04 EasyEDA Pro v2.2.34.8, 2025-01-04 05:47:55*
G04 Gerber Generator version 0.3*
G04 Scale: 100 percent, Rotated: No, Reflected: No*
G04 Dimensions in millimeters*
G04 Leading zeros omitted, absolute positions, 4 integers and 5 decimals*
%FSLAX45Y45*%
%MOMM*%
%ADD10C,0.2032*%
%ADD11C,6.0*%
%ADD12R,1.8X0.9*%
%ADD13R,4.5X1.6*%
%ADD14O,7.0X2.5*%
%ADD15C,0.61*%
%ADD16C,0.63094*%
%ADD17C,0.8053*%
%ADD18C,0.8*%
G75*


G04 Copper Start*
G36*
G01X364186Y1764186D02*
G01X364186Y-2167368D01*
G01X301622Y-2104804D01*
G03X194405Y-2212022I-53609J-53609D01*
G01X252199Y-2269816D01*
G01X252199Y-2638414D01*
G03X364186Y-2705042I75814J0D01*
G01X364186Y-3786359D01*
G01X204209Y-3626382D01*
G03X96992Y-3733599I-53609J-53609D01*
G01X234787Y-3871394D01*
G01X234787Y-4678765D01*
G01X162409Y-4606387D01*
G03X55191Y-4713604I-53609J-53609D01*
G01X112986Y-4771399D01*
G01X112986Y-4979996D01*
G03X256836Y-5013444I75814J0D01*
G03X364186Y-5013624I53764J53453D01*
G01X364186Y-13764186D01*
G01X-1364186Y-13764186D01*
G01X-1364186Y-12680551D01*
G03X-1225000Y-12760814I139186J80551D01*
G01X-775000Y-12760814D01*
G03X-633178Y-12675813I0J160814D01*
G01X-430214Y-12675813D01*
G01X-430214Y-12679999D01*
G03X-394400Y-12715813I35814J0D01*
G01X55600Y-12715813D01*
G03X91414Y-12679999I0J35814D01*
G01X91414Y-12519999D01*
G03X55600Y-12484185I-35814J0D01*
G01X52207Y-12484185D01*
G03X62241Y-12415192I-61606J44186D01*
G03X91414Y-12379999I-6641J35193D01*
G01X91414Y-12220000D01*
G03X55600Y-12184186I-35814J0D01*
G01X-182039Y-12184186D01*
G01X-182039Y-12139999D01*
G03X-186531Y-12115814I-67361J0D01*
G01X55600Y-12115814D01*
G03X91414Y-12080000I0J35814D01*
G01X91414Y-11920000D01*
G03X55600Y-11884186I-35814J0D01*
G01X52207Y-11884186D01*
G03X62241Y-11815193I-61606J44186D01*
G03X91414Y-11780001I-6641J35193D01*
G01X91414Y-11620001D01*
G03X55600Y-11584187I-35814J0D01*
G01X52207Y-11584187D01*
G03X62241Y-11515194I-61606J44186D01*
G03X91414Y-11480001I-6641J35193D01*
G01X91414Y-11320001D01*
G03X55600Y-11284187I-35814J0D01*
G01X-394400Y-11284187D01*
G03X-430214Y-11320001I0J-35814D01*
G01X-430214Y-11324187D01*
G01X-617997Y-11324187D01*
G01X-653587Y-11288598D01*
G01X-653587Y-11240001D01*
G03X-805210Y-11239186I-75814J0D01*
G01X-1225000Y-11239186D01*
G03X-1364186Y-11319449I0J-160814D01*
G01X-1364186Y-10280551D01*
G03X-1225000Y-10360814I139186J80551D01*
G01X-775000Y-10360814D01*
G03X-614240Y-10195813I0J160814D01*
G01X-440803Y-10195813D01*
G01X-430214Y-10206402D01*
G01X-430214Y-10279999D01*
G03X-394400Y-10315813I35814J0D01*
G01X55600Y-10315813D01*
G03X91414Y-10279999I0J35814D01*
G01X91414Y-10119999D01*
G03X55600Y-10084185I-35814J0D01*
G01X-267794Y-10084185D01*
G03X-257547Y-10015813I-61606J44186D01*
G01X55600Y-10015813D01*
G03X91414Y-9979999I0J35814D01*
G01X91414Y-9820000D01*
G03X91038Y-9814824I-35814J0D01*
G01X155923Y-9749940D01*
G03X175652Y-9702308I-47631J47631D01*
G01X175652Y-8502307D01*
G03X155923Y-8454676I-67361J0D01*
G01X15652Y-8314405D01*
G01X15652Y-8050208D01*
G01X179354Y-7886506D01*
G03X199084Y-7838875I-47631J47631D01*
G01X199084Y-5325735D01*
G03X179354Y-5278103I-67361J0D01*
G01X-64348Y-5034401D01*
G01X-64348Y-4502302D01*
G03X-84078Y-4454671I-67361J0D01*
G01X-142941Y-4395808D01*
G01X-120803Y-4395808D01*
G01X-63008Y-4453603D01*
G03X44209Y-4346385I53609J53609D01*
G01X-35791Y-4266385D01*
G03X-89400Y-4244180I-53609J-53609D01*
G01X-649401Y-4244180D01*
G03X-703009Y-4266385I0J-75814D01*
G01X-943009Y-4506386D01*
G03X-965215Y-4559994I53609J-53609D01*
G01X-965215Y-7439998D01*
G03X-962659Y-7459518I75814J0D01*
G01X-973587Y-7448590D01*
G01X-973587Y-3567231D01*
G01X-578379Y-3172023D01*
G03X-594606Y-3052457I-53609J53609D01*
G01X-457992Y-2915813D01*
G01X-429969Y-2915813D01*
G03X-430214Y-2919999I35568J-4186D01*
G01X-430214Y-3079999D01*
G03X-394400Y-3115813I35814J0D01*
G01X-12439Y-3115813D01*
G01X-137176Y-3240550D01*
G03X-258217Y-3221591I-67432J-34650D01*
G01X-680804Y-3644178D01*
G01X-809401Y-3644178D01*
G03X-809401Y-3795806I0J-75814D01*
G01X-649401Y-3795806D01*
G03X-595792Y-3773601I0J75814D01*
G01X-565214Y-3743023D01*
G01X-565214Y-3859992D01*
G03X-413586Y-3859992I75814J0D01*
G01X-413586Y-3731395D01*
G01X124209Y-3193599D01*
G03X91414Y-3067090I-53609J53609D01*
G01X91414Y-2919999D01*
G03X55600Y-2884185I-35814J0D01*
G01X-177997Y-2884185D01*
G01X-246368Y-2815813D01*
G01X55600Y-2815813D01*
G03X91414Y-2779999I0J35814D01*
G01X91414Y-2620000D01*
G03X55600Y-2584186I-35814J0D01*
G01X-285699Y-2584186D01*
G01X-354071Y-2515814D01*
G01X55600Y-2515814D01*
G03X91414Y-2480000I0J35814D01*
G01X91414Y-2320000D01*
G03X55600Y-2284186I-35814J0D01*
G01X-394400Y-2284186D01*
G03X-406124Y-2286160I0J-35814D01*
G01X-515792Y-2176492D01*
G01X-516478Y-2175815D01*
G01X-430214Y-2175815D01*
G01X-430214Y-2180000D01*
G03X-394400Y-2215814I35814J0D01*
G01X55600Y-2215814D01*
G03X91414Y-2180000I0J35814D01*
G01X91414Y-2020001D01*
G03X91038Y-2014825I-35814J0D01*
G01X162131Y-1943732D01*
G03X181861Y-1896101I-47631J47631D01*
G01X181861Y-1139999D01*
G03X162131Y-1092368I-67361J0D01*
G01X118232Y-1048468D01*
G03X22969Y-1143731I-47631J-47631D01*
G01X47139Y-1167901D01*
G01X47139Y-1271592D01*
G03X44209Y-1268492I-56539J-50508D01*
G01X-13586Y-1210697D01*
G01X-13586Y-842100D01*
G03X-165214Y-842100I-75814J0D01*
G01X-165214Y-1242100D01*
G03X-157602Y-1275209I75814J0D01*
G03X-245214Y-1350100I-11798J-74890D01*
G01X-245214Y-1398697D01*
G01X-383009Y-1536491D01*
G03X-275792Y-1643709I53609J-53609D01*
G01X-115791Y-1483708D01*
G03X-93586Y-1430100I-53609J53609D01*
G01X-93586Y-1350100D01*
G03X-93761Y-1344957I-75814J0D01*
G01X-85214Y-1353503D01*
G01X-85214Y-1608598D01*
G01X-160803Y-1684187D01*
G01X-394400Y-1684187D01*
G03X-430214Y-1720001I0J-35814D01*
G01X-430214Y-1724187D01*
G01X-633178Y-1724187D01*
G03X-775000Y-1639186I-141822J-75813D01*
G01X-1225000Y-1639186D01*
G03X-1364186Y-1719449I0J-160814D01*
G01X-1364186Y-680551D01*
G03X-1225000Y-760814I139186J80551D01*
G01X-775000Y-760814D01*
G03X-633178Y-675813I0J160814D01*
G01X-430214Y-675813D01*
G01X-430214Y-679999D01*
G03X-394400Y-715813I35814J0D01*
G01X55600Y-715813D01*
G03X91414Y-679999I0J35814D01*
G01X91414Y-519999D01*
G03X55600Y-484185I-35814J0D01*
G01X-55386Y-484185D01*
G01X-55386Y-443200D01*
G03X-60506Y-415813I-75814J0D01*
G01X55600Y-415813D01*
G03X91414Y-379999I0J35814D01*
G01X91414Y-220000D01*
G03X55600Y-184186I-35814J0D01*
G01X-135552Y-184186D01*
G03X-192169Y-115814I-75648J-5015D01*
G01X55600Y-115814D01*
G03X91414Y-80000I0J35814D01*
G01X91414Y-6403D01*
G01X162409Y64591D01*
G03X184614Y118200I-53609J53609D01*
G01X184614Y198200D01*
G03X91414Y271993I-75814J0D01*
G01X91414Y379999D01*
G03X55600Y415813I-35814J0D01*
G01X-102039Y415813D01*
G01X-102039Y440600D01*
G03X-118040Y484185I-67361J0D01*
G01X55600Y484185D01*
G03X91414Y519999I0J35814D01*
G01X91414Y679999D01*
G03X55600Y715813I-35814J0D01*
G01X24576Y715813D01*
G03X-104809Y771807I-75776J2386D01*
G01X-160803Y715813D01*
G01X-394400Y715813D01*
G03X-430214Y679999I0J-35814D01*
G01X-430214Y675813D01*
G01X-633178Y675813D01*
G03X-775000Y760814I-141822J-75813D01*
G01X-1225000Y760814D01*
G03X-1364186Y680551I0J-160814D01*
G01X-1364186Y1764186D01*
G01X364186Y1764186D01*
G37*
G36*
G01X-1364186Y-8919449D02*
G01X-1364186Y-3080551D01*
G03X-1225000Y-3160814I139186J80551D01*
G01X-781605Y-3160814D01*
G01X-1103010Y-3482219D01*
G03X-1125215Y-3535827I53609J-53609D01*
G01X-1125215Y-7479993D01*
G03X-1103010Y-7533602I75814J0D01*
G01X-943009Y-7693602D01*
G03X-816143Y-7620473I53609J53609D01*
G01X-405214Y-8031401D01*
G01X-405214Y-8159998D01*
G03X-253586Y-8159998I75814J0D01*
G01X-253586Y-7999998D01*
G03X-275792Y-7946390I-75814J0D01*
G01X-813587Y-7408594D01*
G01X-813587Y-4591397D01*
G01X-617997Y-4395808D01*
G01X-273641Y-4395808D01*
G03X-259340Y-4469933I61932J-26494D01*
G01X-199070Y-4530204D01*
G01X-199070Y-5062303D01*
G03X-179340Y-5109934I67361J0D01*
G01X64362Y-5353636D01*
G01X64362Y-7782480D01*
G03X-63008Y-7746391I-73762J-17520D01*
G01X-223009Y-7906391D01*
G03X-245214Y-7960000I53609J-53609D01*
G01X-245214Y-8884187D01*
G01X-394400Y-8884187D01*
G03X-430214Y-8920001I0J-35814D01*
G01X-430214Y-8924187D01*
G01X-633178Y-8924187D01*
G03X-775000Y-8839186I-141822J-75813D01*
G01X-1225000Y-8839186D01*
G03X-1364186Y-8919449I0J-160814D01*
G37*
G54D10*
G01X364186Y1764186D02*
G01X364186Y-2167368D01*
G01X301622Y-2104804D01*
G03X194405Y-2212022I-53609J-53609D01*
G01X252199Y-2269816D01*
G01X252199Y-2638414D01*
G03X364186Y-2705042I75814J0D01*
G01X364186Y-3786359D01*
G01X204209Y-3626382D01*
G03X96992Y-3733599I-53609J-53609D01*
G01X234787Y-3871394D01*
G01X234787Y-4678765D01*
G01X162409Y-4606387D01*
G03X55191Y-4713604I-53609J-53609D01*
G01X112986Y-4771399D01*
G01X112986Y-4979996D01*
G03X256836Y-5013444I75814J0D01*
G03X364186Y-5013624I53764J53453D01*
G01X364186Y-13764186D01*
G01X-1364186Y-13764186D01*
G01X-1364186Y-12680551D01*
G03X-1225000Y-12760814I139186J80551D01*
G01X-775000Y-12760814D01*
G03X-633178Y-12675813I0J160814D01*
G01X-430214Y-12675813D01*
G01X-430214Y-12679999D01*
G03X-394400Y-12715813I35814J0D01*
G01X55600Y-12715813D01*
G03X91414Y-12679999I0J35814D01*
G01X91414Y-12519999D01*
G03X55600Y-12484185I-35814J0D01*
G01X52207Y-12484185D01*
G03X62241Y-12415192I-61606J44186D01*
G03X91414Y-12379999I-6641J35193D01*
G01X91414Y-12220000D01*
G03X55600Y-12184186I-35814J0D01*
G01X-182039Y-12184186D01*
G01X-182039Y-12139999D01*
G03X-186531Y-12115814I-67361J0D01*
G01X55600Y-12115814D01*
G03X91414Y-12080000I0J35814D01*
G01X91414Y-11920000D01*
G03X55600Y-11884186I-35814J0D01*
G01X52207Y-11884186D01*
G03X62241Y-11815193I-61606J44186D01*
G03X91414Y-11780001I-6641J35193D01*
G01X91414Y-11620001D01*
G03X55600Y-11584187I-35814J0D01*
G01X52207Y-11584187D01*
G03X62241Y-11515194I-61606J44186D01*
G03X91414Y-11480001I-6641J35193D01*
G01X91414Y-11320001D01*
G03X55600Y-11284187I-35814J0D01*
G01X-394400Y-11284187D01*
G03X-430214Y-11320001I0J-35814D01*
G01X-430214Y-11324187D01*
G01X-617997Y-11324187D01*
G01X-653587Y-11288598D01*
G01X-653587Y-11240001D01*
G03X-805210Y-11239186I-75814J0D01*
G01X-1225000Y-11239186D01*
G03X-1364186Y-11319449I0J-160814D01*
G01X-1364186Y-10280551D01*
G03X-1225000Y-10360814I139186J80551D01*
G01X-775000Y-10360814D01*
G03X-614240Y-10195813I0J160814D01*
G01X-440803Y-10195813D01*
G01X-430214Y-10206402D01*
G01X-430214Y-10279999D01*
G03X-394400Y-10315813I35814J0D01*
G01X55600Y-10315813D01*
G03X91414Y-10279999I0J35814D01*
G01X91414Y-10119999D01*
G03X55600Y-10084185I-35814J0D01*
G01X-267794Y-10084185D01*
G03X-257547Y-10015813I-61606J44186D01*
G01X55600Y-10015813D01*
G03X91414Y-9979999I0J35814D01*
G01X91414Y-9820000D01*
G03X91038Y-9814824I-35814J0D01*
G01X155923Y-9749940D01*
G03X175652Y-9702308I-47631J47631D01*
G01X175652Y-8502307D01*
G03X155923Y-8454676I-67361J0D01*
G01X15652Y-8314405D01*
G01X15652Y-8050208D01*
G01X179354Y-7886506D01*
G03X199084Y-7838875I-47631J47631D01*
G01X199084Y-5325735D01*
G03X179354Y-5278103I-67361J0D01*
G01X-64348Y-5034401D01*
G01X-64348Y-4502302D01*
G03X-84078Y-4454671I-67361J0D01*
G01X-142941Y-4395808D01*
G01X-120803Y-4395808D01*
G01X-63008Y-4453603D01*
G03X44209Y-4346385I53609J53609D01*
G01X-35791Y-4266385D01*
G03X-89400Y-4244180I-53609J-53609D01*
G01X-649401Y-4244180D01*
G03X-703009Y-4266385I0J-75814D01*
G01X-943009Y-4506386D01*
G03X-965215Y-4559994I53609J-53609D01*
G01X-965215Y-7439998D01*
G03X-962659Y-7459518I75814J0D01*
G01X-973587Y-7448590D01*
G01X-973587Y-3567231D01*
G01X-578379Y-3172023D01*
G03X-594606Y-3052457I-53609J53609D01*
G01X-457992Y-2915813D01*
G01X-429969Y-2915813D01*
G03X-430214Y-2919999I35568J-4186D01*
G01X-430214Y-3079999D01*
G03X-394400Y-3115813I35814J0D01*
G01X-12439Y-3115813D01*
G01X-137176Y-3240550D01*
G03X-258217Y-3221591I-67432J-34650D01*
G01X-680804Y-3644178D01*
G01X-809401Y-3644178D01*
G03X-809401Y-3795806I0J-75814D01*
G01X-649401Y-3795806D01*
G03X-595792Y-3773601I0J75814D01*
G01X-565214Y-3743023D01*
G01X-565214Y-3859992D01*
G03X-413586Y-3859992I75814J0D01*
G01X-413586Y-3731395D01*
G01X124209Y-3193599D01*
G03X91414Y-3067090I-53609J53609D01*
G01X91414Y-2919999D01*
G03X55600Y-2884185I-35814J0D01*
G01X-177997Y-2884185D01*
G01X-246368Y-2815813D01*
G01X55600Y-2815813D01*
G03X91414Y-2779999I0J35814D01*
G01X91414Y-2620000D01*
G03X55600Y-2584186I-35814J0D01*
G01X-285699Y-2584186D01*
G01X-354071Y-2515814D01*
G01X55600Y-2515814D01*
G03X91414Y-2480000I0J35814D01*
G01X91414Y-2320000D01*
G03X55600Y-2284186I-35814J0D01*
G01X-394400Y-2284186D01*
G03X-406124Y-2286160I0J-35814D01*
G01X-515792Y-2176492D01*
G01X-516478Y-2175815D01*
G01X-430214Y-2175815D01*
G01X-430214Y-2180000D01*
G03X-394400Y-2215814I35814J0D01*
G01X55600Y-2215814D01*
G03X91414Y-2180000I0J35814D01*
G01X91414Y-2020001D01*
G03X91038Y-2014825I-35814J0D01*
G01X162131Y-1943732D01*
G03X181861Y-1896101I-47631J47631D01*
G01X181861Y-1139999D01*
G03X162131Y-1092368I-67361J0D01*
G01X118232Y-1048468D01*
G03X22969Y-1143731I-47631J-47631D01*
G01X47139Y-1167901D01*
G01X47139Y-1271592D01*
G03X44209Y-1268492I-56539J-50508D01*
G01X-13586Y-1210697D01*
G01X-13586Y-842100D01*
G03X-165214Y-842100I-75814J0D01*
G01X-165214Y-1242100D01*
G03X-157602Y-1275209I75814J0D01*
G03X-245214Y-1350100I-11798J-74890D01*
G01X-245214Y-1398697D01*
G01X-383009Y-1536491D01*
G03X-275792Y-1643709I53609J-53609D01*
G01X-115791Y-1483708D01*
G03X-93586Y-1430100I-53609J53609D01*
G01X-93586Y-1350100D01*
G03X-93761Y-1344957I-75814J0D01*
G01X-85214Y-1353503D01*
G01X-85214Y-1608598D01*
G01X-160803Y-1684187D01*
G01X-394400Y-1684187D01*
G03X-430214Y-1720001I0J-35814D01*
G01X-430214Y-1724187D01*
G01X-633178Y-1724187D01*
G03X-775000Y-1639186I-141822J-75813D01*
G01X-1225000Y-1639186D01*
G03X-1364186Y-1719449I0J-160814D01*
G01X-1364186Y-680551D01*
G03X-1225000Y-760814I139186J80551D01*
G01X-775000Y-760814D01*
G03X-633178Y-675813I0J160814D01*
G01X-430214Y-675813D01*
G01X-430214Y-679999D01*
G03X-394400Y-715813I35814J0D01*
G01X55600Y-715813D01*
G03X91414Y-679999I0J35814D01*
G01X91414Y-519999D01*
G03X55600Y-484185I-35814J0D01*
G01X-55386Y-484185D01*
G01X-55386Y-443200D01*
G03X-60506Y-415813I-75814J0D01*
G01X55600Y-415813D01*
G03X91414Y-379999I0J35814D01*
G01X91414Y-220000D01*
G03X55600Y-184186I-35814J0D01*
G01X-135552Y-184186D01*
G03X-192169Y-115814I-75648J-5015D01*
G01X55600Y-115814D01*
G03X91414Y-80000I0J35814D01*
G01X91414Y-6403D01*
G01X162409Y64591D01*
G03X184614Y118200I-53609J53609D01*
G01X184614Y198200D01*
G03X91414Y271993I-75814J0D01*
G01X91414Y379999D01*
G03X55600Y415813I-35814J0D01*
G01X-102039Y415813D01*
G01X-102039Y440600D01*
G03X-118040Y484185I-67361J0D01*
G01X55600Y484185D01*
G03X91414Y519999I0J35814D01*
G01X91414Y679999D01*
G03X55600Y715813I-35814J0D01*
G01X24576Y715813D01*
G03X-104809Y771807I-75776J2386D01*
G01X-160803Y715813D01*
G01X-394400Y715813D01*
G03X-430214Y679999I0J-35814D01*
G01X-430214Y675813D01*
G01X-633178Y675813D01*
G03X-775000Y760814I-141822J-75813D01*
G01X-1225000Y760814D01*
G03X-1364186Y680551I0J-160814D01*
G01X-1364186Y1764186D01*
G01X364186Y1764186D01*
G01X-1364186Y-8919449D02*
G01X-1364186Y-3080551D01*
G03X-1225000Y-3160814I139186J80551D01*
G01X-781605Y-3160814D01*
G01X-1103010Y-3482219D01*
G03X-1125215Y-3535827I53609J-53609D01*
G01X-1125215Y-7479993D01*
G03X-1103010Y-7533602I75814J0D01*
G01X-943009Y-7693602D01*
G03X-816143Y-7620473I53609J53609D01*
G01X-405214Y-8031401D01*
G01X-405214Y-8159998D01*
G03X-253586Y-8159998I75814J0D01*
G01X-253586Y-7999998D01*
G03X-275792Y-7946390I-75814J0D01*
G01X-813587Y-7408594D01*
G01X-813587Y-4591397D01*
G01X-617997Y-4395808D01*
G01X-273641Y-4395808D01*
G03X-259340Y-4469933I61932J-26494D01*
G01X-199070Y-4530204D01*
G01X-199070Y-5062303D01*
G03X-179340Y-5109934I67361J0D01*
G01X64362Y-5353636D01*
G01X64362Y-7782480D01*
G03X-63008Y-7746391I-73762J-17520D01*
G01X-223009Y-7906391D01*
G03X-245214Y-7960000I53609J-53609D01*
G01X-245214Y-8884187D01*
G01X-394400Y-8884187D01*
G03X-430214Y-8920001I0J-35814D01*
G01X-430214Y-8924187D01*
G01X-633178Y-8924187D01*
G03X-775000Y-8839186I-141822J-75813D01*
G01X-1225000Y-8839186D01*
G03X-1364186Y-8919449I0J-160814D01*
G04 Copper End*

G04 Pad Start*
G54D11*
G01X-500000Y1200000D03*
G01X-500000Y-1200000D03*
G01X-500000Y-10800000D03*
G01X-500000Y-13200000D03*
G01X-500000Y-4688200D03*
G01X-500000Y-7311800D03*
G54D12*
G01X259999Y-449999D03*
G01X259999Y449999D03*
G54D13*
G01X-169400Y599999D03*
G01X-169400Y299999D03*
G01X-169400Y0D03*
G01X-169400Y-299999D03*
G01X-169400Y-599999D03*
G54D12*
G01X259999Y-12449999D03*
G01X259999Y-11550001D03*
G54D13*
G01X-169400Y-11400001D03*
G01X-169400Y-11700001D03*
G01X-169400Y-12000000D03*
G01X-169400Y-12300000D03*
G01X-169400Y-12599999D03*
G54D12*
G01X259999Y-2849999D03*
G01X259999Y-1950001D03*
G54D13*
G01X-169400Y-1800001D03*
G01X-169400Y-2100001D03*
G01X-169400Y-2400000D03*
G01X-169400Y-2699999D03*
G01X-169400Y-2999999D03*
G54D12*
G01X259999Y-10049999D03*
G01X259999Y-9150001D03*
G54D13*
G01X-169400Y-9000001D03*
G01X-169400Y-9300001D03*
G01X-169400Y-9600000D03*
G01X-169400Y-9900000D03*
G01X-169400Y-10199999D03*
G54D14*
G01X-1000000Y-2400000D03*
G01X-1000000Y-2700000D03*
G01X-1000000Y-3000000D03*
G01X-1000000Y-2100000D03*
G01X-1000000Y-1800000D03*
G01X-1000000Y-9600000D03*
G01X-1000000Y-9900000D03*
G01X-1000000Y-10200000D03*
G01X-1000000Y-9300000D03*
G01X-1000000Y-9000000D03*
G01X-1000000Y-12000000D03*
G01X-1000000Y-12300000D03*
G01X-1000000Y-12600000D03*
G01X-1000000Y-11700000D03*
G01X-1000000Y-11400000D03*
G01X-1000000Y0D03*
G01X-1000000Y-300000D03*
G01X-1000000Y-600000D03*
G01X-1000000Y300000D03*
G01X-1000000Y600000D03*
G04 Pad End*

G04 Via Start*
G54D15*
G01X145969Y-2370001D03*
G01X-140001Y-3937762D03*
G01X60001Y-8111801D03*
G01X-51200Y718198D03*
G01X-89400Y-1938100D03*
G01X-569400Y-1938100D03*
G01X-489400Y-2679998D03*
G01X-9400Y-12439999D03*
G01X-889401Y-7639993D03*
G01X-631988Y-3118414D03*
G01X328013Y-2638414D03*
G01X248013Y-2158413D03*
G01X-249400Y-12139999D03*
G01X-9400Y-11840000D03*
G01X310601Y-4959992D03*
G01X150600Y-3679990D03*
G01X-9400Y-11540001D03*
G01X-489400Y-3859992D03*
G01X70600Y-3139991D03*
G01X-729401Y-11240001D03*
G01X-809401Y-3719992D03*
G01X-204608Y-3275200D03*
G01X-329400Y-10039999D03*
G01X-211709Y-4422302D03*
G01X-89400Y-9440000D03*
G01X-329400Y-8159998D03*
G01X-9400Y-4399994D03*
G01X-9400Y-9140001D03*
G01X188800Y-4979996D03*
G01X108800Y-4659995D03*
G01X-169400Y440600D03*
G01X-9400Y-7800000D03*
G01X108800Y198200D03*
G01X-211200Y-189200D03*
G01X-131200Y-443200D03*
G01X-89400Y-842100D03*
G01X70600Y-1096100D03*
G01X-169400Y-1350100D03*
G01X-329400Y-1590100D03*
G01X-569400Y-2230101D03*
G01X-451201Y-2525901D03*
G04 Via End*

G04 Track Start*
G54D16*
G01X-500000Y1200000D02*
G01X-340000Y1200000D01*
G01X220001Y639999D01*
G01X220001Y489998D01*
G01X259999Y449999D01*
G54D18*
G01X259999Y449999D02*
G01X259999Y-449999D01*
G54D16*
G01X259999Y-1935970D02*
G01X145969Y-2050001D01*
G01X145969Y-2370001D01*
G01X145969Y-2735968D01*
G01X259999Y-2849999D01*
G01X259999Y-3089999D01*
G01X-140001Y-3490000D01*
G01X-140001Y-3937762D01*
G54D18*
G01X60001Y-8111801D02*
G01X259999Y-8311800D01*
G01X259999Y-9150001D01*
G01X259999Y-10049999D01*
G01X259999Y-10200001D01*
G01X-310000Y-10770000D01*
G01X-470000Y-10770000D01*
G01X-500000Y-10800000D01*
G01X-310000Y-10770000D02*
G01X259999Y-11339999D01*
G01X259999Y-11550001D01*
G01X259999Y-12449999D01*
G01X259999Y-12600001D01*
G01X-310000Y-13170000D01*
G01X-470000Y-13170000D01*
G01X-500000Y-13200000D01*
G01X-51200Y718198D02*
G01X-169400Y599999D01*
G01X-999999Y599999D01*
G01X-89400Y-1938100D02*
G01X-569400Y-1938100D01*
G01X-489400Y-2679998D02*
G01X-489400Y-2839999D01*
G01X-329400Y-2839999D01*
G01X-169400Y-2999999D01*
G01X-489400Y-2839999D02*
G01X-649402Y-3000000D01*
G01X-1000000Y-3000000D01*
G01X-169400Y-12599999D02*
G01X-999999Y-12599999D01*
G01X-169400Y-12599999D02*
G01X-9400Y-12439999D01*
G01X-889401Y-7639993D02*
G01X-1049401Y-7479993D01*
G01X-1049401Y-3535827D01*
G01X-631988Y-3118414D01*
G01X328013Y-2638414D02*
G01X328013Y-2238413D01*
G01X248013Y-2158413D01*
G54D16*
G01X-249400Y-12300000D02*
G01X-249400Y-12139999D01*
G54D18*
G01X-169400Y-12000000D02*
G01X-1000000Y-12000000D01*
G01X-169400Y-12000000D02*
G01X-9400Y-11840000D01*
G01X310601Y-4959992D02*
G01X310601Y-3839991D01*
G01X150600Y-3679990D01*
G01X-169400Y-11700001D02*
G01X-999999Y-11700001D01*
G01X-169400Y-11700001D02*
G01X-9400Y-11540001D01*
G01X-489400Y-3859992D02*
G01X-489400Y-3699991D01*
G01X70600Y-3139991D01*
G01X-169400Y-11400001D02*
G01X-649401Y-11400001D01*
G01X-729401Y-11320001D01*
G01X-920001Y-11320001D01*
G01X-1000000Y-11400000D01*
G01X-729401Y-11320001D02*
G01X-729401Y-11240001D01*
G01X-809401Y-3719992D02*
G01X-649401Y-3719992D01*
G01X-204608Y-3275200D01*
G01X-169400Y-10199999D02*
G01X-329400Y-10199999D01*
G01X-409400Y-10119999D01*
G01X-919999Y-10119999D01*
G01X-1000000Y-10200000D01*
G01X-409400Y-10119999D02*
G01X-329400Y-10039999D01*
G54D16*
G01X-89400Y-9900000D02*
G01X108291Y-9702308D01*
G01X108291Y-8502307D01*
G01X-51709Y-8342307D01*
G01X-51709Y-8022306D01*
G01X131723Y-7838875D01*
G01X131723Y-5325735D01*
G01X-131709Y-5062303D01*
G01X-131709Y-4502302D01*
G01X-211709Y-4422302D01*
G54D18*
G01X-169400Y-9600000D02*
G01X-1000000Y-9600000D01*
G01X-169400Y-9600000D02*
G01X-169400Y-9520000D01*
G01X-89400Y-9440000D01*
G01X-329400Y-8159998D02*
G01X-329400Y-7999998D01*
G01X-889401Y-7439998D01*
G01X-889401Y-4559994D01*
G01X-649401Y-4319994D01*
G01X-89400Y-4319994D01*
G01X-9400Y-4399994D01*
G01X-169400Y-9300001D02*
G01X-1000000Y-9300001D01*
G01X-169400Y-9300001D02*
G01X-9400Y-9140001D01*
G01X188800Y-4979996D02*
G01X188800Y-4739995D01*
G01X108800Y-4659995D01*
G54D16*
G01X-169400Y440600D02*
G01X-169400Y299999D01*
G01X-1000000Y299999D01*
G54D18*
G01X-169400Y-9000001D02*
G01X-999999Y-9000001D01*
G01X-169400Y-9000001D02*
G01X-169400Y-7960000D01*
G01X-9400Y-7800000D01*
G01X108800Y198200D02*
G01X108800Y118200D01*
G01X28800Y38200D01*
G01X-131200Y38200D01*
G01X-169400Y0D01*
G01X-1000000Y0D01*
G01X-211200Y-189200D02*
G01X-211200Y-258199D01*
G01X-169400Y-299999D01*
G01X-211200Y-258199D02*
G01X-958199Y-258199D01*
G01X-1000000Y-300000D01*
G01X-131200Y-443200D02*
G01X-131200Y-561799D01*
G01X-169400Y-599999D01*
G01X-999999Y-599999D01*
G01X-89400Y-842100D02*
G01X-89400Y-1242100D01*
G01X-9400Y-1322100D01*
G01X-9400Y-1640001D01*
G01X-169400Y-1800001D01*
G01X-999999Y-1800001D01*
G54D16*
G01X70600Y-1096100D02*
G01X114500Y-1139999D01*
G01X114500Y-1896101D01*
G01X-89400Y-2100001D01*
G01X-169400Y-2100001D01*
G54D18*
G01X-169400Y-2100001D02*
G01X-1000000Y-2100001D01*
G01X-169400Y-1350100D02*
G01X-169400Y-1430100D01*
G01X-329400Y-1590100D01*
G01X-569400Y-2230101D02*
G01X-399501Y-2400000D01*
G01X-169400Y-2400000D01*
G01X-569400Y-2230101D02*
G01X-739300Y-2400000D01*
G01X-1000000Y-2400000D01*
G01X-451201Y-2525901D02*
G01X-277103Y-2699999D01*
G01X-169400Y-2699999D01*
G01X-451201Y-2525901D02*
G01X-531201Y-2525901D01*
G01X-691201Y-2685901D01*
G01X-985902Y-2685901D01*
G01X-1000000Y-2700000D01*
G01X259999Y-449999D02*
G01X259999Y-1935970D01*
G01X259999Y-1950001D01*
G01X-169400Y-12300000D02*
G01X-249400Y-12300000D01*
G01X-1000000Y-12300000D01*
G54D16*
G01X-169400Y-9900000D02*
G01X-89400Y-9900000D01*
G54D18*
G01X-169400Y-9900000D02*
G01X-1000000Y-9900000D01*
G04 Track End*

M02*

