0
SECTION
2
HEADER
9
$INSUNITS
70
4
9
$ACADVER
1
AC1014
9
$HANDSEED
5
FFFF
0
ENDSEC
0
SECTION
2
TABLES
0
TABLE
2
VPORT
5
8
100
AcDbSymbolTable
0
ENDTAB
0
TABLE
2
LTYPE
5
5
100
AcDbSymbolTable
0
LTYPE
5
14
100
AcDbSymbolTableRecord
100
AcDbLinetypeTableRecord
2
BYBLOCK
70
0
0
LTYPE
5
15
100
AcDbSymbolTableRecord
100
AcDbLinetypeTableRecord
2
BYLAYER
70
0
0
ENDTAB
0
TABLE
2
LAYER
5
2
100
AcDbSymbolTable
70
2
0
LAYER
5
50
100
AcDbSymbolTableRecord
100
AcDbLayerTableRecord
2
0
70
0
6
CONTINUOUS
0
ENDTAB
0
TABLE
2
STYLE
5
3
100
AcDbSymbolTable
70
1
0
STYLE
5
11
100
AcDbSymbolTableRecord
100
AcDbTextStyleTableRecord
2
STANDARD
70
0
0
ENDTAB
0
TABLE
2
VIEW
5
6
100
AcDbSymbolTable
70
0
0
ENDTAB
0
TABLE
2
UCS
5
7
100
AcDbSymbolTable
70
0
0
ENDTAB
0
TABLE
2
APPID
5
9
100
AcDbSymbolTable
70
2
0
APPID
5
12
100
AcDbSymbolTableRecord
100
AcDbRegAppTableRecord
2
ACAD
70
0
0
ENDTAB
0
TABLE
2
DIMSTYLE
5
A
100
AcDbSymbolTable
70
1
0
ENDTAB
0
TABLE
2
BLOCK_RECORD
5
1
100
AcDbSymbolTable
70
1
0
BLOCK_RECORD
5
1F
100
AcDbSymbolTableRecord
100
AcDbBlockTableRecord
2
*MODEL_SPACE
0
BLOCK_RECORD
5
1B
100
AcDbSymbolTableRecord
100
AcDbBlockTableRecord
2
*PAPER_SPACE
0
ENDTAB
0
ENDSEC
0
SECTION
2
BLOCKS
0
BLOCK
5
20
100
AcDbEntity
100
AcDbBlockBegin
2
*MODEL_SPACE
0
ENDBLK
5
21
100
AcDbEntity
100
AcDbBlockEnd
0
BLOCK
5
1C
100
AcDbEntity
100
AcDbBlockBegin
2
*PAPER_SPACE
0
ENDBLK
5
1D
100
AcDbEntity
100
AcDbBlockEnd
0
ENDSEC
0
SECTION
2
ENTITIES
0
CIRCLE
5
100
100
AcDbEntity
8
0
100
AcDbCircle
10
-424.27868576355138
20
-197.91546704847886
30
0
40
2.3499999999999943
210
-3.3047141439739266e-155
220
-1.1054295750520889e-75
230
1
0
CIRCLE
5
101
100
AcDbEntity
8
0
100
AcDbCircle
10
-354.27868576355132
20
-197.91546704847892
30
0
40
2.3500000000000116
210
-8.3523897190381132e-53
220
3.1763491596386883e-148
230
1
0
CIRCLE
5
102
100
AcDbEntity
8
0
100
AcDbCircle
10
-364.52994842202213
20
-222.66420439000808
30
0
40
2.3500000000000116
210
-8.3523897190381132e-53
220
3.1763491596386883e-148
230
1
0
CIRCLE
5
103
100
AcDbEntity
8
0
100
AcDbCircle
10
-414.02742310508046
20
-173.1667297069497
30
0
40
2.3499999999999943
210
-3.3047141439739266e-155
220
-1.1054295750520889e-75
230
1
0
CIRCLE
5
104
100
AcDbEntity
8
0
100
AcDbCircle
10
-414.02742310508046
20
-222.66420439000808
30
0
40
2.3499999999999943
210
-3.3047141439739266e-155
220
-1.1054295750520889e-75
230
1
0
CIRCLE
5
105
100
AcDbEntity
8
0
100
AcDbCircle
10
-364.52994842202213
20
-173.1667297069497
30
0
40
2.3500000000000116
210
-8.3523897190381132e-53
220
3.1763491596386883e-148
230
1
0
CIRCLE
5
106
100
AcDbEntity
8
0
100
AcDbCircle
10
-389.27868576355138
20
-232.91546704847886
30
0
40
2.3499999999999943
210
-3.3047141439739266e-155
220
-1.1054295750520889e-75
230
1
0
CIRCLE
5
107
100
AcDbEntity
8
0
100
AcDbCircle
10
-389.27868576355132
20
-162.91546704847886
30
0
40
2.3499999999999943
210
-3.3047141439739266e-155
220
-1.1054295750520889e-75
230
1
0
CIRCLE
5
108
100
AcDbEntity
8
0
100
AcDbCircle
10
-389.27868576355132
20
-197.91546704847877
30
0
40
6.5485000000000326
210
-8.3523897190381114e-53
220
3.1763491596386862e-148
230
1
0
CIRCLE
5
109
100
AcDbEntity
8
0
100
AcDbCircle
10
-204.27868576355135
20
-197.91546704830859
30
0
40
2.3499999999999943
210
-3.3047141439739266e-155
220
-1.1054295750520889e-75
230
1
0
CIRCLE
5
110
100
AcDbEntity
8
0
100
AcDbCircle
10
-134.27868576355135
20
-197.91546704830864
30
0
40
2.3500000000000116
210
-8.3523897190381132e-53
220
3.1763491596386883e-148
230
1
0
CIRCLE
5
111
100
AcDbEntity
8
0
100
AcDbCircle
10
-144.52994842202219
20
-222.66420438983778
30
0
40
2.3500000000000116
210
-8.3523897190381132e-53
220
3.1763491596386883e-148
230
1
0
CIRCLE
5
112
100
AcDbEntity
8
0
100
AcDbCircle
10
-194.02742310508049
20
-173.16672970677942
30
0
40
2.3499999999999943
210
-3.3047141439739266e-155
220
-1.1054295750520889e-75
230
1
0
CIRCLE
5
113
100
AcDbEntity
8
0
100
AcDbCircle
10
-194.02742310508049
20
-222.66420438983778
30
0
40
2.3499999999999943
210
-3.3047141439739266e-155
220
-1.1054295750520889e-75
230
1
0
CIRCLE
5
114
100
AcDbEntity
8
0
100
AcDbCircle
10
-144.52994842202219
20
-173.16672970677942
30
0
40
2.3500000000000116
210
-8.3523897190381132e-53
220
3.1763491596386883e-148
230
1
0
CIRCLE
5
115
100
AcDbEntity
8
0
100
AcDbCircle
10
-169.27868576355135
20
-232.91546704830859
30
0
40
2.3499999999999943
210
-3.3047141439739266e-155
220
-1.1054295750520889e-75
230
1
0
CIRCLE
5
116
100
AcDbEntity
8
0
100
AcDbCircle
10
-169.27868576355132
20
-162.91546704830859
30
0
40
2.3499999999999943
210
-3.3047141439739266e-155
220
-1.1054295750520889e-75
230
1
0
CIRCLE
5
117
100
AcDbEntity
8
0
100
AcDbCircle
10
-169.27868576355132
20
-197.9154670483085
30
0
40
6.5485000000000326
210
-8.3523897190381114e-53
220
3.1763491596386862e-148
230
1
0
CIRCLE
5
118
100
AcDbEntity
8
0
100
AcDbCircle
10
-424.27868576338108
20
-417.91546704847889
30
0
40
2.3499999999999943
210
-3.3047141439739266e-155
220
-1.1054295750520889e-75
230
1
0
CIRCLE
5
119
100
AcDbEntity
8
0
100
AcDbCircle
10
-354.27868576338108
20
-417.91546704847894
30
0
40
2.3500000000000116
210
-8.3523897190381132e-53
220
3.1763491596386883e-148
230
1
0
CIRCLE
5
120
100
AcDbEntity
8
0
100
AcDbCircle
10
-364.52994842185194
20
-442.66420439000808
30
0
40
2.3500000000000116
210
-8.3523897190381132e-53
220
3.1763491596386883e-148
230
1
0
CIRCLE
5
121
100
AcDbEntity
8
0
100
AcDbCircle
10
-414.02742310491021
20
-393.16672970694975
30
0
40
2.3499999999999943
210
-3.3047141439739266e-155
220
-1.1054295750520889e-75
230
1
0
CIRCLE
5
122
100
AcDbEntity
8
0
100
AcDbCircle
10
-414.02742310491021
20
-442.66420439000808
30
0
40
2.3499999999999943
210
-3.3047141439739266e-155
220
-1.1054295750520889e-75
230
1
0
CIRCLE
5
123
100
AcDbEntity
8
0
100
AcDbCircle
10
-364.52994842185194
20
-393.16672970694975
30
0
40
2.3500000000000116
210
-8.3523897190381132e-53
220
3.1763491596386883e-148
230
1
0
CIRCLE
5
124
100
AcDbEntity
8
0
100
AcDbCircle
10
-389.27868576338108
20
-452.91546704847889
30
0
40
2.3499999999999943
210
-3.3047141439739266e-155
220
-1.1054295750520889e-75
230
1
0
CIRCLE
5
125
100
AcDbEntity
8
0
100
AcDbCircle
10
-389.27868576338096
20
-382.91546704847889
30
0
40
2.3499999999999943
210
-3.3047141439739266e-155
220
-1.1054295750520889e-75
230
1
0
CIRCLE
5
126
100
AcDbEntity
8
0
100
AcDbCircle
10
-389.27868576338096
20
-417.91546704847883
30
0
40
6.5485000000000326
210
-8.3523897190381114e-53
220
3.1763491596386862e-148
230
1
0
CIRCLE
5
127
100
AcDbEntity
8
0
100
AcDbCircle
10
-204.27868576338108
20
-417.91546704830859
30
0
40
2.3499999999999943
210
-3.3047141439739266e-155
220
-1.1054295750520889e-75
230
1
0
CIRCLE
5
128
100
AcDbEntity
8
0
100
AcDbCircle
10
-134.27868576338105
20
-417.91546704830864
30
0
40
2.3500000000000116
210
-8.3523897190381132e-53
220
3.1763491596386883e-148
230
1
0
CIRCLE
5
129
100
AcDbEntity
8
0
100
AcDbCircle
10
-144.52994842185188
20
-442.66420438983778
30
0
40
2.3500000000000116
210
-8.3523897190381132e-53
220
3.1763491596386883e-148
230
1
0
CIRCLE
5
130
100
AcDbEntity
8
0
100
AcDbCircle
10
-194.02742310491021
20
-393.16672970677939
30
0
40
2.3499999999999943
210
-3.3047141439739266e-155
220
-1.1054295750520889e-75
230
1
0
CIRCLE
5
131
100
AcDbEntity
8
0
100
AcDbCircle
10
-194.02742310491021
20
-442.66420438983778
30
0
40
2.3499999999999943
210
-3.3047141439739266e-155
220
-1.1054295750520889e-75
230
1
0
CIRCLE
5
132
100
AcDbEntity
8
0
100
AcDbCircle
10
-144.52994842185188
20
-393.16672970677939
30
0
40
2.3500000000000116
210
-8.3523897190381132e-53
220
3.1763491596386883e-148
230
1
0
CIRCLE
5
133
100
AcDbEntity
8
0
100
AcDbCircle
10
-169.27868576338108
20
-452.91546704830859
30
0
40
2.3499999999999943
210
-3.3047141439739266e-155
220
-1.1054295750520889e-75
230
1
0
CIRCLE
5
134
100
AcDbEntity
8
0
100
AcDbCircle
10
-169.27868576338102
20
-382.91546704830859
30
0
40
2.3499999999999943
210
-3.3047141439739266e-155
220
-1.1054295750520889e-75
230
1
0
CIRCLE
5
135
100
AcDbEntity
8
0
100
AcDbCircle
10
-169.27868576338102
20
-417.91546704830853
30
0
40
6.5485000000000326
210
-8.3523897190381114e-53
220
3.1763491596386862e-148
230
1
0
LWPOLYLINE
5
136
100
AcDbEntity
8
0
100
AcDbPolyline
90
4
70
1
43
0.0
10
-47.335685763381235
20
-80.415467048308528
10
-484.27868576338108
20
-80.4154670483085
10
-484.2786857633813
20
-530.41546704830841
10
-47.335685763381221
20
-530.41546704830853
0
LWPOLYLINE
5
137
100
AcDbEntity
8
0
100
AcDbPolyline
90
4
70
1
43
0.0
10
-397.02868576337801
20
-94.415467048308557
10
-401.92868576337787
20
-94.415467048308557
42
-0.99999999999999989
10
-401.92868576337787
20
-89.915467048308528
10
-397.02868576337784
20
-89.915467048308528
42
-0.99999999999999989
0
LWPOLYLINE
5
138
100
AcDbEntity
8
0
100
AcDbPolyline
90
4
70
1
43
0.0
10
-413.17868576337781
20
-89.665467048308543
10
-413.17868576337781
20
-94.665467048308614
42
-0.99999999999999989
10
-417.67868576337781
20
-94.665467048308543
10
-417.67868576337781
20
-89.665467048308471
42
-0.99999999999999989
0
CIRCLE
5
139
100
AcDbEntity
8
0
100
AcDbCircle
10
-425.42868576337759
20
-92.165467048308543
30
0
40
2.2500000000000204
210
4.3762394095436033e-37
220
8.6899326950619947e-60
230
1
0
LWPOLYLINE
5
140
100
AcDbEntity
8
0
100
AcDbPolyline
90
4
70
1
43
0.0
10
-244.02868576337963
20
-94.415467048308528
10
-248.92868576337952
20
-94.415467048308528
42
-0.99999999999999989
10
-248.92868576337952
20
-89.9154670483085
10
-244.02868576337963
20
-89.9154670483085
42
-0.99999999999999989
0
LWPOLYLINE
5
141
100
AcDbEntity
8
0
100
AcDbPolyline
90
4
70
1
43
0.0
10
-260.17868576337941
20
-89.665467048308528
10
-260.17868576337941
20
-94.665467048308614
42
-0.99999999999999989
10
-264.67868576337941
20
-94.6654670483085
10
-264.67868576337941
20
-89.665467048308415
42
-0.99999999999999989
0
CIRCLE
5
142
100
AcDbEntity
8
0
100
AcDbCircle
10
-272.42868576337924
20
-92.165467048308528
30
0
40
2.2500000000000204
210
4.3762394095436033e-37
220
8.6899326950619947e-60
230
1
0
LWPOLYLINE
5
143
100
AcDbEntity
8
0
100
AcDbPolyline
90
4
70
1
43
0.0
10
-97.02868576338112
20
-94.415467048308486
10
-101.928685763381
20
-94.4154670483085
42
-0.99999999999999989
10
-101.928685763381
20
-89.915467048308471
10
-97.02868576338112
20
-89.9154670483085
42
-0.99999999999999989
0
LWPOLYLINE
5
144
100
AcDbEntity
8
0
100
AcDbPolyline
90
4
70
1
43
0.0
10
-113.17868576338093
20
-89.6654670483085
10
-113.17868576338087
20
-94.665467048308528
42
-0.99999999999999989
10
-117.67868576338087
20
-94.665467048308486
10
-117.67868576338081
20
-89.6654670483085
42
-0.99999999999999989
0
CIRCLE
5
145
100
AcDbEntity
8
0
100
AcDbCircle
10
-125.42868576338073
20
-92.165467048308486
30
0
40
2.2500000000000204
210
4.3762394095436033e-37
220
8.6899326950619947e-60
230
1
0
LWPOLYLINE
5
146
100
AcDbEntity
8
0
100
AcDbPolyline
90
4
70
1
43
0.0
10
-397.02887490983767
20
-519.41545459058852
10
-401.9288749098377
20
-519.41545459058852
42
-0.99999999999999989
10
-401.92887490983759
20
-514.91545459058852
10
-397.02887490983767
20
-514.91545459058852
42
-0.99999999999999989
0
LWPOLYLINE
5
147
100
AcDbEntity
8
0
100
AcDbPolyline
90
4
70
1
43
0.0
10
-413.17887490983753
20
-514.66545459058852
10
-413.17887490983742
20
-519.66545459058852
42
-0.99999999999999989
10
-417.67887490983748
20
-519.66545459058852
10
-417.67887490983742
20
-514.66545459058852
42
-0.99999999999999989
0
CIRCLE
5
148
100
AcDbEntity
8
0
100
AcDbCircle
10
-425.4288749098373
20
-517.16545459058852
30
0
40
2.2500000000000191
210
4.3762394095436033e-37
220
8.6899326950619947e-60
230
1
0
LWPOLYLINE
5
149
100
AcDbEntity
8
0
100
AcDbPolyline
90
4
70
1
43
0.0
10
-244.02887490983915
20
-519.41545459058852
10
-248.92887490983912
20
-519.41545459058852
42
-0.99999999999999989
10
-248.92887490983907
20
-514.91545459058852
10
-244.02887490983909
20
-514.91545459058852
42
-0.99999999999999989
0
LWPOLYLINE
5
150
100
AcDbEntity
8
0
100
AcDbPolyline
90
4
70
1
43
0.0
10
-260.17887490983895
20
-514.66545459058852
10
-260.17887490983895
20
-519.66545459058852
42
-0.99999999999999989
10
-264.6788749098389
20
-519.66545459058852
10
-264.6788749098389
20
-514.66545459058852
42
-0.99999999999999989
0
CIRCLE
5
151
100
AcDbEntity
8
0
100
AcDbCircle
10
-272.42887490983878
20
-517.16545459058852
30
0
40
2.2500000000000191
210
4.3762394095436033e-37
220
8.6899326950619947e-60
230
1
0
LWPOLYLINE
5
152
100
AcDbEntity
8
0
100
AcDbPolyline
90
4
70
1
43
0.0
10
-97.028874909840539
20
-519.41545459058852
10
-101.92887490984049
20
-519.41545459058852
42
-0.99999999999999989
10
-101.92887490984042
20
-514.91545459058852
10
-97.028874909840468
20
-514.91545459058852
42
-0.99999999999999989
0
LWPOLYLINE
5
153
100
AcDbEntity
8
0
100
AcDbPolyline
90
4
70
1
43
0.0
10
-113.17887490984035
20
-514.66545459058852
10
-113.17887490984029
20
-519.66545459058852
42
-0.99999999999999989
10
-117.67887490984029
20
-519.66545459058852
10
-117.67887490984023
20
-514.66545459058852
42
-0.99999999999999989
0
CIRCLE
5
154
100
AcDbEntity
8
0
100
AcDbCircle
10
-125.42887490984015
20
-517.16545459058852
30
0
40
2.2500000000000191
210
4.3762394095436033e-37
220
8.6899326950619947e-60
230
1
0
LINE
5
155
100
AcDbEntity
8
0
100
AcDbLine
10
-47.335685763381221
20
-517.16545459058852
30
-1.5660730723196459e-50
11
-484.27868576338119
21
-517.1654545905883
31
-1.5660730723196459e-50
0
LINE
5
156
100
AcDbEntity
8
0
100
AcDbLine
10
-484.27868576338108
20
-92.165467048308543
30
0
11
-47.335685763381235
21
-92.165467048308528
31
0
0
CIRCLE
5
157
100
AcDbEntity
8
0
100
AcDbCircle
10
-415.42868576337781
20
-92.165467048308557
30
-5.925440831136776e-52
40
2.2499999999999982
210
0
220
0
230
1
0
CIRCLE
5
158
100
AcDbEntity
8
0
100
AcDbCircle
10
-399.47868576337788
20
-92.165467048308543
30
0
40
2.2499999999999982
210
0
220
0
230
1
0
CIRCLE
5
159
100
AcDbEntity
8
0
100
AcDbCircle
10
-262.42868576337941
20
-92.165467048308557
30
0
40
2.2499999999999982
210
0
220
0
230
1
0
CIRCLE
5
160
100
AcDbEntity
8
0
100
AcDbCircle
10
-246.47868576337942
20
-92.165467048308543
30
0
40
2.2499999999999982
210
0
220
0
230
1
0
CIRCLE
5
161
100
AcDbEntity
8
0
100
AcDbCircle
10
-115.42868576338087
20
-92.165467048308543
30
0
40
2.2499999999999982
210
0
220
0
230
1
0
CIRCLE
5
162
100
AcDbEntity
8
0
100
AcDbCircle
10
-99.478685763380881
20
-92.165467048308528
30
0
40
2.2499999999999982
210
0
220
0
230
1
0
CIRCLE
5
163
100
AcDbEntity
8
0
100
AcDbCircle
10
-415.42887490983742
20
-517.1654545905883
30
-1.5660730723196459e-50
40
2.2499999999999982
210
0
220
0
230
1
0
CIRCLE
5
164
100
AcDbEntity
8
0
100
AcDbCircle
10
-399.47887490983754
20
-517.1654545905883
30
-1.5660730723196459e-50
40
2.2499999999999982
210
0
220
0
230
1
0
CIRCLE
5
165
100
AcDbEntity
8
0
100
AcDbCircle
10
-262.42887490983895
20
-517.1654545905883
30
-1.5660730723196459e-50
40
2.2499999999999982
210
0
220
0
230
1
0
CIRCLE
5
166
100
AcDbEntity
8
0
100
AcDbCircle
10
-246.47887490983894
20
-517.1654545905883
30
-1.5660730723196459e-50
40
2.2499999999999982
210
0
220
0
230
1
0
CIRCLE
5
167
100
AcDbEntity
8
0
100
AcDbCircle
10
-115.42887490984029
20
-517.1654545905883
30
-1.5660730723196459e-50
40
2.2499999999999982
210
0
220
0
230
1
0
CIRCLE
5
168
100
AcDbEntity
8
0
100
AcDbCircle
10
-99.478874909840272
20
-517.16545459058841
30
-1.5660730723196459e-50
40
2.2499999999999982
210
0
220
0
230
1
0
ENDSEC
0
SECTION
2
OBJECTS
0
DICTIONARY
5
C
100
AcDbDictionary
3
ACAD_GROUP
350
D
3
ACAD_MLINESTYLE
350
17
0
DICTIONARY
5
D
100
AcDbDictionary
0
DICTIONARY
5
1A
330
C
100
AcDbDictionary
0
DICTIONARY
5
17
100
AcDbDictionary
0
ENDSEC
0
EOF
