<?xml version="1.0" encoding="UTF-8" standalone="no"?>
<svg
   viewBox="0 0 133.00002 150.74979"
   width="35.18959mm"
   height="39.88588mm"
   version="1.1"
   id="svg34"
   xml:space="preserve"
   xmlns="http://www.w3.org/2000/svg"
   xmlns:svg="http://www.w3.org/2000/svg"><desc
     id="desc1">yammu_logo.dxf - scale = 25.400000, origin = (0.000000, 0.000000), method = file</desc><defs
     id="defs4" /><g
     id="g34"
     transform="translate(-477.39547,-451.49672)"><g
       id="g189"><path
         style="fill:#3d8334;fill-opacity:1;stroke:#3e8334;stroke-width:7.03345;stroke-linecap:round;stroke-linejoin:round;stroke-dasharray:none;stroke-dashoffset:0;stroke-opacity:1"
         id="path128"
         d="m 657.27967,500.74601 c 3.40168,5.96655 2.53291,165.77134 -0.93344,171.70056 -3.46635,5.92921 -142.29575,85.07923 -149.16377,85.04189 -6.86802,-0.0373 -144.82864,-80.69211 -148.23032,-86.65866 -3.40168,-5.96655 -2.5329,-165.77135 0.93344,-171.70056 3.46635,-5.92921 142.29575,-85.07923 149.16377,-85.04189 6.86802,0.0373 144.82865,80.69211 148.23032,86.65866 z"
         transform="matrix(0.42960399,-0.00230425,0.00230735,0.43016721,324.25524,276.0557)" /><g
         id="g141"
         transform="matrix(0.59737376,0,0,0.59793193,176.12143,172.00057)"
         style="stroke:#3e8334;stroke-width:2e-08;stroke-linecap:round;stroke-linejoin:round;stroke-dasharray:none;stroke-dashoffset:0;stroke-opacity:1"><path
           d="m 541.83636,627.09606 a 0.0089,0.00877091 0 0 0 -0.0178,0 0.0089,0.00877091 0 0 0 0.0178,0 z"
           style="fill:#ffffff;fill-opacity:1;stroke:#3e8334;stroke-width:2e-08;stroke-linecap:round;stroke-linejoin:round;stroke-dasharray:none;stroke-dashoffset:0;stroke-opacity:1"
           id="path129" /><path
           d="m 524.77867,627.09606 h 17.04881 L 581.20003,559.89 h -17.04882 z"
           style="fill:#ffffff;fill-opacity:1;stroke:#3e8334;stroke-width:2e-08;stroke-linecap:round;stroke-linejoin:round;stroke-dasharray:none;stroke-dashoffset:0;stroke-opacity:1"
           id="path130" /><path
           d="m 585.13728,559.89 -11.4849,19.60389 8.51709,47.60217 h 14.99247 z"
           style="fill:#ffffff;fill-opacity:1;stroke:#3e8334;stroke-width:2e-08;stroke-linecap:round;stroke-linejoin:round;stroke-dasharray:none;stroke-dashoffset:0;stroke-opacity:1"
           id="path131" /><path
           d="M 550.16993,577.03444 538.68502,596.63833 532.10993,559.89 h 14.99247 z"
           style="fill:#ffffff;fill-opacity:1;stroke:#3e8334;stroke-width:2e-08;stroke-linecap:round;stroke-linejoin:round;stroke-dasharray:none;stroke-dashoffset:0;stroke-opacity:1"
           id="path132" /><path
           d="m 565.12797,594.04443 h 7.66546 l 2.60342,14.55054 h -18.79328 z"
           style="fill:#ffffff;fill-opacity:1;stroke:#3e8334;stroke-width:2e-08;stroke-linecap:round;stroke-linejoin:round;stroke-dasharray:none;stroke-dashoffset:0;stroke-opacity:1"
           id="path133" /><path
           d="m 606.82671,559.89 12.02466,67.20606 h 14.76471 L 621.59141,559.89 Z"
           style="fill:#ffffff;fill-opacity:1;stroke:#3e8334;stroke-width:2e-08;stroke-linecap:round;stroke-linejoin:round;stroke-dasharray:none;stroke-dashoffset:0;stroke-opacity:1"
           id="path134" /><path
           d="m 658.04554,559.89 12.02467,67.20606 H 655.3055 L 643.28084,559.89 Z"
           style="fill:#ffffff;fill-opacity:1;stroke:#3e8334;stroke-width:2e-08;stroke-linecap:round;stroke-linejoin:round;stroke-dasharray:none;stroke-dashoffset:0;stroke-opacity:1"
           id="path135" /><path
           d="m 588.59965,559.89 h 14.7647 l 6.01233,33.60303 h -14.76471 z"
           style="fill:#ffffff;fill-opacity:1;stroke:#3e8334;stroke-width:2e-08;stroke-linecap:round;stroke-linejoin:round;stroke-dasharray:none;stroke-dashoffset:0;stroke-opacity:1"
           id="path136" /><path
           style="fill:#ffffff;fill-opacity:1;stroke:#3e8334;stroke-width:2e-08;stroke-linecap:round;stroke-linejoin:round;stroke-dasharray:none;stroke-dashoffset:0;stroke-opacity:1"
           d="M 618.85152,627.09608 606.82678,559.89001"
           id="path137" /><path
           d="m 625.05378,559.89 h 14.7647 l 6.01233,33.60303 H 631.0661 Z"
           style="fill:#ffffff;fill-opacity:1;stroke:#3e8334;stroke-width:2e-08;stroke-linecap:round;stroke-linejoin:round;stroke-dasharray:none;stroke-dashoffset:0;stroke-opacity:1"
           id="path138" /><path
           style="fill:#ffffff;fill-opacity:1;stroke:#3e8334;stroke-width:2e-08;stroke-linecap:round;stroke-linejoin:round;stroke-dasharray:none;stroke-dashoffset:0;stroke-opacity:1"
           d="m 643.28069,559.89001 12.02474,67.20607"
           id="path139" /><path
           d="m 673.53257,627.09606 -6.01232,-33.60303 h 14.76469 l 6.01233,33.60303 z"
           style="fill:#ffffff;fill-opacity:1;stroke:#3e8334;stroke-width:2e-08;stroke-linecap:round;stroke-linejoin:round;stroke-dasharray:none;stroke-dashoffset:0;stroke-opacity:1"
           id="path140" /><path
           d="m 691.75963,627.09606 h 14.7647 L 694.49968,559.89 h -14.7647 z"
           style="fill:#ffffff;fill-opacity:1;stroke:#3e8334;stroke-width:2e-08;stroke-linecap:round;stroke-linejoin:round;stroke-dasharray:none;stroke-dashoffset:0;stroke-opacity:1"
           id="path141" /></g></g></g></svg>
