;TYPE=PLATED
;Layer: PTH_Through_Via
;EasyEDA Pro v2.2.32.3, 2024-11-04 22:23:50
;Gerber Generator version 0.3
M48
METRIC,LZ,000.00000
;Hole size 1 = 0.30500 METRIC
T01C0.30500
%
G05
G90
T01
X71.136Y-39.68996
X68.596Y-37.14996
X86.741Y-41.27584
X73.91408Y-52.03571
X73.15208Y-48.13315
X26.45826Y-46.96374
X32.131Y-31.49608
X36.07841Y-19.36504
X38.87241Y-20.88904
X34.44816Y-16.37291
X39.02016Y-17.64291
X61.40958Y-29.591
X63.18758Y-27.813
X68.05284Y-4.22101
X31.66301Y-6.096
X11.01903Y-18.66298
X8.98703Y-19.93298
X24.892Y-37.338
X20.22623Y-38.84723
X23.78223Y-34.27523
X36.50524Y-43.46755
X28.90944Y-31.06826
X35.00544Y-28.27426
X44.831Y-3.30208
X48.0695Y-4.82608
X39.83144Y-24.14676
X76.15983Y-39.61406
X87.84971Y-27.97429
X86.868Y-21.08284
X23.622Y-36.576
X70.993Y-37.97308
X62.865Y-36.44908
X18.669Y-25.01908
X50.165Y-40.51308
X39.497Y-26.54308
X36.449Y-7.49308
X34.163Y-6.47708
X29.845Y-8.00108
X48.133Y-9.52508
X45.593Y-20.19308
X35.941Y-22.85982
X35.179Y-19.30382
X39.94868Y-9.57509
X38.15842Y-6.858
X33.58642Y-8.128
M30