;TYPE=PLATED
;Layer: PTH_Through
;EasyEDA Pro v2.2.32.3, 2024-11-04 22:23:50
;Gerber Generator version 0.3
M48
METRIC,LZ,000.00000
;Hole size 1 = 0.30500 METRIC
T01C0.30500
;Hole size 2 = 0.60000 METRIC
T02C0.60000
;Hole size 3 = 0.91440 METRIC
T03C0.91440
;Hole size 4 = 1.00000 METRIC
T04C1.00000
;Hole size 5 = 1.04999 METRIC
T05C1.04999
;Hole size 6 = 1.10002 METRIC
T06C1.10002
;Hole size 7 = 1.20000 METRIC
T07C1.20000
;Hole size 8 = 1.40000 METRIC
T08C1.40000
;Hole size 9 = 1.50002 METRIC
T09C1.50002
;Hole size 10 = 3.50002 METRIC
T10C3.50002
%
G05
G90
T01
X71.136Y-39.68996
X68.596Y-37.14996
X86.741Y-41.27584
X73.91408Y-52.03571
X73.15208Y-48.13315
X26.45826Y-46.96374
X32.131Y-31.49608
X36.07841Y-19.36504
X38.87241Y-20.88904
X34.44816Y-16.37291
X39.02016Y-17.64291
X61.40958Y-29.591
X63.18758Y-27.813
X68.05284Y-4.22101
X31.66301Y-6.096
X11.01903Y-18.66298
X8.98703Y-19.93298
X24.892Y-37.338
X20.22623Y-38.84723
X23.78223Y-34.27523
X36.50524Y-43.46755
X28.90944Y-31.06826
X35.00544Y-28.27426
X44.831Y-3.30208
X48.0695Y-4.82608
X39.83144Y-24.14676
X76.15983Y-39.61406
X87.84971Y-27.97429
X86.868Y-21.08284
X23.622Y-36.576
X70.993Y-37.97308
X62.865Y-36.44908
X18.669Y-25.01908
X50.165Y-40.51308
X39.497Y-26.54308
X36.449Y-7.49308
X34.163Y-6.47708
X29.845Y-8.00108
X48.133Y-9.52508
X45.593Y-20.19308
X35.941Y-22.85982
X35.179Y-19.30382
X39.94868Y-9.57509
X38.15842Y-6.858
X33.58642Y-8.128
T02
X7.53708Y-14.85687G85X6.43708Y-14.85687
X3.207Y-14.85697G85X2.40701Y-14.85697
X3.2069Y-23.49703G85X2.4069Y-23.49703
X7.53698Y-23.49693G85X6.43698Y-23.49693
T03
X50.9272Y-26.79598
X48.3872Y-26.79598
X45.8472Y-26.79598
X43.3072Y-26.79598
X40.7672Y-26.79598
X38.2272Y-26.79598
X35.6872Y-26.79598
X33.1472Y-26.79598
X30.6072Y-26.79598
X28.0672Y-26.79598
X25.5272Y-26.79598
X22.9872Y-26.79598
X20.4472Y-26.79598
X17.9072Y-26.79598
X15.3672Y-26.79598
X12.8272Y-26.79598
X10.2872Y-26.79598
X7.7472Y-26.79598
X5.2072Y-26.79598
X2.6672Y-26.79598
X2.6672Y-11.55598
X5.2072Y-11.55598
X7.7472Y-11.55598
X10.2872Y-11.55598
X12.8272Y-11.55598
X15.3672Y-11.55598
X17.9072Y-11.55598
X20.4472Y-11.55598
X22.9872Y-11.55598
X25.5272Y-11.55598
X28.0672Y-11.55598
X30.6072Y-11.55598
X33.1472Y-11.55598
X35.6872Y-11.55598
X38.2272Y-11.55598
X40.7672Y-11.55598
X43.3072Y-11.55598
X45.8472Y-11.55598
X48.3872Y-11.55598
X50.9272Y-11.55598
T04
X38.481Y-2.79415
X41.021Y-2.79415
X46.11326Y-2.79415
X48.65326Y-2.79415
X66.294Y-49.14915
X68.834Y-49.14915
X58.674Y-49.14915
X61.214Y-49.14915
X73.914Y-49.14915
X76.454Y-49.14915
T05
X11.176Y-49.276
X13.716Y-49.276
X16.256Y-49.276
X18.796Y-49.276
X21.336Y-49.276
X23.876Y-49.276
X26.416Y-49.276
X31.242Y-49.276
X33.782Y-49.276
X36.322Y-49.276
X38.862Y-49.276
X41.402Y-49.276
X43.942Y-49.276
X46.482Y-49.276
T06
X30.607Y-33.02
X33.147Y-33.02
X35.687Y-33.02
X38.227Y-33.02
X61.849Y-12.57315
X59.309Y-12.57315
X56.769Y-12.57315
X61.849Y-20.19315
X59.309Y-20.19315
X56.769Y-20.19315
X61.849Y-15.11315
X59.309Y-15.11315
X56.769Y-15.11315
X61.849Y-17.65315
X59.309Y-17.65315
X56.769Y-17.65315
X17.907Y-33.02
X20.447Y-33.02
X22.987Y-33.02
X25.527Y-33.02
T07
X69.59296Y-6.23096
X67.05261Y-6.2208
X72.13296Y-6.23096
X33.361Y-2.794
X30.86113Y-2.794
X28.36101Y-2.794
X50.506Y-34.798
X48.00613Y-34.798
X45.50601Y-34.798
T08
X74.54895Y-33.90905
X77.08895Y-33.90905
X72.00895Y-33.90905
T09
X87.884Y-17.01884
X87.884Y-22.09884
X88.011Y-33.65584
X88.011Y-38.73584
X26.416Y-57.658
X21.336Y-57.658
X36.576Y-57.658
X31.496Y-57.658
T10
X86.36Y-5.08
X86.36Y-55.88
X5.08Y-55.88
X5.08Y-5.08
M30