G04 Layer: DrillDrawingLayer*
G04 EasyEDA Pro v2.2.32.3, 2024-11-04 22:23:50*
G04 Gerber Generator version 0.3*
G04 Scale: 100 percent, Rotated: No, Reflected: No*
G04 Dimensions in millimeters*
G04 Leading zeros omitted, absolute positions, 3 integers and 5 decimals*
%FSLAX35Y35*%
%MOMM*%
%AMIconRect*4,1,4,0.2,-0.2,-0.2,-0.2,-0.2,0.2,0.2,0.2,0.2,-0.2,0*4,0,4,0.166667,-0.166667,0.166667,0.166667,-0.166667,0.166667,-0.166667,-0.166667,0.166667,-0.166667,0*%
%AMIconTriangle*4,1,3,-0.242567,0.171767,0.242567,0.171767,0,-0.2706,-0.242567,0.171767,0*4,0,3,-0.189767,0.1386,0,-0.1953,0.190167,0.1386,-0.189767,0.1386,0*%
%AMIconStar6*4,1,12,0.0862,0.1492,0.213233,0.123367,0.172367,0,0.213233,-0.1229,0.0862,-0.148733,0,-0.245767,-0.085767,-0.148733,-0.213267,-0.1229,-0.171933,0,-0.213267,0.1229,-0.085767,0.1492,0,0.245767,0.0862,0.1492,0*4,0,12,-0.000333,0.195333,-0.064333,0.122667,-0.169667,0.097667,-0.138333,-0.005333,-0.169667,-0.098,-0.064333,-0.122667,-0.000333,-0.195667,0.064333,-0.122667,0.169667,-0.098,0.138667,0.005,0.169667,0.098,0.064333,0.122333,-0.000333,0.195333,0*%
%AMIconStar4*4,1,8,-0.222667,0.222667,0,0.144667,0.222667,0.222667,0.144667,0,0.222667,-0.222667,0,-0.144667,-0.217433,-0.222667,-0.144667,0,-0.222667,0.222667,0*4,0,8,0.166667,-0.166667,0.108,0,0.166667,0.166667,0,0.108,-0.166667,0.166667,-0.108,0,-0.166667,-0.166667,0,-0.108,0.166667,-0.166667,0*%
%AMIconPlus*4,1,12,0.124,-0.2,-0.124,-0.2,-0.124,-0.124,-0.2,-0.124,-0.2,0.124,-0.124,0.124,-0.124,0.2,0.124,0.2,0.124,0.124,0.2,0.124,0.2,-0.124,0.124,-0.124,0.124,-0.2,0*4,0,12,0.090667,-0.166667,0.090667,-0.090667,0.166667,-0.090667,0.166667,0.090667,0.090667,0.090667,0.090667,0.166667,-0.090667,0.166667,-0.090667,0.090667,-0.166667,0.090667,-0.166667,-0.090667,-0.090667,-0.090667,-0.090667,-0.166667,0.090667,-0.166667,0*%
%AMIconX*4,1,16,0.2,-0.2,0.054533,-0.2,0,-0.145467,-0.054533,-0.2,-0.2,-0.2,-0.2,-0.054533,-0.145467,0,-0.2,0.054533,-0.2,0.2,-0.054533,0.2,0,0.145467,0.054533,0.2,0.2,0.2,0.2,0.054533,0.145467,0,0.2,-0.054533,0.2,-0.2,0*4,0,16,0.1668,-0.1664,0.1668,-0.068467,0.097933,0.000067,0.1668,0.068467,0.1668,0.1665,0.068467,0.1665,0,0.097933,-0.068467,0.1665,-0.1668,0.1665,-0.1668,0.068467,-0.097933,0.000067,-0.1668,-0.068467,-0.1668,-0.1664,-0.068467,-0.1664,0,-0.097933,0.068467,-0.1664,0.1668,-0.1664,0*%
%AMIconDiamond*4,1,4,0,-0.26,-0.26,0,0,0.26,0.26,0,0,-0.26,0*4,0,4,0,-0.203433,0.203433,0,0,0.2036,-0.203433,0,0,-0.203433,0*%
%AMIconRect2*4,1,6,0.2,-0.2,-0.2,-0.2,-0.2,0.2,-0.1668,0.1665,-0.166667,-0.166667,0.1668,-0.166667,0.2,-0.2,0*4,1,6,0.2,-0.2,0.1668,-0.166667,0.1668,0.1665,-0.1668,0.1665,-0.2,0.2,0.2,0.2,0.2,-0.2,0*4,1,6,0.133467,-0.133333,-0.133333,-0.133333,-0.133333,0.133467,-0.1,0.100133,-0.1,-0.1,0.100133,-0.1,0.133467,-0.133333,0*4,1,6,0.133467,-0.133333,0.100133,-0.1,0.100133,0.100133,-0.1,0.100133,-0.133333,0.133467,0.133467,0.133467,0.133467,-0.133333,0*%
%AMCharA*4,1,8,-0.122067,-0.1864,-0.1532,-0.174533,-0.015133,0.1864,0.016,0.1864,0.1532,-0.174533,0.122067,-0.1864,0.0764,-0.0662,-0.076133,-0.0662,-0.122067,-0.1864,0*4,0,3,-0.063333,-0.032867,0.063667,-0.032867,0.000333,0.1338,-0.063333,-0.032867,0*%
%AMCharB*4,1,17,-0.131133,-0.1894,-0.131133,0.1894,0.033533,0.1894,0.088067,0.172467,0.1114,0.151733,0.131133,0.114133,0.131,0.066467,0.114333,0.0338,0.094733,0.0128,0.086467,0.0084,0.094733,0.003867,0.114333,-0.017133,0.131,-0.0498,0.131133,-0.114133,0.1114,-0.151733,0.088067,-0.1726,0.033533,-0.1894,-0.131133,-0.1894,0*4,0,10,-0.0978,-0.156067,0.030867,-0.156067,0.073867,-0.142,0.085867,-0.130133,0.099533,-0.1028,0.099533,-0.0614,0.085867,-0.034533,0.073867,-0.0226,0.030867,-0.008667,-0.0978,-0.008667,-0.0978,-0.156067,0*4,0,10,-0.0978,0.024667,0.0308,0.024667,0.073867,0.039267,0.085867,0.051267,0.099533,0.078067,0.099533,0.102667,0.085867,0.130133,0.073867,0.142,0.030867,0.156067,-0.0978,0.156067,-0.0978,0.024667,0*%
%ADD10IconRect*%
%ADD11C,0.44X0.373333*%
%ADD12IconTriangle*%
%ADD13IconStar6*%
%ADD14IconStar4*%
%ADD15IconPlus*%
%ADD16IconX*%
%ADD17IconDiamond*%
%ADD18IconRect2*%
%ADD19CharA*%
%ADD20CharB*%
G75*


G04 Drill Drawing Start*
G54D10*
G01X280690Y-2349703D03*
G01X280700Y-1485697D03*
G54D11*
G01X698698Y-2349693D03*
G01X698708Y-1485687D03*
G54D12*
G01X7200895Y-3390905D03*
G01X7454895Y-3390905D03*
G01X7708895Y-3390905D03*
G54D13*
G01X508000Y-5588000D03*
G01X508000Y-508000D03*
G01X8636000Y-5588000D03*
G01X8636000Y-508000D03*
G54D14*
G01X2133600Y-5765800D03*
G01X2641600Y-5765800D03*
G01X3149600Y-5765800D03*
G01X3657600Y-5765800D03*
G01X8788400Y-2209884D03*
G01X8788400Y-1701884D03*
G01X8801100Y-3873584D03*
G01X8801100Y-3365584D03*
G54D15*
G01X2836101Y-279400D03*
G01X3086113Y-279400D03*
G01X3336100Y-279400D03*
G01X4550601Y-3479800D03*
G01X4800613Y-3479800D03*
G01X5050600Y-3479800D03*
G01X6705261Y-622080D03*
G01X6959296Y-623096D03*
G01X7213296Y-623096D03*
G54D16*
G01X3848100Y-279415D03*
G01X4102100Y-279415D03*
G01X4611326Y-279415D03*
G01X4865326Y-279415D03*
G01X5867400Y-4914915D03*
G01X6121400Y-4914915D03*
G01X6629400Y-4914915D03*
G01X6883400Y-4914915D03*
G01X7391400Y-4914915D03*
G01X7645400Y-4914915D03*
G54D17*
G01X1117600Y-4927600D03*
G01X1371600Y-4927600D03*
G01X1625600Y-4927600D03*
G01X1879600Y-4927600D03*
G01X2133600Y-4927600D03*
G01X2387600Y-4927600D03*
G01X2641600Y-4927600D03*
G01X3124200Y-4927600D03*
G01X3378200Y-4927600D03*
G01X3632200Y-4927600D03*
G01X3886200Y-4927600D03*
G01X4140200Y-4927600D03*
G01X4394200Y-4927600D03*
G01X4648200Y-4927600D03*
G54D18*
G01X1790700Y-3302000D03*
G01X2044700Y-3302000D03*
G01X2298700Y-3302000D03*
G01X2552700Y-3302000D03*
G01X3060700Y-3302000D03*
G01X3314700Y-3302000D03*
G01X3568700Y-3302000D03*
G01X3822700Y-3302000D03*
G01X5676900Y-2019315D03*
G01X5676900Y-1765315D03*
G01X5676900Y-1511315D03*
G01X5676900Y-1257315D03*
G01X5930900Y-2019315D03*
G01X5930900Y-1765315D03*
G01X5930900Y-1511315D03*
G01X5930900Y-1257315D03*
G01X6184900Y-2019315D03*
G01X6184900Y-1765315D03*
G01X6184900Y-1511315D03*
G01X6184900Y-1257315D03*
G54D19*
G01X266720Y-2679598D03*
G01X266720Y-1155598D03*
G01X520720Y-2679598D03*
G01X520720Y-1155598D03*
G01X774720Y-2679598D03*
G01X774720Y-1155598D03*
G01X1028720Y-2679598D03*
G01X1028720Y-1155598D03*
G01X1282720Y-2679598D03*
G01X1282720Y-1155598D03*
G01X1536720Y-2679598D03*
G01X1536720Y-1155598D03*
G01X1790720Y-2679598D03*
G01X1790720Y-1155598D03*
G01X2044720Y-2679598D03*
G01X2044720Y-1155598D03*
G01X2298720Y-2679598D03*
G01X2298720Y-1155598D03*
G01X2552720Y-2679598D03*
G01X2552720Y-1155598D03*
G01X2806720Y-2679598D03*
G01X2806720Y-1155598D03*
G01X3060720Y-2679598D03*
G01X3060720Y-1155598D03*
G01X3314720Y-2679598D03*
G01X3314720Y-1155598D03*
G01X3568720Y-2679598D03*
G01X3568720Y-1155598D03*
G01X3822720Y-2679598D03*
G01X3822720Y-1155598D03*
G01X4076720Y-2679598D03*
G01X4076720Y-1155598D03*
G01X4330720Y-2679598D03*
G01X4330720Y-1155598D03*
G01X4584720Y-2679598D03*
G01X4584720Y-1155598D03*
G01X4838720Y-2679598D03*
G01X4838720Y-1155598D03*
G01X5092720Y-2679598D03*
G01X5092720Y-1155598D03*
G54D20*
G01X898703Y-1993298D03*
G01X1101903Y-1866298D03*
G01X1866900Y-2501908D03*
G01X2022623Y-3884723D03*
G01X2362200Y-3657600D03*
G01X2378223Y-3427523D03*
G01X2489200Y-3733800D03*
G01X2645826Y-4696374D03*
G01X2890944Y-3106826D03*
G01X2984500Y-800108D03*
G01X3166301Y-609600D03*
G01X3213100Y-3149608D03*
G01X3358642Y-812800D03*
G01X3416300Y-647708D03*
G01X3444816Y-1637291D03*
G01X3500544Y-2827426D03*
G01X3517900Y-1930382D03*
G01X3594100Y-2285982D03*
G01X3607841Y-1936504D03*
G01X3644900Y-749308D03*
G01X3650524Y-4346755D03*
G01X3815842Y-685800D03*
G01X3887241Y-2088904D03*
G01X3902016Y-1764291D03*
G01X3949700Y-2654308D03*
G01X3983144Y-2414676D03*
G01X3994868Y-957509D03*
G01X4483100Y-330208D03*
G01X4559300Y-2019308D03*
G01X4806950Y-482608D03*
G01X4813300Y-952508D03*
G01X5016500Y-4051308D03*
G01X6140958Y-2959100D03*
G01X6286500Y-3644908D03*
G01X6318758Y-2781300D03*
G01X6805284Y-422101D03*
G01X6859600Y-3714996D03*
G01X7099300Y-3797308D03*
G01X7113600Y-3968996D03*
G01X7315208Y-4813315D03*
G01X7391408Y-5203571D03*
G01X7615983Y-3961406D03*
G01X8674100Y-4127584D03*
G01X8686800Y-2108284D03*
G01X8784971Y-2797429D03*
G04 Drill Drawing End*

M02*

