G04 Layer: TopSilkscreenLayer*
G04 EasyEDA Pro v2.2.32.3, 2024-11-04 22:23:50*
G04 Gerber Generator version 0.3*
G04 Scale: 100 percent, Rotated: No, Reflected: No*
G04 Dimensions in millimeters*
G04 Leading zeros omitted, absolute positions, 3 integers and 5 decimals*
%FSLAX35Y35*%
%MOMM*%
%ADD10C,0.15*%
%ADD11C,0.1524*%
%ADD12C,0.254*%
%ADD13C,0.2*%
%ADD14C,0.4*%
G75*


G04 Text Start*
G54D10*
G01X3332480Y-3501652D02*
G01X3337814Y-3499112D01*
G01X3343148Y-3493778D01*
G01X3345688Y-3488444D01*
G01X3345688Y-3477776D01*
G01X3343148Y-3472442D01*
G01X3337814Y-3467108D01*
G01X3332480Y-3464568D01*
G01X3324606Y-3462028D01*
G01X3311144Y-3462028D01*
G01X3303270Y-3464568D01*
G01X3297936Y-3467108D01*
G01X3292602Y-3472442D01*
G01X3290062Y-3477776D01*
G01X3290062Y-3488444D01*
G01X3292602Y-3493778D01*
G01X3297936Y-3499112D01*
G01X3303270Y-3501652D01*
G01X3311144Y-3501652D01*
G01X3311144Y-3488444D02*
G01X3311144Y-3501652D01*
G01X3345688Y-3529338D02*
G01X3290062Y-3529338D01*
G01X3345688Y-3529338D02*
G01X3290062Y-3566676D01*
G01X3345688Y-3566676D02*
G01X3290062Y-3566676D01*
G01X3345688Y-3594362D02*
G01X3290062Y-3594362D01*
G01X3345688Y-3594362D02*
G01X3345688Y-3612904D01*
G01X3343148Y-3621032D01*
G01X3337814Y-3626366D01*
G01X3332480Y-3628906D01*
G01X3324606Y-3631700D01*
G01X3311144Y-3631700D01*
G01X3303270Y-3628906D01*
G01X3297936Y-3626366D01*
G01X3292602Y-3621032D01*
G01X3290062Y-3612904D01*
G01X3290062Y-3594362D01*
G01X3091688Y-3493778D02*
G01X3091688Y-3467108D01*
G01X3067812Y-3464568D01*
G01X3070606Y-3467108D01*
G01X3073146Y-3475236D01*
G01X3073146Y-3483110D01*
G01X3070606Y-3491238D01*
G01X3065272Y-3496318D01*
G01X3057144Y-3499112D01*
G01X3051810Y-3499112D01*
G01X3043936Y-3496318D01*
G01X3038602Y-3491238D01*
G01X3036062Y-3483110D01*
G01X3036062Y-3475236D01*
G01X3038602Y-3467108D01*
G01X3041396Y-3464568D01*
G01X3046730Y-3462028D01*
G01X3091688Y-3526798D02*
G01X3036062Y-3548134D01*
G01X3091688Y-3569470D02*
G01X3036062Y-3548134D01*
G01X3591814Y-3499112D02*
G01X3597148Y-3493778D01*
G01X3599688Y-3485904D01*
G01X3599688Y-3475236D01*
G01X3597148Y-3467108D01*
G01X3591814Y-3462028D01*
G01X3586480Y-3462028D01*
G01X3581146Y-3464568D01*
G01X3578606Y-3467108D01*
G01X3575812Y-3472442D01*
G01X3570478Y-3488444D01*
G01X3567938Y-3493778D01*
G01X3565144Y-3496318D01*
G01X3559810Y-3499112D01*
G01X3551936Y-3499112D01*
G01X3546602Y-3493778D01*
G01X3544062Y-3485904D01*
G01X3544062Y-3475236D01*
G01X3546602Y-3467108D01*
G01X3551936Y-3462028D01*
G01X3586480Y-3566676D02*
G01X3591814Y-3564136D01*
G01X3597148Y-3558802D01*
G01X3599688Y-3553468D01*
G01X3599688Y-3542800D01*
G01X3597148Y-3537466D01*
G01X3591814Y-3532132D01*
G01X3586480Y-3529592D01*
G01X3578606Y-3526798D01*
G01X3565144Y-3526798D01*
G01X3557270Y-3529592D01*
G01X3551936Y-3532132D01*
G01X3546602Y-3537466D01*
G01X3544062Y-3542800D01*
G01X3544062Y-3553468D01*
G01X3546602Y-3558802D01*
G01X3551936Y-3564136D01*
G01X3557270Y-3566676D01*
G01X3599688Y-3594362D02*
G01X3544062Y-3594362D01*
G01X3544062Y-3594362D02*
G01X3544062Y-3626366D01*
G01X3858514Y-3499112D02*
G01X3863848Y-3493778D01*
G01X3866388Y-3485904D01*
G01X3866388Y-3475236D01*
G01X3863848Y-3467108D01*
G01X3858514Y-3462028D01*
G01X3853180Y-3462028D01*
G01X3847846Y-3464568D01*
G01X3845306Y-3467108D01*
G01X3842512Y-3472442D01*
G01X3837178Y-3488444D01*
G01X3834638Y-3493778D01*
G01X3831844Y-3496318D01*
G01X3826510Y-3499112D01*
G01X3818636Y-3499112D01*
G01X3813302Y-3493778D01*
G01X3810762Y-3485904D01*
G01X3810762Y-3475236D01*
G01X3813302Y-3467108D01*
G01X3818636Y-3462028D01*
G01X3866388Y-3526798D02*
G01X3810762Y-3526798D01*
G01X3866388Y-3526798D02*
G01X3866388Y-3545340D01*
G01X3863848Y-3553468D01*
G01X3858514Y-3558802D01*
G01X3853180Y-3561342D01*
G01X3845306Y-3564136D01*
G01X3831844Y-3564136D01*
G01X3823970Y-3561342D01*
G01X3818636Y-3558802D01*
G01X3813302Y-3553468D01*
G01X3810762Y-3545340D01*
G01X3810762Y-3526798D01*
G01X3866388Y-3613158D02*
G01X3810762Y-3591822D01*
G01X3866388Y-3613158D02*
G01X3810762Y-3634494D01*
G01X3829304Y-3599950D02*
G01X3829304Y-3626366D01*
G01X6203480Y-944753D02*
G01X6208814Y-942213D01*
G01X6214148Y-936879D01*
G01X6216688Y-931545D01*
G01X6216688Y-920877D01*
G01X6214148Y-915543D01*
G01X6208814Y-910209D01*
G01X6203480Y-907669D01*
G01X6195606Y-905129D01*
G01X6182144Y-905129D01*
G01X6174270Y-907669D01*
G01X6168936Y-910209D01*
G01X6163602Y-915543D01*
G01X6161062Y-920877D01*
G01X6161062Y-931545D01*
G01X6163602Y-936879D01*
G01X6168936Y-942213D01*
G01X6174270Y-944753D01*
G01X6182144Y-944753D01*
G01X6182144Y-931545D02*
G01X6182144Y-944753D01*
G01X6216688Y-972439D02*
G01X6161062Y-972439D01*
G01X6216688Y-972439D02*
G01X6161062Y-1009777D01*
G01X6216688Y-1009777D02*
G01X6161062Y-1009777D01*
G01X6216688Y-1037463D02*
G01X6161062Y-1037463D01*
G01X6216688Y-1037463D02*
G01X6216688Y-1056005D01*
G01X6214148Y-1064133D01*
G01X6208814Y-1069467D01*
G01X6203480Y-1072007D01*
G01X6195606Y-1074801D01*
G01X6182144Y-1074801D01*
G01X6174270Y-1072007D01*
G01X6168936Y-1069467D01*
G01X6163602Y-1064133D01*
G01X6161062Y-1056005D01*
G01X6161062Y-1037463D01*
G01X5954814Y-1001903D02*
G01X5960148Y-999363D01*
G01X5962688Y-991235D01*
G01X5962688Y-985901D01*
G01X5960148Y-978027D01*
G01X5952274Y-972693D01*
G01X5938812Y-970153D01*
G01X5925604Y-970153D01*
G01X5914936Y-972693D01*
G01X5909602Y-978027D01*
G01X5907062Y-985901D01*
G01X5907062Y-988695D01*
G01X5909602Y-996569D01*
G01X5914936Y-1001903D01*
G01X5922810Y-1004443D01*
G01X5925604Y-1004443D01*
G01X5933478Y-1001903D01*
G01X5938812Y-996569D01*
G01X5941606Y-988695D01*
G01X5941606Y-985901D01*
G01X5938812Y-978027D01*
G01X5933478Y-972693D01*
G01X5925604Y-970153D01*
G01X5962688Y-1032129D02*
G01X5907062Y-1053465D01*
G01X5962688Y-1074801D02*
G01X5907062Y-1053465D01*
G01X5700814Y-837819D02*
G01X5706148Y-832485D01*
G01X5708688Y-824611D01*
G01X5708688Y-813943D01*
G01X5706148Y-805815D01*
G01X5700814Y-800735D01*
G01X5695480Y-800735D01*
G01X5690146Y-803275D01*
G01X5687606Y-805815D01*
G01X5684812Y-811149D01*
G01X5679478Y-827151D01*
G01X5676938Y-832485D01*
G01X5674144Y-835025D01*
G01X5668810Y-837819D01*
G01X5660936Y-837819D01*
G01X5655602Y-832485D01*
G01X5653062Y-824611D01*
G01X5653062Y-813943D01*
G01X5655602Y-805815D01*
G01X5660936Y-800735D01*
G01X5708688Y-865505D02*
G01X5706148Y-868299D01*
G01X5708688Y-870839D01*
G01X5711482Y-868299D01*
G01X5708688Y-865505D01*
G01X5690146Y-868299D02*
G01X5653062Y-868299D01*
G01X5690146Y-930529D02*
G01X5647728Y-930529D01*
G01X5639600Y-927735D01*
G01X5637060Y-925195D01*
G01X5634520Y-919861D01*
G01X5634520Y-911987D01*
G01X5637060Y-906653D01*
G01X5682272Y-930529D02*
G01X5687606Y-925195D01*
G01X5690146Y-919861D01*
G01X5690146Y-911987D01*
G01X5687606Y-906653D01*
G01X5682272Y-901319D01*
G01X5674144Y-898525D01*
G01X5668810Y-898525D01*
G01X5660936Y-901319D01*
G01X5655602Y-906653D01*
G01X5653062Y-911987D01*
G01X5653062Y-919861D01*
G01X5655602Y-925195D01*
G01X5660936Y-930529D01*
G01X5690146Y-958215D02*
G01X5653062Y-958215D01*
G01X5679478Y-958215D02*
G01X5687606Y-966343D01*
G01X5690146Y-971677D01*
G01X5690146Y-979551D01*
G01X5687606Y-984885D01*
G01X5679478Y-987425D01*
G01X5653062Y-987425D01*
G01X5690146Y-1047115D02*
G01X5653062Y-1047115D01*
G01X5682272Y-1047115D02*
G01X5687606Y-1041781D01*
G01X5690146Y-1036447D01*
G01X5690146Y-1028573D01*
G01X5687606Y-1023239D01*
G01X5682272Y-1017905D01*
G01X5674144Y-1015111D01*
G01X5668810Y-1015111D01*
G01X5660936Y-1017905D01*
G01X5655602Y-1023239D01*
G01X5653062Y-1028573D01*
G01X5653062Y-1036447D01*
G01X5655602Y-1041781D01*
G01X5660936Y-1047115D01*
G01X5708688Y-1074801D02*
G01X5653062Y-1074801D01*
G01X8821420Y-2509012D02*
G01X8821420Y-2564638D01*
G01X8821420Y-2509012D02*
G01X8845296Y-2509012D01*
G01X8853170Y-2511552D01*
G01X8855710Y-2514346D01*
G01X8858504Y-2519426D01*
G01X8858504Y-2527554D01*
G01X8855710Y-2532888D01*
G01X8853170Y-2535428D01*
G01X8845296Y-2538222D01*
G01X8821420Y-2538222D01*
G01X8899652Y-2527554D02*
G01X8894318Y-2530094D01*
G01X8888984Y-2535428D01*
G01X8886190Y-2543556D01*
G01X8886190Y-2548890D01*
G01X8888984Y-2556764D01*
G01X8894318Y-2562098D01*
G01X8899652Y-2564638D01*
G01X8907526Y-2564638D01*
G01X8912860Y-2562098D01*
G01X8918194Y-2556764D01*
G01X8920734Y-2548890D01*
G01X8920734Y-2543556D01*
G01X8918194Y-2535428D01*
G01X8912860Y-2530094D01*
G01X8907526Y-2527554D01*
G01X8899652Y-2527554D01*
G01X8948420Y-2527554D02*
G01X8959088Y-2564638D01*
G01X8969756Y-2527554D02*
G01X8959088Y-2564638D01*
G01X8969756Y-2527554D02*
G01X8980424Y-2564638D01*
G01X8991092Y-2527554D02*
G01X8980424Y-2564638D01*
G01X9018778Y-2543556D02*
G01X9050782Y-2543556D01*
G01X9050782Y-2538222D01*
G01X9047988Y-2532888D01*
G01X9045448Y-2530094D01*
G01X9040114Y-2527554D01*
G01X9032240Y-2527554D01*
G01X9026906Y-2530094D01*
G01X9021572Y-2535428D01*
G01X9018778Y-2543556D01*
G01X9018778Y-2548890D01*
G01X9021572Y-2556764D01*
G01X9026906Y-2562098D01*
G01X9032240Y-2564638D01*
G01X9040114Y-2564638D01*
G01X9045448Y-2562098D01*
G01X9050782Y-2556764D01*
G01X9078468Y-2527554D02*
G01X9078468Y-2564638D01*
G01X9078468Y-2543556D02*
G01X9081262Y-2535428D01*
G01X9086596Y-2530094D01*
G01X9091930Y-2527554D01*
G01X9099804Y-2527554D01*
G01X8757726Y-4184612D02*
G01X8757726Y-4240238D01*
G01X8794810Y-4184612D02*
G01X8794810Y-4240238D01*
G01X8757726Y-4211028D02*
G01X8794810Y-4211028D01*
G01X8822496Y-4219156D02*
G01X8854500Y-4219156D01*
G01X8854500Y-4213822D01*
G01X8851706Y-4208488D01*
G01X8849166Y-4205694D01*
G01X8843832Y-4203154D01*
G01X8835958Y-4203154D01*
G01X8830624Y-4205694D01*
G01X8825290Y-4211028D01*
G01X8822496Y-4219156D01*
G01X8822496Y-4224490D01*
G01X8825290Y-4232364D01*
G01X8830624Y-4237698D01*
G01X8835958Y-4240238D01*
G01X8843832Y-4240238D01*
G01X8849166Y-4237698D01*
G01X8854500Y-4232364D01*
G01X8914190Y-4203154D02*
G01X8914190Y-4240238D01*
G01X8914190Y-4211028D02*
G01X8908856Y-4205694D01*
G01X8903522Y-4203154D01*
G01X8895648Y-4203154D01*
G01X8890314Y-4205694D01*
G01X8884980Y-4211028D01*
G01X8882186Y-4219156D01*
G01X8882186Y-4224490D01*
G01X8884980Y-4232364D01*
G01X8890314Y-4237698D01*
G01X8895648Y-4240238D01*
G01X8903522Y-4240238D01*
G01X8908856Y-4237698D01*
G01X8914190Y-4232364D01*
G01X8950004Y-4184612D02*
G01X8950004Y-4229570D01*
G01X8952544Y-4237698D01*
G01X8957878Y-4240238D01*
G01X8963212Y-4240238D01*
G01X8941876Y-4203154D02*
G01X8960418Y-4203154D01*
G01X8990898Y-4219156D02*
G01X9022902Y-4219156D01*
G01X9022902Y-4213822D01*
G01X9020108Y-4208488D01*
G01X9017568Y-4205694D01*
G01X9012234Y-4203154D01*
G01X9004360Y-4203154D01*
G01X8999026Y-4205694D01*
G01X8993692Y-4211028D01*
G01X8990898Y-4219156D01*
G01X8990898Y-4224490D01*
G01X8993692Y-4232364D01*
G01X8999026Y-4237698D01*
G01X9004360Y-4240238D01*
G01X9012234Y-4240238D01*
G01X9017568Y-4237698D01*
G01X9022902Y-4232364D01*
G01X9050588Y-4203154D02*
G01X9050588Y-4240238D01*
G01X9050588Y-4219156D02*
G01X9053382Y-4211028D01*
G01X9058716Y-4205694D01*
G01X9064050Y-4203154D01*
G01X9071924Y-4203154D01*
G01X1822488Y-3495989D02*
G01X1822488Y-3469319D01*
G01X1798612Y-3466779D01*
G01X1801406Y-3469319D01*
G01X1803946Y-3477447D01*
G01X1803946Y-3485321D01*
G01X1801406Y-3493449D01*
G01X1796072Y-3498529D01*
G01X1787944Y-3501323D01*
G01X1782610Y-3501323D01*
G01X1774736Y-3498529D01*
G01X1769402Y-3493449D01*
G01X1766862Y-3485321D01*
G01X1766862Y-3477447D01*
G01X1769402Y-3469319D01*
G01X1772196Y-3466779D01*
G01X1777530Y-3464239D01*
G01X1822488Y-3529009D02*
G01X1766862Y-3550345D01*
G01X1822488Y-3571681D02*
G01X1766862Y-3550345D01*
G01X2571280Y-3510848D02*
G01X2576614Y-3508308D01*
G01X2581948Y-3502974D01*
G01X2584488Y-3497640D01*
G01X2584488Y-3486972D01*
G01X2581948Y-3481638D01*
G01X2576614Y-3476304D01*
G01X2571280Y-3473764D01*
G01X2563406Y-3471224D01*
G01X2549944Y-3471224D01*
G01X2542070Y-3473764D01*
G01X2536736Y-3476304D01*
G01X2531402Y-3481638D01*
G01X2528862Y-3486972D01*
G01X2528862Y-3497640D01*
G01X2531402Y-3502974D01*
G01X2536736Y-3508308D01*
G01X2542070Y-3510848D01*
G01X2549944Y-3510848D01*
G01X2549944Y-3497640D02*
G01X2549944Y-3510848D01*
G01X2584488Y-3538534D02*
G01X2528862Y-3538534D01*
G01X2584488Y-3538534D02*
G01X2528862Y-3575872D01*
G01X2584488Y-3575872D02*
G01X2528862Y-3575872D01*
G01X2584488Y-3603558D02*
G01X2528862Y-3603558D01*
G01X2584488Y-3603558D02*
G01X2584488Y-3622100D01*
G01X2581948Y-3630228D01*
G01X2576614Y-3635562D01*
G01X2571280Y-3638102D01*
G01X2563406Y-3640896D01*
G01X2549944Y-3640896D01*
G01X2542070Y-3638102D01*
G01X2536736Y-3635562D01*
G01X2531402Y-3630228D01*
G01X2528862Y-3622100D01*
G01X2528862Y-3603558D01*
G01X2330488Y-3471224D02*
G01X2274862Y-3471224D01*
G01X2330488Y-3471224D02*
G01X2330488Y-3495100D01*
G01X2327948Y-3502974D01*
G01X2325154Y-3505514D01*
G01X2320074Y-3508308D01*
G01X2311946Y-3508308D01*
G01X2306612Y-3505514D01*
G01X2304072Y-3502974D01*
G01X2301278Y-3495100D01*
G01X2301278Y-3471224D01*
G01X2330488Y-3557330D02*
G01X2274862Y-3535994D01*
G01X2330488Y-3557330D02*
G01X2274862Y-3578666D01*
G01X2293404Y-3544122D02*
G01X2293404Y-3570538D01*
G01X2320074Y-3606352D02*
G01X2322614Y-3611686D01*
G01X2330488Y-3619814D01*
G01X2274862Y-3619814D01*
G01X2317280Y-3650294D02*
G01X2320074Y-3650294D01*
G01X2325154Y-3652834D01*
G01X2327948Y-3655628D01*
G01X2330488Y-3660962D01*
G01X2330488Y-3671376D01*
G01X2327948Y-3676710D01*
G01X2325154Y-3679504D01*
G01X2320074Y-3682044D01*
G01X2314740Y-3682044D01*
G01X2309406Y-3679504D01*
G01X2301278Y-3674170D01*
G01X2274862Y-3647500D01*
G01X2274862Y-3684838D01*
G01X2076488Y-3471224D02*
G01X2020862Y-3471224D01*
G01X2076488Y-3471224D02*
G01X2076488Y-3495100D01*
G01X2073948Y-3502974D01*
G01X2071154Y-3505514D01*
G01X2066074Y-3508308D01*
G01X2057946Y-3508308D01*
G01X2052612Y-3505514D01*
G01X2050072Y-3502974D01*
G01X2047278Y-3495100D01*
G01X2047278Y-3471224D01*
G01X2076488Y-3557330D02*
G01X2020862Y-3535994D01*
G01X2076488Y-3557330D02*
G01X2020862Y-3578666D01*
G01X2039404Y-3544122D02*
G01X2039404Y-3570538D01*
G01X2066074Y-3606352D02*
G01X2068614Y-3611686D01*
G01X2076488Y-3619814D01*
G01X2020862Y-3619814D01*
G01X2066074Y-3647500D02*
G01X2068614Y-3652834D01*
G01X2076488Y-3660962D01*
G01X2020862Y-3660962D01*
G01X6437414Y-1513011D02*
G01X6442748Y-1507677D01*
G01X6445288Y-1499803D01*
G01X6445288Y-1489135D01*
G01X6442748Y-1481007D01*
G01X6437414Y-1475927D01*
G01X6432080Y-1475927D01*
G01X6426746Y-1478467D01*
G01X6424206Y-1481007D01*
G01X6421412Y-1486341D01*
G01X6416078Y-1502343D01*
G01X6413538Y-1507677D01*
G01X6410744Y-1510217D01*
G01X6405410Y-1513011D01*
G01X6397536Y-1513011D01*
G01X6392202Y-1507677D01*
G01X6389662Y-1499803D01*
G01X6389662Y-1489135D01*
G01X6392202Y-1481007D01*
G01X6397536Y-1475927D01*
G01X6410744Y-1540697D02*
G01X6410744Y-1572701D01*
G01X6416078Y-1572701D01*
G01X6421412Y-1569907D01*
G01X6424206Y-1567367D01*
G01X6426746Y-1562033D01*
G01X6426746Y-1554159D01*
G01X6424206Y-1548825D01*
G01X6418872Y-1543491D01*
G01X6410744Y-1540697D01*
G01X6405410Y-1540697D01*
G01X6397536Y-1543491D01*
G01X6392202Y-1548825D01*
G01X6389662Y-1554159D01*
G01X6389662Y-1562033D01*
G01X6392202Y-1567367D01*
G01X6397536Y-1572701D01*
G01X6426746Y-1600387D02*
G01X6389662Y-1600387D01*
G01X6410744Y-1600387D02*
G01X6418872Y-1603181D01*
G01X6424206Y-1608515D01*
G01X6426746Y-1613849D01*
G01X6426746Y-1621723D01*
G01X6426746Y-1649409D02*
G01X6389662Y-1665411D01*
G01X6426746Y-1681413D02*
G01X6389662Y-1665411D01*
G01X6426746Y-1722561D02*
G01X6424206Y-1717227D01*
G01X6418872Y-1711893D01*
G01X6410744Y-1709099D01*
G01X6405410Y-1709099D01*
G01X6397536Y-1711893D01*
G01X6392202Y-1717227D01*
G01X6389662Y-1722561D01*
G01X6389662Y-1730435D01*
G01X6392202Y-1735769D01*
G01X6397536Y-1741103D01*
G01X6405410Y-1743643D01*
G01X6410744Y-1743643D01*
G01X6418872Y-1741103D01*
G01X6424206Y-1735769D01*
G01X6426746Y-1730435D01*
G01X6426746Y-1722561D01*
G01X6418872Y-1800539D02*
G01X6424206Y-1797999D01*
G01X6426746Y-1789871D01*
G01X6426746Y-1781997D01*
G01X6424206Y-1774123D01*
G01X6418872Y-1771329D01*
G01X6413538Y-1774123D01*
G01X6410744Y-1779457D01*
G01X6408204Y-1792665D01*
G01X6405410Y-1797999D01*
G01X6400330Y-1800539D01*
G01X6397536Y-1800539D01*
G01X6392202Y-1797999D01*
G01X6389662Y-1789871D01*
G01X6389662Y-1781997D01*
G01X6392202Y-1774123D01*
G01X6397536Y-1771329D01*
G01X1822488Y-5619937D02*
G01X1766862Y-5619937D01*
G01X1822488Y-5619937D02*
G01X1822488Y-5643813D01*
G01X1819948Y-5651687D01*
G01X1817154Y-5654227D01*
G01X1812074Y-5657021D01*
G01X1803946Y-5657021D01*
G01X1798612Y-5654227D01*
G01X1796072Y-5651687D01*
G01X1793278Y-5643813D01*
G01X1793278Y-5619937D01*
G01X1822488Y-5684707D02*
G01X1766862Y-5698169D01*
G01X1822488Y-5711377D02*
G01X1766862Y-5698169D01*
G01X1822488Y-5711377D02*
G01X1766862Y-5724585D01*
G01X1822488Y-5737793D02*
G01X1766862Y-5724585D01*
G01X1822488Y-5765479D02*
G01X1766862Y-5765479D01*
G01X1822488Y-5765479D02*
G01X1822488Y-5789355D01*
G01X1819948Y-5797483D01*
G01X1817154Y-5800023D01*
G01X1812074Y-5802817D01*
G01X1806740Y-5802817D01*
G01X1801406Y-5800023D01*
G01X1798612Y-5797483D01*
G01X1796072Y-5789355D01*
G01X1796072Y-5765479D01*
G01X1796072Y-5784021D02*
G01X1766862Y-5802817D01*
G01X1822488Y-5905941D02*
G01X1819948Y-5900607D01*
G01X1814614Y-5895273D01*
G01X1809280Y-5892733D01*
G01X1801406Y-5890193D01*
G01X1787944Y-5890193D01*
G01X1780070Y-5892733D01*
G01X1774736Y-5895273D01*
G01X1769402Y-5900607D01*
G01X1766862Y-5905941D01*
G01X1766862Y-5916609D01*
G01X1769402Y-5921943D01*
G01X1774736Y-5927277D01*
G01X1780070Y-5929817D01*
G01X1787944Y-5932611D01*
G01X1801406Y-5932611D01*
G01X1809280Y-5929817D01*
G01X1814614Y-5927277D01*
G01X1819948Y-5921943D01*
G01X1822488Y-5916609D01*
G01X1822488Y-5905941D01*
G01X1822488Y-5960297D02*
G01X1782610Y-5960297D01*
G01X1774736Y-5963091D01*
G01X1769402Y-5968425D01*
G01X1766862Y-5976299D01*
G01X1766862Y-5981633D01*
G01X1769402Y-5989507D01*
G01X1774736Y-5994841D01*
G01X1782610Y-5997635D01*
G01X1822488Y-5997635D01*
G01X1822488Y-6043863D02*
G01X1766862Y-6043863D01*
G01X1822488Y-6025321D02*
G01X1822488Y-6062659D01*
G01X4032288Y-5633399D02*
G01X3976662Y-5633399D01*
G01X4032288Y-5633399D02*
G01X4032288Y-5657275D01*
G01X4029748Y-5665149D01*
G01X4026954Y-5667689D01*
G01X4021874Y-5670483D01*
G01X4013746Y-5670483D01*
G01X4008412Y-5667689D01*
G01X4005872Y-5665149D01*
G01X4003078Y-5657275D01*
G01X4003078Y-5633399D01*
G01X4032288Y-5698169D02*
G01X3976662Y-5711631D01*
G01X4032288Y-5724839D02*
G01X3976662Y-5711631D01*
G01X4032288Y-5724839D02*
G01X3976662Y-5738047D01*
G01X4032288Y-5751255D02*
G01X3976662Y-5738047D01*
G01X4032288Y-5778941D02*
G01X3976662Y-5778941D01*
G01X4032288Y-5778941D02*
G01X4032288Y-5802817D01*
G01X4029748Y-5810945D01*
G01X4026954Y-5813485D01*
G01X4021874Y-5816279D01*
G01X4016540Y-5816279D01*
G01X4011206Y-5813485D01*
G01X4008412Y-5810945D01*
G01X4005872Y-5802817D01*
G01X4005872Y-5778941D01*
G01X4005872Y-5797483D02*
G01X3976662Y-5816279D01*
G01X4032288Y-5919403D02*
G01X4029748Y-5914069D01*
G01X4024414Y-5908735D01*
G01X4019080Y-5906195D01*
G01X4011206Y-5903655D01*
G01X3997744Y-5903655D01*
G01X3989870Y-5906195D01*
G01X3984536Y-5908735D01*
G01X3979202Y-5914069D01*
G01X3976662Y-5919403D01*
G01X3976662Y-5930071D01*
G01X3979202Y-5935405D01*
G01X3984536Y-5940739D01*
G01X3989870Y-5943279D01*
G01X3997744Y-5946073D01*
G01X4011206Y-5946073D01*
G01X4019080Y-5943279D01*
G01X4024414Y-5940739D01*
G01X4029748Y-5935405D01*
G01X4032288Y-5930071D01*
G01X4032288Y-5919403D01*
G01X4032288Y-5973759D02*
G01X3992410Y-5973759D01*
G01X3984536Y-5976553D01*
G01X3979202Y-5981887D01*
G01X3976662Y-5989761D01*
G01X3976662Y-5995095D01*
G01X3979202Y-6002969D01*
G01X3984536Y-6008303D01*
G01X3992410Y-6011097D01*
G01X4032288Y-6011097D01*
G01X4032288Y-6057325D02*
G01X3976662Y-6057325D01*
G01X4032288Y-6038783D02*
G01X4032288Y-6076121D01*
G54D11*
G01X1428888Y-3264916D02*
G01X1428888Y-3329940D01*
G01X1428888Y-3264916D02*
G01X1469020Y-3264916D01*
G01X1428888Y-3295904D02*
G01X1453780Y-3295904D01*
G01X1428888Y-3329940D02*
G01X1469020Y-3329940D01*
G01X1499246Y-3264916D02*
G01X1542426Y-3329940D01*
G01X1542426Y-3264916D02*
G01X1499246Y-3329940D01*
G01X1572652Y-3264916D02*
G01X1572652Y-3329940D01*
G01X1572652Y-3264916D02*
G01X1600338Y-3264916D01*
G01X1609736Y-3267964D01*
G01X1612784Y-3271012D01*
G01X1615832Y-3277362D01*
G01X1615832Y-3286506D01*
G01X1612784Y-3292602D01*
G01X1609736Y-3295904D01*
G01X1600338Y-3298952D01*
G01X1572652Y-3298952D01*
G01X4336034Y-677164D02*
G01X4271010Y-677164D01*
G01X4336034Y-655574D02*
G01X4336034Y-699008D01*
G01X4336034Y-729234D02*
G01X4271010Y-729234D01*
G01X4336034Y-772414D02*
G01X4271010Y-772414D01*
G01X4305046Y-729234D02*
G01X4305046Y-772414D01*
G01X4323588Y-802640D02*
G01X4326890Y-808736D01*
G01X4336034Y-817880D01*
G01X4271010Y-817880D01*
G01X5104384Y-674497D02*
G01X5039360Y-674497D01*
G01X5104384Y-652907D02*
G01X5104384Y-696341D01*
G01X5104384Y-726567D02*
G01X5039360Y-726567D01*
G01X5104384Y-769747D02*
G01X5039360Y-769747D01*
G01X5073396Y-726567D02*
G01X5073396Y-769747D01*
G01X5104384Y-818515D02*
G01X5101336Y-809117D01*
G01X5091938Y-803021D01*
G01X5076698Y-799973D01*
G01X5067300Y-799973D01*
G01X5051806Y-803021D01*
G01X5042408Y-809117D01*
G01X5039360Y-818515D01*
G01X5039360Y-824611D01*
G01X5042408Y-834009D01*
G01X5051806Y-840105D01*
G01X5067300Y-843153D01*
G01X5076698Y-843153D01*
G01X5091938Y-840105D01*
G01X5101336Y-834009D01*
G01X5104384Y-824611D01*
G01X5104384Y-818515D01*
G54D10*
G01X3577336Y-5074412D02*
G01X3577336Y-5116830D01*
G01X3574796Y-5124704D01*
G01X3572002Y-5127498D01*
G01X3566668Y-5130038D01*
G01X3561334Y-5130038D01*
G01X3556000Y-5127498D01*
G01X3553460Y-5124704D01*
G01X3550920Y-5116830D01*
G01X3550920Y-5111496D01*
G01X3605022Y-5074412D02*
G01X3605022Y-5130038D01*
G01X3605022Y-5130038D02*
G01X3637026Y-5130038D01*
G01X3704590Y-5087620D02*
G01X3702050Y-5082286D01*
G01X3696716Y-5076952D01*
G01X3691382Y-5074412D01*
G01X3680714Y-5074412D01*
G01X3675380Y-5076952D01*
G01X3670046Y-5082286D01*
G01X3667506Y-5087620D01*
G01X3664712Y-5095494D01*
G01X3664712Y-5108956D01*
G01X3667506Y-5116830D01*
G01X3670046Y-5122164D01*
G01X3675380Y-5127498D01*
G01X3680714Y-5130038D01*
G01X3691382Y-5130038D01*
G01X3696716Y-5127498D01*
G01X3702050Y-5122164D01*
G01X3704590Y-5116830D01*
G01X3758946Y-5074412D02*
G01X3758946Y-5116830D01*
G01X3756152Y-5124704D01*
G01X3753612Y-5127498D01*
G01X3748278Y-5130038D01*
G01X3742944Y-5130038D01*
G01X3737610Y-5127498D01*
G01X3735070Y-5124704D01*
G01X3732276Y-5116830D01*
G01X3732276Y-5111496D01*
G01X3786632Y-5074412D02*
G01X3786632Y-5130038D01*
G01X3786632Y-5130038D02*
G01X3818636Y-5130038D01*
G01X3886200Y-5087620D02*
G01X3883660Y-5082286D01*
G01X3878326Y-5076952D01*
G01X3872992Y-5074412D01*
G01X3862324Y-5074412D01*
G01X3856990Y-5076952D01*
G01X3851656Y-5082286D01*
G01X3849116Y-5087620D01*
G01X3846322Y-5095494D01*
G01X3846322Y-5108956D01*
G01X3849116Y-5116830D01*
G01X3851656Y-5122164D01*
G01X3856990Y-5127498D01*
G01X3862324Y-5130038D01*
G01X3872992Y-5130038D01*
G01X3878326Y-5127498D01*
G01X3883660Y-5122164D01*
G01X3886200Y-5116830D01*
G01X3940556Y-5074412D02*
G01X3940556Y-5116830D01*
G01X3937762Y-5124704D01*
G01X3935222Y-5127498D01*
G01X3929888Y-5130038D01*
G01X3924554Y-5130038D01*
G01X3919220Y-5127498D01*
G01X3916680Y-5124704D01*
G01X3913886Y-5116830D01*
G01X3913886Y-5111496D01*
G01X3968242Y-5074412D02*
G01X3968242Y-5130038D01*
G01X3968242Y-5130038D02*
G01X4000246Y-5130038D01*
G01X4067810Y-5087620D02*
G01X4065270Y-5082286D01*
G01X4059936Y-5076952D01*
G01X4054602Y-5074412D01*
G01X4043934Y-5074412D01*
G01X4038600Y-5076952D01*
G01X4033266Y-5082286D01*
G01X4030726Y-5087620D01*
G01X4027932Y-5095494D01*
G01X4027932Y-5108956D01*
G01X4030726Y-5116830D01*
G01X4033266Y-5122164D01*
G01X4038600Y-5127498D01*
G01X4043934Y-5130038D01*
G01X4054602Y-5130038D01*
G01X4059936Y-5127498D01*
G01X4065270Y-5122164D01*
G01X4067810Y-5116830D01*
G01X4122166Y-5074412D02*
G01X4122166Y-5116830D01*
G01X4119372Y-5124704D01*
G01X4116832Y-5127498D01*
G01X4111498Y-5130038D01*
G01X4106164Y-5130038D01*
G01X4100830Y-5127498D01*
G01X4098290Y-5124704D01*
G01X4095496Y-5116830D01*
G01X4095496Y-5111496D01*
G01X4149852Y-5074412D02*
G01X4149852Y-5130038D01*
G01X4149852Y-5130038D02*
G01X4181856Y-5130038D01*
G01X4249420Y-5087620D02*
G01X4246880Y-5082286D01*
G01X4241546Y-5076952D01*
G01X4236212Y-5074412D01*
G01X4225544Y-5074412D01*
G01X4220210Y-5076952D01*
G01X4214876Y-5082286D01*
G01X4212336Y-5087620D01*
G01X4209542Y-5095494D01*
G01X4209542Y-5108956D01*
G01X4212336Y-5116830D01*
G01X4214876Y-5122164D01*
G01X4220210Y-5127498D01*
G01X4225544Y-5130038D01*
G01X4236212Y-5130038D01*
G01X4241546Y-5127498D01*
G01X4246880Y-5122164D01*
G01X4249420Y-5116830D01*
G54D11*
G01X201676Y-2954020D02*
G01X159512Y-2987802D01*
G01X113284Y-2987802D01*
G01X201676Y-3021330D02*
G01X159512Y-2987802D01*
G01X201676Y-3090418D02*
G01X113284Y-3056890D01*
G01X201676Y-3090418D02*
G01X113284Y-3124200D01*
G01X142748Y-3069336D02*
G01X142748Y-3111500D01*
G01X201676Y-3159760D02*
G01X113284Y-3159760D01*
G01X201676Y-3159760D02*
G01X113284Y-3193288D01*
G01X201676Y-3227070D02*
G01X113284Y-3193288D01*
G01X201676Y-3227070D02*
G01X113284Y-3227070D01*
G01X201676Y-3262630D02*
G01X113284Y-3262630D01*
G01X201676Y-3262630D02*
G01X113284Y-3296158D01*
G01X201676Y-3329940D02*
G01X113284Y-3296158D01*
G01X201676Y-3329940D02*
G01X113284Y-3329940D01*
G01X201676Y-3365500D02*
G01X138684Y-3365500D01*
G01X125984Y-3369564D01*
G01X117602Y-3377946D01*
G01X113284Y-3390646D01*
G01X113284Y-3399028D01*
G01X117602Y-3411728D01*
G01X125984Y-3420110D01*
G01X138684Y-3424428D01*
G01X201676Y-3424428D01*
G01X180594Y-3617468D02*
G01X188976Y-3613150D01*
G01X197612Y-3604768D01*
G01X201676Y-3596386D01*
G01X201676Y-3579368D01*
G01X197612Y-3570986D01*
G01X188976Y-3562604D01*
G01X180594Y-3558540D01*
G01X168148Y-3554222D01*
G01X147066Y-3554222D01*
G01X134366Y-3558540D01*
G01X125984Y-3562604D01*
G01X117602Y-3570986D01*
G01X113284Y-3579368D01*
G01X113284Y-3596386D01*
G01X117602Y-3604768D01*
G01X125984Y-3613150D01*
G01X134366Y-3617468D01*
G01X172212Y-3673856D02*
G01X168148Y-3665474D01*
G01X159512Y-3657092D01*
G01X147066Y-3653028D01*
G01X138684Y-3653028D01*
G01X125984Y-3657092D01*
G01X117602Y-3665474D01*
G01X113284Y-3673856D01*
G01X113284Y-3686556D01*
G01X117602Y-3694938D01*
G01X125984Y-3703574D01*
G01X138684Y-3707638D01*
G01X147066Y-3707638D01*
G01X159512Y-3703574D01*
G01X168148Y-3694938D01*
G01X172212Y-3686556D01*
G01X172212Y-3673856D01*
G01X172212Y-3743198D02*
G01X113284Y-3743198D01*
G01X155448Y-3743198D02*
G01X168148Y-3755644D01*
G01X172212Y-3764026D01*
G01X172212Y-3776726D01*
G01X168148Y-3785108D01*
G01X155448Y-3789426D01*
G01X113284Y-3789426D01*
G01X201676Y-3837432D02*
G01X130048Y-3837432D01*
G01X117602Y-3841750D01*
G01X113284Y-3850132D01*
G01X113284Y-3858514D01*
G01X172212Y-3824986D02*
G01X172212Y-3854450D01*
G01X172212Y-3894074D02*
G01X113284Y-3894074D01*
G01X147066Y-3894074D02*
G01X159512Y-3898138D01*
G01X168148Y-3906520D01*
G01X172212Y-3914902D01*
G01X172212Y-3927602D01*
G01X172212Y-3983990D02*
G01X168148Y-3975608D01*
G01X159512Y-3967226D01*
G01X147066Y-3963162D01*
G01X138684Y-3963162D01*
G01X125984Y-3967226D01*
G01X117602Y-3975608D01*
G01X113284Y-3983990D01*
G01X113284Y-3996690D01*
G01X117602Y-4005072D01*
G01X125984Y-4013708D01*
G01X138684Y-4017772D01*
G01X147066Y-4017772D01*
G01X159512Y-4013708D01*
G01X168148Y-4005072D01*
G01X172212Y-3996690D01*
G01X172212Y-3983990D01*
G01X201676Y-4053332D02*
G01X113284Y-4053332D01*
G01X201676Y-4183126D02*
G01X113284Y-4183126D01*
G01X201676Y-4183126D02*
G01X201676Y-4220972D01*
G01X197612Y-4233672D01*
G01X193294Y-4237990D01*
G01X184912Y-4242054D01*
G01X176530Y-4242054D01*
G01X168148Y-4237990D01*
G01X163830Y-4233672D01*
G01X159512Y-4220972D01*
G01X159512Y-4183126D02*
G01X159512Y-4220972D01*
G01X155448Y-4233672D01*
G01X151130Y-4237990D01*
G01X142748Y-4242054D01*
G01X130048Y-4242054D01*
G01X121666Y-4237990D01*
G01X117602Y-4233672D01*
G01X113284Y-4220972D01*
G01X113284Y-4183126D01*
G01X172212Y-4298442D02*
G01X168148Y-4290060D01*
G01X159512Y-4281678D01*
G01X147066Y-4277614D01*
G01X138684Y-4277614D01*
G01X125984Y-4281678D01*
G01X117602Y-4290060D01*
G01X113284Y-4298442D01*
G01X113284Y-4311142D01*
G01X117602Y-4319524D01*
G01X125984Y-4328160D01*
G01X138684Y-4332224D01*
G01X147066Y-4332224D01*
G01X159512Y-4328160D01*
G01X168148Y-4319524D01*
G01X172212Y-4311142D01*
G01X172212Y-4298442D01*
G01X172212Y-4418330D02*
G01X113284Y-4418330D01*
G01X159512Y-4418330D02*
G01X168148Y-4409694D01*
G01X172212Y-4401312D01*
G01X172212Y-4388612D01*
G01X168148Y-4380230D01*
G01X159512Y-4371848D01*
G01X147066Y-4367784D01*
G01X138684Y-4367784D01*
G01X125984Y-4371848D01*
G01X117602Y-4380230D01*
G01X113284Y-4388612D01*
G01X113284Y-4401312D01*
G01X117602Y-4409694D01*
G01X125984Y-4418330D01*
G01X172212Y-4453890D02*
G01X113284Y-4453890D01*
G01X147066Y-4453890D02*
G01X159512Y-4457954D01*
G01X168148Y-4466336D01*
G01X172212Y-4474718D01*
G01X172212Y-4487418D01*
G01X201676Y-4573524D02*
G01X113284Y-4573524D01*
G01X159512Y-4573524D02*
G01X168148Y-4564888D01*
G01X172212Y-4556506D01*
G01X172212Y-4543806D01*
G01X168148Y-4535424D01*
G01X159512Y-4527042D01*
G01X147066Y-4522978D01*
G01X138684Y-4522978D01*
G01X125984Y-4527042D01*
G01X117602Y-4535424D01*
G01X113284Y-4543806D01*
G01X113284Y-4556506D01*
G01X117602Y-4564888D01*
G01X125984Y-4573524D01*
G01X201676Y-4703318D02*
G01X113284Y-4737100D01*
G01X201676Y-4770628D02*
G01X113284Y-4737100D01*
G01X201676Y-4814570D02*
G01X201676Y-4860798D01*
G01X168148Y-4835652D01*
G01X168148Y-4848098D01*
G01X163830Y-4856734D01*
G01X159512Y-4860798D01*
G01X147066Y-4865116D01*
G01X138684Y-4865116D01*
G01X125984Y-4860798D01*
G01X117602Y-4852416D01*
G01X113284Y-4839716D01*
G01X113284Y-4827016D01*
G01X117602Y-4814570D01*
G01X121666Y-4810252D01*
G01X130048Y-4806188D01*
G01X134366Y-4904740D02*
G01X130048Y-4900676D01*
G01X125984Y-4904740D01*
G01X130048Y-4909058D01*
G01X134366Y-4904740D01*
G01X184912Y-4944618D02*
G01X188976Y-4953000D01*
G01X201676Y-4965446D01*
G01X113284Y-4965446D01*
G01X4033520Y-3268530D02*
G01X4033520Y-3333554D01*
G01X4066794Y-3284024D02*
G01X4066794Y-3280976D01*
G01X4069842Y-3274626D01*
G01X4072890Y-3271578D01*
G01X4078986Y-3268530D01*
G01X4091432Y-3268530D01*
G01X4097782Y-3271578D01*
G01X4100830Y-3274626D01*
G01X4103878Y-3280976D01*
G01X4103878Y-3287072D01*
G01X4100830Y-3293168D01*
G01X4094480Y-3302566D01*
G01X4063746Y-3333554D01*
G01X4106926Y-3333554D01*
G01X4183380Y-3284024D02*
G01X4180332Y-3277674D01*
G01X4174236Y-3271578D01*
G01X4167886Y-3268530D01*
G01X4155694Y-3268530D01*
G01X4149344Y-3271578D01*
G01X4143248Y-3277674D01*
G01X4140200Y-3284024D01*
G01X4137152Y-3293168D01*
G01X4137152Y-3308662D01*
G01X4140200Y-3318060D01*
G01X4143248Y-3324156D01*
G01X4149344Y-3330506D01*
G01X4155694Y-3333554D01*
G01X4167886Y-3333554D01*
G01X4174236Y-3330506D01*
G01X4180332Y-3324156D01*
G01X4183380Y-3318060D01*
G01X7866515Y-5622671D02*
G01X7801491Y-5622671D01*
G01X7866515Y-5622671D02*
G01X7801491Y-5647563D01*
G01X7866515Y-5672201D02*
G01X7801491Y-5647563D01*
G01X7866515Y-5672201D02*
G01X7801491Y-5672201D01*
G01X7866515Y-5702427D02*
G01X7801491Y-5702427D01*
G01X7866515Y-5702427D02*
G01X7866515Y-5742559D01*
G01X7835527Y-5702427D02*
G01X7835527Y-5727065D01*
G01X896620Y-5315966D02*
G01X896620Y-5380990D01*
G01X896620Y-5315966D02*
G01X918210Y-5315966D01*
G01X927608Y-5319014D01*
G01X933704Y-5325110D01*
G01X936752Y-5331460D01*
G01X940054Y-5340604D01*
G01X940054Y-5356098D01*
G01X936752Y-5365496D01*
G01X933704Y-5371592D01*
G01X927608Y-5377942D01*
G01X918210Y-5380990D01*
G01X896620Y-5380990D01*
G01X970280Y-5337556D02*
G01X970280Y-5380990D01*
G01X970280Y-5356098D02*
G01X973328Y-5346954D01*
G01X979424Y-5340604D01*
G01X985520Y-5337556D01*
G01X994918Y-5337556D01*
G01X1062228Y-5337556D02*
G01X1062228Y-5380990D01*
G01X1062228Y-5346954D02*
G01X1055878Y-5340604D01*
G01X1049782Y-5337556D01*
G01X1040384Y-5337556D01*
G01X1034288Y-5340604D01*
G01X1028192Y-5346954D01*
G01X1025144Y-5356098D01*
G01X1025144Y-5362448D01*
G01X1028192Y-5371592D01*
G01X1034288Y-5377942D01*
G01X1040384Y-5380990D01*
G01X1049782Y-5380990D01*
G01X1055878Y-5377942D01*
G01X1062228Y-5371592D01*
G01X1092454Y-5337556D02*
G01X1104646Y-5380990D01*
G01X1117092Y-5337556D02*
G01X1104646Y-5380990D01*
G01X1117092Y-5337556D02*
G01X1129538Y-5380990D01*
G01X1141984Y-5337556D02*
G01X1129538Y-5380990D01*
G01X1172210Y-5356098D02*
G01X1209294Y-5356098D01*
G01X1209294Y-5350002D01*
G01X1206246Y-5343652D01*
G01X1202944Y-5340604D01*
G01X1196848Y-5337556D01*
G01X1187450Y-5337556D01*
G01X1181354Y-5340604D01*
G01X1175258Y-5346954D01*
G01X1172210Y-5356098D01*
G01X1172210Y-5362448D01*
G01X1175258Y-5371592D01*
G01X1181354Y-5377942D01*
G01X1187450Y-5380990D01*
G01X1196848Y-5380990D01*
G01X1202944Y-5377942D01*
G01X1209294Y-5371592D01*
G01X1239520Y-5337556D02*
G01X1239520Y-5380990D01*
G01X1239520Y-5356098D02*
G01X1242568Y-5346954D01*
G01X1248664Y-5340604D01*
G01X1254760Y-5337556D01*
G01X1264158Y-5337556D01*
G01X1294384Y-5328412D02*
G01X1300480Y-5325110D01*
G01X1309624Y-5315966D01*
G01X1309624Y-5380990D01*
G01X4427220Y-5328666D02*
G01X4427220Y-5393690D01*
G01X4427220Y-5328666D02*
G01X4448810Y-5328666D01*
G01X4458208Y-5331714D01*
G01X4464304Y-5337810D01*
G01X4467352Y-5344160D01*
G01X4470654Y-5353304D01*
G01X4470654Y-5368798D01*
G01X4467352Y-5378196D01*
G01X4464304Y-5384292D01*
G01X4458208Y-5390642D01*
G01X4448810Y-5393690D01*
G01X4427220Y-5393690D01*
G01X4500880Y-5350256D02*
G01X4500880Y-5393690D01*
G01X4500880Y-5368798D02*
G01X4503928Y-5359654D01*
G01X4510024Y-5353304D01*
G01X4516120Y-5350256D01*
G01X4525518Y-5350256D01*
G01X4592828Y-5350256D02*
G01X4592828Y-5393690D01*
G01X4592828Y-5359654D02*
G01X4586478Y-5353304D01*
G01X4580382Y-5350256D01*
G01X4570984Y-5350256D01*
G01X4564888Y-5353304D01*
G01X4558792Y-5359654D01*
G01X4555744Y-5368798D01*
G01X4555744Y-5375148D01*
G01X4558792Y-5384292D01*
G01X4564888Y-5390642D01*
G01X4570984Y-5393690D01*
G01X4580382Y-5393690D01*
G01X4586478Y-5390642D01*
G01X4592828Y-5384292D01*
G01X4623054Y-5350256D02*
G01X4635246Y-5393690D01*
G01X4647692Y-5350256D02*
G01X4635246Y-5393690D01*
G01X4647692Y-5350256D02*
G01X4660138Y-5393690D01*
G01X4672584Y-5350256D02*
G01X4660138Y-5393690D01*
G01X4702810Y-5368798D02*
G01X4739894Y-5368798D01*
G01X4739894Y-5362702D01*
G01X4736846Y-5356352D01*
G01X4733544Y-5353304D01*
G01X4727448Y-5350256D01*
G01X4718050Y-5350256D01*
G01X4711954Y-5353304D01*
G01X4705858Y-5359654D01*
G01X4702810Y-5368798D01*
G01X4702810Y-5375148D01*
G01X4705858Y-5384292D01*
G01X4711954Y-5390642D01*
G01X4718050Y-5393690D01*
G01X4727448Y-5393690D01*
G01X4733544Y-5390642D01*
G01X4739894Y-5384292D01*
G01X4770120Y-5350256D02*
G01X4770120Y-5393690D01*
G01X4770120Y-5368798D02*
G01X4773168Y-5359654D01*
G01X4779264Y-5353304D01*
G01X4785360Y-5350256D01*
G01X4794758Y-5350256D01*
G01X4828032Y-5344160D02*
G01X4828032Y-5341112D01*
G01X4831080Y-5334762D01*
G01X4834128Y-5331714D01*
G01X4840224Y-5328666D01*
G01X4852670Y-5328666D01*
G01X4859020Y-5331714D01*
G01X4862068Y-5334762D01*
G01X4865116Y-5341112D01*
G01X4865116Y-5347208D01*
G01X4862068Y-5353304D01*
G01X4855718Y-5362702D01*
G01X4824984Y-5393690D01*
G01X4868164Y-5393690D01*
G01X2519934Y-183642D02*
G01X2454910Y-183642D01*
G01X2519934Y-183642D02*
G01X2519934Y-211582D01*
G01X2516886Y-220726D01*
G01X2513838Y-223774D01*
G01X2507488Y-227076D01*
G01X2501392Y-227076D01*
G01X2495296Y-223774D01*
G01X2492248Y-220726D01*
G01X2488946Y-211582D01*
G01X2488946Y-183642D02*
G01X2488946Y-211582D01*
G01X2485898Y-220726D01*
G01X2482850Y-223774D01*
G01X2476754Y-227076D01*
G01X2467356Y-227076D01*
G01X2461260Y-223774D01*
G01X2457958Y-220726D01*
G01X2454910Y-211582D01*
G01X2454910Y-183642D01*
G01X2479802Y-257302D02*
G01X2479802Y-294386D01*
G01X2485898Y-294386D01*
G01X2492248Y-291338D01*
G01X2495296Y-288036D01*
G01X2498344Y-281940D01*
G01X2498344Y-272542D01*
G01X2495296Y-266446D01*
G01X2488946Y-260350D01*
G01X2479802Y-257302D01*
G01X2473452Y-257302D01*
G01X2464308Y-260350D01*
G01X2457958Y-266446D01*
G01X2454910Y-272542D01*
G01X2454910Y-281940D01*
G01X2457958Y-288036D01*
G01X2464308Y-294386D01*
G01X2519934Y-324612D02*
G01X2454910Y-324612D01*
G01X2498344Y-391922D02*
G01X2454910Y-391922D01*
G01X2488946Y-391922D02*
G01X2495296Y-385572D01*
G01X2498344Y-379476D01*
G01X2498344Y-370078D01*
G01X2495296Y-363982D01*
G01X2488946Y-357886D01*
G01X2479802Y-354838D01*
G01X2473452Y-354838D01*
G01X2464308Y-357886D01*
G01X2457958Y-363982D01*
G01X2454910Y-370078D01*
G01X2454910Y-379476D01*
G01X2457958Y-385572D01*
G01X2464308Y-391922D01*
G01X2498344Y-425196D02*
G01X2454910Y-443738D01*
G01X2498344Y-462280D02*
G01X2454910Y-443738D01*
G01X2442718Y-437388D01*
G01X2436368Y-431292D01*
G01X2433320Y-425196D01*
G01X2433320Y-422148D01*
G01X4795520Y-3868166D02*
G01X4795520Y-3933190D01*
G01X4795520Y-3868166D02*
G01X4823460Y-3868166D01*
G01X4832604Y-3871214D01*
G01X4835652Y-3874262D01*
G01X4838954Y-3880612D01*
G01X4838954Y-3886708D01*
G01X4835652Y-3892804D01*
G01X4832604Y-3895852D01*
G01X4823460Y-3899154D01*
G01X4795520Y-3899154D01*
G01X4817110Y-3899154D02*
G01X4838954Y-3933190D01*
G01X4915408Y-3883660D02*
G01X4912360Y-3877310D01*
G01X4906264Y-3871214D01*
G01X4899914Y-3868166D01*
G01X4887722Y-3868166D01*
G01X4881372Y-3871214D01*
G01X4875276Y-3877310D01*
G01X4872228Y-3883660D01*
G01X4869180Y-3892804D01*
G01X4869180Y-3908298D01*
G01X4872228Y-3917696D01*
G01X4875276Y-3923792D01*
G01X4881372Y-3930142D01*
G01X4887722Y-3933190D01*
G01X4899914Y-3933190D01*
G01X4906264Y-3930142D01*
G01X4912360Y-3923792D01*
G01X4915408Y-3917696D01*
G01X4915408Y-3908298D01*
G01X4899914Y-3908298D02*
G01X4915408Y-3908298D01*
G01X4945634Y-3868166D02*
G01X4945634Y-3933190D01*
G01X4945634Y-3868166D02*
G01X4973320Y-3868166D01*
G01X4982718Y-3871214D01*
G01X4985766Y-3874262D01*
G01X4988814Y-3880612D01*
G01X4988814Y-3886708D01*
G01X4985766Y-3892804D01*
G01X4982718Y-3895852D01*
G01X4973320Y-3899154D01*
G01X4945634Y-3899154D02*
G01X4973320Y-3899154D01*
G01X4982718Y-3902202D01*
G01X4985766Y-3905250D01*
G01X4988814Y-3911346D01*
G01X4988814Y-3920744D01*
G01X4985766Y-3926840D01*
G01X4982718Y-3930142D01*
G01X4973320Y-3933190D01*
G01X4945634Y-3933190D01*
G01X6395720Y-5328666D02*
G01X6395720Y-5393690D01*
G01X6395720Y-5328666D02*
G01X6435852Y-5328666D01*
G01X6395720Y-5359654D02*
G01X6420612Y-5359654D01*
G01X6490716Y-5328666D02*
G01X6466078Y-5393690D01*
G01X6490716Y-5328666D02*
G01X6515608Y-5393690D01*
G01X6475222Y-5371846D02*
G01X6506210Y-5371846D01*
G01X6545834Y-5328666D02*
G01X6545834Y-5393690D01*
G01X6545834Y-5328666D02*
G01X6589014Y-5393690D01*
G01X6589014Y-5328666D02*
G01X6589014Y-5393690D01*
G01X6619240Y-5341112D02*
G01X6625336Y-5337810D01*
G01X6634480Y-5328666D01*
G01X6634480Y-5393690D01*
G01X5646420Y-5315966D02*
G01X5646420Y-5380990D01*
G01X5646420Y-5315966D02*
G01X5686552Y-5315966D01*
G01X5646420Y-5346954D02*
G01X5671312Y-5346954D01*
G01X5741416Y-5315966D02*
G01X5716778Y-5380990D01*
G01X5741416Y-5315966D02*
G01X5766308Y-5380990D01*
G01X5725922Y-5359146D02*
G01X5756910Y-5359146D01*
G01X5796534Y-5315966D02*
G01X5796534Y-5380990D01*
G01X5796534Y-5315966D02*
G01X5839714Y-5380990D01*
G01X5839714Y-5315966D02*
G01X5839714Y-5380990D01*
G01X5872988Y-5331460D02*
G01X5872988Y-5328412D01*
G01X5876036Y-5322062D01*
G01X5879084Y-5319014D01*
G01X5885180Y-5315966D01*
G01X5897626Y-5315966D01*
G01X5903976Y-5319014D01*
G01X5907024Y-5322062D01*
G01X5910072Y-5328412D01*
G01X5910072Y-5334508D01*
G01X5907024Y-5340604D01*
G01X5900674Y-5350002D01*
G01X5869940Y-5380990D01*
G01X5913120Y-5380990D01*
G01X7208520Y-5315966D02*
G01X7208520Y-5380990D01*
G01X7208520Y-5315966D02*
G01X7248652Y-5315966D01*
G01X7208520Y-5346954D02*
G01X7233412Y-5346954D01*
G01X7303516Y-5315966D02*
G01X7278878Y-5380990D01*
G01X7303516Y-5315966D02*
G01X7328408Y-5380990D01*
G01X7288022Y-5359146D02*
G01X7319010Y-5359146D01*
G01X7358634Y-5315966D02*
G01X7358634Y-5380990D01*
G01X7358634Y-5315966D02*
G01X7401814Y-5380990D01*
G01X7401814Y-5315966D02*
G01X7401814Y-5380990D01*
G01X7450582Y-5315966D02*
G01X7441184Y-5319014D01*
G01X7435088Y-5328412D01*
G01X7432040Y-5343652D01*
G01X7432040Y-5353050D01*
G01X7435088Y-5368544D01*
G01X7441184Y-5377942D01*
G01X7450582Y-5380990D01*
G01X7456678Y-5380990D01*
G01X7466076Y-5377942D01*
G01X7472172Y-5368544D01*
G01X7475220Y-5353050D01*
G01X7475220Y-5343652D01*
G01X7472172Y-5328412D01*
G01X7466076Y-5319014D01*
G01X7456678Y-5315966D01*
G01X7450582Y-5315966D01*
G04 Text End*

G04 PolygonModel Start*
G01X1828620Y-1529039D02*
G01X1680121Y-1529039D01*
G01X1680121Y-1747561D02*
G01X1828620Y-1747561D01*
G01X1843860Y-1732321D02*
G01X1843860Y-1544279D01*
G01X1346380Y-1529039D02*
G01X1494879Y-1529039D01*
G01X1494879Y-1747561D02*
G01X1346380Y-1747561D01*
G01X1331140Y-1732321D02*
G01X1331140Y-1544279D01*
G01X1828620Y-1747561D02*
G03X1843860Y-1732321I0J15240D01*
G01X1843860Y-1544279D02*
G03X1828620Y-1529039I-15240J0D01*
G01X1346380Y-1747561D02*
G02X1331140Y-1732321I0J15240D01*
G01X1331140Y-1544279D02*
G02X1346380Y-1529039I15240J0D01*
G01X2090461Y-2222320D02*
G01X2090461Y-2073821D01*
G01X1871939Y-2073821D02*
G01X1871939Y-2222320D01*
G01X1887179Y-2237560D02*
G01X2075221Y-2237560D01*
G01X2090461Y-1740080D02*
G01X2090461Y-1888579D01*
G01X1871939Y-1888579D02*
G01X1871939Y-1740080D01*
G01X1887179Y-1724840D02*
G01X2075221Y-1724840D01*
G01X1871939Y-2222320D02*
G03X1887179Y-2237560I15240J0D01*
G01X2075221Y-2237560D02*
G03X2090461Y-2222320I0J15240D01*
G01X1871939Y-1740080D02*
G02X1887179Y-1724840I15240J0D01*
G01X2075221Y-1724840D02*
G02X2090461Y-1740080I0J-15240D01*
G01X1069609Y-2149480D02*
G01X1069609Y-2020987D01*
G01X1069609Y-2020987D02*
G01X886191Y-2020987D01*
G01X886191Y-2020987D02*
G01X886191Y-2149480D01*
G01X1069609Y-2244720D02*
G01X1069609Y-2373213D01*
G01X1069609Y-2373213D02*
G01X886191Y-2373213D01*
G01X886191Y-2373213D02*
G01X886191Y-2244720D01*
G01X886191Y-1660520D02*
G01X886191Y-1789013D01*
G01X886191Y-1789013D02*
G01X1069609Y-1789013D01*
G01X1069609Y-1789013D02*
G01X1069609Y-1660520D01*
G01X886191Y-1565280D02*
G01X886191Y-1436787D01*
G01X886191Y-1436787D02*
G01X1069609Y-1436787D01*
G01X1069609Y-1436787D02*
G01X1069609Y-1565280D01*
G01X1341379Y-1813679D02*
G01X1630418Y-1813679D01*
G01X1630418Y-1813679D02*
G01X1630418Y-2318918D01*
G01X1630418Y-2318918D02*
G01X1341379Y-2318918D01*
G01X1341379Y-2318918D02*
G01X1341379Y-1813679D01*
G54D12*
G01X388549Y-2367697D02*
G01X589839Y-2367697D01*
G01X17694Y-2367697D02*
G01X186837Y-2367697D01*
G01X388549Y-1467696D02*
G01X589839Y-1467696D01*
G01X17694Y-1467696D02*
G01X186837Y-1467696D01*
G01X17694Y-2367697D02*
G01X17694Y-1467696D01*
G01X9138399Y-1813245D02*
G01X8928100Y-1813245D01*
G01X8928100Y-1813245D02*
G01X8928100Y-1587584D01*
G01X8928100Y-1587584D02*
G01X9138399Y-1587584D01*
G01X9138399Y-2321245D02*
G01X8928100Y-2321245D01*
G01X8928100Y-2321245D02*
G01X8928100Y-2095584D01*
G01X8928100Y-2095584D02*
G01X9138399Y-2095584D01*
G01X9138399Y-2463884D02*
G01X9138399Y-1447884D01*
G01X9138399Y-2463884D02*
G01X8378401Y-2463884D01*
G01X8378403Y-1447884D02*
G01X9138399Y-1447884D01*
G01X8378403Y-2463884D02*
G01X8378401Y-1447884D01*
G01X8534400Y-2463884D02*
G01X8534400Y-1447884D01*
G01X8445500Y-2463884D02*
G01X8445500Y-2469584D01*
G01X8445500Y-2469584D02*
G01X8400400Y-2514684D01*
G01X8400400Y-2514684D02*
G01X8400400Y-2540084D01*
G01X8400400Y-2540084D02*
G01X8527400Y-2540084D01*
G01X8527400Y-2540084D02*
G01X8527400Y-2514684D01*
G01X8527400Y-2514684D02*
G01X8527400Y-2509500D01*
G01X8527400Y-2509500D02*
G01X8481784Y-2463884D01*
G36*
G01X9004300Y-2222584D02*
G01X9067800Y-2222584D01*
G01X9067800Y-2197184D01*
G01X9004300Y-2197184D01*
G01X9004300Y-2222584D01*
G37*
G36*
G01X9004300Y-2235284D02*
G01X9004300Y-2184484D01*
G01X8978900Y-2209884D01*
G01X9004300Y-2235284D01*
G37*
G36*
G01X9004300Y-1727284D02*
G01X9004300Y-1676484D01*
G01X8978900Y-1701884D01*
G01X9004300Y-1727284D01*
G37*
G36*
G01X9004300Y-1714584D02*
G01X9067800Y-1714584D01*
G01X9067800Y-1689184D01*
G01X9004300Y-1689184D01*
G01X9004300Y-1714584D01*
G37*
G01X9151099Y-3476945D02*
G01X8940800Y-3476945D01*
G01X8940800Y-3476945D02*
G01X8940800Y-3251284D01*
G01X8940800Y-3251284D02*
G01X9151099Y-3251284D01*
G01X9151099Y-3984945D02*
G01X8940800Y-3984945D01*
G01X8940800Y-3984945D02*
G01X8940800Y-3759284D01*
G01X8940800Y-3759284D02*
G01X9151099Y-3759284D01*
G01X9151099Y-4127584D02*
G01X9151099Y-3111584D01*
G01X9151099Y-4127584D02*
G01X8391101Y-4127584D01*
G01X8391103Y-3111584D02*
G01X9151099Y-3111584D01*
G01X8391103Y-4127584D02*
G01X8391101Y-3111584D01*
G01X8547100Y-4127584D02*
G01X8547100Y-3111584D01*
G01X8458200Y-4127584D02*
G01X8458200Y-4133284D01*
G01X8458200Y-4133284D02*
G01X8413100Y-4178384D01*
G01X8413100Y-4178384D02*
G01X8413100Y-4203784D01*
G01X8413100Y-4203784D02*
G01X8540100Y-4203784D01*
G01X8540100Y-4203784D02*
G01X8540100Y-4178384D01*
G01X8540100Y-4178384D02*
G01X8540100Y-4173200D01*
G01X8540100Y-4173200D02*
G01X8494484Y-4127584D01*
G36*
G01X9017000Y-3886284D02*
G01X9080500Y-3886284D01*
G01X9080500Y-3860884D01*
G01X9017000Y-3860884D01*
G01X9017000Y-3886284D01*
G37*
G36*
G01X9017000Y-3898984D02*
G01X9017000Y-3848184D01*
G01X8991600Y-3873584D01*
G01X9017000Y-3898984D01*
G37*
G36*
G01X9017000Y-3390984D02*
G01X9017000Y-3340184D01*
G01X8991600Y-3365584D01*
G01X9017000Y-3390984D01*
G37*
G36*
G01X9017000Y-3378284D02*
G01X9080500Y-3378284D01*
G01X9080500Y-3352884D01*
G01X9017000Y-3352884D01*
G01X9017000Y-3378284D01*
G37*
G01X3190052Y-3175000D02*
G01X3949700Y-3175000D01*
G01X3949700Y-3175000D02*
G01X3949700Y-3429000D01*
G01X3949700Y-3429000D02*
G01X2933700Y-3429000D01*
G01X2933700Y-3429000D02*
G01X2933700Y-3175000D01*
G01X2933700Y-3175000D02*
G01X3190052Y-3175000D01*
G01X3190052Y-3175000D02*
G01X3190052Y-3429000D01*
G01X3441002Y-1953923D02*
G01X3441002Y-2033925D01*
G01X3330026Y-1922937D02*
G01X3410024Y-1922937D01*
G01X3330026Y-2064903D02*
G01X3410024Y-2064903D01*
G01X3272437Y-1922356D02*
G01X3192437Y-1922356D01*
G01X3161454Y-1953339D02*
G01X3161454Y-2033336D01*
G01X3272437Y-2064316D02*
G01X3192437Y-2064316D01*
G01X3161449Y-1953339D02*
G02X3192432Y-1922356I30983J0D01*
G01X3192432Y-2064321D02*
G02X3161449Y-2033336I0J30983D01*
G01X3410019Y-1922937D02*
G02X3441002Y-1953923I0J-30983D01*
G01X3441002Y-2033920D02*
G02X3410019Y-2064903I-30983J0D01*
G01X3353499Y-2211677D02*
G01X3353499Y-2131675D01*
G01X3464474Y-2242663D02*
G01X3384476Y-2242663D01*
G01X3464474Y-2100697D02*
G01X3384476Y-2100697D01*
G01X3522063Y-2243244D02*
G01X3602063Y-2243244D01*
G01X3633046Y-2212261D02*
G01X3633046Y-2132264D01*
G01X3522063Y-2101284D02*
G01X3602063Y-2101284D01*
G01X3633051Y-2212261D02*
G02X3602068Y-2243244I-30983J0D01*
G01X3602068Y-2101278D02*
G02X3633051Y-2132264I0J-30983D01*
G01X3384481Y-2242663D02*
G02X3353499Y-2211677I0J30983D01*
G01X3353499Y-2131680D02*
G02X3384481Y-2100697I30983J0D01*
G54D11*
G01X3921120Y-2263409D02*
G01X4049613Y-2263409D01*
G01X4049613Y-2263409D02*
G01X4049613Y-2079991D01*
G01X4049613Y-2079991D02*
G01X3921120Y-2079991D01*
G01X3825880Y-2263409D02*
G01X3697387Y-2263409D01*
G01X3697387Y-2263409D02*
G01X3697387Y-2079991D01*
G01X3697387Y-2079991D02*
G01X3825880Y-2079991D01*
G01X3409318Y-1584703D02*
G01X3280824Y-1584703D01*
G01X3280824Y-1584703D02*
G01X3280824Y-1768122D01*
G01X3280824Y-1768122D02*
G01X3409318Y-1768122D01*
G01X3504557Y-1584703D02*
G01X3633051Y-1584703D01*
G01X3633051Y-1584703D02*
G01X3633051Y-1768122D01*
G01X3633051Y-1768122D02*
G01X3504557Y-1768122D01*
G01X3936357Y-1768122D02*
G01X4064851Y-1768122D01*
G01X4064851Y-1768122D02*
G01X4064851Y-1584703D01*
G01X4064851Y-1584703D02*
G01X3936357Y-1584703D01*
G01X3841118Y-1768122D02*
G01X3712624Y-1768122D01*
G01X3712624Y-1768122D02*
G01X3712624Y-1584703D01*
G01X3712624Y-1584703D02*
G01X3841118Y-1584703D01*
G54D13*
G01X3562838Y-1847713D02*
G01X3562838Y-1987713D01*
G01X3782837Y-1847713D02*
G01X3782837Y-1987713D01*
G01X3563417Y-2026806D02*
G03X3538419Y-2026933I-12499J-127D01*
G03X3563417Y-2027060I12499J0D01*
G54D12*
G01X5528899Y-1384300D02*
G01X5528899Y-1130300D01*
G01X6332901Y-1384300D02*
G01X5528899Y-1384300D01*
G01X6055548Y-1384300D02*
G01X6055548Y-1130300D01*
G01X6332901Y-1130300D02*
G01X5528899Y-1130300D01*
G01X6332901Y-1384300D02*
G01X6332901Y-1130300D01*
G01X5528899Y-2146300D02*
G01X5528899Y-1892300D01*
G01X6332901Y-2146300D02*
G01X5528899Y-2146300D01*
G01X6055548Y-2146300D02*
G01X6055548Y-1892300D01*
G01X6332901Y-1892300D02*
G01X5528899Y-1892300D01*
G01X6332901Y-2146300D02*
G01X6332901Y-1892300D01*
G01X5528899Y-1638300D02*
G01X5528899Y-1384300D01*
G01X6332901Y-1638300D02*
G01X5528899Y-1638300D01*
G01X6055548Y-1638300D02*
G01X6055548Y-1384300D01*
G01X6332901Y-1384300D02*
G01X5528899Y-1384300D01*
G01X6332901Y-1638300D02*
G01X6332901Y-1384300D01*
G01X5528899Y-1892300D02*
G01X5528899Y-1638300D01*
G01X6332901Y-1892300D02*
G01X5528899Y-1892300D01*
G01X6055548Y-1892300D02*
G01X6055548Y-1638300D01*
G01X6332901Y-1638300D02*
G01X5528899Y-1638300D01*
G01X6332901Y-1892300D02*
G01X6332901Y-1638300D01*
G01X7695400Y-5658800D02*
G01X7655400Y-5618800D01*
G01X7655400Y-5618800D02*
G01X7645400Y-5608800D01*
G01X7645400Y-5608800D02*
G01X7635375Y-5618800D01*
G01X7635375Y-5618800D02*
G01X7595375Y-5658800D01*
G01X7695400Y-5658800D02*
G01X7595375Y-5658800D01*
G01X7543673Y-5683123D02*
G01X7543673Y-5838063D01*
G01X7543673Y-5838063D02*
G01X7746873Y-5838063D01*
G01X7746873Y-5838063D02*
G01X7746873Y-5683123D01*
G01X7541133Y-5604383D02*
G01X7541133Y-5457063D01*
G01X7541133Y-5457063D02*
G01X7581773Y-5416423D01*
G01X7581773Y-5416423D02*
G01X7708773Y-5416423D01*
G01X7708773Y-5416423D02*
G01X7746873Y-5454523D01*
G01X7746873Y-5454523D02*
G01X7746873Y-5606923D01*
G54D11*
G01X7508509Y-5607080D02*
G01X7508509Y-5478587D01*
G01X7508509Y-5478587D02*
G01X7325091Y-5478587D01*
G01X7325091Y-5478587D02*
G01X7325091Y-5607080D01*
G01X7508509Y-5702320D02*
G01X7508509Y-5830814D01*
G01X7508509Y-5830814D02*
G01X7325091Y-5830814D01*
G01X7325091Y-5830814D02*
G01X7325091Y-5702320D01*
G01X6933711Y-1034023D02*
G01X6785212Y-1034023D01*
G01X6785212Y-1252544D02*
G01X6933711Y-1252544D01*
G01X6948951Y-1237304D02*
G01X6948951Y-1049263D01*
G01X6451472Y-1034023D02*
G01X6599970Y-1034023D01*
G01X6599970Y-1252544D02*
G01X6451472Y-1252544D01*
G01X6436232Y-1237304D02*
G01X6436232Y-1049263D01*
G01X6933711Y-1252544D02*
G03X6948951Y-1237304I0J15240D01*
G01X6948951Y-1049263D02*
G03X6933711Y-1034023I-15240J0D01*
G01X6451472Y-1252544D02*
G02X6436232Y-1237304I0J15240D01*
G01X6436232Y-1049263D02*
G02X6451472Y-1034023I15240J0D01*
G01X6984872Y-325444D02*
G01X7133370Y-325444D01*
G01X7133370Y-106923D02*
G01X6984872Y-106923D01*
G01X6969632Y-122163D02*
G01X6969632Y-310204D01*
G01X7467111Y-325444D02*
G01X7318612Y-325444D01*
G01X7318612Y-106923D02*
G01X7467111Y-106923D01*
G01X7482351Y-122163D02*
G01X7482351Y-310204D01*
G01X6984872Y-106923D02*
G03X6969632Y-122163I0J-15240D01*
G01X6969632Y-310204D02*
G03X6984872Y-325444I15240J0D01*
G01X7467111Y-106923D02*
G02X7482351Y-122163I0J-15240D01*
G01X7482351Y-310204D02*
G02X7467111Y-325444I-15240J0D01*
G01X7467111Y-1034023D02*
G01X7318612Y-1034023D01*
G01X7318612Y-1252544D02*
G01X7467111Y-1252544D01*
G01X7482351Y-1237304D02*
G01X7482351Y-1049263D01*
G01X6984872Y-1034023D02*
G01X7133370Y-1034023D01*
G01X7133370Y-1252544D02*
G01X6984872Y-1252544D01*
G01X6969632Y-1237304D02*
G01X6969632Y-1049263D01*
G01X7467111Y-1252544D02*
G03X7482351Y-1237304I0J15240D01*
G01X7482351Y-1049263D02*
G03X7467111Y-1034023I-15240J0D01*
G01X6984872Y-1252544D02*
G02X6969632Y-1237304I0J15240D01*
G01X6969632Y-1049263D02*
G02X6984872Y-1034023I15240J0D01*
G01X6933716Y-106923D02*
G01X6785218Y-106923D01*
G01X6785218Y-325444D02*
G01X6933716Y-325444D01*
G01X6948956Y-310204D02*
G01X6948956Y-122163D01*
G01X6451477Y-106923D02*
G01X6599975Y-106923D01*
G01X6599975Y-325444D02*
G01X6451477Y-325444D01*
G01X6436237Y-310204D02*
G01X6436237Y-122163D01*
G01X6933716Y-325444D02*
G03X6948956Y-310204I0J15240D01*
G01X6948956Y-122163D02*
G03X6933716Y-106923I-15240J0D01*
G01X6451477Y-325444D02*
G02X6436237Y-310204I0J15240D01*
G01X6436237Y-122163D02*
G02X6451477Y-106923I15240J0D01*
G54D12*
G01X7489405Y-931986D02*
G01X6429204Y-931986D01*
G01X6429204Y-931986D02*
G01X6429204Y-452177D01*
G01X6429204Y-452177D02*
G01X7489405Y-452177D01*
G01X7489405Y-452177D02*
G01X7489405Y-931478D01*
G01X7489405Y-931478D02*
G01X7489405Y-931986D01*
G01X6429308Y-872070D02*
G01X7489300Y-872070D01*
G54D14*
G01X7236301Y-389579D02*
G03X7236174Y-349579I-127J20000D01*
G03X7236047Y-389579I0J-20000D01*
G54D12*
G01X7962897Y-3200397D02*
G01X6921497Y-3200397D01*
G01X6922186Y-3150895D02*
G01X7962189Y-3150895D01*
G01X7962189Y-3150895D02*
G01X7962189Y-3610889D01*
G01X7962189Y-3610889D02*
G01X6922186Y-3610889D01*
G01X6922186Y-3610889D02*
G01X6922186Y-3150895D01*
G54D14*
G01X7175500Y-3644900D02*
G03X7175627Y-3684900I127J-20000D01*
G03X7175754Y-3644900I0J20000D01*
G54D11*
G01X4216220Y-703539D02*
G01X4067721Y-703539D01*
G01X4067721Y-922061D02*
G01X4216220Y-922061D01*
G01X4231460Y-906821D02*
G01X4231460Y-718779D01*
G01X3733980Y-703539D02*
G01X3882479Y-703539D01*
G01X3882479Y-922061D02*
G01X3733980Y-922061D01*
G01X3718740Y-906821D02*
G01X3718740Y-718779D01*
G01X4216220Y-922061D02*
G03X4231460Y-906821I0J15240D01*
G01X4231460Y-718779D02*
G03X4216220Y-703539I-15240J0D01*
G01X3733980Y-922061D02*
G02X3718740Y-906821I0J15240D01*
G01X3718740Y-718779D02*
G02X3733980Y-703539I15240J0D01*
G01X3889380Y-1330691D02*
G01X3760887Y-1330691D01*
G01X3760887Y-1330691D02*
G01X3760887Y-1514109D01*
G01X3760887Y-1514109D02*
G01X3889380Y-1514109D01*
G01X3984620Y-1330691D02*
G01X4113113Y-1330691D01*
G01X4113113Y-1330691D02*
G01X4113113Y-1514109D01*
G01X4113113Y-1514109D02*
G01X3984620Y-1514109D01*
G54D12*
G01X3606800Y-38100D02*
G01X3606800Y-63500D01*
G01X4343400Y-38100D02*
G01X4343400Y-63500D01*
G01X3606800Y-38100D02*
G01X3721100Y-38100D01*
G01X4102100Y-38100D02*
G01X3848100Y-38100D01*
G01X4343400Y-38100D02*
G01X4241800Y-38100D01*
G01X4343400Y-177800D02*
G01X4343400Y-622300D01*
G01X4343400Y-622300D02*
G01X3606800Y-622300D01*
G01X3606800Y-622300D02*
G01X3606800Y-177800D01*
G01X8763800Y-2774000D02*
G01X8803800Y-2814000D01*
G01X8803800Y-2814000D02*
G01X8813800Y-2824000D01*
G01X8813800Y-2824000D02*
G01X8823825Y-2814000D01*
G01X8823825Y-2814000D02*
G01X8863825Y-2774000D01*
G01X8763800Y-2774000D02*
G01X8863825Y-2774000D01*
G01X8915527Y-2749677D02*
G01X8915527Y-2594737D01*
G01X8915527Y-2594737D02*
G01X8712327Y-2594737D01*
G01X8712327Y-2594737D02*
G01X8712327Y-2749677D01*
G01X8918067Y-2828417D02*
G01X8918067Y-2975737D01*
G01X8918067Y-2975737D02*
G01X8877427Y-3016377D01*
G01X8877427Y-3016377D02*
G01X8750427Y-3016377D01*
G01X8750427Y-3016377D02*
G01X8712327Y-2978277D01*
G01X8712327Y-2978277D02*
G01X8712327Y-2825877D01*
G54D11*
G01X8262661Y-2374720D02*
G01X8262661Y-2226221D01*
G01X8044139Y-2226221D02*
G01X8044139Y-2374720D01*
G01X8059379Y-2389960D02*
G01X8247421Y-2389960D01*
G01X8262661Y-1892480D02*
G01X8262661Y-2040979D01*
G01X8044139Y-2040979D02*
G01X8044139Y-1892480D01*
G01X8059379Y-1877240D02*
G01X8247421Y-1877240D01*
G01X8044139Y-2374720D02*
G03X8059379Y-2389960I15240J0D01*
G01X8247421Y-2389960D02*
G03X8262661Y-2374720I0J15240D01*
G01X8044139Y-1892480D02*
G02X8059379Y-1877240I15240J0D01*
G01X8247421Y-1877240D02*
G02X8262661Y-1892480I0J-15240D01*
G01X8044139Y-2425880D02*
G01X8044139Y-2574379D01*
G01X8262661Y-2574379D02*
G01X8262661Y-2425880D01*
G01X8247421Y-2410640D02*
G01X8059379Y-2410640D01*
G01X8044139Y-2908120D02*
G01X8044139Y-2759621D01*
G01X8262661Y-2759621D02*
G01X8262661Y-2908120D01*
G01X8247421Y-2923360D02*
G01X8059379Y-2923360D01*
G01X8262661Y-2425880D02*
G03X8247421Y-2410640I-15240J0D01*
G01X8059379Y-2410640D02*
G03X8044139Y-2425880I0J-15240D01*
G01X8262661Y-2908120D02*
G02X8247421Y-2923360I-15240J0D01*
G01X8059379Y-2923360D02*
G02X8044139Y-2908120I0J15240D01*
G01X7995961Y-2374720D02*
G01X7995961Y-2226221D01*
G01X7777439Y-2226221D02*
G01X7777439Y-2374720D01*
G01X7792679Y-2389960D02*
G01X7980721Y-2389960D01*
G01X7995961Y-1892480D02*
G01X7995961Y-2040979D01*
G01X7777439Y-2040979D02*
G01X7777439Y-1892480D01*
G01X7792679Y-1877240D02*
G01X7980721Y-1877240D01*
G01X7777439Y-2374720D02*
G03X7792679Y-2389960I15240J0D01*
G01X7980721Y-2389960D02*
G03X7995961Y-2374720I0J15240D01*
G01X7777439Y-1892480D02*
G02X7792679Y-1877240I15240J0D01*
G01X7980721Y-1877240D02*
G02X7995961Y-1892480I0J-15240D01*
G01X7777439Y-2425880D02*
G01X7777439Y-2574379D01*
G01X7995961Y-2574379D02*
G01X7995961Y-2425880D01*
G01X7980721Y-2410640D02*
G01X7792679Y-2410640D01*
G01X7777439Y-2908120D02*
G01X7777439Y-2759621D01*
G01X7995961Y-2759621D02*
G01X7995961Y-2908120D01*
G01X7980721Y-2923360D02*
G01X7792679Y-2923360D01*
G01X7995961Y-2425880D02*
G03X7980721Y-2410640I-15240J0D01*
G01X7792679Y-2410640D02*
G03X7777439Y-2425880I0J-15240D01*
G01X7995961Y-2908120D02*
G02X7980721Y-2923360I-15240J0D01*
G01X7792679Y-2923360D02*
G02X7777439Y-2908120I0J15240D01*
G01X8461380Y-2638791D02*
G01X8332887Y-2638791D01*
G01X8332887Y-2638791D02*
G01X8332887Y-2822209D01*
G01X8332887Y-2822209D02*
G01X8461380Y-2822209D01*
G01X8556620Y-2638791D02*
G01X8685113Y-2638791D01*
G01X8685113Y-2638791D02*
G01X8685113Y-2822209D01*
G01X8685113Y-2822209D02*
G01X8556620Y-2822209D01*
G01X7150161Y-2981721D02*
G01X7150161Y-2301479D01*
G01X7150161Y-2301479D02*
G01X7429439Y-2301479D01*
G01X7429439Y-2301479D02*
G01X7429439Y-2981721D01*
G01X7429439Y-2981721D02*
G01X7150161Y-2981721D01*
G54D12*
G01X2874597Y-4692599D02*
G01X884601Y-4692599D01*
G01X884603Y-4692599D02*
G01X884603Y-5267599D01*
G01X884603Y-5267597D02*
G01X2874597Y-5267597D01*
G01X2874597Y-5267599D02*
G01X2874597Y-4692599D01*
G01X2286000Y-4699000D02*
G01X2286000Y-4749800D01*
G01X2286000Y-4749800D02*
G01X1473200Y-4749800D01*
G01X1473200Y-4749800D02*
G01X1473200Y-4699000D01*
G01X4881197Y-4692599D02*
G01X2891201Y-4692599D01*
G01X2891203Y-4692599D02*
G01X2891203Y-5267599D01*
G01X2891203Y-5267597D02*
G01X4881197Y-5267597D01*
G01X4881197Y-5267599D02*
G01X4881197Y-4692599D01*
G01X4292600Y-4699000D02*
G01X4292600Y-4749800D01*
G01X4292600Y-4749800D02*
G01X3479800Y-4749800D01*
G01X3479800Y-4749800D02*
G01X3479800Y-4699000D01*
G54D11*
G01X2037039Y-4124178D02*
G01X2037039Y-4272676D01*
G01X2255561Y-4272676D02*
G01X2255561Y-4124178D01*
G01X2240321Y-4108938D02*
G01X2052279Y-4108938D01*
G01X2037039Y-4606417D02*
G01X2037039Y-4457918D01*
G01X2255561Y-4457918D02*
G01X2255561Y-4606417D01*
G01X2240321Y-4621657D02*
G01X2052279Y-4621657D01*
G01X2255561Y-4124178D02*
G03X2240321Y-4108938I-15240J0D01*
G01X2052279Y-4108938D02*
G03X2037039Y-4124178I0J-15240D01*
G01X2255561Y-4606417D02*
G02X2240321Y-4621657I-15240J0D01*
G01X2052279Y-4621657D02*
G02X2037039Y-4606417I0J15240D01*
G01X767039Y-4124178D02*
G01X767039Y-4272676D01*
G01X985561Y-4272676D02*
G01X985561Y-4124178D01*
G01X970321Y-4108938D02*
G01X782279Y-4108938D01*
G01X767039Y-4606417D02*
G01X767039Y-4457918D01*
G01X985561Y-4457918D02*
G01X985561Y-4606417D01*
G01X970321Y-4621657D02*
G01X782279Y-4621657D01*
G01X985561Y-4124178D02*
G03X970321Y-4108938I-15240J0D01*
G01X782279Y-4108938D02*
G03X767039Y-4124178I0J-15240D01*
G01X985561Y-4606417D02*
G02X970321Y-4621657I-15240J0D01*
G01X782279Y-4621657D02*
G02X767039Y-4606417I0J15240D01*
G01X1503639Y-4124178D02*
G01X1503639Y-4272676D01*
G01X1722161Y-4272676D02*
G01X1722161Y-4124178D01*
G01X1706921Y-4108938D02*
G01X1518879Y-4108938D01*
G01X1503639Y-4606417D02*
G01X1503639Y-4457918D01*
G01X1722161Y-4457918D02*
G01X1722161Y-4606417D01*
G01X1706921Y-4621657D02*
G01X1518879Y-4621657D01*
G01X1722161Y-4124178D02*
G03X1706921Y-4108938I-15240J0D01*
G01X1518879Y-4108938D02*
G03X1503639Y-4124178I0J-15240D01*
G01X1722161Y-4606417D02*
G02X1706921Y-4621657I-15240J0D01*
G01X1518879Y-4621657D02*
G02X1503639Y-4606417I0J15240D01*
G01X2799039Y-4124178D02*
G01X2799039Y-4272676D01*
G01X3017561Y-4272676D02*
G01X3017561Y-4124178D01*
G01X3002321Y-4108938D02*
G01X2814279Y-4108938D01*
G01X2799039Y-4606417D02*
G01X2799039Y-4457918D01*
G01X3017561Y-4457918D02*
G01X3017561Y-4606417D01*
G01X3002321Y-4621657D02*
G01X2814279Y-4621657D01*
G01X3017561Y-4124178D02*
G03X3002321Y-4108938I-15240J0D01*
G01X2814279Y-4108938D02*
G03X2799039Y-4124178I0J-15240D01*
G01X3017561Y-4606417D02*
G02X3002321Y-4621657I-15240J0D01*
G01X2814279Y-4621657D02*
G02X2799039Y-4606417I0J15240D01*
G01X3541263Y-4124178D02*
G01X3541263Y-4272676D01*
G01X3759784Y-4272676D02*
G01X3759784Y-4124178D01*
G01X3744544Y-4108938D02*
G01X3556503Y-4108938D01*
G01X3541263Y-4606417D02*
G01X3541263Y-4457918D01*
G01X3759784Y-4457918D02*
G01X3759784Y-4606417D01*
G01X3744544Y-4621657D02*
G01X3556503Y-4621657D01*
G01X3759784Y-4124178D02*
G03X3744544Y-4108938I-15240J0D01*
G01X3556503Y-4108938D02*
G03X3541263Y-4124178I0J-15240D01*
G01X3759784Y-4606417D02*
G02X3744544Y-4621657I-15240J0D01*
G01X3556503Y-4621657D02*
G02X3541263Y-4606417I0J15240D01*
G01X4812464Y-4630461D02*
G01X4960963Y-4630461D01*
G01X4960963Y-4411939D02*
G01X4812464Y-4411939D01*
G01X4797224Y-4427179D02*
G01X4797224Y-4615221D01*
G01X5294704Y-4630461D02*
G01X5146205Y-4630461D01*
G01X5146205Y-4411939D02*
G01X5294704Y-4411939D01*
G01X5309944Y-4427179D02*
G01X5309944Y-4615221D01*
G01X4812464Y-4411939D02*
G03X4797224Y-4427179I0J-15240D01*
G01X4797224Y-4615221D02*
G03X4812464Y-4630461I15240J0D01*
G01X5294704Y-4411939D02*
G02X5309944Y-4427179I0J-15240D01*
G01X5309944Y-4615221D02*
G02X5294704Y-4630461I-15240J0D01*
G54D12*
G01X2337600Y-4374200D02*
G01X2377600Y-4414200D01*
G01X2377600Y-4414200D02*
G01X2387600Y-4424200D01*
G01X2387600Y-4424200D02*
G01X2397625Y-4414200D01*
G01X2397625Y-4414200D02*
G01X2437625Y-4374200D01*
G01X2337600Y-4374200D02*
G01X2437625Y-4374200D01*
G01X2489327Y-4349877D02*
G01X2489327Y-4194937D01*
G01X2489327Y-4194937D02*
G01X2286127Y-4194937D01*
G01X2286127Y-4194937D02*
G01X2286127Y-4349877D01*
G01X2491867Y-4428617D02*
G01X2491867Y-4575937D01*
G01X2491867Y-4575937D02*
G01X2451227Y-4616577D01*
G01X2451227Y-4616577D02*
G01X2324227Y-4616577D01*
G01X2324227Y-4616577D02*
G01X2286127Y-4578477D01*
G01X2286127Y-4578477D02*
G01X2286127Y-4426077D01*
G01X1067600Y-4374200D02*
G01X1107600Y-4414200D01*
G01X1107600Y-4414200D02*
G01X1117600Y-4424200D01*
G01X1117600Y-4424200D02*
G01X1127625Y-4414200D01*
G01X1127625Y-4414200D02*
G01X1167625Y-4374200D01*
G01X1067600Y-4374200D02*
G01X1167625Y-4374200D01*
G01X1219327Y-4349877D02*
G01X1219327Y-4194937D01*
G01X1219327Y-4194937D02*
G01X1016127Y-4194937D01*
G01X1016127Y-4194937D02*
G01X1016127Y-4349877D01*
G01X1221867Y-4428617D02*
G01X1221867Y-4575937D01*
G01X1221867Y-4575937D02*
G01X1181227Y-4616577D01*
G01X1181227Y-4616577D02*
G01X1054227Y-4616577D01*
G01X1054227Y-4616577D02*
G01X1016127Y-4578477D01*
G01X1016127Y-4578477D02*
G01X1016127Y-4426077D01*
G01X1321600Y-4374200D02*
G01X1361600Y-4414200D01*
G01X1361600Y-4414200D02*
G01X1371600Y-4424200D01*
G01X1371600Y-4424200D02*
G01X1381625Y-4414200D01*
G01X1381625Y-4414200D02*
G01X1421625Y-4374200D01*
G01X1321600Y-4374200D02*
G01X1421625Y-4374200D01*
G01X1473327Y-4349877D02*
G01X1473327Y-4194937D01*
G01X1473327Y-4194937D02*
G01X1270127Y-4194937D01*
G01X1270127Y-4194937D02*
G01X1270127Y-4349877D01*
G01X1475867Y-4428617D02*
G01X1475867Y-4575937D01*
G01X1475867Y-4575937D02*
G01X1435227Y-4616577D01*
G01X1435227Y-4616577D02*
G01X1308227Y-4616577D01*
G01X1308227Y-4616577D02*
G01X1270127Y-4578477D01*
G01X1270127Y-4578477D02*
G01X1270127Y-4426077D01*
G01X3099600Y-4374200D02*
G01X3139600Y-4414200D01*
G01X3139600Y-4414200D02*
G01X3149600Y-4424200D01*
G01X3149600Y-4424200D02*
G01X3159625Y-4414200D01*
G01X3159625Y-4414200D02*
G01X3199625Y-4374200D01*
G01X3099600Y-4374200D02*
G01X3199625Y-4374200D01*
G01X3251327Y-4349877D02*
G01X3251327Y-4194937D01*
G01X3251327Y-4194937D02*
G01X3048127Y-4194937D01*
G01X3048127Y-4194937D02*
G01X3048127Y-4349877D01*
G01X3253867Y-4428617D02*
G01X3253867Y-4575937D01*
G01X3253867Y-4575937D02*
G01X3213227Y-4616577D01*
G01X3213227Y-4616577D02*
G01X3086227Y-4616577D01*
G01X3086227Y-4616577D02*
G01X3048127Y-4578477D01*
G01X3048127Y-4578477D02*
G01X3048127Y-4426077D01*
G01X3353600Y-4374200D02*
G01X3393600Y-4414200D01*
G01X3393600Y-4414200D02*
G01X3403600Y-4424200D01*
G01X3403600Y-4424200D02*
G01X3413625Y-4414200D01*
G01X3413625Y-4414200D02*
G01X3453625Y-4374200D01*
G01X3353600Y-4374200D02*
G01X3453625Y-4374200D01*
G01X3505327Y-4349877D02*
G01X3505327Y-4194937D01*
G01X3505327Y-4194937D02*
G01X3302127Y-4194937D01*
G01X3302127Y-4194937D02*
G01X3302127Y-4349877D01*
G01X3507867Y-4428617D02*
G01X3507867Y-4575937D01*
G01X3507867Y-4575937D02*
G01X3467227Y-4616577D01*
G01X3467227Y-4616577D02*
G01X3340227Y-4616577D01*
G01X3340227Y-4616577D02*
G01X3302127Y-4578477D01*
G01X3302127Y-4578477D02*
G01X3302127Y-4426077D01*
G01X4369600Y-4374200D02*
G01X4409600Y-4414200D01*
G01X4409600Y-4414200D02*
G01X4419600Y-4424200D01*
G01X4419600Y-4424200D02*
G01X4429625Y-4414200D01*
G01X4429625Y-4414200D02*
G01X4469625Y-4374200D01*
G01X4369600Y-4374200D02*
G01X4469625Y-4374200D01*
G01X4521327Y-4349877D02*
G01X4521327Y-4194937D01*
G01X4521327Y-4194937D02*
G01X4318127Y-4194937D01*
G01X4318127Y-4194937D02*
G01X4318127Y-4349877D01*
G01X4523867Y-4428617D02*
G01X4523867Y-4575937D01*
G01X4523867Y-4575937D02*
G01X4483227Y-4616577D01*
G01X4483227Y-4616577D02*
G01X4356227Y-4616577D01*
G01X4356227Y-4616577D02*
G01X4318127Y-4578477D01*
G01X4318127Y-4578477D02*
G01X4318127Y-4426077D01*
G54D11*
G01X2238009Y-3860780D02*
G01X2238009Y-3732286D01*
G01X2238009Y-3732286D02*
G01X2054591Y-3732286D01*
G01X2054591Y-3732286D02*
G01X2054591Y-3860780D01*
G01X2238009Y-3956020D02*
G01X2238009Y-4084513D01*
G01X2238009Y-4084513D02*
G01X2054591Y-4084513D01*
G01X2054591Y-4084513D02*
G01X2054591Y-3956020D01*
G01X968009Y-3859934D02*
G01X968009Y-3731440D01*
G01X968009Y-3731440D02*
G01X784591Y-3731440D01*
G01X784591Y-3731440D02*
G01X784591Y-3859934D01*
G01X968009Y-3955174D02*
G01X968009Y-4083667D01*
G01X968009Y-4083667D02*
G01X784591Y-4083667D01*
G01X784591Y-4083667D02*
G01X784591Y-3955174D01*
G01X1704609Y-3859934D02*
G01X1704609Y-3731440D01*
G01X1704609Y-3731440D02*
G01X1521191Y-3731440D01*
G01X1521191Y-3731440D02*
G01X1521191Y-3859934D01*
G01X1704609Y-3955174D02*
G01X1704609Y-4083667D01*
G01X1704609Y-4083667D02*
G01X1521191Y-4083667D01*
G01X1521191Y-4083667D02*
G01X1521191Y-3955174D01*
G01X3000009Y-3863980D02*
G01X3000009Y-3735487D01*
G01X3000009Y-3735487D02*
G01X2816591Y-3735487D01*
G01X2816591Y-3735487D02*
G01X2816591Y-3863980D01*
G01X3000009Y-3959220D02*
G01X3000009Y-4087713D01*
G01X3000009Y-4087713D02*
G01X2816591Y-4087713D01*
G01X2816591Y-4087713D02*
G01X2816591Y-3959220D01*
G01X3742233Y-3866383D02*
G01X3742233Y-3737889D01*
G01X3742233Y-3737889D02*
G01X3558814Y-3737889D01*
G01X3558814Y-3737889D02*
G01X3558814Y-3866383D01*
G01X3742233Y-3961623D02*
G01X3742233Y-4090116D01*
G01X3742233Y-4090116D02*
G01X3558814Y-4090116D01*
G01X3558814Y-4090116D02*
G01X3558814Y-3961623D01*
G01X4741509Y-4348180D02*
G01X4741509Y-4219687D01*
G01X4741509Y-4219687D02*
G01X4558091Y-4219687D01*
G01X4558091Y-4219687D02*
G01X4558091Y-4348180D01*
G01X4741509Y-4443420D02*
G01X4741509Y-4571914D01*
G01X4741509Y-4571914D02*
G01X4558091Y-4571914D01*
G01X4558091Y-4571914D02*
G01X4558091Y-4443420D01*
G54D12*
G01X2530239Y-6115799D02*
G01X2530239Y-5905500D01*
G01X2530239Y-5905500D02*
G01X2755900Y-5905500D01*
G01X2755900Y-5905500D02*
G01X2755900Y-6115799D01*
G01X2022239Y-6115799D02*
G01X2022239Y-5905500D01*
G01X2022239Y-5905500D02*
G01X2247900Y-5905500D01*
G01X2247900Y-5905500D02*
G01X2247900Y-6115799D01*
G01X1879600Y-6115799D02*
G01X2895600Y-6115799D01*
G01X1879600Y-6115799D02*
G01X1879600Y-5355801D01*
G01X2895600Y-5355803D02*
G01X2895600Y-6115799D01*
G01X1879600Y-5355803D02*
G01X2895600Y-5355801D01*
G01X1879600Y-5511800D02*
G01X2895600Y-5511800D01*
G01X1879600Y-5422900D02*
G01X1873900Y-5422900D01*
G01X1873900Y-5422900D02*
G01X1828800Y-5377800D01*
G01X1828800Y-5377800D02*
G01X1803400Y-5377800D01*
G01X1803400Y-5377800D02*
G01X1803400Y-5504800D01*
G01X1803400Y-5504800D02*
G01X1828800Y-5504800D01*
G01X1828800Y-5504800D02*
G01X1833984Y-5504800D01*
G01X1833984Y-5504800D02*
G01X1879600Y-5459184D01*
G36*
G01X2120900Y-5981700D02*
G01X2120900Y-6045200D01*
G01X2146300Y-6045200D01*
G01X2146300Y-5981700D01*
G01X2120900Y-5981700D01*
G37*
G36*
G01X2108200Y-5981700D02*
G01X2159000Y-5981700D01*
G01X2133600Y-5956300D01*
G01X2108200Y-5981700D01*
G37*
G36*
G01X2616200Y-5981700D02*
G01X2667000Y-5981700D01*
G01X2641600Y-5956300D01*
G01X2616200Y-5981700D01*
G37*
G36*
G01X2628900Y-5981700D02*
G01X2628900Y-6045200D01*
G01X2654300Y-6045200D01*
G01X2654300Y-5981700D01*
G01X2628900Y-5981700D01*
G37*
G01X3546239Y-6115799D02*
G01X3546239Y-5905500D01*
G01X3546239Y-5905500D02*
G01X3771900Y-5905500D01*
G01X3771900Y-5905500D02*
G01X3771900Y-6115799D01*
G01X3038239Y-6115799D02*
G01X3038239Y-5905500D01*
G01X3038239Y-5905500D02*
G01X3263900Y-5905500D01*
G01X3263900Y-5905500D02*
G01X3263900Y-6115799D01*
G01X2895600Y-6115799D02*
G01X3911600Y-6115799D01*
G01X2895600Y-6115799D02*
G01X2895600Y-5355801D01*
G01X3911600Y-5355803D02*
G01X3911600Y-6115799D01*
G01X2895600Y-5355803D02*
G01X3911600Y-5355801D01*
G01X2895600Y-5511800D02*
G01X3911600Y-5511800D01*
G01X2895600Y-5422900D02*
G01X2889900Y-5422900D01*
G01X2889900Y-5422900D02*
G01X2844800Y-5377800D01*
G01X2844800Y-5377800D02*
G01X2819400Y-5377800D01*
G01X2819400Y-5377800D02*
G01X2819400Y-5504800D01*
G01X2819400Y-5504800D02*
G01X2844800Y-5504800D01*
G01X2844800Y-5504800D02*
G01X2849984Y-5504800D01*
G01X2849984Y-5504800D02*
G01X2895600Y-5459184D01*
G36*
G01X3136900Y-5981700D02*
G01X3136900Y-6045200D01*
G01X3162300Y-6045200D01*
G01X3162300Y-5981700D01*
G01X3136900Y-5981700D01*
G37*
G36*
G01X3124200Y-5981700D02*
G01X3175000Y-5981700D01*
G01X3149600Y-5956300D01*
G01X3124200Y-5981700D01*
G37*
G36*
G01X3632200Y-5981700D02*
G01X3683000Y-5981700D01*
G01X3657600Y-5956300D01*
G01X3632200Y-5981700D01*
G37*
G36*
G01X3644900Y-5981700D02*
G01X3644900Y-6045200D01*
G01X3670300Y-6045200D01*
G01X3670300Y-5981700D01*
G01X3644900Y-5981700D01*
G37*
G01X2586101Y-169400D02*
G01X2616101Y-169400D01*
G01X3536099Y-169400D02*
G01X3576099Y-169400D01*
G01X3536099Y-249400D02*
G01X3576099Y-249400D01*
G01X2586101Y-249400D02*
G01X2626101Y-249400D01*
G01X2832113Y-88900D02*
G01X2832113Y-38100D01*
G01X3340113Y-76200D02*
G01X3340113Y-38100D01*
G54D11*
G01X3097964Y-922061D02*
G01X3246463Y-922061D01*
G01X3246463Y-703539D02*
G01X3097964Y-703539D01*
G01X3082724Y-718779D02*
G01X3082724Y-906821D01*
G01X3580204Y-922061D02*
G01X3431705Y-922061D01*
G01X3431705Y-703539D02*
G01X3580204Y-703539D01*
G01X3595444Y-718779D02*
G01X3595444Y-906821D01*
G01X3097964Y-703539D02*
G03X3082724Y-718779I0J-15240D01*
G01X3082724Y-906821D02*
G03X3097964Y-922061I15240J0D01*
G01X3580204Y-703539D02*
G02X3595444Y-718779I0J-15240D01*
G01X3595444Y-906821D02*
G02X3580204Y-922061I-15240J0D01*
G01X2779720Y-902909D02*
G01X2908214Y-902909D01*
G01X2908214Y-902909D02*
G01X2908214Y-719491D01*
G01X2908214Y-719491D02*
G01X2779720Y-719491D01*
G01X2684480Y-902909D02*
G01X2555987Y-902909D01*
G01X2555987Y-902909D02*
G01X2555987Y-719491D01*
G01X2555987Y-719491D02*
G01X2684480Y-719491D01*
G54D12*
G01X4300601Y-3369800D02*
G01X4330601Y-3369800D01*
G01X5250599Y-3369800D02*
G01X5290599Y-3369800D01*
G01X5250599Y-3449800D02*
G01X5290599Y-3449800D01*
G01X4300601Y-3449800D02*
G01X4340601Y-3449800D01*
G01X4546613Y-3289300D02*
G01X4546613Y-3238500D01*
G01X5054613Y-3276600D02*
G01X5054613Y-3238500D01*
G54D11*
G01X4979445Y-683148D02*
G01X4830947Y-683148D01*
G01X4830947Y-901670D02*
G01X4979445Y-901670D01*
G01X4994685Y-886430D02*
G01X4994685Y-698388D01*
G01X4497206Y-683148D02*
G01X4645704Y-683148D01*
G01X4645704Y-901670D02*
G01X4497206Y-901670D01*
G01X4481966Y-886430D02*
G01X4481966Y-698388D01*
G01X4979445Y-901670D02*
G03X4994685Y-886430I0J15240D01*
G01X4994685Y-698388D02*
G03X4979445Y-683148I-15240J0D01*
G01X4497206Y-901670D02*
G02X4481966Y-886430I0J15240D01*
G01X4481966Y-698388D02*
G02X4497206Y-683148I15240J0D01*
G01X4365620Y-1514109D02*
G01X4494113Y-1514109D01*
G01X4494113Y-1514109D02*
G01X4494113Y-1330691D01*
G01X4494113Y-1330691D02*
G01X4365620Y-1330691D01*
G01X4270380Y-1514109D02*
G01X4141887Y-1514109D01*
G01X4141887Y-1514109D02*
G01X4141887Y-1330691D01*
G01X4141887Y-1330691D02*
G01X4270380Y-1330691D01*
G54D12*
G01X4370026Y-38100D02*
G01X4370026Y-63500D01*
G01X5106626Y-38100D02*
G01X5106626Y-63500D01*
G01X4370026Y-38100D02*
G01X4484326Y-38100D01*
G01X4865326Y-38100D02*
G01X4611326Y-38100D01*
G01X5106626Y-38100D02*
G01X5005026Y-38100D01*
G01X5106626Y-177800D02*
G01X5106626Y-622300D01*
G01X5106626Y-622300D02*
G01X4370026Y-622300D01*
G01X4370026Y-622300D02*
G01X4370026Y-177800D01*
G54D11*
G01X7606797Y-4625721D02*
G01X7606797Y-4340479D01*
G01X7778024Y-4625721D02*
G01X7258787Y-4625721D01*
G01X7259076Y-4365539D02*
G01X7258408Y-4341617D01*
G01X7258787Y-4625721D02*
G01X7258119Y-4601799D01*
G01X7778024Y-4340479D02*
G01X7258787Y-4340479D01*
G36*
G01X7770406Y-4633341D02*
G01X7770538Y-4592681D01*
G01X7816492Y-4593133D01*
G01X7816126Y-4633341D01*
G01X7770406Y-4633341D01*
G37*
G36*
G01X7769583Y-4373504D02*
G01X7769715Y-4332844D01*
G01X7815669Y-4333296D01*
G01X7815303Y-4373504D01*
G01X7769583Y-4373504D01*
G37*
G54D12*
G01X6388100Y-4673600D02*
G01X6388100Y-4699000D01*
G01X7124700Y-4673600D02*
G01X7124700Y-4699000D01*
G01X6388100Y-4673600D02*
G01X6502400Y-4673600D01*
G01X6883400Y-4673600D02*
G01X6629400Y-4673600D01*
G01X7124700Y-4673600D02*
G01X7023100Y-4673600D01*
G01X7124700Y-4813300D02*
G01X7124700Y-5257800D01*
G01X7124700Y-5257800D02*
G01X6388100Y-5257800D01*
G01X6388100Y-5257800D02*
G01X6388100Y-4813300D01*
G01X5626100Y-4673600D02*
G01X5626100Y-4699000D01*
G01X6362700Y-4673600D02*
G01X6362700Y-4699000D01*
G01X5626100Y-4673600D02*
G01X5740400Y-4673600D01*
G01X6121400Y-4673600D02*
G01X5867400Y-4673600D01*
G01X6362700Y-4673600D02*
G01X6261100Y-4673600D01*
G01X6362700Y-4813300D02*
G01X6362700Y-5257800D01*
G01X6362700Y-5257800D02*
G01X5626100Y-5257800D01*
G01X5626100Y-5257800D02*
G01X5626100Y-4813300D01*
G01X6933400Y-5658800D02*
G01X6893400Y-5618800D01*
G01X6893400Y-5618800D02*
G01X6883400Y-5608800D01*
G01X6883400Y-5608800D02*
G01X6873375Y-5618800D01*
G01X6873375Y-5618800D02*
G01X6833375Y-5658800D01*
G01X6933400Y-5658800D02*
G01X6833375Y-5658800D01*
G01X6781673Y-5683123D02*
G01X6781673Y-5838063D01*
G01X6781673Y-5838063D02*
G01X6984873Y-5838063D01*
G01X6984873Y-5838063D02*
G01X6984873Y-5683123D01*
G01X6779133Y-5604383D02*
G01X6779133Y-5457063D01*
G01X6779133Y-5457063D02*
G01X6819773Y-5416423D01*
G01X6819773Y-5416423D02*
G01X6946773Y-5416423D01*
G01X6946773Y-5416423D02*
G01X6984873Y-5454523D01*
G01X6984873Y-5454523D02*
G01X6984873Y-5606923D01*
G01X6171400Y-5658800D02*
G01X6131400Y-5618800D01*
G01X6131400Y-5618800D02*
G01X6121400Y-5608800D01*
G01X6121400Y-5608800D02*
G01X6111375Y-5618800D01*
G01X6111375Y-5618800D02*
G01X6071375Y-5658800D01*
G01X6171400Y-5658800D02*
G01X6071375Y-5658800D01*
G01X6019673Y-5683123D02*
G01X6019673Y-5838063D01*
G01X6019673Y-5838063D02*
G01X6222873Y-5838063D01*
G01X6222873Y-5838063D02*
G01X6222873Y-5683123D01*
G01X6017133Y-5604383D02*
G01X6017133Y-5457063D01*
G01X6017133Y-5457063D02*
G01X6057773Y-5416423D01*
G01X6057773Y-5416423D02*
G01X6184773Y-5416423D01*
G01X6184773Y-5416423D02*
G01X6222873Y-5454523D01*
G01X6222873Y-5454523D02*
G01X6222873Y-5606923D01*
G54D11*
G01X7242579Y-4318221D02*
G01X7387821Y-4318221D01*
G01X7387821Y-4318221D02*
G01X7387821Y-4215059D01*
G01X7242579Y-4012979D02*
G01X7387821Y-4012979D01*
G01X7387821Y-4012979D02*
G01X7387821Y-4116141D01*
G01X7242579Y-4211140D02*
G01X7242579Y-4120060D01*
G01X6746509Y-5607080D02*
G01X6746509Y-5478587D01*
G01X6746509Y-5478587D02*
G01X6563091Y-5478587D01*
G01X6563091Y-5478587D02*
G01X6563091Y-5607080D01*
G01X6746509Y-5702320D02*
G01X6746509Y-5830814D01*
G01X6746509Y-5830814D02*
G01X6563091Y-5830814D01*
G01X6563091Y-5830814D02*
G01X6563091Y-5702320D01*
G01X5984509Y-5607080D02*
G01X5984509Y-5478587D01*
G01X5984509Y-5478587D02*
G01X5801091Y-5478587D01*
G01X5801091Y-5478587D02*
G01X5801091Y-5607080D01*
G01X5984509Y-5702320D02*
G01X5984509Y-5830814D01*
G01X5984509Y-5830814D02*
G01X5801091Y-5830814D01*
G01X5801091Y-5830814D02*
G01X5801091Y-5702320D01*
G01X6844797Y-4625721D02*
G01X6844797Y-4340479D01*
G01X7016024Y-4625721D02*
G01X6496787Y-4625721D01*
G01X6497076Y-4365539D02*
G01X6496408Y-4341617D01*
G01X6496787Y-4625721D02*
G01X6496119Y-4601799D01*
G01X7016024Y-4340479D02*
G01X6496787Y-4340479D01*
G36*
G01X7008406Y-4633341D02*
G01X7008538Y-4592681D01*
G01X7054492Y-4593133D01*
G01X7054126Y-4633341D01*
G01X7008406Y-4633341D01*
G37*
G36*
G01X7007583Y-4373504D02*
G01X7007715Y-4332844D01*
G01X7053669Y-4333296D01*
G01X7053303Y-4373504D01*
G01X7007583Y-4373504D01*
G37*
G01X6082797Y-4638421D02*
G01X6082797Y-4353179D01*
G01X6254024Y-4638421D02*
G01X5734787Y-4638421D01*
G01X5735076Y-4378239D02*
G01X5734408Y-4354317D01*
G01X5734787Y-4638421D02*
G01X5734119Y-4614499D01*
G01X6254024Y-4353179D02*
G01X5734787Y-4353179D01*
G36*
G01X6246406Y-4646041D02*
G01X6246538Y-4605381D01*
G01X6292492Y-4605833D01*
G01X6292126Y-4646041D01*
G01X6246406Y-4646041D01*
G37*
G36*
G01X6245583Y-4386204D02*
G01X6245715Y-4345544D01*
G01X6291669Y-4345996D01*
G01X6291303Y-4386204D01*
G01X6245583Y-4386204D01*
G37*
G54D12*
G01X7150100Y-4673600D02*
G01X7150100Y-4699000D01*
G01X7886700Y-4673600D02*
G01X7886700Y-4699000D01*
G01X7150100Y-4673600D02*
G01X7264400Y-4673600D01*
G01X7645400Y-4673600D02*
G01X7391400Y-4673600D01*
G01X7886700Y-4673600D02*
G01X7785100Y-4673600D01*
G01X7886700Y-4813300D02*
G01X7886700Y-5257800D01*
G01X7886700Y-5257800D02*
G01X7150100Y-5257800D01*
G01X7150100Y-5257800D02*
G01X7150100Y-4813300D01*
G54D11*
G01X6493279Y-4292821D02*
G01X6638521Y-4292821D01*
G01X6638521Y-4292821D02*
G01X6638521Y-4189659D01*
G01X6493279Y-3987579D02*
G01X6638521Y-3987579D01*
G01X6638521Y-3987579D02*
G01X6638521Y-4090741D01*
G01X6493279Y-4185740D02*
G01X6493279Y-4094660D01*
G01X5718579Y-4318221D02*
G01X5863821Y-4318221D01*
G01X5863821Y-4318221D02*
G01X5863821Y-4215059D01*
G01X5718579Y-4012979D02*
G01X5863821Y-4012979D01*
G01X5863821Y-4012979D02*
G01X5863821Y-4116141D01*
G01X5718579Y-4211140D02*
G01X5718579Y-4120060D01*
G54D12*
G01X12700Y-2298700D02*
G01X520700Y-2298700D01*
G01X520700Y-2298700D02*
G01X520700Y-1536700D01*
G01X520700Y-1536700D02*
G01X12700Y-1536700D01*
G54D11*
G01X8061579Y-3720592D02*
G01X8346821Y-3720592D01*
G01X8061579Y-3891818D02*
G01X8061579Y-3372582D01*
G01X8321761Y-3372871D02*
G01X8345683Y-3372203D01*
G01X8061579Y-3372582D02*
G01X8085501Y-3371913D01*
G01X8346821Y-3891818D02*
G01X8346821Y-3372582D01*
G36*
G01X8053959Y-3884201D02*
G01X8094619Y-3884333D01*
G01X8094167Y-3930287D01*
G01X8053959Y-3929921D01*
G01X8053959Y-3884201D01*
G37*
G36*
G01X8313796Y-3883378D02*
G01X8354456Y-3883510D01*
G01X8354004Y-3929464D01*
G01X8313796Y-3929098D01*
G01X8313796Y-3883378D01*
G37*
G54D12*
G01X8244921Y-4258363D02*
G01X8204921Y-4218363D01*
G01X8204921Y-4218363D02*
G01X8194921Y-4208363D01*
G01X8194921Y-4208363D02*
G01X8184896Y-4218363D01*
G01X8184896Y-4218363D02*
G01X8144896Y-4258363D01*
G01X8244921Y-4258363D02*
G01X8144896Y-4258363D01*
G01X8093194Y-4282686D02*
G01X8093194Y-4437626D01*
G01X8093194Y-4437626D02*
G01X8296394Y-4437626D01*
G01X8296394Y-4437626D02*
G01X8296394Y-4282686D01*
G01X8090654Y-4203946D02*
G01X8090654Y-4056626D01*
G01X8090654Y-4056626D02*
G01X8131294Y-4015986D01*
G01X8131294Y-4015986D02*
G01X8258294Y-4015986D01*
G01X8258294Y-4015986D02*
G01X8296394Y-4054086D01*
G01X8296394Y-4054086D02*
G01X8296394Y-4206486D01*
G54D11*
G01X7712479Y-3949921D02*
G01X7857721Y-3949921D01*
G01X7857721Y-3949921D02*
G01X7857721Y-3846759D01*
G01X7712479Y-3644679D02*
G01X7857721Y-3644679D01*
G01X7857721Y-3644679D02*
G01X7857721Y-3747841D01*
G01X7712479Y-3842840D02*
G01X7712479Y-3751760D01*
G01X6283691Y-3248020D02*
G01X6283691Y-3376513D01*
G01X6283691Y-3376513D02*
G01X6467109Y-3376513D01*
G01X6467109Y-3376513D02*
G01X6467109Y-3248020D01*
G01X6283691Y-3152780D02*
G01X6283691Y-3024287D01*
G01X6283691Y-3024287D02*
G01X6467109Y-3024287D01*
G01X6467109Y-3024287D02*
G01X6467109Y-3152780D01*
G01X6550020Y-3952509D02*
G01X6678513Y-3952509D01*
G01X6678513Y-3952509D02*
G01X6678513Y-3769091D01*
G01X6678513Y-3769091D02*
G01X6550020Y-3769091D01*
G01X6454780Y-3952509D02*
G01X6326287Y-3952509D01*
G01X6326287Y-3952509D02*
G01X6326287Y-3769091D01*
G01X6326287Y-3769091D02*
G01X6454780Y-3769091D01*
G01X6321420Y-3749309D02*
G01X6449913Y-3749309D01*
G01X6449913Y-3749309D02*
G01X6449913Y-3565891D01*
G01X6449913Y-3565891D02*
G01X6321420Y-3565891D01*
G01X6226180Y-3749309D02*
G01X6097687Y-3749309D01*
G01X6097687Y-3749309D02*
G01X6097687Y-3565891D01*
G01X6097687Y-3565891D02*
G01X6226180Y-3565891D01*
G01X5476799Y-4158391D02*
G01X5605292Y-4158391D01*
G01X5605292Y-4158391D02*
G01X5605292Y-3974973D01*
G01X5605292Y-3974973D02*
G01X5476799Y-3974973D01*
G01X5381559Y-4158391D02*
G01X5253065Y-4158391D01*
G01X5253065Y-4158391D02*
G01X5253065Y-3974973D01*
G01X5253065Y-3974973D02*
G01X5381559Y-3974973D01*
G01X5280020Y-4371609D02*
G01X5408513Y-4371609D01*
G01X5408513Y-4371609D02*
G01X5408513Y-4188191D01*
G01X5408513Y-4188191D02*
G01X5280020Y-4188191D01*
G01X5184780Y-4371609D02*
G01X5056287Y-4371609D01*
G01X5056287Y-4371609D02*
G01X5056287Y-4188191D01*
G01X5056287Y-4188191D02*
G01X5184780Y-4188191D01*
G01X8489980Y-4251691D02*
G01X8361487Y-4251691D01*
G01X8361487Y-4251691D02*
G01X8361487Y-4435109D01*
G01X8361487Y-4435109D02*
G01X8489980Y-4435109D01*
G01X8585220Y-4251691D02*
G01X8713714Y-4251691D01*
G01X8713714Y-4251691D02*
G01X8713714Y-4435109D01*
G01X8713714Y-4435109D02*
G01X8585220Y-4435109D01*
G01X7712080Y-3997691D02*
G01X7583587Y-3997691D01*
G01X7583587Y-3997691D02*
G01X7583587Y-4181109D01*
G01X7583587Y-4181109D02*
G01X7712080Y-4181109D01*
G01X7807320Y-3997691D02*
G01X7935813Y-3997691D01*
G01X7935813Y-3997691D02*
G01X7935813Y-4181109D01*
G01X7935813Y-4181109D02*
G01X7807320Y-4181109D01*
G01X7400920Y-3901709D02*
G01X7529413Y-3901709D01*
G01X7529413Y-3901709D02*
G01X7529413Y-3718291D01*
G01X7529413Y-3718291D02*
G01X7400920Y-3718291D01*
G01X7305680Y-3901709D02*
G01X7177187Y-3901709D01*
G01X7177187Y-3901709D02*
G01X7177187Y-3718291D01*
G01X7177187Y-3718291D02*
G01X7305680Y-3718291D01*
G01X6878991Y-3957620D02*
G01X6878991Y-4086113D01*
G01X6878991Y-4086113D02*
G01X7062409Y-4086113D01*
G01X7062409Y-4086113D02*
G01X7062409Y-3957620D01*
G01X6878991Y-3862380D02*
G01X6878991Y-3733886D01*
G01X6878991Y-3733886D02*
G01X7062409Y-3733886D01*
G01X7062409Y-3733886D02*
G01X7062409Y-3862380D01*
G01X6619880Y-3032491D02*
G01X6491387Y-3032491D01*
G01X6491387Y-3032491D02*
G01X6491387Y-3215909D01*
G01X6491387Y-3215909D02*
G01X6619880Y-3215909D01*
G01X6715120Y-3032491D02*
G01X6843613Y-3032491D01*
G01X6843613Y-3032491D02*
G01X6843613Y-3215909D01*
G01X6843613Y-3215909D02*
G01X6715120Y-3215909D01*
G54D12*
G01X1920052Y-3175000D02*
G01X2679700Y-3175000D01*
G01X2679700Y-3175000D02*
G01X2679700Y-3429000D01*
G01X2679700Y-3429000D02*
G01X1663700Y-3429000D01*
G01X1663700Y-3429000D02*
G01X1663700Y-3175000D01*
G01X1663700Y-3175000D02*
G01X1920052Y-3175000D01*
G01X1920052Y-3175000D02*
G01X1920052Y-3429000D01*
G54D11*
G01X5728896Y-3296961D02*
G01X5877395Y-3296961D01*
G01X5877395Y-3078439D02*
G01X5728896Y-3078439D01*
G01X5713656Y-3093679D02*
G01X5713656Y-3281721D01*
G01X6211136Y-3296961D02*
G01X6062637Y-3296961D01*
G01X6062637Y-3078439D02*
G01X6211136Y-3078439D01*
G01X6226376Y-3093679D02*
G01X6226376Y-3281721D01*
G01X5728896Y-3078439D02*
G03X5713656Y-3093679I0J-15240D01*
G01X5713656Y-3281721D02*
G03X5728896Y-3296961I15240J0D01*
G01X6211136Y-3078439D02*
G02X6226376Y-3093679I0J-15240D01*
G01X6226376Y-3281721D02*
G02X6211136Y-3296961I-15240J0D01*
G54D12*
G01X6006615Y-3361799D02*
G01X6019698Y-3361799D01*
G01X5686613Y-3361799D02*
G01X5870387Y-3361799D01*
G01X5550388Y-3851798D02*
G01X5533499Y-3851798D01*
G01X5533499Y-3851798D02*
G01X5533499Y-3361799D01*
G01X5533499Y-3361799D02*
G01X5550388Y-3361799D01*
G01X5870387Y-3851798D02*
G01X5686613Y-3851798D01*
G01X6023498Y-3361799D02*
G01X6023498Y-3851798D01*
G01X6023498Y-3851798D02*
G01X6006615Y-3851798D01*
G36*
G01X5469969Y-3816944D02*
G01X5469969Y-3884254D01*
G01X5542359Y-3884254D01*
G01X5469969Y-3816944D01*
G37*
G54D11*
G01X5502679Y-3035521D02*
G01X5647921Y-3035521D01*
G01X5647921Y-3035521D02*
G01X5647921Y-2932359D01*
G01X5502679Y-2730279D02*
G01X5647921Y-2730279D01*
G01X5647921Y-2730279D02*
G01X5647921Y-2833441D01*
G01X5502679Y-2928440D02*
G01X5502679Y-2837360D01*
G01X2295891Y-4035420D02*
G01X2295891Y-4163913D01*
G01X2295891Y-4163913D02*
G01X2479309Y-4163913D01*
G01X2479309Y-4163913D02*
G01X2479309Y-4035420D01*
G01X2295891Y-3940180D02*
G01X2295891Y-3811687D01*
G01X2295891Y-3811687D02*
G01X2479309Y-3811687D01*
G01X2479309Y-3811687D02*
G01X2479309Y-3940180D01*
G01X1027288Y-4036504D02*
G01X1027288Y-4164998D01*
G01X1027288Y-4164998D02*
G01X1210706Y-4164998D01*
G01X1210706Y-4164998D02*
G01X1210706Y-4036504D01*
G01X1027288Y-3941265D02*
G01X1027288Y-3812771D01*
G01X1027288Y-3812771D02*
G01X1210706Y-3812771D01*
G01X1210706Y-3812771D02*
G01X1210706Y-3941265D01*
G01X1281288Y-4033304D02*
G01X1281288Y-4161798D01*
G01X1281288Y-4161798D02*
G01X1464706Y-4161798D01*
G01X1464706Y-4161798D02*
G01X1464706Y-4033304D01*
G01X1281288Y-3938064D02*
G01X1281288Y-3809571D01*
G01X1281288Y-3809571D02*
G01X1464706Y-3809571D01*
G01X1464706Y-3809571D02*
G01X1464706Y-3938064D01*
G01X3060649Y-4034904D02*
G01X3060649Y-4163398D01*
G01X3060649Y-4163398D02*
G01X3244068Y-4163398D01*
G01X3244068Y-4163398D02*
G01X3244068Y-4034904D01*
G01X3060649Y-3939664D02*
G01X3060649Y-3811171D01*
G01X3060649Y-3811171D02*
G01X3244068Y-3811171D01*
G01X3244068Y-3811171D02*
G01X3244068Y-3939664D01*
G01X3311891Y-4035420D02*
G01X3311891Y-4163913D01*
G01X3311891Y-4163913D02*
G01X3495309Y-4163913D01*
G01X3495309Y-4163913D02*
G01X3495309Y-4035420D01*
G01X3311891Y-3940180D02*
G01X3311891Y-3811687D01*
G01X3311891Y-3811687D02*
G01X3495309Y-3811687D01*
G01X3495309Y-3811687D02*
G01X3495309Y-3940180D01*
G01X4486280Y-3984991D02*
G01X4357787Y-3984991D01*
G01X4357787Y-3984991D02*
G01X4357787Y-4168409D01*
G01X4357787Y-4168409D02*
G01X4486280Y-4168409D01*
G01X4581520Y-3984991D02*
G01X4710013Y-3984991D01*
G01X4710013Y-3984991D02*
G01X4710013Y-4168409D01*
G01X4710013Y-4168409D02*
G01X4581520Y-4168409D01*
G01X5130152Y-2907193D02*
G01X5001659Y-2907193D01*
G01X5001659Y-2907193D02*
G01X5001659Y-3090611D01*
G01X5001659Y-3090611D02*
G01X5130152Y-3090611D01*
G01X5225392Y-2907193D02*
G01X5353886Y-2907193D01*
G01X5353886Y-2907193D02*
G01X5353886Y-3090611D01*
G01X5353886Y-3090611D02*
G01X5225392Y-3090611D01*
G01X5545120Y-3293709D02*
G01X5673613Y-3293709D01*
G01X5673613Y-3293709D02*
G01X5673613Y-3110291D01*
G01X5673613Y-3110291D02*
G01X5545120Y-3110291D01*
G01X5449880Y-3293709D02*
G01X5321386Y-3293709D01*
G01X5321386Y-3293709D02*
G01X5321386Y-3110291D01*
G01X5321386Y-3110291D02*
G01X5449880Y-3110291D01*
G01X5325770Y-3548764D02*
G01X5325770Y-3677257D01*
G01X5325770Y-3677257D02*
G01X5509189Y-3677257D01*
G01X5509189Y-3677257D02*
G01X5509189Y-3548764D01*
G01X5325770Y-3453524D02*
G01X5325770Y-3325030D01*
G01X5325770Y-3325030D02*
G01X5509189Y-3325030D01*
G01X5509189Y-3325030D02*
G01X5509189Y-3453524D01*

G04 Rect Start*
G54D12*
G01X2628913Y-571500D02*
G01X2628913Y-88900D01*
G01X3530613Y-88900D01*
G01X3530613Y-571500D01*
G01X2628913Y-571500D01*
G01X2578113Y-622300D02*
G01X2578113Y-38100D01*
G01X3581413Y-38100D01*
G01X3581413Y-622300D01*
G01X2578113Y-622300D01*
G01X4343413Y-3771900D02*
G01X4343413Y-3289300D01*
G01X5245113Y-3289300D01*
G01X5245113Y-3771900D01*
G01X4343413Y-3771900D01*
G01X4292613Y-3822700D02*
G01X4292613Y-3238500D01*
G01X5295913Y-3238500D01*
G01X5295913Y-3822700D01*
G01X4292613Y-3822700D01*
G01X5346700Y-2882900D02*
G01X0Y-2882900D01*
G01X0Y-952500D01*
G01X5346700Y-952500D01*
G01X5346700Y-2882900D01*
G04 Rect End*

G04 Circle Start*
G01X1371600Y-1863098D02*
G03X1397000Y-1863098I12700J0D01*
G03X1371600Y-1863098I-12700J0D01*
G01X8432800Y-2209884D02*
G03X8509000Y-2209884I38100J0D01*
G03X8432800Y-2209884I-38100J0D01*
G01X8432800Y-1701884D02*
G03X8509000Y-1701884I38100J0D01*
G03X8432800Y-1701884I-38100J0D01*
G01X8445500Y-3873584D02*
G03X8521700Y-3873584I38100J0D01*
G03X8445500Y-3873584I-38100J0D01*
G01X8445500Y-3365584D02*
G03X8521700Y-3365584I38100J0D01*
G03X8445500Y-3365584I-38100J0D01*
G01X2095500Y-5448300D02*
G03X2171700Y-5448300I38100J0D01*
G03X2095500Y-5448300I-38100J0D01*
G01X2603500Y-5448300D02*
G03X2679700Y-5448300I38100J0D01*
G03X2603500Y-5448300I-38100J0D01*
G01X3111500Y-5448300D02*
G03X3187700Y-5448300I38100J0D01*
G03X3111500Y-5448300I-38100J0D01*
G01X3619500Y-5448300D02*
G03X3695700Y-5448300I38100J0D01*
G03X3619500Y-5448300I-38100J0D01*
G04 Circle End*

M02*

