G04 Layer: BottomLayer*
G04 EasyEDA Pro v2.2.32.3, 2024-11-04 22:23:50*
G04 Gerber Generator version 0.3*
G04 Scale: 100 percent, Rotated: No, Reflected: No*
G04 Dimensions in millimeters*
G04 Leading zeros omitted, absolute positions, 3 integers and 5 decimals*
%FSLAX35Y35*%
%MOMM*%
%ADD10C,0.90508*%
%ADD11C,0.50508*%
%ADD12C,1.05508*%
%ADD13C,0.76708*%
%ADD14C,3.00507*%
%ADD15C,0.85508*%
%ADD16C,1.10508*%
%ADD17C,1.25508*%
%ADD18C,1.00508*%
%ADD19C,6.0078*%
%ADD20C,5.99999*%
%ADD21O,2.1X1.0*%
%ADD22O,1.8X1.0*%
%ADD23C,2.2*%
%ADD24R,1.7X1.7*%
%ADD25C,1.7*%
%ADD26R,1.7X1.7*%
%ADD27O,1.8X2.59999*%
%ADD28R,1.8X2.59999*%
%ADD29O,2.0X2.49999*%
%ADD30R,2.0X2.49999*%
%ADD31R,1.6X1.6*%
%ADD32C,1.6*%
%ADD33C,1.8*%
%ADD34R,1.8X1.8*%
%ADD35C,1.524*%
%ADD36C,0.61*%
%ADD37C,0.254*%
%ADD38C,1.0*%
G75*


G04 Copper Start*
G36*
G01X9118346Y-38357D02*
G01X9118346Y-6083060D01*
G01X38354Y-6087025D01*
G01X38354Y-38357D01*
G01X9118346Y-38357D01*
G37*
%LPC*%
G36*
G01X266700Y-2781562D02*
G03X266700Y-2577854I0J101854D01*
G03X266700Y-2781562I0J-101854D01*
G37*
G36*
G01X266700Y-1257562D02*
G03X266700Y-1053854I0J101854D01*
G03X266700Y-1257562I0J-101854D01*
G37*
G36*
G01X320693Y-1410040D02*
G01X240693Y-1410040D01*
G03X240693Y-1561348I0J-75654D01*
G01X320693Y-1561348D01*
G03X320693Y-1410040I0J75654D01*
G37*
G36*
G01X320693Y-2274047D02*
G01X240693Y-2274047D01*
G03X240693Y-2425355I0J-75654D01*
G01X320693Y-2425355D01*
G03X320693Y-2274047I0J75654D01*
G37*
G36*
G01X833653Y-5588008D02*
G03X182347Y-5588008I-325653J0D01*
G03X833653Y-5588008I325653J0D01*
G37*
G36*
G01X833653Y-508008D02*
G03X182347Y-508008I-325653J0D01*
G03X833653Y-508008I325653J0D01*
G37*
G36*
G01X784438Y-4835992D02*
G03X795672Y-4863113I38354J0D01*
G01X976649Y-5044089D01*
G03X897039Y-5188166I-19043J-83510D01*
G03X1041116Y-5108556I60566J60566D01*
G01X1065080Y-5132520D01*
G03X1092200Y-5143754I27120J27120D01*
G01X2819400Y-5143754D01*
G03X2846520Y-5132520I0J38354D01*
G01X2885702Y-5093339D01*
G03X3024772Y-5188166I78503J-34261D01*
G03X2929945Y-5049096I-60566J60566D01*
G01X3013087Y-4965954D01*
G01X3018546Y-4965954D01*
G01X3018546Y-5007600D01*
G03X3044200Y-5033254I25654J0D01*
G01X3204200Y-5033254D01*
G03X3229854Y-5007600I0J25654D01*
G01X3229854Y-4847600D01*
G03X3204200Y-4821946I-25654J0D01*
G01X3044200Y-4821946D01*
G03X3018546Y-4847600I0J-25654D01*
G01X3018546Y-4889246D01*
G01X2997200Y-4889246D01*
G03X2970080Y-4900480I0J-38354D01*
G01X2803513Y-5067046D01*
G01X1794395Y-5067046D01*
G01X1837108Y-5024333D01*
G03X1954309Y-4852891I42492J96733D01*
G03X1782867Y-4970092I-74709J-74709D01*
G01X1736713Y-5016246D01*
G01X1683086Y-5016246D01*
G03X1730706Y-4916852I-57486J88646D01*
G03X1663954Y-4829154I-105106J-10748D01*
G01X1663954Y-4410087D01*
G01X2096700Y-3977341D01*
G03X2095246Y-3987800I36900J-10459D01*
G01X2095246Y-4829154D01*
G03X2133600Y-5033254I38354J-98446D01*
G03X2171954Y-4829154I0J105654D01*
G01X2171954Y-4003687D01*
G01X2433647Y-3741994D01*
G03X2491082Y-3789923I55553J8194D01*
G01X3339846Y-4638687D01*
G01X3339846Y-4829154D01*
G03X3378200Y-5033254I38354J-98446D01*
G03X3416554Y-4829154I0J105654D01*
G01X3416554Y-4622800D01*
G03X3405320Y-4595680I-38354J0D01*
G01X2545323Y-3735682D01*
G03X2476754Y-3679043I-56123J1882D01*
G01X2476754Y-3382477D01*
G03X2628646Y-3382477I75946J80477D01*
G01X2628646Y-3708400D01*
G03X2639880Y-3735520I38354J0D01*
G01X3789467Y-4885108D01*
G03X3828714Y-5016246I96733J-42492D01*
G01X3775087Y-5016246D01*
G01X3728933Y-4970092D01*
G03X3557491Y-4852891I-96733J42492D01*
G03X3674692Y-5024333I74709J-74709D01*
G01X3732080Y-5081720D01*
G03X3759200Y-5092954I27120J27120D01*
G01X4191000Y-5092954D01*
G03X4218120Y-5081720I0J38354D01*
G01X4294320Y-5005520D01*
G03X4305088Y-4984361I-27120J27120D01*
G03X4499853Y-4928031I89112J56761D01*
G03X4305554Y-4870114I-105653J431D01*
G01X4305554Y-2778409D01*
G03X4419346Y-2729869I25146J98701D01*
G01X4419346Y-2765421D01*
G01X4405180Y-2779587D01*
G03X4393946Y-2806708I27120J-27120D01*
G01X4393946Y-3594108D01*
G03X4394289Y-3599229I38354J0D01*
G03X4329854Y-3732857I-3689J-80571D01*
G03X4470935Y-3686984I60747J53057D01*
G01X4494982Y-3711031D01*
G03X4522103Y-3722264I27120J27120D01*
G01X4633216Y-3722264D01*
G01X4960377Y-4049426D01*
G03X5056207Y-4091015I56123J-1882D01*
G03X5014618Y-3995185I-39707J39707D01*
G01X4676223Y-3656790D01*
G03X4649103Y-3645556I-27120J-27120D01*
G01X4537989Y-3645556D01*
G01X4487887Y-3595454D01*
G01X4640600Y-3595454D01*
G03X4666254Y-3569800I0J25654D01*
G01X4666254Y-3389800D01*
G03X4640600Y-3364146I-25654J0D01*
G01X4470654Y-3364146D01*
G01X4470654Y-2822594D01*
G01X4484820Y-2808428D01*
G03X4496054Y-2781308I-27120J27120D01*
G01X4496054Y-2729869D01*
G03X4686461Y-2675345I88646J50161D01*
G03X4492086Y-2637318I-101761J-4363D01*
G03X4484820Y-2627187I-34386J-16989D01*
G01X4332420Y-2474787D01*
G03X4305300Y-2463554I-27120J-27120D01*
G01X1907915Y-2463554D01*
G03X1850163Y-2448306I-41015J-38354D01*
G03X1811348Y-2493707I16737J-53602D01*
G01X1777351Y-2459711D01*
G01X1777351Y-1358005D01*
G03X1766118Y-1330885I-38354J0D01*
G01X1743044Y-1307811D01*
G03X1753503Y-1309264I10459J36900D01*
G01X1929497Y-1309264D01*
G03X1956618Y-1298031I0J38354D01*
G01X2005100Y-1249548D01*
G03X2137314Y-1198097I39600J93841D01*
G03X2144580Y-1208228I34386J16989D01*
G01X2803175Y-1866823D01*
G03X2830295Y-1878056I27120J27120D01*
G01X3497521Y-1878056D01*
G03X3462893Y-1941673I20379J-52326D01*
G03X3519782Y-1986505I55007J11291D01*
G01X3555746Y-2022469D01*
G01X3555746Y-2244967D01*
G03X3594100Y-2342136I38354J-41015D01*
G03X3632454Y-2244967I0J56154D01*
G01X3632454Y-2006582D01*
G03X3628119Y-1988869I-38354J0D01*
G03X3648857Y-1974858I-20277J52365D01*
G01X3718955Y-1974858D01*
G01X3831119Y-2087022D01*
G03X3926948Y-2128611I56123J-1882D01*
G03X3885360Y-2032781I-39707J39707D01*
G01X3761962Y-1909383D01*
G03X3734841Y-1898150I-27120J-27120D01*
G01X3648857Y-1898150D01*
G03X3565145Y-1900031I-41015J-38354D01*
G03X3538279Y-1878056I-47245J-30352D01*
G01X4363808Y-1878056D01*
G01X4503177Y-2017426D01*
G03X4554254Y-2075235I56123J-1882D01*
G03X4614853Y-2027501I5046J55927D01*
G01X6230377Y-3643026D01*
G03X6326207Y-3684615I56123J-1882D01*
G03X6284618Y-3588785I-39707J39707D01*
G01X5774295Y-3078462D01*
G03X5784754Y-3079915I10459J36900D01*
G01X6327667Y-3079915D01*
G01X7043177Y-3795426D01*
G03X7139007Y-3837015I56123J-1882D01*
G03X7097418Y-3741185I-39707J39707D01*
G01X6370674Y-3014441D01*
G03X6343554Y-3003207I-27120J-27120D01*
G01X6175712Y-3003207D01*
G03X6197081Y-2957218I-34754J44107D01*
G01X6316876Y-2837423D01*
G03X6358465Y-2741593I1882J56123D01*
G03X6262635Y-2783182I-39707J-39707D01*
G01X6142840Y-2902977D01*
G03X6088217Y-2939822I-1882J-56123D01*
G03X6106204Y-3003207I52741J-19278D01*
G01X5800641Y-3003207D01*
G01X4051939Y-1254506D01*
G03X4171279Y-1193511I24761J98798D01*
G03X4126861Y-1067062I-94579J37803D01*
G01X4280539Y-1067062D01*
G03X4330700Y-1257562I50161J-88646D01*
G03X4380861Y-1067062I0J101854D01*
G01X4534539Y-1067062D01*
G03X4584700Y-1257562I50161J-88646D01*
G03X4634861Y-1067062I0J101854D01*
G01X4788539Y-1067062D01*
G03X4838700Y-1257562I50161J-88646D01*
G03X4888861Y-1067062I0J101854D01*
G01X5042539Y-1067062D01*
G03X5092700Y-1257562I50161J-88646D01*
G03X5142861Y-1067062I0J101854D01*
G01X5178413Y-1067062D01*
G01X5576386Y-1465034D01*
G03X5755144Y-1589552I100514J-46273D01*
G03X5630627Y-1410794I-78244J78244D01*
G01X5221420Y-1001587D01*
G03X5194300Y-990354I-27120J-27120D01*
G01X4854784Y-990354D01*
G03X4811418Y-896385I-41484J37846D01*
G01X4764220Y-849187D01*
G03X4761418Y-846649I-27120J-27120D01*
G01X5212000Y-846649D01*
G01X5576386Y-1211034D01*
G03X5755144Y-1335552I100514J-46273D01*
G03X5630627Y-1156794I-78244J78244D01*
G01X5255008Y-781174D01*
G03X5227887Y-769941I-27120J-27120D01*
G01X3719774Y-769941D01*
G01X3701023Y-751189D01*
G03X3699756Y-737301I-56123J1882D01*
G03X3695105Y-724154I-54856J-12006D01*
G01X3774827Y-724154D01*
G03X3855549Y-725507I41015J38354D01*
G03X3854196Y-644785I-39707J39707D01*
G01X3854196Y-389893D01*
G03X3882748Y-174318I-6096J110486D01*
G03X3777488Y-364603I-34648J-105089D01*
G01X3777488Y-644785D01*
G03X3774827Y-647446I38354J-41015D01*
G01X3485642Y-647446D01*
G03X3472415Y-649799I0J-38354D01*
G03X3416405Y-591554I-56115J2091D01*
G03X3360177Y-649589I-105J-56154D01*
G01X3310611Y-699156D01*
G01X3047097Y-699156D01*
G03X3019977Y-710390I0J-38354D01*
G01X2986382Y-743985D01*
G03X2933514Y-776578I-1882J-56123D01*
G03X2943016Y-837954I50986J-23530D01*
G01X1917700Y-837954D01*
G03X1890580Y-849187I0J-38354D01*
G01X1636580Y-1103187D01*
G03X1629314Y-1113318I27120J-27120D01*
G03X1441780Y-1118769I-92614J-42389D01*
G03X1576300Y-1249548I94920J-36938D01*
G01X1700643Y-1373892D01*
G01X1700643Y-2475597D01*
G03X1711877Y-2502718I38354J0D01*
G01X1787077Y-2577918D01*
G03X1756080Y-2775497I3623J-101790D01*
G03X1858562Y-2603754I34620J95790D01*
G01X1976838Y-2603754D01*
G03X2044700Y-2781562I67862J-75954D01*
G03X2112562Y-2603754I0J101854D01*
G01X2230838Y-2603754D01*
G03X2298700Y-2781562I67862J-75954D01*
G03X2366562Y-2603754I0J101854D01*
G01X2484838Y-2603754D01*
G03X2458859Y-2719308I67862J-75954D01*
G01X2411280Y-2766887D01*
G03X2400046Y-2794008I27120J-27120D01*
G01X2400046Y-3257579D01*
G03X2199481Y-3253011I-101346J-44421D01*
G03X2325050Y-3409471I99219J-48989D01*
G03X2322674Y-3419304I53173J-18052D01*
G03X2322101Y-3429404I55549J-8218D01*
G01X1995503Y-3756002D01*
G03X1984269Y-3783123I27120J-27120D01*
G01X1984269Y-3843707D01*
G03X1970785Y-3906312I38354J-41015D01*
G03X2024722Y-3940837I51838J21589D01*
G01X1598480Y-4367080D01*
G03X1587246Y-4394200I27120J-27120D01*
G01X1587246Y-4829154D01*
G03X1536954Y-4870114I38354J-98446D01*
G01X1536954Y-4851400D01*
G03X1525720Y-4824280I-38354J0D01*
G01X1447151Y-4745711D01*
G01X1447151Y-2728239D01*
G03X1638554Y-2679708I89549J48531D01*
G03X1447151Y-2631176I-101854J0D01*
G01X1447151Y-1281805D01*
G03X1435918Y-1254685I-38354J0D01*
G01X1376541Y-1195308D01*
G03X1210678Y-1083686I-93841J39600D01*
G03X1322300Y-1249548I72022J-72022D01*
G01X1370443Y-1297692D01*
G01X1370443Y-2627984D01*
G03X1180846Y-2679708I-87743J-51724D01*
G03X1370443Y-2731431I101854J0D01*
G01X1370443Y-4761597D01*
G03X1381677Y-4788718I38354J0D01*
G01X1440236Y-4847276D01*
G03X1329108Y-4830867I-68636J-80324D01*
G01X960941Y-4462700D01*
G01X960941Y-2755754D01*
G03X1128598Y-2659843I67759J76046D01*
G03X937003Y-2635370I-99898J-19865D01*
G01X839920Y-2538287D01*
G03X812800Y-2527054I-27120J-27120D01*
G01X635000Y-2527054D01*
G03X607880Y-2538287I0J-38354D01*
G01X560300Y-2585867D01*
G03X448678Y-2751729I-39600J-93841D01*
G03X614541Y-2640108I72022J72022D01*
G01X650887Y-2603762D01*
G01X706829Y-2603762D01*
G03X681391Y-2720544I67871J-75946D01*
G03X784438Y-2781095I93309J40836D01*
G01X784438Y-4835992D01*
G37*
G36*
G01X520700Y-1257562D02*
G03X520700Y-1053854I0J101854D01*
G03X520700Y-1257562I0J-101854D01*
G37*
G36*
G01X753701Y-2274047D02*
G01X643701Y-2274047D01*
G03X643701Y-2425355I0J-75654D01*
G01X753701Y-2425355D01*
G03X753701Y-2274047I0J75654D01*
G37*
G36*
G01X753701Y-1410040D02*
G01X643701Y-1410040D01*
G03X643701Y-1561348I0J-75654D01*
G01X753701Y-1561348D01*
G03X753701Y-1410040I0J75654D01*
G37*
G36*
G01X706867Y-1627706D02*
G03X590560Y-1627706I-58153J0D01*
G03X706867Y-1627706I58153J0D01*
G37*
G36*
G01X706867Y-2206699D02*
G03X590560Y-2206699I-58153J0D01*
G03X706867Y-2206699I58153J0D01*
G37*
G36*
G01X774700Y-1257562D02*
G03X774700Y-1053854I0J101854D01*
G03X774700Y-1257562I0J-101854D01*
G37*
G36*
G01X1041590Y-1904652D02*
G01X1060888Y-1904652D01*
G03X1158057Y-1866298I41015J38354D01*
G03X1060888Y-1827944I-56154J0D01*
G01X1025703Y-1827944D01*
G03X998582Y-1839178I0J-38354D01*
G01X900585Y-1937175D01*
G03X858996Y-2033005I-1882J-56123D01*
G03X954825Y-1991416I39707J39707D01*
G01X1041590Y-1904652D01*
G37*
G36*
G01X1028700Y-1257562D02*
G03X1028700Y-1053854I0J101854D01*
G03X1028700Y-1257562I0J-101854D01*
G37*
G36*
G01X1875700Y-3412654D02*
G03X1901354Y-3387000I0J25654D01*
G01X1901354Y-3217000D01*
G03X1875700Y-3191346I-25654J0D01*
G01X1705700Y-3191346D01*
G03X1680046Y-3217000I0J-25654D01*
G01X1680046Y-3387000D01*
G03X1705700Y-3412654I25654J0D01*
G01X1875700Y-3412654D01*
G37*
G36*
G01X1934046Y-3302000D02*
G03X2155354Y-3302000I110654J0D01*
G03X1934046Y-3302000I-110654J0D01*
G37*
G36*
G01X1997946Y-5765800D02*
G03X2269254Y-5765800I135654J0D01*
G03X1997946Y-5765800I-135654J0D01*
G37*
G36*
G01X2281946Y-4927600D02*
G03X2493254Y-4927600I105654J0D01*
G03X2281946Y-4927600I-105654J0D01*
G37*
G36*
G01X2505946Y-5765800D02*
G03X2777254Y-5765800I135654J0D01*
G03X2505946Y-5765800I-135654J0D01*
G37*
G36*
G01X2637064Y-5033156D02*
G03X2684180Y-4830906I4536J105556D01*
G01X2684180Y-4737390D01*
G03X2645826Y-4640220I-38354J41015D01*
G03X2607472Y-4737390I0J-56154D01*
G01X2607472Y-4827610D01*
G03X2637064Y-5033156I34128J-99990D01*
G37*
G36*
G01X2756756Y-479400D02*
G03X2595446Y-479400I-80655J0D01*
G03X2756756Y-479400I80655J0D01*
G37*
G36*
G01X2951754Y-340813D02*
G01X2951754Y-189400D01*
G03X2926100Y-163746I-25654J0D01*
G01X2746101Y-163746D01*
G03X2720447Y-189400I0J-25654D01*
G01X2720447Y-369400D01*
G03X2746101Y-395054I25654J0D01*
G01X2897514Y-395054D01*
G01X3110178Y-607718D01*
G03X3206007Y-649307I56123J-1882D01*
G03X3164419Y-553477I-39707J39707D01*
G01X2951754Y-340813D01*
G37*
G36*
G01X3201767Y-279400D02*
G03X2970459Y-279400I-115654J0D01*
G03X3201767Y-279400I115654J0D01*
G37*
G36*
G01X3013946Y-5765800D02*
G03X3285254Y-5765800I135654J0D01*
G03X3013946Y-5765800I-135654J0D01*
G37*
G36*
G01X3451753Y-279400D02*
G03X3220446Y-279400I-115654J0D01*
G03X3451753Y-279400I115654J0D01*
G37*
G36*
G01X3521946Y-5765800D02*
G03X3793254Y-5765800I135654J0D01*
G03X3521946Y-5765800I-135654J0D01*
G37*
G36*
G01X3991446Y-279408D02*
G03X4212754Y-279408I110654J0D01*
G03X3991446Y-279408I-110654J0D01*
G37*
G36*
G01X4500672Y-279408D02*
G03X4721979Y-279408I110654J0D01*
G03X4500672Y-279408I-110654J0D01*
G37*
G36*
G01X4542546Y-4927600D02*
G03X4753854Y-4927600I105654J0D01*
G03X4542546Y-4927600I-105654J0D01*
G37*
G36*
G01X4916267Y-3479800D02*
G03X4684959Y-3479800I-115654J0D01*
G03X4916267Y-3479800I115654J0D01*
G37*
G36*
G01X4838700Y-2781562D02*
G03X4838700Y-2577854I0J101854D01*
G03X4838700Y-2781562I0J-101854D01*
G37*
G36*
G01X4754672Y-279408D02*
G03X4975979Y-279408I110654J0D01*
G03X4754672Y-279408I-110654J0D01*
G37*
G36*
G01X5166253Y-3479800D02*
G03X4934946Y-3479800I-115654J0D01*
G03X5166253Y-3479800I115654J0D01*
G37*
G36*
G01X5092700Y-2781562D02*
G03X5092700Y-2577854I0J101854D01*
G03X5092700Y-2781562I0J-101854D01*
G37*
G36*
G01X5787554Y-2019308D02*
G03X5566246Y-2019308I-110654J0D01*
G03X5787554Y-2019308I110654J0D01*
G37*
G36*
G01X5787554Y-1765308D02*
G03X5566246Y-1765308I-110654J0D01*
G03X5787554Y-1765308I110654J0D01*
G37*
G36*
G01X5756746Y-4914908D02*
G03X5978054Y-4914908I110654J0D01*
G03X5756746Y-4914908I-110654J0D01*
G37*
G36*
G01X5855246Y-1684557D02*
G03X5820246Y-1765308I75654J-80751D01*
G03X5855246Y-1846059I110654J0D01*
G01X5855246Y-1938557D01*
G03X5930900Y-2129961I75654J-80751D01*
G03X6006554Y-1938557I0J110654D01*
G01X6006554Y-1846059D01*
G03X6041554Y-1765308I-75654J80751D01*
G03X6006554Y-1684557I-110654J0D01*
G01X6006554Y-1592059D01*
G03X6006554Y-1430557I-75654J80751D01*
G01X6006554Y-1338059D01*
G03X6012561Y-1182637I-75654J80751D01*
G01X6315791Y-879408D01*
G01X6523630Y-879408D01*
G03X6577126Y-857249I0J75654D01*
G01X6664174Y-770201D01*
G03X6820938Y-662101I41110J108101D01*
G01X6820938Y-582101D01*
G03X6807111Y-527264I-115654J0D01*
G01X6858779Y-475596D01*
G03X6751788Y-368605I-53495J53495D01*
G01X6651788Y-468605D01*
G03X6637584Y-488332I53495J-53495D01*
G03X6589630Y-582101I67699J-93769D01*
G01X6589630Y-630763D01*
G01X6492293Y-728100D01*
G01X6284454Y-728100D01*
G03X6230958Y-750259I0J-75654D01*
G01X5877405Y-1103812D01*
G03X5855246Y-1157308I53495J-53495D01*
G01X5855246Y-1176557D01*
G03X5855246Y-1338059I75654J-80751D01*
G01X5855246Y-1430557D01*
G03X5855246Y-1592059I75654J-80751D01*
G01X5855246Y-1684557D01*
G37*
G36*
G01X6010746Y-4914908D02*
G03X6232054Y-4914908I110654J0D01*
G03X6010746Y-4914908I-110654J0D01*
G37*
G36*
G01X6099900Y-1908654D02*
G03X6074246Y-1934308I0J-25654D01*
G01X6074246Y-2104307D01*
G03X6099900Y-2129961I25654J0D01*
G01X6269900Y-2129961D01*
G03X6295554Y-2104307I0J25654D01*
G01X6295554Y-1934308D01*
G03X6269900Y-1908654I-25654J0D01*
G01X6099900Y-1908654D01*
G37*
G36*
G01X6099900Y-1400654D02*
G03X6074246Y-1426308I0J-25654D01*
G01X6074246Y-1596307D01*
G03X6099900Y-1621961I25654J0D01*
G01X6269900Y-1621961D01*
G03X6295554Y-1596307I0J25654D01*
G01X6295554Y-1426308D01*
G03X6269900Y-1400654I-25654J0D01*
G01X6099900Y-1400654D01*
G37*
G36*
G01X6099900Y-1146654D02*
G03X6074246Y-1172308I0J-25654D01*
G01X6074246Y-1342307D01*
G03X6099900Y-1367961I25654J0D01*
G01X6269900Y-1367961D01*
G03X6295554Y-1342307I0J25654D01*
G01X6295554Y-1172308D01*
G03X6269900Y-1146654I-25654J0D01*
G01X6099900Y-1146654D01*
G37*
G36*
G01X6099900Y-1654654D02*
G03X6074246Y-1680308I0J-25654D01*
G01X6074246Y-1850307D01*
G03X6099900Y-1875961I25654J0D01*
G01X6269900Y-1875961D01*
G03X6295554Y-1850307I0J25654D01*
G01X6295554Y-1680308D01*
G03X6269900Y-1654654I-25654J0D01*
G01X6099900Y-1654654D01*
G37*
G36*
G01X6518746Y-4914908D02*
G03X6740054Y-4914908I110654J0D01*
G03X6518746Y-4914908I-110654J0D01*
G37*
G36*
G01X6772746Y-4914908D02*
G03X6994054Y-4914908I110654J0D01*
G03X6772746Y-4914908I-110654J0D01*
G37*
G36*
G01X7057478Y-3967115D02*
G03X7153307Y-4008703I56123J-1882D01*
G03X7111718Y-3912874I-39707J39707D01*
G01X6915723Y-3716878D01*
G03X6819893Y-3675289I-56123J1882D01*
G03X6861482Y-3771119I39707J-39707D01*
G01X7057478Y-3967115D01*
G37*
G36*
G01X7074963Y-663091D02*
G01X7074963Y-583091D01*
G03X6843655Y-583091I-115654J0D01*
G01X6843655Y-663091D01*
G03X7074963Y-663091I115654J0D01*
G37*
G36*
G01X7300892Y-3541554D02*
G03X7326546Y-3515900I0J25654D01*
G01X7326546Y-3265900D01*
G03X7300892Y-3240246I-25654J0D01*
G01X7100893Y-3240246D01*
G03X7075239Y-3265900I0J-25654D01*
G01X7075239Y-3515900D01*
G03X7100893Y-3541554I25654J0D01*
G01X7300892Y-3541554D01*
G37*
G36*
G01X7123309Y-467437D02*
G03X7097655Y-493091I0J-25654D01*
G01X7097655Y-753091D01*
G03X7123309Y-778745I25654J0D01*
G01X7303309Y-778745D01*
G03X7328963Y-753091I0J25654D01*
G01X7328963Y-493091D01*
G03X7303309Y-467437I-25654J0D01*
G01X7123309Y-467437D01*
G37*
G36*
G01X7281516Y-4768392D02*
G03X7292750Y-4864783I33692J-44924D01*
G03X7353054Y-5018705I98650J-50125D01*
G01X7353054Y-5162556D01*
G03X7391408Y-5259725I38354J-41015D01*
G03X7429762Y-5162556I0J56154D01*
G01X7429762Y-5018699D01*
G03X7498040Y-4885376I-38362J103791D01*
G03X7370905Y-4806168I-106640J-29532D01*
G03X7281516Y-4768392I-55697J-7147D01*
G37*
G36*
G01X7329239Y-3365900D02*
G01X7329239Y-3415900D01*
G03X7580546Y-3415900I125654J0D01*
G01X7580546Y-3365900D01*
G03X7329239Y-3365900I-125654J0D01*
G37*
G36*
G01X7534746Y-4914908D02*
G03X7756054Y-4914908I110654J0D01*
G03X7534746Y-4914908I-110654J0D01*
G37*
G36*
G01X7583239Y-3365900D02*
G01X7583239Y-3415900D01*
G03X7834546Y-3415900I125654J0D01*
G01X7834546Y-3365900D01*
G03X7583239Y-3365900I-125654J0D01*
G37*
G36*
G01X8572246Y-5268656D02*
G03X8661579Y-5912655I63754J-319352D01*
G03X8648954Y-5262612I-25579J324647D01*
G01X8648954Y-4177793D01*
G03X8728280Y-4142343I25146J50209D01*
G01X8799295Y-4142343D01*
G03X8826415Y-4131109I0J38354D01*
G01X9006020Y-3951504D01*
G03X9017254Y-3924384I-27120J27120D01*
G01X9017254Y-3543384D01*
G03X9006020Y-3516263I-38354J0D01*
G01X8920228Y-3430471D01*
G03X8705178Y-3269662I-119128J64888D01*
G03X8865988Y-3484712I95922J-95922D01*
G01X8940546Y-3559271D01*
G01X8940546Y-3908497D01*
G01X8928288Y-3920755D01*
G03X8705178Y-3777662I-127188J47171D01*
G03X8848271Y-4000772I95922J-95922D01*
G01X8783408Y-4065635D01*
G01X8697695Y-4065635D01*
G03X8677280Y-4071520I0J-38354D01*
G03X8648954Y-4077375I-3180J-56064D01*
G01X8648954Y-833403D01*
G03X8661579Y-183360I-12954J325396D01*
G03X8572246Y-827359I-25579J-324647D01*
G01X8572246Y-5268656D01*
G37*
G36*
G01X8788400Y-2345538D02*
G03X8788400Y-2074230I0J135654D01*
G03X8788400Y-2345538I0J-135654D01*
G37*
G36*
G01X8788400Y-1837538D02*
G03X8788400Y-1566230I0J135654D01*
G03X8788400Y-1837538I0J-135654D01*
G37*
%LPD*%
G36*
G01X2513100Y-2773548D02*
G03X2628646Y-2747578I39600J93841D01*
G01X2628646Y-3221523D01*
G03X2476754Y-3221523I-75946J-80477D01*
G01X2476754Y-2809894D01*
G01X2513100Y-2773548D01*
G37*
G36*
G01X2619902Y-2540262D02*
G01X3399905Y-2540262D01*
G01X3354300Y-2585867D01*
G03X3242678Y-2751729I-39600J-93841D01*
G03X3408541Y-2640108I72022J72022D01*
G01X3457587Y-2591062D01*
G01X3518539Y-2591062D01*
G03X3530346Y-2774064I50161J-88646D01*
G01X3530346Y-3198188D01*
G03X3568700Y-3412636I38354J-103794D01*
G03X3607054Y-3198188I0J110654D01*
G01X3607054Y-2774064D01*
G03X3618861Y-2591062I-38354J94357D01*
G01X3772539Y-2591062D01*
G03X3784346Y-2774064I50161J-88646D01*
G01X3784346Y-3198188D01*
G03X3822700Y-3412636I38354J-103794D01*
G03X3861054Y-3198188I0J110654D01*
G01X3861054Y-2774064D01*
G03X3921840Y-2703063I-38354J94357D01*
G03X3977560Y-2703063I27860J48756D01*
G03X4176576Y-2699683I99140J23356D01*
G03X3994169Y-2620018I-99876J19975D01*
G03X3947818Y-2598185I-44469J-34290D01*
G01X3889895Y-2540262D01*
G01X4289413Y-2540262D01*
G01X4327070Y-2577918D01*
G03X4244752Y-2625053I3630J-101789D01*
G03X4236979Y-2719591I85948J-54655D01*
G03X4228846Y-2743208I30221J-23617D01*
G01X4228846Y-4870114D01*
G03X4170492Y-4826382I-88646J-57486D01*
G03X4097708Y-4830867I-30292J-101218D01*
G01X2845054Y-3578213D01*
G01X2845054Y-2774064D01*
G03X2867716Y-2598152I-38354J94357D01*
G03X2705354Y-2669548I-61016J-81555D01*
G01X2705354Y-2641600D01*
G03X2694120Y-2614480I-38354J0D01*
G01X2619902Y-2540262D01*
G37*
%LPC*%
G36*
G01X3252807Y-3109901D02*
G03X3156977Y-3151489I-39707J-39707D01*
G01X3117113Y-3191354D01*
G01X2975700Y-3191354D01*
G03X2950046Y-3217008I0J-25654D01*
G01X2950046Y-3387007D01*
G03X2975700Y-3412661I25654J0D01*
G01X3145700Y-3412661D01*
G03X3171354Y-3387007I0J25654D01*
G01X3171354Y-3245595D01*
G01X3211218Y-3205730D01*
G03X3252807Y-3109901I1882J56123D01*
G37*
G36*
G01X3060700Y-2781562D02*
G03X3060700Y-2577854I0J101854D01*
G03X3060700Y-2781562I0J-101854D01*
G37*
G36*
G01X3204046Y-3301982D02*
G03X3425354Y-3301982I110654J0D01*
G03X3204046Y-3301982I-110654J0D01*
G37*
%LPD*%
G54D10*
G01X280693Y-1435948D02*
G01X280693Y-1410040D01*
G01X280693Y-1535440D02*
G01X280693Y-1561348D01*
G54D11*
G01X370439Y-1485694D02*
G01X396347Y-1485694D01*
G01X190947Y-1485694D02*
G01X165039Y-1485694D01*
G54D12*
G01X698701Y-1435948D02*
G01X698701Y-1410040D01*
G54D11*
G01X803446Y-1485694D02*
G01X829354Y-1485694D01*
G01X593955Y-1485694D02*
G01X568047Y-1485694D01*
G54D10*
G01X280693Y-2299955D02*
G01X280693Y-2274047D01*
G01X280693Y-2399447D02*
G01X280693Y-2425355D01*
G54D11*
G01X370439Y-2349701D02*
G01X396347Y-2349701D01*
G01X190947Y-2349701D02*
G01X165039Y-2349701D01*
G54D12*
G01X698701Y-2399447D02*
G01X698701Y-2425355D01*
G54D11*
G01X803446Y-2349701D02*
G01X829354Y-2349701D01*
G01X593955Y-2349701D02*
G01X568047Y-2349701D01*
G54D13*
G01X520700Y-1231654D02*
G01X520700Y-1257562D01*
G01X520700Y-1079762D02*
G01X520700Y-1053854D01*
G01X444754Y-1155708D02*
G01X418846Y-1155708D01*
G01X596646Y-1155708D02*
G01X622554Y-1155708D01*
G01X266700Y-1231654D02*
G01X266700Y-1257562D01*
G01X266700Y-1079762D02*
G01X266700Y-1053854D01*
G01X190754Y-1155708D02*
G01X164846Y-1155708D01*
G01X342646Y-1155708D02*
G01X368554Y-1155708D01*
G54D14*
G01X807745Y-508008D02*
G01X833653Y-508008D01*
G01X508000Y-807753D02*
G01X508000Y-833661D01*
G54D15*
G01X4186846Y-279408D02*
G01X4212754Y-279408D01*
G01X4102100Y-194662D02*
G01X4102100Y-168754D01*
G01X4102100Y-364153D02*
G01X4102100Y-390061D01*
G54D10*
G01X3086113Y-369146D02*
G01X3086113Y-395054D01*
G01X3086113Y-189654D02*
G01X3086113Y-163746D01*
G54D16*
G01X2531854Y-5765800D02*
G01X2505946Y-5765800D01*
G01X2751346Y-5765800D02*
G01X2777254Y-5765800D01*
G01X2641600Y-5656054D02*
G01X2641600Y-5630146D01*
G01X2641600Y-5875546D02*
G01X2641600Y-5901454D01*
G01X3547854Y-5765800D02*
G01X3521946Y-5765800D01*
G01X3767346Y-5765800D02*
G01X3793254Y-5765800D01*
G01X3657600Y-5656054D02*
G01X3657600Y-5630146D01*
G01X3657600Y-5875546D02*
G01X3657600Y-5901454D01*
G54D14*
G01X807745Y-5588008D02*
G01X833653Y-5588008D01*
G01X508000Y-5887753D02*
G01X508000Y-5913661D01*
G01X508000Y-5288262D02*
G01X508000Y-5262354D01*
G54D15*
G01X2552700Y-3217254D02*
G01X2552700Y-3191346D01*
G01X2552700Y-3386746D02*
G01X2552700Y-3412654D01*
G01X3314700Y-3217236D02*
G01X3314700Y-3191328D01*
G01X3314700Y-3386728D02*
G01X3314700Y-3412636D01*
G54D13*
G01X4838700Y-2755654D02*
G01X4838700Y-2781562D01*
G01X4838700Y-2603762D02*
G01X4838700Y-2577854D01*
G01X4762754Y-2679708D02*
G01X4736846Y-2679708D01*
G01X4914646Y-2679708D02*
G01X4940554Y-2679708D01*
G54D15*
G01X4950071Y-279408D02*
G01X4975979Y-279408D01*
G01X4865326Y-194662D02*
G01X4865326Y-168754D01*
G01X4865326Y-364153D02*
G01X4865326Y-390061D01*
G54D10*
G01X5140345Y-3479800D02*
G01X5166253Y-3479800D01*
G01X5050600Y-3569546D02*
G01X5050600Y-3595454D01*
G01X5050600Y-3390054D02*
G01X5050600Y-3364146D01*
G54D15*
G01X6269646Y-2019308D02*
G01X6295554Y-2019308D01*
G01X6184900Y-2104053D02*
G01X6184900Y-2129961D01*
G01X6184900Y-1934562D02*
G01X6184900Y-1908654D01*
G01X6269646Y-1765308D02*
G01X6295554Y-1765308D01*
G01X6184900Y-1850053D02*
G01X6184900Y-1875961D01*
G01X6184900Y-1680562D02*
G01X6184900Y-1654654D01*
G01X6269646Y-1511308D02*
G01X6295554Y-1511308D01*
G01X6184900Y-1596053D02*
G01X6184900Y-1621961D01*
G01X6184900Y-1426562D02*
G01X6184900Y-1400654D01*
G01X6269646Y-1257308D02*
G01X6295554Y-1257308D01*
G01X6184900Y-1342053D02*
G01X6184900Y-1367961D01*
G01X6184900Y-1172562D02*
G01X6184900Y-1146654D01*
G54D10*
G01X6959309Y-752837D02*
G01X6959309Y-778745D01*
G01X6959309Y-493345D02*
G01X6959309Y-467437D01*
G54D17*
G01X7808638Y-3390900D02*
G01X7834546Y-3390900D01*
G54D18*
G01X7708892Y-3266154D02*
G01X7708892Y-3240246D01*
G01X7708892Y-3515646D02*
G01X7708892Y-3541554D01*
G54D16*
G01X8788400Y-2319630D02*
G01X8788400Y-2345538D01*
G01X8788400Y-2100138D02*
G01X8788400Y-2074230D01*
G01X8898146Y-2209884D02*
G01X8924054Y-2209884D01*
G04 Copper End*

G04 Pad Start*
G54D20*
G01X8636000Y-508008D03*
G01X8636000Y-5588008D03*
G01X508000Y-5588008D03*
G01X508000Y-508008D03*
G54D21*
G01X698701Y-1485694D03*
G54D22*
G01X280693Y-1485694D03*
G01X280693Y-2349701D03*
G54D21*
G01X698701Y-2349701D03*
G54D23*
G01X8788400Y-1701884D03*
G01X8788400Y-2209884D03*
G01X8801100Y-3365584D03*
G01X8801100Y-3873584D03*
G54D24*
G01X3060700Y-3302008D03*
G54D25*
G01X3314700Y-3301982D03*
G01X3568700Y-3301982D03*
G01X3822700Y-3301982D03*
G54D26*
G01X6184900Y-1257308D03*
G54D25*
G01X5930900Y-1257308D03*
G01X5676900Y-1257308D03*
G54D26*
G01X6184900Y-2019308D03*
G54D25*
G01X5930900Y-2019308D03*
G01X5676900Y-2019308D03*
G54D26*
G01X6184900Y-1511308D03*
G54D25*
G01X5930900Y-1511308D03*
G01X5676900Y-1511308D03*
G54D26*
G01X6184900Y-1765308D03*
G54D25*
G01X5930900Y-1765308D03*
G01X5676900Y-1765308D03*
G54D27*
G01X6959309Y-623091D03*
G01X6705284Y-622101D03*
G54D28*
G01X7213309Y-623091D03*
G54D29*
G01X7454892Y-3390900D03*
G01X7708892Y-3390900D03*
G54D30*
G01X7200892Y-3390900D03*
G54D25*
G01X3848100Y-279408D03*
G01X4102100Y-279408D03*
G54D31*
G01X1117600Y-4927600D03*
G54D32*
G01X1371600Y-4927600D03*
G01X1625600Y-4927600D03*
G01X1879600Y-4927600D03*
G01X2133600Y-4927600D03*
G01X2387600Y-4927600D03*
G01X2641600Y-4927600D03*
G54D31*
G01X3124200Y-4927600D03*
G54D32*
G01X3378200Y-4927600D03*
G01X3632200Y-4927600D03*
G01X3886200Y-4927600D03*
G01X4140200Y-4927600D03*
G01X4394200Y-4927600D03*
G01X4648200Y-4927600D03*
G54D23*
G01X2641600Y-5765800D03*
G01X2133600Y-5765800D03*
G01X3657600Y-5765800D03*
G01X3149600Y-5765800D03*
G54D33*
G01X3336100Y-279400D03*
G01X3086113Y-279400D03*
G54D34*
G01X2836101Y-279400D03*
G54D33*
G01X5050600Y-3479800D03*
G01X4800613Y-3479800D03*
G54D34*
G01X4550601Y-3479800D03*
G54D25*
G01X4611326Y-279408D03*
G01X4865326Y-279408D03*
G01X6629400Y-4914908D03*
G01X6883400Y-4914908D03*
G01X5867400Y-4914908D03*
G01X6121400Y-4914908D03*
G01X7391400Y-4914908D03*
G01X7645400Y-4914908D03*
G54D35*
G01X5092700Y-2679708D03*
G01X4838700Y-2679708D03*
G01X4584700Y-2679708D03*
G01X4330700Y-2679708D03*
G01X4076700Y-2679708D03*
G01X3822700Y-2679708D03*
G01X3568700Y-2679708D03*
G01X3314700Y-2679708D03*
G01X3060700Y-2679708D03*
G01X2806700Y-2679708D03*
G01X2552700Y-2679708D03*
G01X2298700Y-2679708D03*
G01X2044700Y-2679708D03*
G01X1790700Y-2679708D03*
G01X1536700Y-2679708D03*
G01X1282700Y-2679708D03*
G01X1028700Y-2679708D03*
G01X774700Y-2679708D03*
G01X520700Y-2679708D03*
G01X266700Y-2679708D03*
G01X266700Y-1155708D03*
G01X520700Y-1155708D03*
G01X774700Y-1155708D03*
G01X1028700Y-1155708D03*
G01X1282700Y-1155708D03*
G01X1536700Y-1155708D03*
G01X1790700Y-1155708D03*
G01X2044700Y-1155708D03*
G01X2298700Y-1155708D03*
G01X2552700Y-1155708D03*
G01X2806700Y-1155708D03*
G01X3060700Y-1155708D03*
G01X3314700Y-1155708D03*
G01X3568700Y-1155708D03*
G01X3822700Y-1155708D03*
G01X4076700Y-1155708D03*
G01X4330700Y-1155708D03*
G01X4584700Y-1155708D03*
G01X4838700Y-1155708D03*
G01X5092700Y-1155708D03*
G54D24*
G01X1790700Y-3302000D03*
G54D25*
G01X2044700Y-3302000D03*
G01X2298700Y-3302000D03*
G01X2552700Y-3302000D03*
G04 Pad End*

G04 Via Start*
G54D36*
G01X7113600Y-3968996D03*
G01X6859600Y-3714996D03*
G01X8674100Y-4127584D03*
G01X7391408Y-5203571D03*
G01X7315208Y-4813315D03*
G01X2645826Y-4696374D03*
G01X3213100Y-3149608D03*
G01X3607841Y-1936504D03*
G01X3887241Y-2088904D03*
G01X3444816Y-1637291D03*
G01X3902016Y-1764291D03*
G01X6140958Y-2959100D03*
G01X6318758Y-2781300D03*
G01X6805284Y-422101D03*
G01X3166301Y-609600D03*
G01X1101903Y-1866298D03*
G01X898703Y-1993298D03*
G01X2489200Y-3733800D03*
G01X2022623Y-3884723D03*
G01X2378223Y-3427523D03*
G01X3650524Y-4346755D03*
G01X2890944Y-3106826D03*
G01X3500544Y-2827426D03*
G01X4483100Y-330208D03*
G01X4806950Y-482608D03*
G01X3983144Y-2414676D03*
G01X7615983Y-3961406D03*
G01X8784971Y-2797429D03*
G01X8686800Y-2108284D03*
G01X2362200Y-3657600D03*
G01X7099300Y-3797308D03*
G01X6286500Y-3644908D03*
G01X1866900Y-2501908D03*
G01X5016500Y-4051308D03*
G01X3949700Y-2654308D03*
G01X3644900Y-749308D03*
G01X3416300Y-647708D03*
G01X2984500Y-800108D03*
G01X4813300Y-952508D03*
G01X4559300Y-2019308D03*
G01X3594100Y-2285982D03*
G01X3517900Y-1930382D03*
G01X3994868Y-957509D03*
G01X3815842Y-685800D03*
G01X3358642Y-812800D03*
G04 Via End*

G04 Track Start*
G54D37*
G01X7113600Y-3968996D02*
G01X6859600Y-3714996D01*
G01X8801100Y-3365584D02*
G01X8978900Y-3543384D01*
G01X8978900Y-3924384D01*
G01X8799295Y-4103989D01*
G01X8697695Y-4103989D01*
G01X8674100Y-4127584D01*
G01X7391408Y-5203571D02*
G01X7391408Y-4914915D01*
G01X7391408Y-4889515D01*
G01X7315208Y-4813315D01*
G01X2645826Y-4696374D02*
G01X2645826Y-4923374D01*
G01X2641600Y-4927600D01*
G01X3060700Y-3302008D02*
G01X3213100Y-3149608D01*
G01X3607841Y-1936504D02*
G01X3734841Y-1936504D01*
G01X3887241Y-2088904D01*
G01X3444816Y-1637291D02*
G01X3775016Y-1637291D01*
G01X3902016Y-1764291D01*
G01X6140958Y-2959100D02*
G01X6318758Y-2781300D01*
G54D38*
G01X5930900Y-1257308D02*
G01X5930900Y-1511308D01*
G01X5930900Y-1765308D01*
G01X5930900Y-2019308D01*
G01X5930900Y-1257308D02*
G01X5930900Y-1157308D01*
G01X6284454Y-803754D01*
G01X6523630Y-803754D01*
G01X6705284Y-622101D01*
G01X6705284Y-522101D01*
G01X6805284Y-422101D01*
G54D37*
G01X2836101Y-279400D02*
G01X3166301Y-609600D01*
G01X2133600Y-4927600D02*
G01X2133600Y-3987800D01*
G01X2438400Y-3683000D01*
G01X2438400Y-2794008D01*
G01X2552700Y-2679708D01*
G01X4140200Y-4927600D02*
G01X2806700Y-3594100D01*
G01X2806700Y-2679708D01*
G01X1101903Y-1866298D02*
G01X1025703Y-1866298D01*
G01X898703Y-1993298D01*
G01X1371600Y-4927600D02*
G01X922587Y-4478587D01*
G01X922587Y-2675195D01*
G01X812800Y-2565408D01*
G01X635000Y-2565408D01*
G01X520700Y-2679708D01*
G01X3124200Y-4927600D02*
G01X2997200Y-4927600D01*
G01X2819400Y-5105400D01*
G01X1092200Y-5105400D01*
G01X822792Y-4835992D01*
G01X822792Y-2727800D01*
G01X774700Y-2679708D01*
G01X3378200Y-4927600D02*
G01X3378200Y-4622800D01*
G01X2489200Y-3733800D01*
G01X2022623Y-3884723D02*
G01X2022623Y-3783123D01*
G01X2378223Y-3427523D01*
G01X8636000Y-508008D02*
G01X8610600Y-533408D01*
G01X8610600Y-5562608D01*
G01X8636000Y-5588008D01*
G01X3650524Y-4346755D02*
G01X3650524Y-3637806D01*
G01X3322744Y-3310026D02*
G01X3322744Y-3157626D01*
G01X3246544Y-3081426D01*
G01X2916344Y-3081426D01*
G01X2890944Y-3106826D01*
G01X3246544Y-3081426D02*
G01X3500544Y-2827426D01*
G01X4483100Y-330208D02*
G01X4559300Y-406408D01*
G01X4738326Y-406408D02*
G01X4865326Y-279408D01*
G01X4730750Y-406408D02*
G01X4806950Y-482608D01*
G01X3983144Y-2414676D02*
G01X4573669Y-2414676D01*
G01X4825116Y-2666124D02*
G01X4825116Y-3254317D01*
G01X5050600Y-3479800D01*
G01X7615983Y-3961406D02*
G01X7615983Y-3483810D01*
G01X7708892Y-3390900D01*
G01X8784971Y-2797429D02*
G01X8784971Y-2213313D01*
G01X8788400Y-2209884D01*
G01X8686800Y-2108284D01*
G01X1625600Y-4927600D02*
G01X1625600Y-4394200D01*
G01X2362200Y-3657600D01*
G01X3632200Y-4927600D02*
G01X3759200Y-5054600D01*
G01X4191000Y-5054600D01*
G01X4267200Y-4978400D01*
G01X4267200Y-2743208D01*
G01X4330700Y-2679708D01*
G01X3822700Y-1155708D02*
G01X3898900Y-1155708D01*
G01X5784754Y-3041561D01*
G01X6343554Y-3041561D01*
G01X7099300Y-3797308D01*
G01X3314700Y-1155708D02*
G01X3494305Y-1335313D01*
G01X3976905Y-1335313D01*
G01X6286500Y-3644908D01*
G01X1866900Y-2501908D02*
G01X4305300Y-2501908D01*
G01X4457700Y-2654308D01*
G01X4457700Y-2781308D01*
G01X4432300Y-2806708D01*
G01X4432300Y-3594108D01*
G01X4522102Y-3683910D01*
G01X4649102Y-3683910D01*
G01X5016500Y-4051308D01*
G01X3314700Y-2679708D02*
G01X3441700Y-2552708D01*
G01X3848100Y-2552708D01*
G01X3949700Y-2654308D01*
G01X1879600Y-4927600D02*
G01X1752600Y-5054600D01*
G01X1574800Y-5054600D01*
G01X1498600Y-4978400D01*
G01X1498600Y-4851400D01*
G01X1408798Y-4761598D01*
G01X1408798Y-1281805D01*
G01X1282700Y-1155708D01*
G01X3886200Y-4927600D02*
G01X2667000Y-3708400D01*
G01X2667000Y-2641600D01*
G01X2590800Y-2565400D01*
G01X1828800Y-2565400D01*
G01X1738998Y-2475598D01*
G01X1738998Y-1358005D01*
G01X1536700Y-1155708D01*
G01X5676900Y-1257308D02*
G01X5227887Y-808295D01*
G01X3703887Y-808295D01*
G01X3644900Y-749308D01*
G01X3416300Y-647708D02*
G01X3326498Y-737510D01*
G01X3047098Y-737510D01*
G01X2984500Y-800108D01*
G01X5676900Y-1511308D02*
G01X5194300Y-1028708D01*
G01X3289300Y-1028708D01*
G01X3199498Y-1118510D01*
G01X3199498Y-1169310D01*
G01X3086100Y-1282708D01*
G01X2425700Y-1282708D01*
G01X2298700Y-1155708D01*
G01X4813300Y-952508D02*
G01X4737100Y-876308D01*
G01X1917700Y-876308D01*
G01X1663700Y-1130308D01*
G01X1663700Y-1181108D01*
G01X1753502Y-1270910D01*
G01X1929498Y-1270910D01*
G01X2044700Y-1155708D01*
G01X4559300Y-2019308D02*
G01X4379695Y-1839702D01*
G01X2830295Y-1839702D01*
G01X2171700Y-1181108D01*
G01X2171700Y-1130308D01*
G01X2081898Y-1040505D01*
G01X1905902Y-1040505D01*
G01X1790700Y-1155708D01*
G01X3568700Y-3301982D02*
G01X3568700Y-2679708D01*
G01X3594100Y-2285982D02*
G01X3594100Y-2006582D01*
G01X3517900Y-1930382D01*
G01X3822700Y-3301982D02*
G01X3822700Y-2679708D01*
G01X3994868Y-957509D02*
G01X3258899Y-957509D01*
G01X3060700Y-1155708D01*
G01X3815842Y-685800D02*
G01X3815842Y-311666D01*
G01X3848100Y-279408D01*
G01X3815842Y-685800D02*
G01X3485642Y-685800D01*
G01X3358642Y-812800D01*
G01X3650524Y-3637806D02*
G01X3322744Y-3310026D01*
G01X3314700Y-3301982D01*
G01X4559300Y-406408D02*
G01X4730750Y-406408D01*
G01X4738326Y-406408D01*
G01X4573669Y-2414676D02*
G01X4825116Y-2666124D01*
G01X4838700Y-2679708D01*
G04 Track End*

M02*

