G04 Layer: BottomSilkscreenLayer*
G04 EasyEDA Pro v2.2.32.3, 2024-11-04 22:23:50*
G04 Gerber Generator version 0.3*
G04 Scale: 100 percent, Rotated: No, Reflected: No*
G04 Dimensions in millimeters*
G04 Leading zeros omitted, absolute positions, 3 integers and 5 decimals*
%FSLAX35Y35*%
%MOMM*%
%ADD10C,0.15*%
G75*


G04 Text Start*
G54D10*
G01X8883904Y-1462786D02*
G01X8883904Y-1510538D01*
G01X8907780Y-1486662D02*
G01X8860028Y-1486662D01*
G01X8832342Y-1465326D02*
G01X8827008Y-1462786D01*
G01X8818880Y-1454912D01*
G01X8818880Y-1510538D01*
G01X8788400Y-1468120D02*
G01X8788400Y-1465326D01*
G01X8785860Y-1460246D01*
G01X8783066Y-1457452D01*
G01X8777732Y-1454912D01*
G01X8767318Y-1454912D01*
G01X8761984Y-1457452D01*
G01X8759190Y-1460246D01*
G01X8756650Y-1465326D01*
G01X8756650Y-1470660D01*
G01X8759190Y-1475994D01*
G01X8764524Y-1484122D01*
G01X8791194Y-1510538D01*
G01X8753856Y-1510538D01*
G01X8726170Y-1454912D02*
G01X8704834Y-1510538D01*
G01X8683498Y-1454912D02*
G01X8704834Y-1510538D01*
G01X8855456Y-2420620D02*
G01X8857996Y-2415286D01*
G01X8863330Y-2409952D01*
G01X8868664Y-2407412D01*
G01X8879332Y-2407412D01*
G01X8884666Y-2409952D01*
G01X8890000Y-2415286D01*
G01X8892540Y-2420620D01*
G01X8895080Y-2428494D01*
G01X8895080Y-2441956D01*
G01X8892540Y-2449830D01*
G01X8890000Y-2455164D01*
G01X8884666Y-2460498D01*
G01X8879332Y-2463038D01*
G01X8868664Y-2463038D01*
G01X8863330Y-2460498D01*
G01X8857996Y-2455164D01*
G01X8855456Y-2449830D01*
G01X8855456Y-2441956D01*
G01X8868664Y-2441956D02*
G01X8855456Y-2441956D01*
G01X8827770Y-2407412D02*
G01X8827770Y-2463038D01*
G01X8827770Y-2407412D02*
G01X8790432Y-2463038D01*
G01X8790432Y-2407412D02*
G01X8790432Y-2463038D01*
G01X8762746Y-2407412D02*
G01X8762746Y-2463038D01*
G01X8762746Y-2407412D02*
G01X8744204Y-2407412D01*
G01X8736076Y-2409952D01*
G01X8730742Y-2415286D01*
G01X8728202Y-2420620D01*
G01X8725408Y-2428494D01*
G01X8725408Y-2441956D01*
G01X8728202Y-2449830D01*
G01X8730742Y-2455164D01*
G01X8736076Y-2460498D01*
G01X8744204Y-2463038D01*
G01X8762746Y-2463038D01*
G01X8889305Y-3125686D02*
G01X8889305Y-3173438D01*
G01X8913181Y-3149562D02*
G01X8865429Y-3149562D01*
G01X8837743Y-3128226D02*
G01X8832409Y-3125686D01*
G01X8824281Y-3117812D01*
G01X8824281Y-3173438D01*
G01X8793801Y-3131020D02*
G01X8793801Y-3128226D01*
G01X8791261Y-3123146D01*
G01X8788467Y-3120352D01*
G01X8783133Y-3117812D01*
G01X8772719Y-3117812D01*
G01X8767385Y-3120352D01*
G01X8764591Y-3123146D01*
G01X8762051Y-3128226D01*
G01X8762051Y-3133560D01*
G01X8764591Y-3138894D01*
G01X8769925Y-3147022D01*
G01X8796595Y-3173438D01*
G01X8759257Y-3173438D01*
G01X8731571Y-3117812D02*
G01X8710235Y-3173438D01*
G01X8688899Y-3117812D02*
G01X8710235Y-3173438D01*
G01X8831580Y-4077462D02*
G01X8783828Y-4077462D01*
G01X2216404Y-5945886D02*
G01X2216404Y-5993638D01*
G01X2240280Y-5969762D02*
G01X2192528Y-5969762D01*
G01X2164842Y-5948426D02*
G01X2159508Y-5945886D01*
G01X2151380Y-5938012D01*
G01X2151380Y-5993638D01*
G01X2120900Y-5951220D02*
G01X2120900Y-5948426D01*
G01X2118360Y-5943346D01*
G01X2115566Y-5940552D01*
G01X2110232Y-5938012D01*
G01X2099818Y-5938012D01*
G01X2094484Y-5940552D01*
G01X2091690Y-5943346D01*
G01X2089150Y-5948426D01*
G01X2089150Y-5953760D01*
G01X2091690Y-5959094D01*
G01X2097024Y-5967222D01*
G01X2123694Y-5993638D01*
G01X2086356Y-5993638D01*
G01X2058670Y-5938012D02*
G01X2037334Y-5993638D01*
G01X2015998Y-5938012D02*
G01X2037334Y-5993638D01*
G01X2683256Y-5951220D02*
G01X2685796Y-5945886D01*
G01X2691130Y-5940552D01*
G01X2696464Y-5938012D01*
G01X2707132Y-5938012D01*
G01X2712466Y-5940552D01*
G01X2717800Y-5945886D01*
G01X2720340Y-5951220D01*
G01X2722880Y-5959094D01*
G01X2722880Y-5972556D01*
G01X2720340Y-5980430D01*
G01X2717800Y-5985764D01*
G01X2712466Y-5991098D01*
G01X2707132Y-5993638D01*
G01X2696464Y-5993638D01*
G01X2691130Y-5991098D01*
G01X2685796Y-5985764D01*
G01X2683256Y-5980430D01*
G01X2683256Y-5972556D01*
G01X2696464Y-5972556D02*
G01X2683256Y-5972556D01*
G01X2655570Y-5938012D02*
G01X2655570Y-5993638D01*
G01X2655570Y-5938012D02*
G01X2618232Y-5993638D01*
G01X2618232Y-5938012D02*
G01X2618232Y-5993638D01*
G01X2590546Y-5938012D02*
G01X2590546Y-5993638D01*
G01X2590546Y-5938012D02*
G01X2572004Y-5938012D01*
G01X2563876Y-5940552D01*
G01X2558542Y-5945886D01*
G01X2556002Y-5951220D01*
G01X2553208Y-5959094D01*
G01X2553208Y-5972556D01*
G01X2556002Y-5980430D01*
G01X2558542Y-5985764D01*
G01X2563876Y-5991098D01*
G01X2572004Y-5993638D01*
G01X2590546Y-5993638D01*
G01X3245104Y-5945886D02*
G01X3245104Y-5993638D01*
G01X3268980Y-5969762D02*
G01X3221228Y-5969762D01*
G01X3193542Y-5948426D02*
G01X3188208Y-5945886D01*
G01X3180080Y-5938012D01*
G01X3180080Y-5993638D01*
G01X3149600Y-5951220D02*
G01X3149600Y-5948426D01*
G01X3147060Y-5943346D01*
G01X3144266Y-5940552D01*
G01X3138932Y-5938012D01*
G01X3128518Y-5938012D01*
G01X3123184Y-5940552D01*
G01X3120390Y-5943346D01*
G01X3117850Y-5948426D01*
G01X3117850Y-5953760D01*
G01X3120390Y-5959094D01*
G01X3125724Y-5967222D01*
G01X3152394Y-5993638D01*
G01X3115056Y-5993638D01*
G01X3087370Y-5938012D02*
G01X3066034Y-5993638D01*
G01X3044698Y-5938012D02*
G01X3066034Y-5993638D01*
G01X3702752Y-5950420D02*
G01X3705292Y-5945086D01*
G01X3710626Y-5939752D01*
G01X3715960Y-5937212D01*
G01X3726628Y-5937212D01*
G01X3731962Y-5939752D01*
G01X3737296Y-5945086D01*
G01X3739836Y-5950420D01*
G01X3742376Y-5958294D01*
G01X3742376Y-5971756D01*
G01X3739836Y-5979630D01*
G01X3737296Y-5984964D01*
G01X3731962Y-5990298D01*
G01X3726628Y-5992838D01*
G01X3715960Y-5992838D01*
G01X3710626Y-5990298D01*
G01X3705292Y-5984964D01*
G01X3702752Y-5979630D01*
G01X3702752Y-5971756D01*
G01X3715960Y-5971756D02*
G01X3702752Y-5971756D01*
G01X3675066Y-5937212D02*
G01X3675066Y-5992838D01*
G01X3675066Y-5937212D02*
G01X3637728Y-5992838D01*
G01X3637728Y-5937212D02*
G01X3637728Y-5992838D01*
G01X3610042Y-5937212D02*
G01X3610042Y-5992838D01*
G01X3610042Y-5937212D02*
G01X3591500Y-5937212D01*
G01X3583372Y-5939752D01*
G01X3578038Y-5945086D01*
G01X3575498Y-5950420D01*
G01X3572704Y-5958294D01*
G01X3572704Y-5971756D01*
G01X3575498Y-5979630D01*
G01X3578038Y-5984964D01*
G01X3583372Y-5990298D01*
G01X3591500Y-5992838D01*
G01X3610042Y-5992838D01*
G04 Text End*

M02*

