G04 Layer: TopLayer*
G04 EasyEDA Pro v2.2.32.3, 2024-11-04 22:23:50*
G04 Gerber Generator version 0.3*
G04 Scale: 100 percent, Rotated: No, Reflected: No*
G04 Dimensions in millimeters*
G04 Leading zeros omitted, absolute positions, 3 integers and 5 decimals*
%FSLAX35Y35*%
%MOMM*%
%AMPolygonMacro1*4,1,5,-0.35052,0.41275,0.35052,0.41275,0.35052,-0.41275,0.0,-0.18669,-0.35052,-0.41275,-0.35052,0.41275,0*%
%AMPolygonMacro2*4,1,5,-0.35052,0.18669,0.0,0.41275,0.35052,0.18669,0.35052,-0.41275,-0.35052,-0.41275,-0.35052,0.18669,0*%
%ADD10C,0.30508*%
%ADD11C,0.69359*%
%ADD12C,0.57135*%
%ADD13C,0.86907*%
%ADD14C,0.74759*%
%ADD15C,0.45508*%
%ADD16C,0.6634*%
%ADD17C,0.65508*%
%ADD18C,0.28508*%
%ADD19C,0.21507*%
%ADD20C,0.40508*%
%ADD21C,0.53009*%
%ADD22C,1.23758*%
%ADD23C,0.63009*%
%ADD24C,0.35508*%
%ADD25C,0.70485*%
%ADD26C,0.50508*%
%ADD27C,0.90508*%
%ADD28C,1.05508*%
%ADD29C,0.76708*%
%ADD30C,3.00507*%
%ADD31C,0.85508*%
%ADD32C,1.10508*%
%ADD33C,1.25508*%
%ADD34C,5.99999*%
%ADD35R,1.48501X1.72799*%
%ADD36R,1.72799X1.48501*%
%ADD37R,1.37701X1.13254*%
%ADD38R,1.37701X1.13254*%
%ADD39R,1.64X0.55999*%
%ADD40R,2.1X3.29999*%
%ADD41R,1.24X0.6*%
%ADD42R,1.24X0.3*%
%ADD43O,2.1X1.0*%
%ADD44O,1.8X1.0*%
%ADD45C,2.2*%
%ADD46R,1.7X1.7*%
%ADD47C,1.7*%
%ADD48R,0.8X0.9*%
%ADD49R,0.8X0.9*%
%ADD50R,1.13254X1.37701*%
%ADD51R,1.13254X1.37701*%
%ADD52R,0.41999X0.6*%
%ADD53R,0.41999X0.6*%
%ADD54R,1.7X1.7*%
%ADD55R,1.39954X1.0*%
%ADD56R,1.48501X1.72799*%
%ADD57O,1.8X2.59999*%
%ADD58R,1.8X2.59999*%
%ADD59O,2.0X2.49999*%
%ADD60R,2.0X2.49999*%
%ADD61R,1.39954X1.0*%
%ADD62R,1.72799X1.48501*%
%ADD63R,2.46499X1.05001*%
%ADD64R,2.46499X3.54*%
%ADD65R,1.6X1.6*%
%ADD66C,1.6*%
%ADD67C,1.8*%
%ADD68R,1.8X1.8*%
%ADD69R,2.0X2.0*%
%ADD70R,1.25001X0.7*%
%ADD71C,1.524*%
%ADD72R,2.0X2.0*%
%ADD73R,0.9X1.3*%
%ADD74PolygonMacro1*%
%ADD75PolygonMacro2*%
%ADD76C,0.61*%
%ADD77C,0.254*%
%ADD78C,1.0*%
%ADD79C,0.94501*%
G75*


G04 Copper Start*
G36*
G01X9118346Y-38357D02*
G01X9118346Y-6083060D01*
G01X38354Y-6087025D01*
G01X38354Y-38357D01*
G01X9118346Y-38357D01*
G37*
%LPC*%
G36*
G01X661664Y-3831272D02*
G03X672898Y-3858392I38354J0D01*
G01X781795Y-3967290D01*
G01X781795Y-4064180D01*
G03X807449Y-4089834I25654J0D01*
G01X841269Y-4089834D01*
G01X841269Y-4106135D01*
G01X789901Y-4106135D01*
G03X764247Y-4131789I0J-25654D01*
G01X764247Y-4280290D01*
G03X789901Y-4305944I25654J0D01*
G01X899641Y-4305944D01*
G01X899641Y-4319631D01*
G03X910875Y-4346752I38354J0D01*
G01X1021961Y-4457839D01*
G01X1021961Y-4549229D01*
G03X1047615Y-4574883I25654J0D01*
G01X1079246Y-4574883D01*
G01X1079246Y-4821946D01*
G01X1037600Y-4821946D01*
G03X1011946Y-4847600I0J-25654D01*
G01X1011946Y-5007600D01*
G03X1037600Y-5033254I25654J0D01*
G01X1197600Y-5033254D01*
G03X1223254Y-5007600I0J25654D01*
G01X1223254Y-4847600D01*
G03X1197600Y-4821946I-25654J0D01*
G01X1155954Y-4821946D01*
G01X1155954Y-4574883D01*
G01X1187569Y-4574883D01*
G03X1213223Y-4549229I0J25654D01*
G01X1213223Y-4449229D01*
G03X1187569Y-4423575I-25654J0D01*
G01X1096179Y-4423575D01*
G01X1032511Y-4359907D01*
G03X1047615Y-4364825I15104J20736D01*
G01X1187569Y-4364825D01*
G03X1213223Y-4339171I0J25654D01*
G01X1213223Y-4239171D01*
G03X1187569Y-4213517I-25654J0D01*
G01X1155946Y-4213517D01*
G01X1155946Y-4171165D01*
G01X1187848Y-4171165D01*
G03X1213502Y-4145511I0J25654D01*
G01X1213502Y-4032258D01*
G03X1187848Y-4006604I-25654J0D01*
G01X1050146Y-4006604D01*
G03X1024492Y-4032258I0J-25654D01*
G01X1024492Y-4145511D01*
G03X1050146Y-4171165I25654J0D01*
G01X1079238Y-4171165D01*
G01X1079238Y-4213517D01*
G01X1047615Y-4213517D01*
G03X1021961Y-4239171I0J-25654D01*
G01X1021961Y-4339171D01*
G03X1026879Y-4354275I25654J0D01*
G01X976349Y-4303745D01*
G01X976349Y-4302011D01*
G03X988353Y-4280290I-13650J21721D01*
G01X988353Y-4131789D01*
G03X962699Y-4106135I-25654J0D01*
G01X917977Y-4106135D01*
G01X917977Y-4089834D01*
G01X945151Y-4089834D01*
G03X970805Y-4064180I0J25654D01*
G01X970805Y-3950927D01*
G03X945151Y-3925273I-25654J0D01*
G01X848260Y-3925273D01*
G01X812822Y-3889835D01*
G01X904340Y-3889835D01*
G01X925332Y-3910827D01*
G03X952453Y-3922061I27120J27120D01*
G01X1024492Y-3922061D01*
G01X1024492Y-3945512D01*
G03X1050146Y-3971166I25654J0D01*
G01X1187848Y-3971166D01*
G03X1213502Y-3945512I0J25654D01*
G01X1213502Y-3922061D01*
G01X1278492Y-3922061D01*
G01X1278492Y-3942311D01*
G03X1304146Y-3967965I25654J0D01*
G01X1441848Y-3967965D01*
G03X1467502Y-3942311I0J25654D01*
G01X1467502Y-3850219D01*
G01X1518395Y-3850219D01*
G01X1518395Y-3864181D01*
G03X1544049Y-3889835I25654J0D01*
G01X1681751Y-3889835D01*
G03X1707405Y-3864181I0J25654D01*
G01X1707405Y-3850219D01*
G01X1978320Y-3850219D01*
G03X2024505Y-3940845I44303J-34504D01*
G01X2051795Y-3968136D01*
G01X2051795Y-4065026D01*
G03X2077449Y-4090680I25654J0D01*
G01X2111269Y-4090680D01*
G01X2111269Y-4106135D01*
G01X2059901Y-4106135D01*
G03X2034247Y-4131789I0J-25654D01*
G01X2034247Y-4280290D01*
G03X2059901Y-4305944I25654J0D01*
G01X2169641Y-4305944D01*
G01X2169641Y-4319631D01*
G03X2180875Y-4346752I38354J0D01*
G01X2291961Y-4457839D01*
G01X2291961Y-4549229D01*
G03X2317615Y-4574883I25654J0D01*
G01X2349246Y-4574883D01*
G01X2349246Y-4829154D01*
G03X2387600Y-5033254I38354J-98446D01*
G03X2425954Y-4829154I0J105654D01*
G01X2425954Y-4574883D01*
G01X2457569Y-4574883D01*
G03X2483223Y-4549229I0J25654D01*
G01X2483223Y-4449229D01*
G03X2457569Y-4423575I-25654J0D01*
G01X2366179Y-4423575D01*
G01X2302511Y-4359907D01*
G03X2317615Y-4364825I15104J20736D01*
G01X2457569Y-4364825D01*
G03X2483223Y-4339171I0J25654D01*
G01X2483223Y-4239171D01*
G03X2457569Y-4213517I-25654J0D01*
G01X2425946Y-4213517D01*
G01X2425946Y-4170081D01*
G01X2456451Y-4170081D01*
G03X2482105Y-4144427I0J25654D01*
G01X2482105Y-4031173D01*
G03X2456451Y-4005519I-25654J0D01*
G01X2318749Y-4005519D01*
G03X2293095Y-4031173I0J-25654D01*
G01X2293095Y-4144427D01*
G03X2318749Y-4170081I25654J0D01*
G01X2349238Y-4170081D01*
G01X2349238Y-4213517D01*
G01X2317615Y-4213517D01*
G03X2291961Y-4239171I0J-25654D01*
G01X2291961Y-4339171D01*
G03X2296879Y-4354275I25654J0D01*
G01X2246349Y-4303745D01*
G01X2246349Y-4302011D01*
G03X2258353Y-4280290I-13650J21721D01*
G01X2258353Y-4131789D01*
G03X2232699Y-4106135I-25654J0D01*
G01X2187977Y-4106135D01*
G01X2187977Y-4090680D01*
G01X2215151Y-4090680D01*
G03X2240805Y-4065026I0J25654D01*
G01X2240805Y-3951773D01*
G03X2215151Y-3926119I-25654J0D01*
G01X2118260Y-3926119D01*
G01X2082822Y-3890681D01*
G01X2174340Y-3890681D01*
G01X2194486Y-3910827D01*
G03X2221607Y-3922061I27120J27120D01*
G01X2293095Y-3922061D01*
G01X2293095Y-3944427D01*
G03X2318749Y-3970081I25654J0D01*
G01X2456451Y-3970081D01*
G03X2482105Y-3944427I0J25654D01*
G01X2482105Y-3847536D01*
G01X2483913Y-3845728D01*
G01X2607472Y-3845728D01*
G01X2607472Y-4655359D01*
G03X2645826Y-4752528I38354J-41015D01*
G03X2684180Y-4655359I0J56154D01*
G01X2684180Y-3845728D01*
G01X2813795Y-3845728D01*
G01X2813795Y-3868227D01*
G03X2839449Y-3893881I25654J0D01*
G01X2977151Y-3893881D01*
G03X3002805Y-3868227I0J25654D01*
G01X3002805Y-3791971D01*
G01X3057854Y-3847021D01*
G01X3057854Y-3943911D01*
G03X3083508Y-3969565I25654J0D01*
G01X3221209Y-3969565D01*
G03X3246863Y-3943911I0J25654D01*
G01X3246863Y-3925639D01*
G01X3309095Y-3925639D01*
G01X3309095Y-3944427D01*
G03X3334749Y-3970081I25654J0D01*
G01X3472451Y-3970081D01*
G03X3498105Y-3944427I0J25654D01*
G01X3498105Y-3925639D01*
G01X3577242Y-3925639D01*
G03X3604362Y-3914405I0J38354D01*
G01X3622484Y-3896284D01*
G01X3719374Y-3896284D01*
G03X3745028Y-3870630I0J25654D01*
G01X3745028Y-3773739D01*
G01X3935818Y-3582949D01*
G01X4438573Y-3582949D01*
G03X4440377Y-3585584I22028J13150D01*
G01X4440377Y-3616337D01*
G03X4309946Y-3679800I-49776J-63463D01*
G03X4440377Y-3743263I80655J0D01*
G01X4440377Y-3921531D01*
G03X4451611Y-3948652I38354J0D01*
G01X4485155Y-3982195D01*
G01X4377273Y-3982195D01*
G03X4351619Y-4007849I0J-25654D01*
G01X4351619Y-4145551D01*
G03X4377273Y-4171205I25654J0D01*
G01X4381238Y-4171205D01*
G01X4381238Y-4213517D01*
G01X4349615Y-4213517D01*
G03X4323961Y-4239171I0J-25654D01*
G01X4323961Y-4339171D01*
G03X4349615Y-4364825I25654J0D01*
G01X4489569Y-4364825D01*
G03X4515223Y-4339171I0J25654D01*
G01X4515223Y-4239171D01*
G03X4489569Y-4213517I-25654J0D01*
G01X4457946Y-4213517D01*
G01X4457946Y-4171205D01*
G01X4490527Y-4171205D01*
G03X4516181Y-4145551I0J25654D01*
G01X4516181Y-4013222D01*
G01X4551619Y-4048660D01*
G01X4551619Y-4145551D01*
G03X4577273Y-4171205I25654J0D01*
G01X4595546Y-4171205D01*
G01X4595546Y-4213520D01*
G01X4580950Y-4213520D01*
G03X4555296Y-4239174I0J-25654D01*
G01X4555296Y-4352427D01*
G03X4580950Y-4378081I25654J0D01*
G01X4718651Y-4378081D01*
G03X4744305Y-4352427I0J25654D01*
G01X4744305Y-4334154D01*
G01X4862513Y-4334154D01*
G01X4937506Y-4409147D01*
G01X4820075Y-4409147D01*
G03X4794421Y-4434801I0J-25654D01*
G01X4794421Y-4457446D01*
G01X4744305Y-4457446D01*
G01X4744305Y-4439173D01*
G03X4718651Y-4413519I-25654J0D01*
G01X4580950Y-4413519D01*
G03X4555296Y-4439173I0J-25654D01*
G01X4555296Y-4460875D01*
G01X4515223Y-4460875D01*
G01X4515223Y-4449229D01*
G03X4489569Y-4423575I-25654J0D01*
G01X4349615Y-4423575D01*
G03X4323961Y-4449229I0J-25654D01*
G01X4323961Y-4549229D01*
G03X4349615Y-4574883I25654J0D01*
G01X4355846Y-4574883D01*
G01X4355846Y-4829154D01*
G03X4394200Y-5033254I38354J-98446D01*
G03X4432554Y-4829154I0J105654D01*
G01X4432554Y-4574883D01*
G01X4489569Y-4574883D01*
G03X4515223Y-4549229I0J25654D01*
G01X4515223Y-4537583D01*
G01X4555296Y-4537583D01*
G01X4555296Y-4552427D01*
G03X4580950Y-4578081I25654J0D01*
G01X4718651Y-4578081D01*
G03X4744305Y-4552427I0J25654D01*
G01X4744305Y-4534154D01*
G01X4794421Y-4534154D01*
G01X4794421Y-4607599D01*
G03X4820075Y-4633253I25654J0D01*
G01X4939106Y-4633253D01*
G01X4899711Y-4672648D01*
G01X4864798Y-4672648D01*
G03X4837677Y-4683882I0J-38354D01*
G01X4690692Y-4830867D01*
G03X4573491Y-5002309I-42492J-96733D01*
G03X4744933Y-4885108I74709J74709D01*
G01X4880684Y-4749356D01*
G01X4915598Y-4749356D01*
G03X4942718Y-4738123I0J38354D01*
G01X5032521Y-4648320D01*
G03X5043754Y-4621200I-27120J27120D01*
G01X5043754Y-4422800D01*
G03X5032521Y-4395680I-38354J0D01*
G01X4921244Y-4284404D01*
G01X4921244Y-4112977D01*
G01X4963726Y-4070496D01*
G03X5005257Y-4106325I52774J19188D01*
G03X5057515Y-4089662I11243J55017D01*
G01X5250277Y-4089662D01*
G01X5250277Y-4135533D01*
G03X5275931Y-4161187I25654J0D01*
G01X5294203Y-4161187D01*
G01X5294203Y-4185395D01*
G01X5275773Y-4185395D01*
G03X5250119Y-4211049I0J-25654D01*
G01X5250119Y-4348751D01*
G03X5275773Y-4374405I25654J0D01*
G01X5389027Y-4374405D01*
G03X5414681Y-4348751I0J25654D01*
G01X5414681Y-4211049D01*
G03X5389027Y-4185395I-25654J0D01*
G01X5370911Y-4185395D01*
G01X5370911Y-4161187D01*
G01X5389184Y-4161187D01*
G03X5414838Y-4135533I0J25654D01*
G01X5414838Y-3997832D01*
G03X5389184Y-3972178I-25654J0D01*
G01X5275931Y-3972178D01*
G03X5250277Y-3997832I0J-25654D01*
G01X5250277Y-4012954D01*
G01X5057515Y-4012954D01*
G03X5035688Y-3998534I-41015J-38354D01*
G01X5078382Y-3955839D01*
G01X5532798Y-3955839D01*
G03X5559918Y-3944606I0J38354D01*
G01X5582080Y-3922445D01*
G01X5654906Y-3922445D01*
G01X5692972Y-3960511D01*
G03X5720093Y-3971745I27120J27120D01*
G01X5999493Y-3971745D01*
G03X6026613Y-3960511I0J38354D01*
G01X6052013Y-3935111D01*
G03X6063247Y-3907991I-27120J27120D01*
G01X6063247Y-3629393D01*
G03X6052013Y-3602273I-38354J0D01*
G01X5922198Y-3472458D01*
G01X5983507Y-3472458D01*
G03X6009161Y-3446804I0J25654D01*
G01X6009161Y-3316804D01*
G03X5983507Y-3291150I-25654J0D01*
G01X5904176Y-3291150D01*
G03X5910663Y-3274099I-19167J17051D01*
G01X5910663Y-3226054D01*
G01X5912358Y-3226054D01*
G03X5939478Y-3214820I0J38354D01*
G01X6029369Y-3124929D01*
G01X6029369Y-3274099D01*
G03X6055023Y-3299753I25654J0D01*
G01X6203525Y-3299753D01*
G03X6229179Y-3274099I0J25654D01*
G01X6229179Y-3101301D01*
G03X6203525Y-3075647I-25654J0D01*
G01X6078652Y-3075647D01*
G01X6139076Y-3015223D01*
G03X6194232Y-2976852I1882J56123D01*
G01X6280895Y-3063515D01*
G01X6280895Y-3160405D01*
G03X6306549Y-3186059I25654J0D01*
G01X6444251Y-3186059D01*
G03X6469905Y-3160405I0J25654D01*
G01X6469905Y-3142132D01*
G01X6485219Y-3142132D01*
G01X6485219Y-3193051D01*
G03X6510873Y-3218705I25654J0D01*
G01X6624127Y-3218705D01*
G03X6649781Y-3193051I0J25654D01*
G01X6649781Y-3055349D01*
G03X6624127Y-3029695I-25654J0D01*
G01X6510873Y-3029695D01*
G03X6485219Y-3055349I0J-25654D01*
G01X6485219Y-3065424D01*
G01X6469905Y-3065424D01*
G01X6469905Y-3047152D01*
G03X6444251Y-3021498I-25654J0D01*
G01X6347360Y-3021498D01*
G01X6105450Y-2779587D01*
G03X6078329Y-2768354I-27120J-27120D01*
G01X5600700Y-2768354D01*
G03X5573580Y-2779587I0J-38354D01*
G01X5563455Y-2789712D01*
G01X5563455Y-2752904D01*
G03X5537801Y-2727250I-25654J0D01*
G01X5412800Y-2727250D01*
G03X5387400Y-2749304I0J-25654D01*
G01X5167068Y-2749304D01*
G03X5053100Y-2585867I-74368J69596D01*
G01X4538831Y-2071598D01*
G03X4600315Y-2057662I20469J52291D01*
G01X5573106Y-2057662D01*
G03X5787554Y-2019308I103794J38354D01*
G03X5573106Y-1980954I-110654J0D01*
G01X4600315Y-1980954D01*
G03X4526204Y-1973943I-41015J-38354D01*
G01X4526204Y-1539887D01*
G01X4761363Y-1304728D01*
G03X4772596Y-1277608I-27120J27120D01*
G01X4772596Y-1233196D01*
G03X4931314Y-1198097I66104J77489D01*
G03X4938580Y-1208228I34386J16989D01*
G01X5522780Y-1792428D01*
G03X5549900Y-1803662I27120J27120D01*
G01X5573106Y-1803662D01*
G03X5787554Y-1765308I103794J38354D01*
G03X5573106Y-1726954I-110654J0D01*
G01X5565787Y-1726954D01*
G01X5096330Y-1257497D01*
G03X5179758Y-1102839I-3630J101789D01*
G03X5004054Y-1105547I-87058J-52869D01*
G01X5004054Y-1104908D01*
G03X4992820Y-1077787I-38354J0D01*
G01X4869423Y-954389D01*
G03X4842368Y-904462I-56123J1882D01*
G01X4971834Y-904462D01*
G03X4997488Y-878808I0J25654D01*
G01X4997488Y-706010D01*
G03X4971834Y-680356I-25654J0D01*
G01X4823333Y-680356D01*
G03X4797679Y-706010I0J-25654D01*
G01X4797679Y-878808D01*
G03X4805187Y-896943I25654J0D01*
G03X4787474Y-902645I8113J-55565D01*
G03X4772596Y-913823I25826J-49863D01*
G01X4772596Y-339786D01*
G03X4975975Y-278407I92729J60378D01*
G03X4771519Y-220717I-110649J-1001D01*
G03X4761363Y-202622I-37277J-9026D01*
G01X4692770Y-134030D01*
G03X4665650Y-122796I-27120J-27120D01*
G01X3454349Y-122796D01*
G03X3427229Y-134030I0J-38354D01*
G01X3386131Y-175128D01*
G03X3288121Y-174168I-50031J-104272D01*
G01X3237726Y-123773D01*
G03X3210606Y-112540I-27120J-27120D01*
G01X2733607Y-112540D01*
G03X2706486Y-123773I0J-38354D01*
G01X2554086Y-276173D01*
G03X2542853Y-303294I27120J-27120D01*
G01X2542853Y-739912D01*
G01X1152141Y-739912D01*
G03X1125021Y-751146I0J-38354D01*
G01X814300Y-1061867D01*
G03X702678Y-1227729I-39600J-93841D01*
G03X868541Y-1116108I72022J72022D01*
G01X1168028Y-816620D01*
G01X2549820Y-816620D01*
G01X2549820Y-880050D01*
G03X2575474Y-905704I25654J0D01*
G01X2688727Y-905704D01*
G03X2714381Y-880050I0J25654D01*
G01X2714381Y-742349D01*
G03X2688727Y-716695I-25654J0D01*
G01X2619561Y-716695D01*
G01X2619561Y-536919D01*
G03X2756756Y-479400I56540J57519D01*
G03X2619561Y-421880I-80655J0D01*
G01X2619561Y-319180D01*
G01X2720447Y-218294D01*
G01X2720447Y-369400D01*
G03X2746101Y-395054I25654J0D01*
G01X2797747Y-395054D01*
G01X2797747Y-716695D01*
G01X2775473Y-716695D01*
G03X2749819Y-742349I0J-25654D01*
G01X2749819Y-880050D01*
G03X2756667Y-897499I25654J0D01*
G01X2592300Y-1061867D01*
G03X2480678Y-1227729I-39600J-93841D01*
G03X2646541Y-1116108I72022J72022D01*
G01X2808984Y-953664D01*
G01X2894697Y-953664D01*
G03X2921818Y-942431I0J38354D01*
G01X3011620Y-852628D01*
G03X3016969Y-845923I-27120J27120D01*
G03X2999492Y-745992I-32469J45815D01*
G03X2933084Y-822683I-14992J-54116D01*
G01X2914381Y-841386D01*
G01X2914381Y-742349D01*
G03X2888727Y-716695I-25654J0D01*
G01X2874455Y-716695D01*
G01X2874455Y-395054D01*
G01X2926100Y-395054D01*
G03X2951754Y-369400I0J25654D01*
G01X2951754Y-189248D01*
G01X3013667Y-189248D01*
G03X3086113Y-395054I72446J-90152D01*
G03X3158558Y-189248I0J115654D01*
G01X3194719Y-189248D01*
G01X3232821Y-227349D01*
G03X3334974Y-395048I103279J-52051D01*
G03X3440372Y-229369I1125J115648D01*
G01X3470236Y-199504D01*
G01X3771551Y-199504D01*
G03X3848100Y-390061I76549J-79903D01*
G03X3924649Y-199504I0J110654D01*
G01X4025551Y-199504D01*
G03X4102100Y-390061I76549J-79903D01*
G03X4178649Y-199504I0J110654D01*
G01X4534777Y-199504D01*
G03X4540714Y-364603I76549J-79903D01*
G01X4540714Y-680356D01*
G01X4504817Y-680356D01*
G03X4479163Y-706010I0J-25654D01*
G01X4479163Y-838073D01*
G01X4424947Y-892289D01*
G03X4413714Y-919155I27120J-27120D01*
G01X4224730Y-919155D01*
G03X4234263Y-899199I-16122J19956D01*
G01X4234263Y-726401D01*
G03X4208609Y-700747I-25654J0D01*
G01X4060107Y-700747D01*
G03X4034453Y-726401I0J-25654D01*
G01X4034453Y-899199D01*
G03X4043986Y-919155I25654J0D01*
G01X4035883Y-919155D01*
G03X3971298Y-906541I-41015J-38354D01*
G03X3939081Y-963920I23570J-50968D01*
G03X3913398Y-954051I-25683J-28485D01*
G01X3693834Y-954051D01*
G01X3598247Y-858464D01*
G01X3598247Y-780560D01*
G03X3694875Y-774915I46653J31253D01*
G03X3643018Y-693185I-49975J25608D01*
G01X3582218Y-632385D01*
G03X3555097Y-621151I-27120J-27120D01*
G01X3465778Y-621151D01*
G03X3414098Y-591597I-49478J-26557D01*
G03X3364893Y-625111I2202J-56111D01*
G01X3322262Y-582480D01*
G03X3295142Y-571246I-27120J-27120D01*
G01X3207316Y-571246D01*
G03X3110146Y-609600I-41015J-38354D01*
G03X3207316Y-647954I56154J0D01*
G01X3279255Y-647954D01*
G01X3398437Y-767136D01*
G01X3398437Y-773182D01*
G03X3318319Y-773719I-39795J-39618D01*
G03X3320288Y-853815I40323J-39081D01*
G01X3320288Y-866763D01*
G01X3277588Y-909464D01*
G03X3279731Y-899199I-23511J10264D01*
G01X3279731Y-726401D01*
G03X3254077Y-700747I-25654J0D01*
G01X3105575Y-700747D01*
G03X3079921Y-726401I0J-25654D01*
G01X3079921Y-899199D01*
G03X3105575Y-924853I25654J0D01*
G01X3254077Y-924853D01*
G03X3264341Y-922711I0J25654D01*
G01X3252953Y-934099D01*
G01X3091039Y-934099D01*
G03X3063919Y-945332I0J-38354D01*
G01X2898229Y-1111023D01*
G03X2704990Y-1161128I-91529J-44685D01*
G03X2902459Y-1190412I101710J5420D01*
G01X2911434Y-1190412D01*
G03X2938555Y-1179178I0J38354D01*
G01X2958894Y-1158839D01*
G03X3132722Y-1227729I101806J3131D01*
G03X3063831Y-1053902I-72022J72022D01*
G01X3106926Y-1010807D01*
G01X3268839Y-1010807D01*
G03X3295960Y-999573I0J38354D01*
G01X3355467Y-940066D01*
G01X3421324Y-1005923D01*
G03X3448445Y-1017157I27120J27120D01*
G01X3534158Y-1017157D01*
G01X3570878Y-1053877D01*
G03X3468953Y-1135100I-2178J-101831D01*
G03X3530346Y-1250064I99747J-20608D01*
G01X3530346Y-1333508D01*
G03X3541580Y-1360628I38354J0D01*
G01X3762860Y-1581908D01*
G01X3732111Y-1581908D01*
G03X3706457Y-1607562I0J-25654D01*
G01X3706457Y-1705261D01*
G03X3699485Y-1727312I31382J-22050D01*
G01X3699485Y-1767686D01*
G03X3693839Y-1767058I-5645J-25025D01*
G01X3651841Y-1767058D01*
G03X3646195Y-1767686I0J-25654D01*
G01X3646195Y-1727317D01*
G03X3639218Y-1705259I-38354J0D01*
G01X3639218Y-1607562D01*
G03X3613564Y-1581908I-25654J0D01*
G01X3500311Y-1581908D01*
G03X3479241Y-1592927I0J-25654D01*
G03X3425173Y-1584685I-34425J-44364D01*
G03X3413564Y-1581908I-11608J-22877D01*
G01X3300311Y-1581908D01*
G03X3274657Y-1607562I0J-25654D01*
G01X3274657Y-1745263D01*
G03X3300311Y-1770917I25654J0D01*
G01X3339242Y-1770917D01*
G01X3339242Y-1923254D01*
G01X3332002Y-1923254D01*
G03X3306348Y-1948908I0J-25654D01*
G01X3306348Y-2038908D01*
G03X3332002Y-2064562I25654J0D01*
G01X3384144Y-2064562D01*
G01X3384144Y-2101038D01*
G01X3382498Y-2101038D01*
G03X3356844Y-2126692I0J-25654D01*
G01X3356844Y-2216692D01*
G03X3382498Y-2242346I25654J0D01*
G01X3384144Y-2242346D01*
G01X3384144Y-2605197D01*
G03X3218298Y-2646830I-69444J-74511D01*
G03X3324144Y-2781123I96402J-32878D01*
G01X3185980Y-2919287D01*
G03X3174746Y-2946408I27120J-27120D01*
G01X3174746Y-3108592D01*
G03X3158238Y-3137631I38354J-41015D01*
G03X3149600Y-3136646I-8638J-37369D01*
G01X2844800Y-3136646D01*
G03X2817680Y-3147880I0J-38354D01*
G01X2663354Y-3302206D01*
G03X2594839Y-3199684I-110654J206D01*
G03X2596746Y-3197902I-25213J28902D01*
G01X3021100Y-2773548D01*
G03X3132722Y-2607686I39600J93841D01*
G03X2966859Y-2719308I-72022J-72022D01*
G01X2553739Y-3132428D01*
G01X2518826Y-3132428D01*
G03X2491705Y-3143661I0J-38354D01*
G01X2401903Y-3233464D01*
G03X2393794Y-3245420I27120J-27120D01*
G03X2337054Y-3198206I-95094J-56580D01*
G01X2337054Y-3127938D01*
G01X2338083Y-3127938D01*
G03X2363737Y-3102284I0J25654D01*
G01X2363737Y-3042340D01*
G03X2358813Y-3027227I-25654J0D01*
G03X2363737Y-3012114I-20730J15113D01*
G01X2363737Y-2929564D01*
G03X2338083Y-2903910I-25654J0D01*
G01X2337054Y-2903910D01*
G01X2337054Y-2774064D01*
G03X2298700Y-2577854I-38354J94357D01*
G03X2260346Y-2774064I0J-101854D01*
G01X2260346Y-2905071D01*
G03X2242325Y-2929564I7633J-24492D01*
G01X2242325Y-3012114D01*
G03X2247249Y-3027227I25654J0D01*
G03X2242325Y-3042340I20730J-15113D01*
G01X2242325Y-3102284D01*
G03X2260346Y-3126776I25654J0D01*
G01X2260346Y-3198206D01*
G03X2192897Y-3334404I38354J-103794D01*
G03X2325050Y-3409471I105803J32404D01*
G03X2370005Y-3483072I53173J-18052D01*
G03X2434346Y-3425641I8218J55549D01*
G01X2456144Y-3403843D01*
G03X2467377Y-3376723I-27120J27120D01*
G01X2467377Y-3372458D01*
G03X2552906Y-3412654I85323J70458D01*
G01X2364082Y-3601477D01*
G03X2309909Y-3678069I-1882J-56123D01*
G01X2044494Y-3412654D01*
G03X2153607Y-3321582I206J110654D01*
G03X2083054Y-3198206I-108907J19582D01*
G01X2083054Y-3127489D01*
G03X2103933Y-3102284I-4775J25206D01*
G01X2103933Y-3042340D01*
G03X2099009Y-3027227I-25654J0D01*
G03X2103933Y-3012114I-20730J15113D01*
G01X2103933Y-2929564D01*
G03X2083054Y-2904358I-25654J0D01*
G01X2083054Y-2774064D01*
G03X2141682Y-2648583I-38354J94357D01*
G03X2020982Y-2580654I-96982J-31125D01*
G01X2201818Y-2399818D01*
G03X2213051Y-2372698I-27120J27120D01*
G01X2213051Y-2042498D01*
G03X2201818Y-2015377I-38354J0D01*
G01X2125618Y-1939177D01*
G03X2098497Y-1927944I-27120J-27120D01*
G01X1848369Y-1927944D01*
G03X1838093Y-1916298I-23472J-10354D01*
G03X1850551Y-1894298I-13195J22000D01*
G01X1850551Y-1838298D01*
G03X1824897Y-1812644I-25654J0D01*
G01X1785112Y-1812644D01*
G01X1785112Y-1750353D01*
G01X1821009Y-1750353D01*
G03X1846663Y-1724699I0J25654D01*
G01X1846663Y-1551901D01*
G03X1821009Y-1526247I-25654J0D01*
G01X1672507Y-1526247D01*
G03X1646853Y-1551901I0J-25654D01*
G01X1646853Y-1724699D01*
G03X1672507Y-1750353I25654J0D01*
G01X1708404Y-1750353D01*
G01X1708404Y-1812644D01*
G01X1660897Y-1812644D01*
G03X1635243Y-1838298I0J-25654D01*
G01X1635243Y-1894298D01*
G03X1647702Y-1916298I25654J0D01*
G03X1635243Y-1938298I13195J-22000D01*
G01X1635243Y-1994298D01*
G03X1647702Y-2016298I25654J0D01*
G03X1635243Y-2038298I13195J-22000D01*
G01X1635243Y-2094297D01*
G03X1647700Y-2116296I25654J0D01*
G03X1635243Y-2138295I13198J-21999D01*
G01X1635243Y-2168908D01*
G01X1616554Y-2187598D01*
G01X1616554Y-1901298D01*
G03X1590900Y-1875644I-25654J0D01*
G01X1380900Y-1875644D01*
G03X1355246Y-1901298I0J-25654D01*
G01X1355246Y-2231297D01*
G03X1380900Y-2256951I25654J0D01*
G01X1572600Y-2256951D01*
G01X1425597Y-2403955D01*
G01X806426Y-2403955D01*
G03X804169Y-2293341I-52726J54254D01*
G01X822702Y-2293341D01*
G03X848356Y-2267687I0J25654D01*
G01X848356Y-2207687D01*
G03X846330Y-2197694I-25654J0D01*
G03X848356Y-2187702I-23628J9992D01*
G01X848356Y-2135454D01*
G01X883395Y-2135454D01*
G01X883395Y-2153727D01*
G03X909049Y-2179381I25654J0D01*
G01X1046751Y-2179381D01*
G03X1072405Y-2153727I0J25654D01*
G01X1072405Y-2040473D01*
G03X1046751Y-2014819I-25654J0D01*
G01X950569Y-2014819D01*
G03X954584Y-1998827I-51866J21521D01*
G03X974903Y-2004652I20319J32530D01*
G01X1123431Y-2004652D01*
G03X1133707Y-2016298I23472J10354D01*
G03X1121249Y-2038298I13195J-22000D01*
G01X1121249Y-2094297D01*
G03X1133705Y-2116296I25654J0D01*
G03X1121249Y-2138295I13198J-21999D01*
G01X1121249Y-2194295D01*
G03X1133707Y-2216295I25654J0D01*
G03X1121249Y-2238295I13195J-22000D01*
G01X1121249Y-2294294D01*
G03X1146903Y-2319948I25654J0D01*
G01X1310903Y-2319948D01*
G03X1336557Y-2294294I0J25654D01*
G01X1336557Y-2238295D01*
G03X1324098Y-2216295I-25654J0D01*
G03X1336557Y-2194295I-13195J22000D01*
G01X1336557Y-2138295D01*
G03X1324100Y-2116296I-25654J0D01*
G03X1336557Y-2094297I-13198J21999D01*
G01X1336557Y-2038298D01*
G03X1324098Y-2016298I-25654J0D01*
G03X1336557Y-1994298I-13195J22000D01*
G01X1336557Y-1938298D01*
G03X1324098Y-1916298I-25654J0D01*
G03X1336557Y-1894298I-13195J22000D01*
G01X1336557Y-1838298D01*
G03X1310903Y-1812644I-25654J0D01*
G01X1146903Y-1812644D01*
G03X1130927Y-1818226I0J-25654D01*
G03X1045749Y-1866298I-29024J-48072D01*
G03X1130927Y-1914370I56154J0D01*
G03X1133707Y-1916298I15976J20072D01*
G03X1123431Y-1927944I13195J-22000D01*
G01X990790Y-1927944D01*
G01X951223Y-1888377D01*
G03X924103Y-1877144I-27120J-27120D01*
G01X922103Y-1877144D01*
G03X913123Y-1862977I-36100J-12954D01*
G01X881204Y-1831058D01*
G01X898096Y-1831058D01*
G03X925216Y-1819824I0J38354D01*
G01X949860Y-1795181D01*
G01X1046751Y-1795181D01*
G03X1072405Y-1769527I0J25654D01*
G01X1072405Y-1656273D01*
G03X1046751Y-1630619I-25654J0D01*
G01X909049Y-1630619D01*
G03X883395Y-1656273I0J-25654D01*
G01X883395Y-1753164D01*
G01X882209Y-1754350D01*
G01X848356Y-1754350D01*
G01X848356Y-1727691D01*
G03X846327Y-1717692I-25654J0D01*
G03X848356Y-1707693I-23625J9999D01*
G01X848356Y-1647693D01*
G03X846330Y-1637701I-25654J0D01*
G03X848356Y-1627708I-23628J9992D01*
G01X848356Y-1567708D01*
G03X822702Y-1542054I-25654J0D01*
G01X804169Y-1542054D01*
G03X753701Y-1410040I-50468J56360D01*
G01X643701Y-1410040D01*
G03X643701Y-1561348I0J-75654D01*
G01X673849Y-1561348D01*
G03X673048Y-1567708I24853J-6360D01*
G01X673048Y-1574889D01*
G03X595422Y-1604429I-24334J-52817D01*
G03X626504Y-1681451I53292J-23277D01*
G01X592738Y-1715216D01*
G03X581505Y-1742336I27120J-27120D01*
G01X581505Y-2099727D01*
G03X560988Y-2110388I6604J-37781D01*
G01X484224Y-2187152D01*
G01X246111Y-2187152D01*
G03X218991Y-2198386I0J-38354D01*
G01X129188Y-2288188D01*
G03X117955Y-2315309I27120J-27120D01*
G01X117955Y-2391509D01*
G03X129188Y-2418629I38354J0D01*
G01X179988Y-2469429D01*
G03X207109Y-2480663I27120J27120D01*
G01X1427504Y-2480663D01*
G01X1322300Y-2585867D01*
G03X1210678Y-2751729I-39600J-93841D01*
G03X1376541Y-2640108I72022J72022D01*
G01X1476387Y-2540262D01*
G01X1825885Y-2540262D01*
G03X1858706Y-2557461I41015J38354D01*
G01X1830300Y-2585867D01*
G03X1700279Y-2632821I-39600J-93841D01*
G03X1736820Y-2766144I90421J-46886D01*
G01X1677377Y-2766144D01*
G01X1630541Y-2719308D01*
G03X1464678Y-2607686I-93841J39600D01*
G03X1576300Y-2773548I72022J-72022D01*
G01X1634370Y-2831618D01*
G03X1661490Y-2842852I27120J27120D01*
G01X1819097Y-2842852D01*
G03X1846218Y-2831618I0J38354D01*
G01X1932410Y-2745426D01*
G03X1943644Y-2718306I-27120J27120D01*
G01X1943644Y-2692429D01*
G03X2006346Y-2774064I101056J12721D01*
G01X2006346Y-2903975D01*
G03X1982521Y-2929564I1829J-25589D01*
G01X1982521Y-3012114D01*
G03X1987445Y-3027227I25654J0D01*
G03X1982521Y-3042340I20730J-15113D01*
G01X1982521Y-3102284D01*
G03X2006346Y-3127872I25654J0D01*
G01X2006346Y-3198206D01*
G03X1943354Y-3257579I38354J-103794D01*
G01X1943354Y-3200400D01*
G03X1932120Y-3173280I-38354J0D01*
G01X1842318Y-3083477D01*
G03X1815197Y-3072243I-27120J-27120D01*
G01X1475477Y-3072243D01*
G01X1122541Y-2719308D01*
G03X956678Y-2607686I-93841J39600D01*
G03X1068300Y-2773548I72022J-72022D01*
G01X1432469Y-3137718D01*
G03X1459590Y-3148951I27120J27120D01*
G01X1799311Y-3148951D01*
G01X1841705Y-3191346D01*
G01X1705700Y-3191346D01*
G03X1680046Y-3217000I0J-25654D01*
G01X1680046Y-3387000D01*
G03X1705700Y-3412654I25654J0D01*
G01X1749461Y-3412654D01*
G01X1749461Y-3773511D01*
G01X1707405Y-3773511D01*
G01X1707405Y-3750927D01*
G03X1681751Y-3725273I-25654J0D01*
G01X1544049Y-3725273D01*
G03X1518395Y-3750927I0J-25654D01*
G01X1518395Y-3773511D01*
G01X1446817Y-3773511D01*
G03X1419696Y-3784744I0J-38354D01*
G01X1401037Y-3803404D01*
G01X1304146Y-3803404D01*
G03X1278492Y-3829058I0J-25654D01*
G01X1278492Y-3845353D01*
G01X1213502Y-3845353D01*
G01X1213502Y-3832258D01*
G03X1187848Y-3806604I-25654J0D01*
G01X1050146Y-3806604D01*
G03X1024492Y-3832258I0J-25654D01*
G01X1024492Y-3845353D01*
G01X970805Y-3845353D01*
G01X970805Y-3750927D01*
G03X945151Y-3725273I-25654J0D01*
G01X807449Y-3725273D01*
G03X781795Y-3750927I0J-25654D01*
G01X781795Y-3858808D01*
G01X738372Y-3815385D01*
G01X738372Y-3113026D01*
G03X727138Y-3085905I-38354J0D01*
G01X360541Y-2719308D01*
G03X194678Y-2607686I-93841J39600D01*
G03X306300Y-2773548I72022J-72022D01*
G01X661664Y-3128912D01*
G01X661664Y-3831272D01*
G37*
G36*
G01X266700Y-1257562D02*
G03X266700Y-1053854I0J101854D01*
G03X266700Y-1257562I0J-101854D01*
G37*
G36*
G01X320693Y-1410040D02*
G01X240693Y-1410040D01*
G03X240693Y-1561348I0J-75654D01*
G01X320693Y-1561348D01*
G03X320693Y-1410040I0J75654D01*
G37*
G36*
G01X833653Y-508008D02*
G03X182347Y-508008I-325653J0D01*
G03X833653Y-508008I325653J0D01*
G37*
G36*
G01X833653Y-5588008D02*
G03X182347Y-5588008I-325653J0D01*
G03X833653Y-5588008I325653J0D01*
G37*
G36*
G01X520700Y-1257562D02*
G03X520700Y-1053854I0J101854D01*
G03X520700Y-1257562I0J-101854D01*
G37*
G36*
G01X520700Y-2781562D02*
G03X520700Y-2577854I0J101854D01*
G03X520700Y-2781562I0J-101854D01*
G37*
G36*
G01X774700Y-2781562D02*
G03X774700Y-2577854I0J101854D01*
G03X774700Y-2781562I0J-101854D01*
G37*
G36*
G01X962699Y-4624460D02*
G03X988353Y-4598806I0J25654D01*
G01X988353Y-4450305D01*
G03X962699Y-4424651I-25654J0D01*
G01X789901Y-4424651D01*
G03X764247Y-4450305I0J-25654D01*
G01X764247Y-4598806D01*
G03X789901Y-4624460I25654J0D01*
G01X962699Y-4624460D01*
G37*
G36*
G01X1043259Y-5127600D02*
G03X871952Y-5127600I-85654J0D01*
G03X1043259Y-5127600I85654J0D01*
G37*
G36*
G01X1046751Y-2379381D02*
G03X1072405Y-2353727I0J25654D01*
G01X1072405Y-2240473D01*
G03X1046751Y-2214819I-25654J0D01*
G01X909049Y-2214819D01*
G03X883395Y-2240473I0J-25654D01*
G01X883395Y-2353727D01*
G03X909049Y-2379381I25654J0D01*
G01X1046751Y-2379381D01*
G37*
G36*
G01X909049Y-1430619D02*
G03X883395Y-1456273I0J-25654D01*
G01X883395Y-1569527D01*
G03X909049Y-1595181I25654J0D01*
G01X1046751Y-1595181D01*
G03X1072405Y-1569527I0J25654D01*
G01X1072405Y-1456273D01*
G03X1046751Y-1430619I-25654J0D01*
G01X909049Y-1430619D01*
G37*
G36*
G01X1028700Y-1257562D02*
G03X1028700Y-1053854I0J101854D01*
G03X1028700Y-1257562I0J-101854D01*
G37*
G36*
G01X1282700Y-1257562D02*
G03X1282700Y-1053854I0J101854D01*
G03X1282700Y-1257562I0J-101854D01*
G37*
G36*
G01X1333246Y-4829154D02*
G03X1371600Y-5033254I38354J-98446D01*
G03X1409954Y-4829154I0J105654D01*
G01X1409954Y-4574883D01*
G01X1441569Y-4574883D01*
G03X1467223Y-4549229I0J25654D01*
G01X1467223Y-4457854D01*
G01X1578325Y-4346752D01*
G03X1589559Y-4319631I-27120J27120D01*
G01X1589559Y-4305944D01*
G01X1699299Y-4305944D01*
G03X1724953Y-4280290I0J25654D01*
G01X1724953Y-4131789D01*
G03X1699299Y-4106135I-25654J0D01*
G01X1651254Y-4106135D01*
G01X1651254Y-4089834D01*
G01X1681751Y-4089834D01*
G03X1707405Y-4064180I0J25654D01*
G01X1707405Y-3950927D01*
G03X1681751Y-3925273I-25654J0D01*
G01X1544049Y-3925273D01*
G03X1518395Y-3950927I0J-25654D01*
G01X1518395Y-4064180D01*
G03X1544049Y-4089834I25654J0D01*
G01X1574546Y-4089834D01*
G01X1574546Y-4106135D01*
G01X1526501Y-4106135D01*
G03X1500847Y-4131789I0J-25654D01*
G01X1500847Y-4280290D01*
G03X1512851Y-4302011I25654J0D01*
G01X1512851Y-4303745D01*
G01X1462264Y-4354331D01*
G03X1467223Y-4339171I-20695J15160D01*
G01X1467223Y-4239171D01*
G03X1441569Y-4213517I-25654J0D01*
G01X1409946Y-4213517D01*
G01X1409946Y-4167965D01*
G01X1441848Y-4167965D01*
G03X1467502Y-4142311I0J25654D01*
G01X1467502Y-4029057D01*
G03X1441848Y-4003403I-25654J0D01*
G01X1304146Y-4003403D01*
G03X1278492Y-4029057I0J-25654D01*
G01X1278492Y-4142311D01*
G03X1304146Y-4167965I25654J0D01*
G01X1333238Y-4167965D01*
G01X1333238Y-4213517D01*
G01X1301615Y-4213517D01*
G03X1275961Y-4239171I0J-25654D01*
G01X1275961Y-4339171D01*
G03X1301615Y-4364825I25654J0D01*
G01X1441569Y-4364825D01*
G03X1456730Y-4359866I0J25654D01*
G01X1393021Y-4423575D01*
G01X1301615Y-4423575D01*
G03X1275961Y-4449229I0J-25654D01*
G01X1275961Y-4549229D01*
G03X1301615Y-4574883I25654J0D01*
G01X1333246Y-4574883D01*
G01X1333246Y-4829154D01*
G37*
G36*
G01X1328337Y-1724699D02*
G03X1353991Y-1750353I25654J0D01*
G01X1502493Y-1750353D01*
G03X1528147Y-1724699I0J25654D01*
G01X1528147Y-1551901D01*
G03X1502493Y-1526247I-25654J0D01*
G01X1353991Y-1526247D01*
G03X1328337Y-1551901I0J-25654D01*
G01X1328337Y-1724699D01*
G37*
G36*
G01X1536700Y-1257562D02*
G03X1536700Y-1053854I0J101854D01*
G03X1536700Y-1257562I0J-101854D01*
G37*
G36*
G01X1699299Y-4624460D02*
G03X1724953Y-4598806I0J25654D01*
G01X1724953Y-4450305D01*
G03X1699299Y-4424651I-25654J0D01*
G01X1526501Y-4424651D01*
G03X1500847Y-4450305I0J-25654D01*
G01X1500847Y-4598806D01*
G03X1526501Y-4624460I25654J0D01*
G01X1699299Y-4624460D01*
G37*
G36*
G01X1519946Y-4927600D02*
G03X1731254Y-4927600I105654J0D01*
G03X1519946Y-4927600I-105654J0D01*
G37*
G36*
G01X1790700Y-1257562D02*
G03X1790700Y-1053854I0J101854D01*
G03X1790700Y-1257562I0J-101854D01*
G37*
G36*
G01X1773946Y-4927600D02*
G03X1985254Y-4927600I105654J0D01*
G03X1773946Y-4927600I-105654J0D01*
G37*
G36*
G01X1894801Y-1722037D02*
G03X1869147Y-1747691I0J-25654D01*
G01X1869147Y-1896193D01*
G03X1894801Y-1921847I25654J0D01*
G01X2067599Y-1921847D01*
G03X2093253Y-1896193I0J25654D01*
G01X2093253Y-1747691D01*
G03X2067599Y-1722037I-25654J0D01*
G01X1894801Y-1722037D01*
G37*
G36*
G01X2044700Y-1257562D02*
G03X2044700Y-1053854I0J101854D01*
G03X2044700Y-1257562I0J-101854D01*
G37*
G36*
G01X8953647Y-3614046D02*
G01X8827224Y-3740469D01*
G03X8688502Y-3797930I-26124J-133115D01*
G01X8329854Y-3797930D01*
G01X8329854Y-3752197D01*
G03X8304200Y-3726543I-25654J0D01*
G01X8104200Y-3726543D01*
G03X8078546Y-3752197I0J-25654D01*
G01X8078546Y-3778804D01*
G03X8043407Y-3798702I18357J-73393D01*
G01X7847213Y-3994895D01*
G01X7808445Y-3994895D01*
G01X7813821Y-3989520D01*
G03X7825054Y-3962400I-27120J27120D01*
G01X7825054Y-3857946D01*
G01X7947600Y-3857946D01*
G03X7973254Y-3832292I0J25654D01*
G01X7973254Y-3762292D01*
G03X7947600Y-3736638I-25654J0D01*
G01X7878687Y-3736638D01*
G01X7832559Y-3690511D01*
G01X7832559Y-3674100D01*
G03X7821325Y-3646980I-38354J0D01*
G01X7731523Y-3557177D01*
G03X7704402Y-3545944I-27120J-27120D01*
G01X7239246Y-3545944D01*
G01X7239246Y-3541554D01*
G01X7300892Y-3541554D01*
G03X7326546Y-3515900I0J25654D01*
G01X7326546Y-3265900D01*
G03X7300892Y-3240246I-25654J0D01*
G01X7100893Y-3240246D01*
G03X7075239Y-3265900I0J-25654D01*
G01X7075239Y-3515900D01*
G03X7100893Y-3541554I25654J0D01*
G01X7162538Y-3541554D01*
G01X7162538Y-3563921D01*
G01X6998740Y-3727719D01*
G01X6914294Y-3727719D01*
G03X6818585Y-3676642I-54694J12723D01*
G01X6809262Y-3676642D01*
G01X6469905Y-3337285D01*
G01X6469905Y-3240395D01*
G03X6444251Y-3214741I-25654J0D01*
G01X6306549Y-3214741D01*
G03X6280895Y-3240395I0J-25654D01*
G01X6280895Y-3353648D01*
G03X6306549Y-3379302I25654J0D01*
G01X6403440Y-3379302D01*
G01X6766254Y-3742117D01*
G03X6793375Y-3753350I27120J27120D01*
G01X6818585Y-3753350D01*
G03X6876195Y-3768642I41015J38354D01*
G01X6876195Y-3866627D01*
G03X6901849Y-3892281I25654J0D01*
G01X7039550Y-3892281D01*
G03X7065204Y-3866627I0J25654D01*
G01X7065204Y-3841926D01*
G03X7140315Y-3835662I34096J44618D01*
G01X7174398Y-3835662D01*
G01X7174398Y-3878851D01*
G03X7200052Y-3904505I25654J0D01*
G01X7296942Y-3904505D01*
G01X7331158Y-3938720D01*
G03X7358278Y-3949954I27120J27120D01*
G01X7518059Y-3949954D01*
G03X7545179Y-3938720I0J38354D01*
G01X7596946Y-3886954D01*
G01X7596946Y-3927288D01*
G03X7622600Y-3952942I25654J0D01*
G01X7741917Y-3952942D01*
G01X7699964Y-3994895D01*
G01X7603073Y-3994895D01*
G03X7577419Y-4020549I0J-25654D01*
G01X7577419Y-4158251D01*
G03X7603073Y-4183905I25654J0D01*
G01X7716327Y-4183905D01*
G03X7741981Y-4158251I0J25654D01*
G01X7741981Y-4061360D01*
G01X7777419Y-4025922D01*
G01X7777419Y-4158251D01*
G03X7784046Y-4175458I25654J0D01*
G01X7784046Y-4330465D01*
G01X7757065Y-4357446D01*
G01X7638402Y-4357446D01*
G03X7612748Y-4383100I0J-25654D01*
G01X7612748Y-4583100D01*
G03X7638402Y-4608754I25654J0D01*
G01X7662748Y-4608754D01*
G01X7662748Y-4790569D01*
G01X7649004Y-4804313D01*
G03X7534805Y-4918512I-3604J-110595D01*
G01X7491723Y-4961594D01*
G03X7370905Y-4806168I-100323J46686D01*
G03X7353562Y-4772300I-55697J-7147D01*
G01X7353562Y-4608754D01*
G01X7398398Y-4608754D01*
G03X7424052Y-4583100I0J25654D01*
G01X7424052Y-4416984D01*
G03X7429894Y-4396637I-32512J20347D01*
G01X7429894Y-4226246D01*
G01X7477700Y-4226246D01*
G03X7503354Y-4200592I0J25654D01*
G01X7503354Y-4130592D01*
G03X7477700Y-4104938I-25654J0D01*
G01X7352699Y-4104938D01*
G03X7327045Y-4130592I0J-25654D01*
G01X7327045Y-4200592D01*
G03X7352699Y-4226246I25654J0D01*
G01X7353186Y-4226246D01*
G01X7353186Y-4357446D01*
G01X7198398Y-4357446D01*
G03X7172744Y-4383100I0J-25654D01*
G01X7172744Y-4583100D01*
G03X7198398Y-4608754I25654J0D01*
G01X7276854Y-4608754D01*
G01X7276854Y-4772300D01*
G03X7292750Y-4864783I38354J-41015D01*
G03X7348632Y-5016962I98650J-50125D01*
G01X7092446Y-5016962D01*
G01X6993995Y-4918512D01*
G03X6959986Y-4835040I-110595J3604D01*
G01X6959986Y-4608754D01*
G01X7076402Y-4608754D01*
G03X7102056Y-4583100I0J25654D01*
G01X7102056Y-4383100D01*
G03X7076402Y-4357446I-25654J0D01*
G01X7052056Y-4357446D01*
G01X7052056Y-4089026D01*
G03X7065204Y-4066626I-12506J22399D01*
G01X7065204Y-3997476D01*
G03X7115482Y-4025119I48396J28480D01*
G01X7127046Y-4036683D01*
G01X7127046Y-4105596D01*
G03X7152700Y-4131250I25654J0D01*
G01X7277701Y-4131250D01*
G03X7303355Y-4105596I0J25654D01*
G01X7303355Y-4035596D01*
G03X7277701Y-4009942I-25654J0D01*
G01X7208787Y-4009942D01*
G01X7169723Y-3970878D01*
G03X7127422Y-3914570I-56123J1882D01*
G03X7063380Y-3943872I-13822J-54426D01*
G03X7039550Y-3927719I-23830J-9501D01*
G01X6901849Y-3927719D01*
G03X6876195Y-3953373I0J-25654D01*
G01X6876195Y-4066626D01*
G03X6900748Y-4092257I25654J0D01*
G01X6900748Y-4357446D01*
G01X6876402Y-4357446D01*
G03X6850748Y-4383100I0J-25654D01*
G01X6850748Y-4501763D01*
G01X6830836Y-4521675D01*
G03X6808678Y-4575170I53495J-53495D01*
G01X6808678Y-4833293D01*
G03X6780928Y-4956666I74722J-81614D01*
G03X6887004Y-5025503I102472J41758D01*
G01X7007613Y-5146112D01*
G03X7061109Y-5168270I53495J53495D01*
G01X7192037Y-5168270D01*
G01X7192037Y-5661280D01*
G01X7036354Y-5816963D01*
G01X6964473Y-5816963D01*
G03X6979039Y-5793829I-11088J23134D01*
G01X6979039Y-5693829D01*
G03X6953385Y-5668175I-25654J0D01*
G01X6822515Y-5668175D01*
G01X6749305Y-5594964D01*
G01X6749305Y-5498074D01*
G03X6723651Y-5472420I-25654J0D01*
G01X6585949Y-5472420D01*
G03X6560295Y-5498074I0J-25654D01*
G01X6560295Y-5611327D01*
G03X6585949Y-5636981I25654J0D01*
G01X6682840Y-5636981D01*
G01X6718278Y-5672419D01*
G01X6585949Y-5672419D01*
G03X6580170Y-5673079I0J-25654D01*
G01X6430454Y-5523363D01*
G01X6430454Y-4636198D01*
G03X6423963Y-4605539I-75654J0D01*
G03X6436398Y-4608754I12435J22439D01*
G01X6591046Y-4608754D01*
G01X6591046Y-4811113D01*
G03X6591046Y-5018702I38354J-103794D01*
G01X6591046Y-5279763D01*
G03X6602280Y-5306884I38354J0D01*
G01X6787777Y-5492381D01*
G01X6787777Y-5583771D01*
G03X6813431Y-5609425I25654J0D01*
G01X6953385Y-5609425D01*
G03X6979039Y-5583771I0J25654D01*
G01X6979039Y-5483771D01*
G03X6953385Y-5458117I-25654J0D01*
G01X6861994Y-5458117D01*
G01X6667754Y-5263877D01*
G01X6667754Y-5018702D01*
G03X6667754Y-4811113I-38354J103794D01*
G01X6667754Y-4576102D01*
G03X6662052Y-4555980I-38354J0D01*
G01X6662052Y-4383100D01*
G03X6636398Y-4357446I-25654J0D01*
G01X6464985Y-4357446D01*
G01X6403381Y-4295842D01*
G01X6528401Y-4295842D01*
G03X6554055Y-4270188I0J25654D01*
G01X6554055Y-4200188D01*
G03X6542176Y-4178546I-25654J0D01*
G01X6577965Y-4178546D01*
G03X6603399Y-4200846I25434J3354D01*
G01X6728400Y-4200846D01*
G03X6754054Y-4175192I0J25654D01*
G01X6754054Y-4105192D01*
G03X6728400Y-4079538I-25654J0D01*
G01X6603399Y-4079538D01*
G03X6577965Y-4101838I0J-25654D01*
G01X6542176Y-4101838D01*
G03X6554055Y-4080196I-13775J21642D01*
G01X6554055Y-4010196D01*
G03X6529496Y-3984566I-25654J0D01*
G01X6558758Y-3955305D01*
G01X6655648Y-3955305D01*
G03X6681302Y-3929651I0J25654D01*
G01X6681302Y-3791949D01*
G03X6655648Y-3766295I-25654J0D01*
G01X6542395Y-3766295D01*
G03X6516741Y-3791949I0J-25654D01*
G01X6516741Y-3888840D01*
G01X6488059Y-3917522D01*
G01X6488059Y-3791949D01*
G03X6462405Y-3766295I-25654J0D01*
G01X6412154Y-3766295D01*
G01X6412154Y-3752105D01*
G01X6430427Y-3752105D01*
G03X6456081Y-3726451I0J25654D01*
G01X6456081Y-3588749D01*
G03X6430427Y-3563095I-25654J0D01*
G01X6317173Y-3563095D01*
G03X6291519Y-3588724I-13J-25641D01*
G01X6291519Y-3588978D01*
G03X6256081Y-3597706I-5019J-55929D01*
G01X6256081Y-3588749D01*
G03X6230427Y-3563095I-25654J0D01*
G01X6117173Y-3563095D01*
G03X6091519Y-3588749I0J-25654D01*
G01X6091519Y-3726451D01*
G03X6117173Y-3752105I25654J0D01*
G01X6230427Y-3752105D01*
G03X6256081Y-3726451I0J25654D01*
G01X6256081Y-3692109D01*
G03X6291519Y-3700837I30419J47201D01*
G01X6291519Y-3726451D01*
G03X6317173Y-3752105I25654J0D01*
G01X6335446Y-3752105D01*
G01X6335446Y-3770264D01*
G03X6323498Y-3791949I13706J-21686D01*
G01X6323498Y-3929651D01*
G03X6349152Y-3955305I25654J0D01*
G01X6450276Y-3955305D01*
G01X6438780Y-3966801D01*
G03X6428711Y-3984542I27120J-27120D01*
G01X6403400Y-3984542D01*
G03X6377746Y-4010196I0J-25654D01*
G01X6377746Y-4080196D01*
G03X6403400Y-4105850I25654J0D01*
G01X6405028Y-4105850D01*
G03X6394985Y-4113072I17078J-34342D01*
G01X6331478Y-4176580D01*
G03X6320244Y-4203700I27120J-27120D01*
G01X6320244Y-4305300D01*
G03X6331478Y-4332420I38354J0D01*
G01X6410744Y-4411687D01*
G01X6410744Y-4583100D01*
G01X6410846Y-4585380D01*
G03X6408295Y-4582702I-56046J-50817D01*
G01X6340056Y-4514463D01*
G01X6340056Y-4395800D01*
G03X6314402Y-4370146I-25654J0D01*
G01X6114402Y-4370146D01*
G03X6088748Y-4395800I0J-25654D01*
G01X6088748Y-4595800D01*
G03X6114402Y-4621454I25654J0D01*
G01X6233065Y-4621454D01*
G01X6279146Y-4667535D01*
G01X6279146Y-4829046D01*
G01X6191200Y-4829046D01*
G03X6011647Y-4928998I-69800J-85862D01*
G03X6210625Y-4980354I109753J14090D01*
G01X6279146Y-4980354D01*
G01X6279146Y-5554700D01*
G03X6301304Y-5608196I75654J0D01*
G01X6377098Y-5683989D01*
G01X6252752Y-5808336D01*
G01X6212543Y-5808336D01*
G03X6217039Y-5793829I-21159J14507D01*
G01X6217039Y-5693829D01*
G03X6191385Y-5668175I-25654J0D01*
G01X6060515Y-5668175D01*
G01X5987305Y-5594964D01*
G01X5987305Y-5498074D01*
G03X5961651Y-5472420I-25654J0D01*
G01X5823949Y-5472420D01*
G03X5798295Y-5498074I0J-25654D01*
G01X5798295Y-5611327D01*
G03X5823949Y-5636981I25654J0D01*
G01X5920840Y-5636981D01*
G01X5956278Y-5672419D01*
G01X5823949Y-5672419D01*
G03X5798295Y-5698073I0J-25654D01*
G01X5798295Y-5742214D01*
G01X5650363Y-5890146D01*
G01X3711822Y-5890146D01*
G03X3657600Y-5630146I-54222J124346D01*
G03X3603378Y-5890146I0J-135654D01*
G01X3380937Y-5890146D01*
G01X3282715Y-5791924D01*
G03X3144979Y-5630225I-133115J26124D01*
G03X3018573Y-5800927I4621J-135575D01*
G01X2923809Y-5895692D01*
G01X2680716Y-5895692D01*
G03X2641600Y-5630146I-39116J129892D01*
G03X2602484Y-5895692I0J-135654D01*
G01X2370483Y-5895692D01*
G01X2266715Y-5791924D01*
G03X2037678Y-5669878I-133115J26124D01*
G03X2159724Y-5898915I95922J-95922D01*
G01X2285650Y-6024841D01*
G03X2339146Y-6047000I53495J53495D01*
G01X2955146Y-6047000D01*
G03X3008641Y-6024841I0J75654D01*
G01X3133043Y-5900440D01*
G03X3175724Y-5898915I16557J134640D01*
G01X3296105Y-6019296D01*
G03X3349600Y-6041454I53495J53495D01*
G01X5681700Y-6041454D01*
G03X5735196Y-6019296I0J75654D01*
G01X5892800Y-5861691D01*
G01X5968594Y-5937485D01*
G03X6022089Y-5959644I53495J53495D01*
G01X6284089Y-5959644D01*
G03X6337585Y-5937485I0J75654D01*
G01X6484089Y-5790980D01*
G01X6501304Y-5808196D01*
G03X6554800Y-5830354I53495J53495D01*
G01X6568742Y-5830354D01*
G03X6585949Y-5836981I17207J19027D01*
G01X6630090Y-5836981D01*
G01X6739221Y-5946112D01*
G03X6792717Y-5968271I53495J53495D01*
G01X7067691Y-5968271D01*
G03X7121187Y-5946112I0J75654D01*
G01X7299028Y-5768271D01*
G01X7322295Y-5768271D01*
G01X7322295Y-5811327D01*
G03X7347949Y-5836981I25654J0D01*
G01X7485651Y-5836981D01*
G03X7511305Y-5811327I0J25654D01*
G01X7511305Y-5703446D01*
G01X7549777Y-5741918D01*
G01X7549777Y-5793829D01*
G03X7575431Y-5819483I25654J0D01*
G01X7715385Y-5819483D01*
G03X7741039Y-5793829I0J25654D01*
G01X7741039Y-5693829D01*
G03X7715385Y-5668175I-25654J0D01*
G01X7584515Y-5668175D01*
G01X7511305Y-5594964D01*
G01X7511305Y-5498074D01*
G03X7485651Y-5472420I-25654J0D01*
G01X7347949Y-5472420D01*
G03X7343345Y-5472836I0J-25654D01*
G01X7343345Y-5232610D01*
G03X7393289Y-5259694I48062J29039D01*
G01X7591713Y-5458117D01*
G01X7575431Y-5458117D01*
G03X7549777Y-5483771I0J-25654D01*
G01X7549777Y-5583771D01*
G03X7575431Y-5609425I25654J0D01*
G01X7715385Y-5609425D01*
G03X7741039Y-5583771I0J25654D01*
G01X7741039Y-5483771D01*
G03X7715385Y-5458117I-25654J0D01*
G01X7683762Y-5458117D01*
G01X7683762Y-5457571D01*
G03X7672528Y-5430451I-38354J0D01*
G01X7447530Y-5205453D01*
G03X7435078Y-5168270I-56123J1882D01*
G01X7467691Y-5168270D01*
G03X7521187Y-5146112I0J75654D01*
G01X7641796Y-5025503D01*
G03X7755995Y-4911303I3604J110595D01*
G01X7791898Y-4875401D01*
G03X7814056Y-4821906I-53495J53495D01*
G01X7814056Y-4608754D01*
G01X7838402Y-4608754D01*
G03X7864056Y-4583100I0J25654D01*
G01X7864056Y-4464437D01*
G01X7913195Y-4415298D01*
G03X7935354Y-4361802I-53495J53495D01*
G01X7935354Y-4175458D01*
G03X7941981Y-4158251I-19027J17207D01*
G01X7941981Y-4114110D01*
G01X8085908Y-3970183D01*
G03X8104200Y-3977851I18293J17986D01*
G01X8304200Y-3977851D01*
G03X8329854Y-3952197I0J25654D01*
G01X8329854Y-3949238D01*
G01X8688502Y-3949238D01*
G03X8725446Y-3986182I112598J75654D01*
G01X8725446Y-4104849D01*
G03X8633085Y-4089230I-51346J-22735D01*
G01X8290560Y-4089230D01*
G01X8290560Y-4083334D01*
G03X8264906Y-4057680I-25654J0D01*
G01X8124952Y-4057680D01*
G03X8099298Y-4083334I0J-25654D01*
G01X8099298Y-4183334D01*
G03X8124952Y-4208988I25654J0D01*
G01X8264906Y-4208988D01*
G03X8290560Y-4183334I0J25654D01*
G01X8290560Y-4165938D01*
G01X8633085Y-4165938D01*
G03X8693865Y-4180145I41015J38354D01*
G01X8625114Y-4248895D01*
G01X8580973Y-4248895D01*
G03X8555319Y-4274549I0J-25654D01*
G01X8555319Y-4412251D01*
G03X8580973Y-4437905I25654J0D01*
G01X8694227Y-4437905D01*
G03X8719881Y-4412251I0J25654D01*
G01X8719881Y-4368110D01*
G01X8854595Y-4233396D01*
G03X8876754Y-4179900I-53495J53495D01*
G01X8876754Y-3986182D01*
G03X8934215Y-3847460I-75654J112598D01*
G01X9082797Y-3698878D01*
G03X9104955Y-3645383I-53495J53495D01*
G01X9104955Y-2651957D01*
G03X9082797Y-2598462I-75654J0D01*
G01X8936292Y-2451957D01*
G01X9041896Y-2346353D01*
G03X9064054Y-2292858I-53495J53495D01*
G01X9064054Y-1901884D01*
G03X9041896Y-1848388I-75654J0D01*
G01X8921515Y-1728007D01*
G03X8692478Y-1605962I-133115J26124D01*
G03X8814524Y-1834998I95922J-95922D01*
G01X8912746Y-1933221D01*
G01X8912746Y-2155662D01*
G03X8736380Y-2084601I-124346J-54222D01*
G03X8662219Y-2259686I52020J-125283D01*
G01X8641895Y-2239363D01*
G03X8588400Y-2217204I-53495J-53495D01*
G01X8265415Y-2217204D01*
G03X8239799Y-2192953I-25616J-1403D01*
G01X8067001Y-2192953D01*
G03X8041385Y-2217204I0J-25654D01*
G01X7998715Y-2217204D01*
G03X7973099Y-2192953I-25616J-1403D01*
G01X7800301Y-2192953D01*
G03X7774647Y-2218607I0J-25654D01*
G01X7774647Y-2219954D01*
G01X7769957Y-2219954D01*
G01X7769957Y-1452336D01*
G03X7747798Y-1398841I-75654J0D01*
G01X7485154Y-1136197D01*
G01X7485154Y-1056884D01*
G03X7459500Y-1031230I-25654J0D01*
G01X7380187Y-1031230D01*
G01X7266449Y-917492D01*
G01X7266449Y-778745D01*
G01X7303309Y-778745D01*
G03X7328963Y-753091I0J25654D01*
G01X7328963Y-493091D01*
G03X7303309Y-467437I-25654J0D01*
G01X7123309Y-467437D01*
G03X7097655Y-493091I0J-25654D01*
G01X7097655Y-753091D01*
G03X7115141Y-777410I25654J0D01*
G01X7115141Y-867629D01*
G01X6985249Y-867629D01*
G03X6931754Y-889788I0J-75654D01*
G01X6798354Y-1023187D01*
G03X6791372Y-1031230I53495J-53495D01*
G01X6777599Y-1031230D01*
G03X6751945Y-1056884I0J-25654D01*
G01X6751945Y-1229683D01*
G03X6777599Y-1255337I25654J0D01*
G01X6926100Y-1255337D01*
G03X6951754Y-1229683I0J25654D01*
G01X6951754Y-1083769D01*
G01X6966829Y-1068694D01*
G01X6966829Y-1229683D01*
G03X6992483Y-1255337I25654J0D01*
G01X7140984Y-1255337D01*
G03X7166638Y-1229683I0J25654D01*
G01X7166638Y-1056884D01*
G03X7140984Y-1031230I-25654J0D01*
G01X7004293Y-1031230D01*
G01X7016586Y-1018937D01*
G01X7153912Y-1018937D01*
G01X7285345Y-1150370D01*
G01X7285345Y-1229683D01*
G03X7310999Y-1255337I25654J0D01*
G01X7390312Y-1255337D01*
G01X7618649Y-1483673D01*
G01X7618649Y-2265410D01*
G01X7550602Y-2333456D01*
G01X7452300Y-2333456D01*
G03X7426646Y-2359110I0J-25654D01*
G01X7426646Y-2464111D01*
G03X7452300Y-2489765I25654J0D01*
G01X7698800Y-2489765D01*
G03X7724454Y-2464111I0J25654D01*
G01X7724501Y-2365762D01*
G01X7774647Y-2365762D01*
G01X7774647Y-2367109D01*
G03X7800301Y-2392763I25654J0D01*
G01X7973099Y-2392763D01*
G03X7998715Y-2368512I0J25654D01*
G01X8041385Y-2368512D01*
G03X8067001Y-2392763I25616J1403D01*
G01X8239799Y-2392763D01*
G03X8265415Y-2368512I0J25654D01*
G01X8557063Y-2368512D01*
G01X8734905Y-2546354D01*
G03X8827797Y-2557444I53495J53495D01*
G01X8883670Y-2613317D01*
G01X8743815Y-2613317D01*
G03X8718161Y-2638971I0J-25654D01*
G01X8718161Y-2650617D01*
G01X8688787Y-2650617D01*
G03X8665627Y-2635995I-23161J-11032D01*
G01X8552373Y-2635995D01*
G03X8526719Y-2661649I0J-25654D01*
G01X8526719Y-2799351D01*
G03X8552373Y-2825005I25654J0D01*
G01X8665627Y-2825005D01*
G03X8691281Y-2799351I0J25654D01*
G01X8691281Y-2727325D01*
G01X8718161Y-2727325D01*
G01X8718161Y-2738971D01*
G03X8743815Y-2764625I25654J0D01*
G01X8883769Y-2764625D01*
G03X8909423Y-2738971I0J25654D01*
G01X8909423Y-2639070D01*
G01X8953647Y-2683294D01*
G01X8953647Y-3614046D01*
G37*
G36*
G01X2027946Y-4927600D02*
G03X2239254Y-4927600I105654J0D01*
G03X2027946Y-4927600I-105654J0D01*
G37*
G36*
G01X2232699Y-4624460D02*
G03X2258353Y-4598806I0J25654D01*
G01X2258353Y-4450305D01*
G03X2232699Y-4424651I-25654J0D01*
G01X2059901Y-4424651D01*
G03X2034247Y-4450305I0J-25654D01*
G01X2034247Y-4598806D01*
G03X2059901Y-4624460I25654J0D01*
G01X2232699Y-4624460D01*
G37*
G36*
G01X2298700Y-1257562D02*
G03X2298700Y-1053854I0J101854D01*
G03X2298700Y-1257562I0J-101854D01*
G37*
G36*
G01X2552700Y-2781562D02*
G03X2552700Y-2577854I0J101854D01*
G03X2552700Y-2781562I0J-101854D01*
G37*
G36*
G01X2535946Y-4927600D02*
G03X2747254Y-4927600I105654J0D01*
G03X2535946Y-4927600I-105654J0D01*
G37*
G36*
G01X2806700Y-2781562D02*
G03X2806700Y-2577854I0J101854D01*
G03X2806700Y-2781562I0J-101854D01*
G37*
G36*
G01X3085846Y-4821946D02*
G01X3044200Y-4821946D01*
G03X3018546Y-4847600I0J-25654D01*
G01X3018546Y-5007600D01*
G03X3044200Y-5033254I25654J0D01*
G01X3204200Y-5033254D01*
G03X3229854Y-5007600I0J25654D01*
G01X3229854Y-4847600D01*
G03X3204200Y-4821946I-25654J0D01*
G01X3162554Y-4821946D01*
G01X3162554Y-4574883D01*
G01X3219569Y-4574883D01*
G03X3245223Y-4549229I0J25654D01*
G01X3245223Y-4449229D01*
G03X3219569Y-4423575I-25654J0D01*
G01X3128179Y-4423575D01*
G01X3064511Y-4359907D01*
G03X3079615Y-4364825I15104J20736D01*
G01X3219569Y-4364825D01*
G03X3245223Y-4339171I0J25654D01*
G01X3245223Y-4239171D01*
G03X3219569Y-4213517I-25654J0D01*
G01X3187946Y-4213517D01*
G01X3187946Y-4169565D01*
G01X3221209Y-4169565D01*
G03X3246863Y-4143911I0J25654D01*
G01X3246863Y-4030657D01*
G03X3221209Y-4005003I-25654J0D01*
G01X3083508Y-4005003D01*
G03X3057854Y-4030657I0J-25654D01*
G01X3057854Y-4143911D01*
G03X3083508Y-4169565I25654J0D01*
G01X3111238Y-4169565D01*
G01X3111238Y-4213517D01*
G01X3079615Y-4213517D01*
G03X3053961Y-4239171I0J-25654D01*
G01X3053961Y-4339171D01*
G03X3058879Y-4354275I25654J0D01*
G01X3008341Y-4303737D01*
G01X3008341Y-4302016D01*
G03X3020353Y-4280290I-13642J21726D01*
G01X3020353Y-4131789D01*
G03X2994699Y-4106135I-25654J0D01*
G01X2949970Y-4106135D01*
G01X2949970Y-4093881D01*
G01X2977151Y-4093881D01*
G03X3002805Y-4068227I0J25654D01*
G01X3002805Y-3954973D01*
G03X2977151Y-3929319I-25654J0D01*
G01X2839449Y-3929319D01*
G03X2813795Y-3954973I0J-25654D01*
G01X2813795Y-4068227D01*
G03X2839449Y-4093881I25654J0D01*
G01X2873262Y-4093881D01*
G01X2873262Y-4106135D01*
G01X2821901Y-4106135D01*
G03X2796247Y-4131789I0J-25654D01*
G01X2796247Y-4280290D01*
G03X2821901Y-4305944I25654J0D01*
G01X2931633Y-4305944D01*
G01X2931633Y-4319624D01*
G03X2942867Y-4346744I38354J0D01*
G01X3053961Y-4457839D01*
G01X3053961Y-4549229D01*
G03X3079615Y-4574883I25654J0D01*
G01X3085846Y-4574883D01*
G01X3085846Y-4821946D01*
G37*
G36*
G01X2994699Y-4624460D02*
G03X3020353Y-4598806I0J25654D01*
G01X3020353Y-4450305D01*
G03X2994699Y-4424651I-25654J0D01*
G01X2821901Y-4424651D01*
G03X2796247Y-4450305I0J-25654D01*
G01X2796247Y-4598806D01*
G03X2821901Y-4624460I25654J0D01*
G01X2994699Y-4624460D01*
G37*
G36*
G01X3049859Y-5127600D02*
G03X2878552Y-5127600I-85654J0D01*
G03X3049859Y-5127600I85654J0D01*
G37*
G36*
G01X3166344Y-2038908D02*
G03X3191998Y-2064562I25654J0D01*
G01X3271998Y-2064562D01*
G03X3297652Y-2038908I0J25654D01*
G01X3297652Y-1948908D01*
G03X3271998Y-1923254I-25654J0D01*
G01X3191998Y-1923254D01*
G03X3166344Y-1948908I0J-25654D01*
G01X3166344Y-2038908D01*
G37*
G36*
G01X3314700Y-1257562D02*
G03X3314700Y-1053854I0J101854D01*
G03X3314700Y-1257562I0J-101854D01*
G37*
G36*
G01X3339846Y-4829154D02*
G03X3378200Y-5033254I38354J-98446D01*
G03X3416554Y-4829154I0J105654D01*
G01X3416554Y-4574883D01*
G01X3473569Y-4574883D01*
G03X3499223Y-4549229I0J25654D01*
G01X3499223Y-4449229D01*
G03X3484692Y-4426112I-25654J0D01*
G01X3604860Y-4305944D01*
G01X3736923Y-4305944D01*
G03X3762577Y-4280290I0J25654D01*
G01X3762577Y-4131789D01*
G03X3736923Y-4106135I-25654J0D01*
G01X3688878Y-4106135D01*
G01X3688878Y-4096283D01*
G01X3719374Y-4096283D01*
G03X3745028Y-4070629I0J25654D01*
G01X3745028Y-3957376D01*
G03X3719374Y-3931722I-25654J0D01*
G01X3581673Y-3931722D01*
G03X3556019Y-3957376I0J-25654D01*
G01X3556019Y-4070629D01*
G03X3581673Y-4096283I25654J0D01*
G01X3612170Y-4096283D01*
G01X3612170Y-4106135D01*
G01X3564124Y-4106135D01*
G03X3538470Y-4131789I0J-25654D01*
G01X3538470Y-4263852D01*
G01X3499223Y-4303099D01*
G01X3499223Y-4239171D01*
G03X3473569Y-4213517I-25654J0D01*
G01X3441946Y-4213517D01*
G01X3441946Y-4170081D01*
G01X3472451Y-4170081D01*
G03X3498105Y-4144427I0J25654D01*
G01X3498105Y-4031173D01*
G03X3472451Y-4005519I-25654J0D01*
G01X3334749Y-4005519D01*
G03X3309095Y-4031173I0J-25654D01*
G01X3309095Y-4144427D01*
G03X3334749Y-4170081I25654J0D01*
G01X3365238Y-4170081D01*
G01X3365238Y-4213517D01*
G01X3333615Y-4213517D01*
G03X3307961Y-4239171I0J-25654D01*
G01X3307961Y-4339171D01*
G03X3333615Y-4364825I25654J0D01*
G01X3437497Y-4364825D01*
G01X3378747Y-4423575D01*
G01X3333615Y-4423575D01*
G03X3307961Y-4449229I0J-25654D01*
G01X3307961Y-4549229D01*
G03X3333615Y-4574883I25654J0D01*
G01X3339846Y-4574883D01*
G01X3339846Y-4829154D01*
G37*
G36*
G01X3526546Y-4927600D02*
G03X3737854Y-4927600I105654J0D01*
G03X3526546Y-4927600I-105654J0D01*
G37*
G36*
G01X3736923Y-4624460D02*
G03X3762577Y-4598806I0J25654D01*
G01X3762577Y-4450305D01*
G03X3736923Y-4424651I-25654J0D01*
G01X3564124Y-4424651D01*
G03X3538470Y-4450305I0J-25654D01*
G01X3538470Y-4598806D01*
G03X3564124Y-4624460I25654J0D01*
G01X3736923Y-4624460D01*
G37*
G36*
G01X3741591Y-700747D02*
G03X3715937Y-726401I0J-25654D01*
G01X3715937Y-899199D01*
G03X3741591Y-924853I25654J0D01*
G01X3890093Y-924853D01*
G03X3915747Y-899199I0J25654D01*
G01X3915747Y-726401D01*
G03X3890093Y-700747I-25654J0D01*
G01X3869970Y-700747D01*
G03X3815842Y-629646I-54128J14947D01*
G03X3761714Y-700747I0J-56154D01*
G01X3741591Y-700747D01*
G37*
G36*
G01X3780546Y-4927600D02*
G03X3991854Y-4927600I105654J0D01*
G03X3780546Y-4927600I-105654J0D01*
G37*
G36*
G01X4034546Y-4927600D02*
G03X4245854Y-4927600I105654J0D01*
G03X4034546Y-4927600I-105654J0D01*
G37*
G36*
G01X5050119Y-4348751D02*
G03X5075773Y-4374405I25654J0D01*
G01X5189027Y-4374405D01*
G03X5214681Y-4348751I0J25654D01*
G01X5214681Y-4211049D01*
G03X5189027Y-4185395I-25654J0D01*
G01X5075773Y-4185395D01*
G03X5050119Y-4211049I0J-25654D01*
G01X5050119Y-4348751D01*
G37*
G36*
G01X5312747Y-4434801D02*
G03X5287093Y-4409147I-25654J0D01*
G01X5138591Y-4409147D01*
G03X5112937Y-4434801I0J-25654D01*
G01X5112937Y-4607599D01*
G03X5138591Y-4633253I25654J0D01*
G01X5287093Y-4633253D01*
G03X5312747Y-4607599I0J25654D01*
G01X5312747Y-4434801D01*
G37*
G36*
G01X5628700Y-4131250D02*
G01X5753701Y-4131250D01*
G03X5779355Y-4105596I0J25654D01*
G01X5779355Y-4035596D01*
G03X5753701Y-4009942I-25654J0D01*
G01X5628700Y-4009942D01*
G03X5608081Y-4020332I0J-25654D01*
G01X5608081Y-3997832D01*
G03X5582427Y-3972178I-25654J0D01*
G01X5469174Y-3972178D01*
G03X5443520Y-3997832I0J-25654D01*
G01X5443520Y-4135533D01*
G03X5469174Y-4161187I25654J0D01*
G01X5582427Y-4161187D01*
G03X5608081Y-4135533I0J25654D01*
G01X5608081Y-4120861D01*
G03X5628700Y-4131250I20618J15265D01*
G37*
G36*
G01X5787554Y-1257308D02*
G03X5566246Y-1257308I-110654J0D01*
G03X5787554Y-1257308I110654J0D01*
G37*
G36*
G01X5787554Y-1511308D02*
G03X5566246Y-1511308I-110654J0D01*
G03X5787554Y-1511308I110654J0D01*
G37*
G36*
G01X5779355Y-4225588D02*
G03X5753701Y-4199934I-25654J0D01*
G01X5628700Y-4199934D01*
G03X5603046Y-4225588I0J-25654D01*
G01X5603046Y-4295588D01*
G03X5628700Y-4321242I25654J0D01*
G01X5753701Y-4321242D01*
G03X5779355Y-4295588I0J25654D01*
G01X5779355Y-4225588D01*
G37*
G36*
G01X5829046Y-4811113D02*
G03X5829046Y-5018702I38354J-103794D01*
G01X5829046Y-5279763D01*
G03X5840280Y-5306884I38354J0D01*
G01X6025777Y-5492381D01*
G01X6025777Y-5583771D01*
G03X6051431Y-5609425I25654J0D01*
G01X6191385Y-5609425D01*
G03X6217039Y-5583771I0J25654D01*
G01X6217039Y-5483771D01*
G03X6191385Y-5458117I-25654J0D01*
G01X6099994Y-5458117D01*
G01X5905754Y-5263877D01*
G01X5905754Y-5018702D01*
G03X5905754Y-4811113I-38354J103794D01*
G01X5905754Y-4588802D01*
G03X5900052Y-4568680I-38354J0D01*
G01X5900052Y-4419625D01*
G03X5902554Y-4405997I-35851J13628D01*
G01X5902554Y-4226246D01*
G01X5953700Y-4226246D01*
G03X5979354Y-4200592I0J25654D01*
G01X5979354Y-4130592D01*
G03X5953700Y-4104938I-25654J0D01*
G01X5828699Y-4104938D01*
G03X5803045Y-4130592I0J-25654D01*
G01X5803045Y-4200592D01*
G03X5825846Y-4226087I25654J0D01*
G01X5825846Y-4370146D01*
G01X5674398Y-4370146D01*
G03X5648744Y-4395800I0J-25654D01*
G01X5648744Y-4595800D01*
G03X5674398Y-4621454I25654J0D01*
G01X5829046Y-4621454D01*
G01X5829046Y-4811113D01*
G37*
G36*
G01X6041554Y-1257308D02*
G03X5820246Y-1257308I-110654J0D01*
G03X6041554Y-1257308I110654J0D01*
G37*
G36*
G01X6041554Y-2019308D02*
G03X5820246Y-2019308I-110654J0D01*
G03X6041554Y-2019308I110654J0D01*
G37*
G36*
G01X6041554Y-1511308D02*
G03X5820246Y-1511308I-110654J0D01*
G03X6041554Y-1511308I110654J0D01*
G37*
G36*
G01X6041554Y-1765308D02*
G03X5820246Y-1765308I-110654J0D01*
G03X6041554Y-1765308I110654J0D01*
G37*
G36*
G01X6099900Y-1146654D02*
G03X6074246Y-1172308I0J-25654D01*
G01X6074246Y-1342307D01*
G03X6099900Y-1367961I25654J0D01*
G01X6269900Y-1367961D01*
G03X6295554Y-1342307I0J25654D01*
G01X6295554Y-1172308D01*
G03X6269900Y-1146654I-25654J0D01*
G01X6099900Y-1146654D01*
G37*
G36*
G01X6099900Y-1908654D02*
G03X6074246Y-1934308I0J-25654D01*
G01X6074246Y-2104307D01*
G03X6099900Y-2129961I25654J0D01*
G01X6269900Y-2129961D01*
G03X6295554Y-2104307I0J25654D01*
G01X6295554Y-1934308D01*
G03X6269900Y-1908654I-25654J0D01*
G01X6099900Y-1908654D01*
G37*
G36*
G01X6099900Y-1400654D02*
G03X6074246Y-1426308I0J-25654D01*
G01X6074246Y-1596307D01*
G03X6099900Y-1621961I25654J0D01*
G01X6269900Y-1621961D01*
G03X6295554Y-1596307I0J25654D01*
G01X6295554Y-1426308D01*
G03X6269900Y-1400654I-25654J0D01*
G01X6099900Y-1400654D01*
G37*
G36*
G01X6099900Y-1654654D02*
G03X6074246Y-1680308I0J-25654D01*
G01X6074246Y-1850307D01*
G03X6099900Y-1875961I25654J0D01*
G01X6269900Y-1875961D01*
G03X6295554Y-1850307I0J25654D01*
G01X6295554Y-1680308D01*
G03X6269900Y-1654654I-25654J0D01*
G01X6099900Y-1654654D01*
G37*
G36*
G01X6880800Y-2844262D02*
G01X7127300Y-2844262D01*
G03X7152954Y-2818608I0J25654D01*
G01X7152954Y-2679962D01*
G01X7426646Y-2679962D01*
G01X7426646Y-2694108D01*
G03X7452300Y-2719762I25654J0D01*
G01X7698800Y-2719762D01*
G03X7724454Y-2694108I0J25654D01*
G01X7724454Y-2679962D01*
G01X7752834Y-2679962D01*
G03X7779955Y-2668728I0J38354D01*
G01X7841036Y-2607647D01*
G01X7973099Y-2607647D01*
G03X7998753Y-2581993I0J25654D01*
G01X7998753Y-2546096D01*
G01X8041347Y-2546096D01*
G01X8041347Y-2581993D01*
G03X8067001Y-2607647I25654J0D01*
G01X8231906Y-2607647D01*
G01X8326719Y-2702460D01*
G01X8326719Y-2799351D01*
G03X8352373Y-2825005I25654J0D01*
G01X8465627Y-2825005D01*
G03X8491281Y-2799351I0J25654D01*
G01X8491281Y-2661649D01*
G03X8465627Y-2635995I-25654J0D01*
G01X8368736Y-2635995D01*
G01X8265453Y-2532712D01*
G01X8265453Y-2433491D01*
G03X8239799Y-2407837I-25654J0D01*
G01X8067001Y-2407837D01*
G03X8041347Y-2433491I0J-25654D01*
G01X8041347Y-2469388D01*
G01X7998753Y-2469388D01*
G01X7998753Y-2433491D01*
G03X7973099Y-2407837I-25654J0D01*
G01X7800301Y-2407837D01*
G03X7774647Y-2433491I0J-25654D01*
G01X7774647Y-2565555D01*
G01X7736948Y-2603254D01*
G01X7724454Y-2603254D01*
G01X7724454Y-2589107D01*
G03X7698800Y-2563453I-25654J0D01*
G01X7452300Y-2563453D01*
G03X7426646Y-2589107I0J-25654D01*
G01X7426646Y-2603254D01*
G01X7152954Y-2603254D01*
G01X7152954Y-2464608D01*
G03X7127300Y-2438954I-25654J0D01*
G01X6880800Y-2438954D01*
G03X6855146Y-2464608I0J-25654D01*
G01X6855146Y-2736271D01*
G01X6848471Y-2742946D01*
G01X6359773Y-2742946D01*
G03X6262604Y-2781300I-41015J-38354D01*
G03X6359773Y-2819654I56154J0D01*
G01X6855168Y-2819654D01*
G03X6880800Y-2844262I25633J1046D01*
G37*
G36*
G01X6433429Y-1229683D02*
G03X6459083Y-1255337I25654J0D01*
G01X6607584Y-1255337D01*
G03X6633238Y-1229683I0J25654D01*
G01X6633238Y-1056884D01*
G03X6607584Y-1031230I-25654J0D01*
G01X6459083Y-1031230D01*
G03X6433429Y-1056884I0J-25654D01*
G01X6433429Y-1229683D01*
G37*
G36*
G01X6433434Y-302583D02*
G03X6459088Y-328237I25654J0D01*
G01X6607589Y-328237D01*
G03X6633243Y-302583I0J25654D01*
G01X6633243Y-129784D01*
G03X6607589Y-104130I-25654J0D01*
G01X6459088Y-104130D01*
G03X6433434Y-129784I0J-25654D01*
G01X6433434Y-302583D01*
G37*
G36*
G01X6966829Y-291837D02*
G01X6966829Y-302583D01*
G03X6992483Y-328237I25654J0D01*
G01X7140984Y-328237D01*
G03X7166638Y-302583I0J25654D01*
G01X7166638Y-129784D01*
G03X7140984Y-104130I-25654J0D01*
G01X6992483Y-104130D01*
G03X6966829Y-129784I0J-25654D01*
G01X6966829Y-140529D01*
G01X6951759Y-140529D01*
G01X6951759Y-129784D01*
G03X6926105Y-104130I-25654J0D01*
G01X6777604Y-104130D01*
G03X6751950Y-129784I0J-25654D01*
G01X6751788Y-209258D01*
G03X6729630Y-262754I53495J-53495D01*
G01X6729630Y-422101D01*
G03X6752937Y-476721I75654J0D01*
G03X6589630Y-582101I-47653J-105380D01*
G01X6589630Y-662101D01*
G03X6820938Y-662101I115654J0D01*
G01X6820938Y-582101D01*
G03X6779126Y-493088I-115654J0D01*
G03X6880938Y-422101I26158J70988D01*
G01X6880938Y-328237D01*
G01X6926105Y-328237D01*
G03X6951759Y-302583I0J25654D01*
G01X6951759Y-291837D01*
G01X6966829Y-291837D01*
G37*
G36*
G01X6849781Y-3055349D02*
G03X6824127Y-3029695I-25654J0D01*
G01X6710873Y-3029695D01*
G03X6685219Y-3055349I0J-25654D01*
G01X6685219Y-3193051D01*
G03X6710873Y-3218705I25654J0D01*
G01X6824127Y-3218705D01*
G03X6849781Y-3193051I0J25654D01*
G01X6849781Y-3055349D01*
G37*
G36*
G01X7074963Y-663091D02*
G01X7074963Y-583091D01*
G03X6843655Y-583091I-115654J0D01*
G01X6843655Y-663091D01*
G03X7074963Y-663091I115654J0D01*
G37*
G36*
G01X7303355Y-4225588D02*
G03X7277701Y-4199934I-25654J0D01*
G01X7152700Y-4199934D01*
G03X7127046Y-4225588I0J-25654D01*
G01X7127046Y-4295588D01*
G03X7152700Y-4321242I25654J0D01*
G01X7277701Y-4321242D01*
G03X7303355Y-4295588I0J25654D01*
G01X7303355Y-4225588D01*
G37*
G36*
G01X7485154Y-129784D02*
G03X7459500Y-104130I-25654J0D01*
G01X7310999Y-104130D01*
G03X7285345Y-129784I0J-25654D01*
G01X7285345Y-302583D01*
G03X7310999Y-328237I25654J0D01*
G01X7459500Y-328237D01*
G03X7485154Y-302583I0J25654D01*
G01X7485154Y-129784D01*
G37*
G36*
G01X8329854Y-3327230D02*
G01X8329854Y-3312193D01*
G03X8304200Y-3286539I-25654J0D01*
G01X8132787Y-3286539D01*
G01X8053520Y-3207272D01*
G03X8026400Y-3196039I-27120J-27120D01*
G01X7611400Y-3196039D01*
G03X7584279Y-3207272I0J-38354D01*
G01X7527911Y-3263640D01*
G03X7329239Y-3365900I-73019J-102260D01*
G01X7329239Y-3415900D01*
G03X7580546Y-3415900I125654J0D01*
G01X7580546Y-3365900D01*
G03X7574041Y-3325993I-125654J0D01*
G01X7605412Y-3294621D01*
G03X7583239Y-3365900I103480J-71279D01*
G01X7583239Y-3415900D01*
G03X7834546Y-3415900I125654J0D01*
G01X7834546Y-3365900D01*
G03X7793221Y-3272747I-125654J0D01*
G01X8010513Y-3272747D01*
G01X8078546Y-3340780D01*
G01X8078546Y-3512193D01*
G03X8104200Y-3537847I25654J0D01*
G01X8304200Y-3537847D01*
G03X8329854Y-3512193I0J25654D01*
G01X8329854Y-3403938D01*
G01X8670981Y-3403938D01*
G03X8936754Y-3365584I130119J38354D01*
G03X8670981Y-3327230I-135654J0D01*
G01X8329854Y-3327230D01*
G37*
G36*
G01X7426646Y-2924105D02*
G03X7452300Y-2949759I25654J0D01*
G01X7698800Y-2949759D01*
G03X7724454Y-2924105I0J25654D01*
G01X7724454Y-2819104D01*
G03X7698800Y-2793450I-25654J0D01*
G01X7452300Y-2793450D01*
G03X7426646Y-2819104I0J-25654D01*
G01X7426646Y-2924105D01*
G37*
G36*
G01X7800301Y-1874437D02*
G03X7774647Y-1900091I0J-25654D01*
G01X7774647Y-2048593D01*
G03X7800301Y-2074247I25654J0D01*
G01X7973099Y-2074247D01*
G03X7998753Y-2048593I0J25654D01*
G01X7998753Y-1900091D01*
G03X7973099Y-1874437I-25654J0D01*
G01X7800301Y-1874437D01*
G37*
G36*
G01X7973099Y-2926163D02*
G03X7998753Y-2900509I0J25654D01*
G01X7998753Y-2752007D01*
G03X7973099Y-2726353I-25654J0D01*
G01X7800301Y-2726353D01*
G03X7774647Y-2752007I0J-25654D01*
G01X7774647Y-2900509D01*
G03X7800301Y-2926163I25654J0D01*
G01X7973099Y-2926163D01*
G37*
G36*
G01X8067001Y-1874437D02*
G03X8041347Y-1900091I0J-25654D01*
G01X8041347Y-2048593D01*
G03X8067001Y-2074247I25654J0D01*
G01X8239799Y-2074247D01*
G03X8265453Y-2048593I0J25654D01*
G01X8265453Y-1900091D01*
G03X8239799Y-1874437I-25654J0D01*
G01X8067001Y-1874437D01*
G37*
G36*
G01X8239799Y-2926163D02*
G03X8265453Y-2900509I0J25654D01*
G01X8265453Y-2752007D01*
G03X8239799Y-2726353I-25654J0D01*
G01X8067001Y-2726353D01*
G03X8041347Y-2752007I0J-25654D01*
G01X8041347Y-2900509D01*
G03X8067001Y-2926163I25654J0D01*
G01X8239799Y-2926163D01*
G37*
G36*
G01X8355320Y-4381746D02*
G01X8355320Y-4412251D01*
G03X8380974Y-4437905I25654J0D01*
G01X8494227Y-4437905D01*
G03X8519881Y-4412251I0J25654D01*
G01X8519881Y-4274549D01*
G03X8494227Y-4248895I-25654J0D01*
G01X8380974Y-4248895D01*
G03X8355320Y-4274549I0J-25654D01*
G01X8355320Y-4305038D01*
G01X8290560Y-4305038D01*
G01X8290560Y-4293392D01*
G03X8264906Y-4267738I-25654J0D01*
G01X8124952Y-4267738D01*
G03X8099298Y-4293392I0J-25654D01*
G01X8099298Y-4393392D01*
G03X8124952Y-4419046I25654J0D01*
G01X8264906Y-4419046D01*
G03X8290560Y-4393392I0J25654D01*
G01X8290560Y-4381746D01*
G01X8355320Y-4381746D01*
G37*
G36*
G01X8961653Y-508008D02*
G03X8310347Y-508008I-325653J0D01*
G03X8961653Y-508008I325653J0D01*
G37*
G36*
G01X8961653Y-5588008D02*
G03X8310347Y-5588008I-325653J0D01*
G03X8961653Y-5588008I325653J0D01*
G37*
G36*
G01X8743815Y-2823375D02*
G03X8718161Y-2849029I0J-25654D01*
G01X8718161Y-2949029D01*
G03X8743815Y-2974683I25654J0D01*
G01X8883769Y-2974683D01*
G03X8909423Y-2949029I0J25654D01*
G01X8909423Y-2849029D01*
G03X8883769Y-2823375I-25654J0D01*
G01X8743815Y-2823375D01*
G37*
%LPD*%
G36*
G01X261998Y-2263860D02*
G01X500111Y-2263860D01*
G03X527232Y-2252626I0J38354D01*
G01X594695Y-2185163D01*
G03X608684Y-2248882I54019J-21535D01*
G03X673048Y-2259516I40029J42184D01*
G01X673048Y-2267687D01*
G03X673849Y-2274047I25654J0D01*
G01X643701Y-2274047D01*
G03X590975Y-2403955I0J-75654D01*
G01X373419Y-2403955D01*
G03X320693Y-2274047I-52726J54254D01*
G01X251811Y-2274047D01*
G01X261998Y-2263860D01*
G37*
G36*
G01X3988957Y-2821692D02*
G01X4037100Y-2773548D01*
G03X4113638Y-2774628I39600J93841D01*
G03X4169314Y-2722097I-36938J94920D01*
G03X4176580Y-2732228I34386J16989D01*
G01X4625592Y-3181241D01*
G03X4652713Y-3192474I27120J27120D01*
G01X5160713Y-3192474D01*
G03X5187833Y-3181241I0J38354D01*
G01X5275668Y-3093406D01*
G01X5334399Y-3093406D01*
G03X5360053Y-3067752I0J25654D01*
G01X5360053Y-3037256D01*
G01X5404755Y-3037256D01*
G03X5412800Y-3038550I8045J24360D01*
G01X5506710Y-3038550D01*
G01X5437764Y-3107496D01*
G01X5340873Y-3107496D01*
G03X5315219Y-3133150I0J-25654D01*
G01X5315219Y-3270851D01*
G03X5340873Y-3296505I25654J0D01*
G01X5367538Y-3296505D01*
G01X5367538Y-3318863D01*
G01X5348629Y-3318863D01*
G03X5322975Y-3344517I0J-25654D01*
G01X5322975Y-3457771D01*
G03X5348629Y-3483425I25654J0D01*
G01X5480958Y-3483425D01*
G01X5445520Y-3518863D01*
G01X5348629Y-3518863D01*
G03X5322975Y-3544517I0J-25654D01*
G01X5322975Y-3657770D01*
G03X5348629Y-3683424I25654J0D01*
G01X5486330Y-3683424D01*
G03X5511984Y-3657770I0J25654D01*
G01X5511984Y-3560880D01*
G01X5600406Y-3472458D01*
G01X5663493Y-3472458D01*
G03X5689147Y-3446804I0J25654D01*
G01X5689147Y-3347888D01*
G01X5986539Y-3645280D01*
G01X5986539Y-3741317D01*
G03X5983507Y-3741137I-3031J-25474D01*
G01X5902094Y-3741137D01*
G01X5867637Y-3706680D01*
G03X5840517Y-3695446I-27120J-27120D01*
G01X5070499Y-3695446D01*
G01X4904885Y-3529831D01*
G03X4718833Y-3398020I-104272J50031D01*
G03X4850644Y-3584072I81780J-81780D01*
G01X5027492Y-3760920D01*
G03X5054613Y-3772154I27120J27120D01*
G01X5547839Y-3772154D01*
G01X5547839Y-3848204D01*
G01X5516911Y-3879131D01*
G01X5062495Y-3879131D01*
G03X5035375Y-3890365I0J-38354D01*
G01X4855770Y-4069970D01*
G03X4844536Y-4097091I27120J-27120D01*
G01X4844536Y-4257446D01*
G01X4744305Y-4257446D01*
G01X4744305Y-4239174D01*
G03X4718651Y-4213520I-25654J0D01*
G01X4672254Y-4213520D01*
G01X4672254Y-4171205D01*
G01X4690527Y-4171205D01*
G03X4716181Y-4145551I0J25654D01*
G01X4716181Y-4007849D01*
G03X4690527Y-3982195I-25654J0D01*
G01X4593636Y-3982195D01*
G01X4517085Y-3905645D01*
G01X4517085Y-3595454D01*
G01X4640600Y-3595454D01*
G03X4666254Y-3569800I0J25654D01*
G01X4666254Y-3389800D01*
G03X4640600Y-3364146I-25654J0D01*
G01X4460601Y-3364146D01*
G03X4434947Y-3389800I0J-25654D01*
G01X4434947Y-3506241D01*
G01X3919931Y-3506241D01*
G03X3892811Y-3517475I0J-38354D01*
G01X3678564Y-3731722D01*
G01X3581673Y-3731722D01*
G03X3556019Y-3757376I0J-25654D01*
G01X3556019Y-3848931D01*
G01X3498105Y-3848931D01*
G01X3498105Y-3831173D01*
G03X3472451Y-3805519I-25654J0D01*
G01X3334749Y-3805519D01*
G03X3309095Y-3831173I0J-25654D01*
G01X3309095Y-3848931D01*
G01X3246863Y-3848931D01*
G01X3246863Y-3830658D01*
G03X3221209Y-3805004I-25654J0D01*
G01X3124318Y-3805004D01*
G01X3046728Y-3727413D01*
G01X3087820Y-3686321D01*
G03X3099054Y-3659200I-27120J27120D01*
G01X3099054Y-3412661D01*
G01X3145700Y-3412661D01*
G03X3171354Y-3387007I0J25654D01*
G01X3171354Y-3377847D01*
G03X3173280Y-3379920I29046J25047D01*
G01X3249480Y-3456120D01*
G03X3276600Y-3467354I27120J27120D01*
G01X3860800Y-3467354D01*
G03X3887920Y-3456120I0J38354D01*
G01X3977723Y-3366318D01*
G03X3988957Y-3339197I-27120J27120D01*
G01X3988957Y-2821692D01*
G37*
%LPC*%
G36*
G01X5166253Y-3479800D02*
G03X4934946Y-3479800I-115654J0D01*
G03X5166253Y-3479800I115654J0D01*
G37*
%LPD*%
G36*
G01X3251454Y-2962294D02*
G01X3403346Y-2810402D01*
G01X3403346Y-3174982D01*
G03X3414580Y-3202103I38354J0D01*
G01X3468186Y-3255709D01*
G03X3502496Y-3390646I100514J-46273D01*
G01X3380904Y-3390646D01*
G03X3399313Y-3230674I-66204J88664D01*
G03X3238536Y-3221712I-84613J-71308D01*
G03X3231093Y-3202801I-38136J-4088D01*
G03X3251454Y-3108592I-17993J53193D01*
G01X3251454Y-2962294D01*
G37*
G36*
G01X3480054Y-2809869D02*
G01X3520492Y-2769431D01*
G03X3667332Y-2705123I48208J89723D01*
G03X3569857Y-2577860I-98632J25416D01*
G01X3569857Y-2364466D01*
G01X3592218Y-2342105D01*
G03X3648488Y-2299956I1882J56123D01*
G03X3619504Y-2235903I-54388J13974D01*
G03X3628156Y-2216692I-17002J19211D01*
G01X3628156Y-2126692D01*
G03X3602502Y-2101038I-25654J0D01*
G01X3522502Y-2101038D01*
G03X3496848Y-2126692I0J-25654D01*
G01X3496848Y-2216692D01*
G03X3522502Y-2242346I25654J0D01*
G01X3558756Y-2242346D01*
G03X3537977Y-2287864I35344J-43636D01*
G01X3504382Y-2321459D01*
G03X3493149Y-2348580I27120J-27120D01*
G01X3493149Y-2611398D01*
G03X3471452Y-2709990I75551J-68310D01*
G01X3460852Y-2720590D01*
G01X3460852Y-2242346D01*
G01X3462498Y-2242346D01*
G03X3488152Y-2216692I0J25654D01*
G01X3488152Y-2126692D01*
G03X3462498Y-2101038I-25654J0D01*
G01X3460852Y-2101038D01*
G01X3460852Y-2082757D01*
G01X3576142Y-2082757D01*
G03X3603263Y-2071523I0J38354D01*
G01X3606428Y-2068358D01*
G01X3628841Y-2068358D01*
G03X3640341Y-2065636I0J25654D01*
G03X3651841Y-2068358I11500J22932D01*
G01X3693839Y-2068358D01*
G03X3705339Y-2065636I0J25654D01*
G03X3716839Y-2068358I11500J22932D01*
G01X3735146Y-2068358D01*
G01X3735146Y-2077195D01*
G01X3716873Y-2077195D01*
G03X3691219Y-2102849I0J-25654D01*
G01X3691219Y-2240551D01*
G03X3716873Y-2266205I25654J0D01*
G01X3830127Y-2266205D01*
G03X3855781Y-2240551I0J25654D01*
G01X3855781Y-2135417D01*
G03X3891219Y-2144917I31460J46514D01*
G01X3891219Y-2240551D01*
G03X3916873Y-2266205I25654J0D01*
G01X4030127Y-2266205D01*
G03X4038346Y-2264852I0J25654D01*
G01X4038346Y-2397095D01*
G01X3852982Y-2582459D01*
G03X3726812Y-2645359I-30282J-97248D01*
G03X3784346Y-2774064I95888J-34349D01*
G01X3784346Y-3198188D01*
G03X3713187Y-3286135I38354J-103794D01*
G03X3756496Y-3390646I109513J-15847D01*
G01X3634904Y-3390646D01*
G03X3663812Y-3245432I-66204J88664D01*
G03X3522427Y-3201468I-95112J-56550D01*
G01X3480054Y-3159095D01*
G01X3480054Y-2809869D01*
G37*
G36*
G01X3604335Y-1880459D02*
G01X3606428Y-1878366D01*
G01X3628841Y-1878366D01*
G03X3640341Y-1875644I0J25654D01*
G03X3651841Y-1878366I11500J22932D01*
G01X3693839Y-1878366D01*
G03X3705339Y-1875644I0J25654D01*
G03X3716839Y-1878366I11500J22932D01*
G01X3739252Y-1878366D01*
G01X3883577Y-2022691D01*
G03X3910697Y-2033924I27120J27120D01*
G01X3971011Y-2033924D01*
G01X4014282Y-2077195D01*
G01X3942161Y-2077195D01*
G03X3887194Y-2032750I-54920J-11708D01*
G03X3832302Y-2077288I47J-56154D01*
G01X3830127Y-2077195D01*
G01X3811854Y-2077195D01*
G01X3811854Y-2048365D01*
G03X3800621Y-2021245I-38354J0D01*
G01X3784492Y-2005116D01*
G01X3784492Y-1982704D01*
G03X3758838Y-1957050I-25654J0D01*
G01X3716839Y-1957050D01*
G03X3705339Y-1959772I0J-25654D01*
G03X3693839Y-1957050I-11500J-22932D01*
G01X3660102Y-1957050D01*
G03X3604335Y-1880459I-52260J20546D01*
G37*
G36*
G01X4334330Y-2781497D02*
G03X4415414Y-2623158I-3630J101789D01*
G03X4238086Y-2637318I-84714J-56549D01*
G03X4230820Y-2627187I-34386J-16989D01*
G01X4141018Y-2537385D01*
G03X4113897Y-2526151I-27120J-27120D01*
G01X4039503Y-2526151D01*
G03X4012382Y-2537385I0J-38354D01*
G01X3951582Y-2598185D01*
G03X3945621Y-2598302I-1882J-56123D01*
G01X4103820Y-2440103D01*
G03X4115054Y-2412982I-27120J27120D01*
G01X4115054Y-2085373D01*
G03X4103820Y-2058253I-38354J0D01*
G01X4014018Y-1968450D01*
G03X3986897Y-1957216I-27120J-27120D01*
G01X3926584Y-1957216D01*
G01X3784492Y-1815124D01*
G01X3784492Y-1792712D01*
G03X3776193Y-1773819I-25654J0D01*
G01X3776193Y-1770917D01*
G01X3845364Y-1770917D01*
G01X3846252Y-1770902D01*
G03X3902008Y-1820445I55764J6611D01*
G03X3957778Y-1770917I8J56154D01*
G01X4045364Y-1770917D01*
G03X4071018Y-1745263I0J25654D01*
G01X4071018Y-1636066D01*
G01X4102749Y-1667797D01*
G01X4102749Y-1804310D01*
G03X4113982Y-1831431I38354J0D01*
G01X4863461Y-2580909D01*
G03X4740581Y-2707038I-24761J-98798D01*
G03X4910972Y-2751478I98119J27330D01*
G01X4910972Y-3044333D01*
G03X4922205Y-3071454I38354J0D01*
G01X4966518Y-3115766D01*
G01X4668600Y-3115766D01*
G01X4334330Y-2781497D01*
G37*
%LPC*%
G36*
G01X4584700Y-2781562D02*
G03X4584700Y-2577854I0J101854D01*
G03X4584700Y-2781562I0J-101854D01*
G37*
%LPD*%
G54D10*
G01X822448Y-1597708D02*
G01X848356Y-1597708D01*
G54D11*
G01X977900Y-1456527D02*
G01X977900Y-1430619D01*
G01X977900Y-1569273D02*
G01X977900Y-1595181D01*
G54D12*
G01X1046497Y-1512900D02*
G01X1072405Y-1512900D01*
G01X909303Y-1512900D02*
G01X883395Y-1512900D01*
G54D13*
G01X1354245Y-1638300D02*
G01X1328337Y-1638300D01*
G01X1502239Y-1638300D02*
G01X1528147Y-1638300D01*
G54D14*
G01X1428242Y-1552155D02*
G01X1428242Y-1526247D01*
G01X1428242Y-1724445D02*
G01X1428242Y-1750353D01*
G54D13*
G01X7140730Y-1143283D02*
G01X7166638Y-1143283D01*
G54D14*
G01X7066733Y-1229429D02*
G01X7066733Y-1255337D01*
G54D12*
G01X6173800Y-3589003D02*
G01X6173800Y-3563095D01*
G01X6173800Y-3726197D02*
G01X6173800Y-3752105D01*
G54D15*
G01X5938507Y-3317058D02*
G01X5938507Y-3291150D01*
G54D17*
G01X5983253Y-3381804D02*
G01X6009161Y-3381804D01*
G54D18*
G01X1310649Y-2066298D02*
G01X1336557Y-2066298D01*
G01X1147157Y-2066298D02*
G01X1121249Y-2066298D01*
G54D19*
G01X3672840Y-1982958D02*
G01X3672840Y-1957050D01*
G01X3672840Y-2042450D02*
G01X3672840Y-2068358D01*
G54D13*
G01X1981200Y-1747945D02*
G01X1981200Y-1722037D01*
G54D14*
G01X2067345Y-1821942D02*
G01X2093253Y-1821942D01*
G54D19*
G01X3672840Y-1852458D02*
G01X3672840Y-1878366D01*
G01X3672840Y-1792966D02*
G01X3672840Y-1767058D01*
G54D13*
G01X7886700Y-1900345D02*
G01X7886700Y-1874437D01*
G01X7886700Y-2048339D02*
G01X7886700Y-2074247D01*
G54D14*
G01X7972845Y-1974342D02*
G01X7998753Y-1974342D01*
G54D13*
G01X8153400Y-1900345D02*
G01X8153400Y-1874437D01*
G01X8153400Y-2048339D02*
G01X8153400Y-2074247D01*
G54D14*
G01X8239545Y-1974342D02*
G01X8265453Y-1974342D01*
G01X8067255Y-1974342D02*
G01X8041347Y-1974342D01*
G54D11*
G01X6823873Y-3124200D02*
G01X6849781Y-3124200D01*
G01X6711127Y-3124200D02*
G01X6685219Y-3124200D01*
G54D12*
G01X6767500Y-3192797D02*
G01X6767500Y-3218705D01*
G01X6767500Y-3055603D02*
G01X6767500Y-3029695D01*
G54D15*
G01X3192252Y-1993908D02*
G01X3166344Y-1993908D01*
G54D20*
G01X3231998Y-1949162D02*
G01X3231998Y-1923254D01*
G01X3231998Y-2038654D02*
G01X3231998Y-2064562D01*
G54D11*
G01X977900Y-2240727D02*
G01X977900Y-2214819D01*
G54D12*
G01X909303Y-2297100D02*
G01X883395Y-2297100D01*
G01X1046497Y-2297100D02*
G01X1072405Y-2297100D01*
G54D10*
G01X822448Y-2237687D02*
G01X848356Y-2237687D01*
G54D15*
G01X3602248Y-2171692D02*
G01X3628156Y-2171692D01*
G54D13*
G01X1612900Y-4598552D02*
G01X1612900Y-4624460D01*
G01X1612900Y-4450559D02*
G01X1612900Y-4424651D01*
G54D14*
G01X1699045Y-4524555D02*
G01X1724953Y-4524555D01*
G54D13*
G01X876300Y-4598552D02*
G01X876300Y-4624460D01*
G01X876300Y-4450559D02*
G01X876300Y-4424651D01*
G54D14*
G01X790155Y-4524555D02*
G01X764247Y-4524555D01*
G54D13*
G01X2146300Y-4598552D02*
G01X2146300Y-4624460D01*
G01X2146300Y-4450559D02*
G01X2146300Y-4424651D01*
G54D14*
G01X2060155Y-4524555D02*
G01X2034247Y-4524555D01*
G54D13*
G01X5286839Y-4521200D02*
G01X5312747Y-4521200D01*
G01X5138845Y-4521200D02*
G01X5112937Y-4521200D01*
G54D14*
G01X5212842Y-4607345D02*
G01X5212842Y-4633253D01*
G01X5212842Y-4435055D02*
G01X5212842Y-4409147D01*
G54D13*
G01X6203271Y-3187700D02*
G01X6229179Y-3187700D01*
G01X6055277Y-3187700D02*
G01X6029369Y-3187700D01*
G54D14*
G01X6129274Y-3273845D02*
G01X6129274Y-3299753D01*
G54D21*
G01X7452554Y-2871605D02*
G01X7426646Y-2871605D01*
G01X7698546Y-2871605D02*
G01X7724454Y-2871605D01*
G54D22*
G01X7575550Y-2819358D02*
G01X7575550Y-2793450D01*
G01X7575550Y-2923851D02*
G01X7575550Y-2949759D01*
G54D13*
G01X8153400Y-2900255D02*
G01X8153400Y-2926163D01*
G01X8153400Y-2752261D02*
G01X8153400Y-2726353D01*
G54D14*
G01X8067255Y-2826258D02*
G01X8041347Y-2826258D01*
G01X8239545Y-2826258D02*
G01X8265453Y-2826258D01*
G54D13*
G01X7886700Y-2900255D02*
G01X7886700Y-2926163D01*
G01X7886700Y-2752261D02*
G01X7886700Y-2726353D01*
G54D14*
G01X7800555Y-2826258D02*
G01X7774647Y-2826258D01*
G01X7972845Y-2826258D02*
G01X7998753Y-2826258D01*
G54D23*
G01X7685100Y-3927034D02*
G01X7685100Y-3952942D01*
G54D13*
G01X2908300Y-4598552D02*
G01X2908300Y-4624460D01*
G01X2908300Y-4450559D02*
G01X2908300Y-4424651D01*
G54D14*
G01X2822155Y-4524555D02*
G01X2796247Y-4524555D01*
G54D13*
G01X3650524Y-4598552D02*
G01X3650524Y-4624460D01*
G01X3650524Y-4450559D02*
G01X3650524Y-4424651D01*
G54D14*
G01X3564378Y-4524555D02*
G01X3538470Y-4524555D01*
G01X3736669Y-4524555D02*
G01X3762577Y-4524555D01*
G54D24*
G01X7277447Y-4260588D02*
G01X7303355Y-4260588D01*
G01X7152954Y-4260588D02*
G01X7127046Y-4260588D01*
G54D23*
G01X7215200Y-4295334D02*
G01X7215200Y-4321242D01*
G01X7215200Y-4225842D02*
G01X7215200Y-4199934D01*
G54D11*
G01X5076027Y-4279900D02*
G01X5050119Y-4279900D01*
G01X5188773Y-4279900D02*
G01X5214681Y-4279900D01*
G54D12*
G01X5132400Y-4211303D02*
G01X5132400Y-4185395D01*
G01X5132400Y-4348497D02*
G01X5132400Y-4374405D01*
G54D24*
G01X5753447Y-4260588D02*
G01X5779355Y-4260588D01*
G01X5628954Y-4260588D02*
G01X5603046Y-4260588D01*
G54D23*
G01X5691200Y-4295334D02*
G01X5691200Y-4321242D01*
G01X5691200Y-4225842D02*
G01X5691200Y-4199934D01*
G54D24*
G01X6528147Y-4235188D02*
G01X6554055Y-4235188D01*
G54D23*
G01X6465900Y-4269934D02*
G01X6465900Y-4295842D01*
G54D13*
G01X4060361Y-812800D02*
G01X4034453Y-812800D01*
G01X4208355Y-812800D02*
G01X4234263Y-812800D01*
G54D14*
G01X4134358Y-726655D02*
G01X4134358Y-700747D01*
G54D13*
G01X4971580Y-792409D02*
G01X4997488Y-792409D01*
G54D14*
G01X4897584Y-706264D02*
G01X4897584Y-680356D01*
G01X4897584Y-878554D02*
G01X4897584Y-904462D01*
G54D13*
G01X6459337Y-1143283D02*
G01X6433429Y-1143283D01*
G01X6607330Y-1143283D02*
G01X6633238Y-1143283D01*
G54D14*
G01X6533333Y-1057138D02*
G01X6533333Y-1031230D01*
G01X6533333Y-1229429D02*
G01X6533333Y-1255337D01*
G54D13*
G01X6459342Y-216183D02*
G01X6433434Y-216183D01*
G01X6607335Y-216183D02*
G01X6633243Y-216183D01*
G54D14*
G01X6533338Y-130038D02*
G01X6533338Y-104130D01*
G01X6533338Y-302329D02*
G01X6533338Y-328237D01*
G54D13*
G01X7459246Y-216183D02*
G01X7485154Y-216183D01*
G01X7311253Y-216183D02*
G01X7285345Y-216183D01*
G54D14*
G01X7385249Y-302329D02*
G01X7385249Y-328237D01*
G01X7385249Y-130038D02*
G01X7385249Y-104130D01*
G54D25*
G01X8813792Y-2849283D02*
G01X8813792Y-2823375D01*
G01X8813792Y-2948775D02*
G01X8813792Y-2974683D01*
G54D26*
G01X8883515Y-2899029D02*
G01X8909423Y-2899029D01*
G01X8744069Y-2899029D02*
G01X8718161Y-2899029D01*
G54D27*
G01X280693Y-1435948D02*
G01X280693Y-1410040D01*
G01X280693Y-1535440D02*
G01X280693Y-1561348D01*
G54D26*
G01X370439Y-1485694D02*
G01X396347Y-1485694D01*
G01X190947Y-1485694D02*
G01X165039Y-1485694D01*
G54D28*
G01X698701Y-1435948D02*
G01X698701Y-1410040D01*
G54D26*
G01X803446Y-1485694D02*
G01X829354Y-1485694D01*
G01X593955Y-1485694D02*
G01X568047Y-1485694D01*
G01X370439Y-2349701D02*
G01X396347Y-2349701D01*
G01X803446Y-2349701D02*
G01X829354Y-2349701D01*
G01X593955Y-2349701D02*
G01X568047Y-2349701D01*
G54D29*
G01X520700Y-1231654D02*
G01X520700Y-1257562D01*
G01X520700Y-1079762D02*
G01X520700Y-1053854D01*
G01X444754Y-1155708D02*
G01X418846Y-1155708D01*
G01X596646Y-1155708D02*
G01X622554Y-1155708D01*
G01X266700Y-1231654D02*
G01X266700Y-1257562D01*
G01X266700Y-1079762D02*
G01X266700Y-1053854D01*
G01X190754Y-1155708D02*
G01X164846Y-1155708D01*
G01X342646Y-1155708D02*
G01X368554Y-1155708D01*
G54D30*
G01X807745Y-508008D02*
G01X833653Y-508008D01*
G01X508000Y-807753D02*
G01X508000Y-833661D01*
G54D31*
G01X4186846Y-279408D02*
G01X4212754Y-279408D01*
G01X4102100Y-364153D02*
G01X4102100Y-390061D01*
G54D27*
G01X3086113Y-369146D02*
G01X3086113Y-395054D01*
G54D32*
G01X2531854Y-5765800D02*
G01X2505946Y-5765800D01*
G01X2751346Y-5765800D02*
G01X2777254Y-5765800D01*
G01X2641600Y-5656054D02*
G01X2641600Y-5630146D01*
G01X3547854Y-5765800D02*
G01X3521946Y-5765800D01*
G01X3767346Y-5765800D02*
G01X3793254Y-5765800D01*
G01X3657600Y-5656054D02*
G01X3657600Y-5630146D01*
G54D30*
G01X807745Y-5588008D02*
G01X833653Y-5588008D01*
G01X508000Y-5887753D02*
G01X508000Y-5913661D01*
G01X508000Y-5288262D02*
G01X508000Y-5262354D01*
G54D31*
G01X3314700Y-3217236D02*
G01X3314700Y-3191328D01*
G54D29*
G01X4838700Y-2755654D02*
G01X4838700Y-2781562D01*
G01X4762754Y-2679708D02*
G01X4736846Y-2679708D01*
G54D31*
G01X4950071Y-279408D02*
G01X4975979Y-279408D01*
G01X4865326Y-194662D02*
G01X4865326Y-168754D01*
G01X4865326Y-364153D02*
G01X4865326Y-390061D01*
G54D27*
G01X5140345Y-3479800D02*
G01X5166253Y-3479800D01*
G01X5050600Y-3569546D02*
G01X5050600Y-3595454D01*
G01X5050600Y-3390054D02*
G01X5050600Y-3364146D01*
G54D31*
G01X6269646Y-2019308D02*
G01X6295554Y-2019308D01*
G01X6184900Y-2104053D02*
G01X6184900Y-2129961D01*
G01X6184900Y-1934562D02*
G01X6184900Y-1908654D01*
G01X6269646Y-1765308D02*
G01X6295554Y-1765308D01*
G01X6184900Y-1850053D02*
G01X6184900Y-1875961D01*
G01X6184900Y-1680562D02*
G01X6184900Y-1654654D01*
G01X6269646Y-1511308D02*
G01X6295554Y-1511308D01*
G01X6184900Y-1596053D02*
G01X6184900Y-1621961D01*
G01X6184900Y-1426562D02*
G01X6184900Y-1400654D01*
G01X6269646Y-1257308D02*
G01X6295554Y-1257308D01*
G01X6184900Y-1342053D02*
G01X6184900Y-1367961D01*
G01X6184900Y-1172562D02*
G01X6184900Y-1146654D01*
G54D27*
G01X6959309Y-752837D02*
G01X6959309Y-778745D01*
G01X6959309Y-493345D02*
G01X6959309Y-467437D01*
G54D33*
G01X7808638Y-3390900D02*
G01X7834546Y-3390900D01*
G54D32*
G01X8788400Y-2100138D02*
G01X8788400Y-2074230D01*
G04 Copper End*

G04 Pad Start*
G54D34*
G01X8636000Y-508008D03*
G01X8636000Y-5588008D03*
G01X508000Y-5588008D03*
G01X508000Y-508008D03*
G54D35*
G01X1746758Y-1638300D03*
G01X1428242Y-1638300D03*
G54D36*
G01X1981200Y-2140458D03*
G01X1981200Y-1821942D03*
G54D37*
G01X977900Y-2097100D03*
G01X977900Y-2297100D03*
G54D38*
G01X977900Y-1712900D03*
G01X977900Y-1512900D03*
G54D39*
G01X1228903Y-1866298D03*
G01X1228903Y-1966298D03*
G01X1228903Y-2066298D03*
G01X1228903Y-2166295D03*
G01X1228903Y-2266295D03*
G01X1742897Y-2266295D03*
G01X1742897Y-2166295D03*
G01X1742897Y-2066298D03*
G01X1742897Y-1966298D03*
G01X1742897Y-1866298D03*
G54D40*
G01X1485900Y-2066298D03*
G54D41*
G01X760702Y-2237687D03*
G01X760702Y-2157702D03*
G54D42*
G01X760702Y-2092703D03*
G01X760702Y-2042691D03*
G01X760702Y-1992704D03*
G01X760702Y-1942691D03*
G01X760702Y-1892704D03*
G01X760702Y-1842691D03*
G01X760702Y-1792704D03*
G01X760702Y-1742691D03*
G54D41*
G01X760702Y-1677693D03*
G01X760702Y-1597708D03*
G54D43*
G01X698701Y-1485694D03*
G54D44*
G01X280693Y-1485694D03*
G01X280693Y-2349701D03*
G54D43*
G01X698701Y-2349701D03*
G54D45*
G01X8788400Y-1701884D03*
G01X8788400Y-2209884D03*
G01X8801100Y-3365584D03*
G01X8801100Y-3873584D03*
G54D46*
G01X3060700Y-3302008D03*
G54D47*
G01X3314700Y-3301982D03*
G01X3568700Y-3301982D03*
G01X3822700Y-3301982D03*
G54D48*
G01X3372002Y-1993908D03*
G01X3231998Y-1993908D03*
G54D49*
G01X3422498Y-2171692D03*
G01X3562502Y-2171692D03*
G54D50*
G01X3973500Y-2171700D03*
G01X3773500Y-2171700D03*
G54D51*
G01X3356938Y-1676413D03*
G01X3556937Y-1676413D03*
G54D50*
G01X3988737Y-1676413D03*
G01X3788738Y-1676413D03*
G54D52*
G01X3607841Y-2012704D03*
G01X3672840Y-2012704D03*
G01X3737839Y-2012704D03*
G54D53*
G01X3737839Y-1822712D03*
G01X3672840Y-1822712D03*
G01X3607841Y-1822712D03*
G54D54*
G01X6184900Y-1257308D03*
G54D47*
G01X5930900Y-1257308D03*
G01X5676900Y-1257308D03*
G54D54*
G01X6184900Y-2019308D03*
G54D47*
G01X5930900Y-2019308D03*
G01X5676900Y-2019308D03*
G54D54*
G01X6184900Y-1511308D03*
G54D47*
G01X5930900Y-1511308D03*
G01X5676900Y-1511308D03*
G54D54*
G01X6184900Y-1765308D03*
G54D47*
G01X5930900Y-1765308D03*
G01X5676900Y-1765308D03*
G54D55*
G01X7645408Y-5533771D03*
G01X7645408Y-5743829D03*
G54D37*
G01X7416800Y-5554701D03*
G01X7416800Y-5754700D03*
G54D35*
G01X6851849Y-1143283D03*
G01X6533333Y-1143283D03*
G54D56*
G01X7066733Y-216183D03*
G01X7385249Y-216183D03*
G54D35*
G01X7385249Y-1143283D03*
G01X7066733Y-1143283D03*
G01X6851854Y-216183D03*
G01X6533338Y-216183D03*
G54D57*
G01X6959309Y-623091D03*
G01X6705284Y-622101D03*
G54D58*
G01X7213309Y-623091D03*
G54D59*
G01X7454892Y-3390900D03*
G01X7708892Y-3390900D03*
G54D60*
G01X7200892Y-3390900D03*
G54D35*
G01X4134358Y-812800D03*
G01X3815842Y-812800D03*
G54D51*
G01X3837000Y-1422400D03*
G01X4037000Y-1422400D03*
G54D47*
G01X3848100Y-279408D03*
G01X4102100Y-279408D03*
G54D61*
G01X8813792Y-2899029D03*
G01X8813792Y-2688971D03*
G54D36*
G01X8153400Y-2292858D03*
G01X8153400Y-1974342D03*
G54D62*
G01X8153400Y-2507742D03*
G01X8153400Y-2826258D03*
G54D36*
G01X7886700Y-2292858D03*
G01X7886700Y-1974342D03*
G54D62*
G01X7886700Y-2507742D03*
G01X7886700Y-2826258D03*
G54D51*
G01X8409000Y-2730500D03*
G01X8609000Y-2730500D03*
G54D63*
G01X7575550Y-2871605D03*
G01X7575550Y-2641608D03*
G01X7575550Y-2411611D03*
G54D64*
G01X7004050Y-2641608D03*
G54D65*
G01X1117600Y-4927600D03*
G54D66*
G01X1371600Y-4927600D03*
G01X1625600Y-4927600D03*
G01X1879600Y-4927600D03*
G01X2133600Y-4927600D03*
G01X2387600Y-4927600D03*
G01X2641600Y-4927600D03*
G54D65*
G01X3124200Y-4927600D03*
G54D66*
G01X3378200Y-4927600D03*
G01X3632200Y-4927600D03*
G01X3886200Y-4927600D03*
G01X4140200Y-4927600D03*
G01X4394200Y-4927600D03*
G01X4648200Y-4927600D03*
G54D62*
G01X2146300Y-4206039D03*
G01X2146300Y-4524555D03*
G01X876300Y-4206039D03*
G01X876300Y-4524555D03*
G01X1612900Y-4206039D03*
G01X1612900Y-4524555D03*
G01X2908300Y-4206039D03*
G01X2908300Y-4524555D03*
G01X3650524Y-4206039D03*
G01X3650524Y-4524555D03*
G54D56*
G01X4894326Y-4521200D03*
G01X5212842Y-4521200D03*
G54D61*
G01X2387592Y-4499229D03*
G01X2387592Y-4289171D03*
G01X1117592Y-4499229D03*
G01X1117592Y-4289171D03*
G01X1371592Y-4499229D03*
G01X1371592Y-4289171D03*
G01X3149592Y-4499229D03*
G01X3149592Y-4289171D03*
G01X3403592Y-4499229D03*
G01X3403592Y-4289171D03*
G01X4419592Y-4499229D03*
G01X4419592Y-4289171D03*
G54D37*
G01X2146300Y-3808400D03*
G01X2146300Y-4008399D03*
G01X876300Y-3807554D03*
G01X876300Y-4007554D03*
G01X1612900Y-3807554D03*
G01X1612900Y-4007554D03*
G01X2908300Y-3811600D03*
G01X2908300Y-4011600D03*
G01X3650524Y-3814003D03*
G01X3650524Y-4014003D03*
G01X4649800Y-4295800D03*
G01X4649800Y-4495800D03*
G54D45*
G01X2641600Y-5765800D03*
G01X2133600Y-5765800D03*
G01X3657600Y-5765800D03*
G01X3149600Y-5765800D03*
G54D67*
G01X3336100Y-279400D03*
G01X3086113Y-279400D03*
G54D68*
G01X2836101Y-279400D03*
G54D56*
G01X3179826Y-812800D03*
G01X3498342Y-812800D03*
G54D50*
G01X2832100Y-811200D03*
G01X2632100Y-811200D03*
G54D67*
G01X5050600Y-3479800D03*
G01X4800613Y-3479800D03*
G54D68*
G01X4550601Y-3479800D03*
G54D35*
G01X4897584Y-792409D03*
G01X4579068Y-792409D03*
G54D50*
G01X4418000Y-1422400D03*
G01X4218000Y-1422400D03*
G54D47*
G01X4611326Y-279408D03*
G01X4865326Y-279408D03*
G54D69*
G01X7298398Y-4483100D03*
G01X7738402Y-4483100D03*
G54D47*
G01X6629400Y-4914908D03*
G01X6883400Y-4914908D03*
G01X5867400Y-4914908D03*
G01X6121400Y-4914908D03*
G54D55*
G01X6883408Y-5533771D03*
G01X6883408Y-5743829D03*
G01X6121408Y-5533771D03*
G01X6121408Y-5743829D03*
G54D70*
G01X7215200Y-4070596D03*
G01X7215200Y-4260588D03*
G01X7415200Y-4165592D03*
G54D37*
G01X6654800Y-5554701D03*
G01X6654800Y-5754700D03*
G01X5892800Y-5554701D03*
G01X5892800Y-5754700D03*
G54D69*
G01X6536398Y-4483100D03*
G01X6976402Y-4483100D03*
G01X5774398Y-4495800D03*
G01X6214402Y-4495800D03*
G54D47*
G01X7391400Y-4914908D03*
G01X7645400Y-4914908D03*
G54D70*
G01X6465900Y-4045196D03*
G01X6465900Y-4235188D03*
G01X6665900Y-4140192D03*
G01X5691200Y-4070596D03*
G01X5691200Y-4260588D03*
G01X5891200Y-4165592D03*
G54D71*
G01X5092700Y-2679708D03*
G01X4838700Y-2679708D03*
G01X4584700Y-2679708D03*
G01X4330700Y-2679708D03*
G01X4076700Y-2679708D03*
G01X3822700Y-2679708D03*
G01X3568700Y-2679708D03*
G01X3314700Y-2679708D03*
G01X3060700Y-2679708D03*
G01X2806700Y-2679708D03*
G01X2552700Y-2679708D03*
G01X2298700Y-2679708D03*
G01X2044700Y-2679708D03*
G01X1790700Y-2679708D03*
G01X1536700Y-2679708D03*
G01X1282700Y-2679708D03*
G01X1028700Y-2679708D03*
G01X774700Y-2679708D03*
G01X520700Y-2679708D03*
G01X266700Y-2679708D03*
G01X266700Y-1155708D03*
G01X520700Y-1155708D03*
G01X774700Y-1155708D03*
G01X1028700Y-1155708D03*
G01X1282700Y-1155708D03*
G01X1536700Y-1155708D03*
G01X1790700Y-1155708D03*
G01X2044700Y-1155708D03*
G01X2298700Y-1155708D03*
G01X2552700Y-1155708D03*
G01X2806700Y-1155708D03*
G01X3060700Y-1155708D03*
G01X3314700Y-1155708D03*
G01X3568700Y-1155708D03*
G01X3822700Y-1155708D03*
G01X4076700Y-1155708D03*
G01X4330700Y-1155708D03*
G01X4584700Y-1155708D03*
G01X4838700Y-1155708D03*
G01X5092700Y-1155708D03*
G54D72*
G01X8204200Y-3412193D03*
G01X8204200Y-3852197D03*
G54D55*
G01X8194929Y-4133334D03*
G01X8194929Y-4343392D03*
G54D70*
G01X7685100Y-3702296D03*
G01X7685100Y-3892288D03*
G01X7885100Y-3797292D03*
G54D38*
G01X6375400Y-3297022D03*
G01X6375400Y-3103778D03*
G54D50*
G01X6599022Y-3860800D03*
G01X6405778Y-3860800D03*
G01X6373800Y-3657600D03*
G01X6173800Y-3657600D03*
G01X5525800Y-4066682D03*
G01X5332557Y-4066682D03*
G01X5332400Y-4279900D03*
G01X5132400Y-4279900D03*
G54D51*
G01X8437601Y-4343400D03*
G01X8637600Y-4343400D03*
G01X7659700Y-4089400D03*
G01X7859700Y-4089400D03*
G54D50*
G01X7449922Y-3810000D03*
G01X7256678Y-3810000D03*
G54D38*
G01X6970700Y-4010000D03*
G01X6970700Y-3810000D03*
G54D51*
G01X6567500Y-3124200D03*
G01X6767500Y-3124200D03*
G54D46*
G01X1790700Y-3302000D03*
G54D47*
G01X2044700Y-3302000D03*
G01X2298700Y-3302000D03*
G01X2552700Y-3302000D03*
G54D56*
G01X5810758Y-3187700D03*
G01X6129274Y-3187700D03*
G54D73*
G01X5938507Y-3831791D03*
G01X5618493Y-3831791D03*
G01X5618493Y-3381804D03*
G01X5938507Y-3381804D03*
G54D70*
G01X5475300Y-2787904D03*
G01X5475300Y-2977896D03*
G01X5675300Y-2882900D03*
G54D38*
G01X2387600Y-4087800D03*
G01X2387600Y-3887800D03*
G01X1118997Y-4088884D03*
G01X1118997Y-3888885D03*
G01X1372997Y-4085684D03*
G01X1372997Y-3885684D03*
G01X3152358Y-4087284D03*
G01X3152358Y-3887285D03*
G01X3403600Y-4087800D03*
G01X3403600Y-3887800D03*
G54D51*
G01X4433900Y-4076700D03*
G01X4633900Y-4076700D03*
G01X5077772Y-2998902D03*
G01X5277772Y-2998902D03*
G54D50*
G01X5597500Y-3202000D03*
G01X5397500Y-3202000D03*
G54D38*
G01X5417480Y-3601143D03*
G01X5417480Y-3401144D03*
G54D74*
G01X2043227Y-2970839D03*
G54D75*
G01X2043227Y-3061009D03*
G54D74*
G01X2303031Y-2970839D03*
G54D75*
G01X2303031Y-3061009D03*
G04 Pad End*

G04 Via Start*
G54D76*
G01X7113600Y-3968996D03*
G01X6859600Y-3714996D03*
G01X8674100Y-4127584D03*
G01X7391408Y-5203571D03*
G01X7315208Y-4813315D03*
G01X2645826Y-4696374D03*
G01X3213100Y-3149608D03*
G01X3607841Y-1936504D03*
G01X3887241Y-2088904D03*
G01X3444816Y-1637291D03*
G01X3902016Y-1764291D03*
G01X6140958Y-2959100D03*
G01X6318758Y-2781300D03*
G01X6805284Y-422101D03*
G01X3166301Y-609600D03*
G01X1101903Y-1866298D03*
G01X898703Y-1993298D03*
G01X2489200Y-3733800D03*
G01X2022623Y-3884723D03*
G01X2378223Y-3427523D03*
G01X3650524Y-4346755D03*
G01X2890944Y-3106826D03*
G01X3500544Y-2827426D03*
G01X4483100Y-330208D03*
G01X4806950Y-482608D03*
G01X3983144Y-2414676D03*
G01X7615983Y-3961406D03*
G01X8784971Y-2797429D03*
G01X8686800Y-2108284D03*
G01X2362200Y-3657600D03*
G01X7099300Y-3797308D03*
G01X6286500Y-3644908D03*
G01X1866900Y-2501908D03*
G01X5016500Y-4051308D03*
G01X3949700Y-2654308D03*
G01X3644900Y-749308D03*
G01X3416300Y-647708D03*
G01X2984500Y-800108D03*
G01X4813300Y-952508D03*
G01X4559300Y-2019308D03*
G01X3594100Y-2285982D03*
G01X3517900Y-1930382D03*
G01X3994868Y-957509D03*
G01X3815842Y-685800D03*
G01X3358642Y-812800D03*
G04 Via End*

G04 Track Start*
G54D77*
G01X1117592Y-4289171D02*
G01X1117592Y-4090289D01*
G01X1118997Y-4088884D01*
G01X1371592Y-4289171D02*
G01X1371592Y-4087089D01*
G01X1372997Y-4085684D01*
G01X3149592Y-4289171D02*
G01X3149592Y-4090050D01*
G01X3152358Y-4087284D01*
G01X3403592Y-4289171D02*
G01X3403592Y-4087807D01*
G01X2387592Y-4289171D02*
G01X2387592Y-4087807D01*
G01X4419592Y-4289171D02*
G01X4419592Y-4091008D01*
G01X4433900Y-4076700D01*
G01X7215200Y-4070596D02*
G01X7113600Y-3968996D01*
G01X6859600Y-3714996D02*
G01X6793375Y-3714996D01*
G01X6375400Y-3297022D01*
G01X7645408Y-5743829D02*
G01X7605928Y-5743829D01*
G01X7416800Y-5554701D01*
G01X6465900Y-4045196D02*
G01X6465900Y-3993921D01*
G01X6599022Y-3860800D01*
G01X6883408Y-5743829D02*
G01X6843928Y-5743829D01*
G01X6654800Y-5554701D01*
G01X5691200Y-4070596D02*
G01X5529715Y-4070596D01*
G01X5525800Y-4066682D01*
G01X6121408Y-5743829D02*
G01X6081928Y-5743829D01*
G01X5892800Y-5554701D01*
G01X8801100Y-3365584D02*
G01X8250809Y-3365584D01*
G01X8204200Y-3412193D01*
G01X8674100Y-4127584D02*
G01X8200680Y-4127584D01*
G01X8194929Y-4133334D01*
G01X8204200Y-3412193D02*
G01X8026400Y-3234393D01*
G01X7611400Y-3234393D01*
G01X7454892Y-3390900D01*
G01X8813792Y-2688971D02*
G01X8650529Y-2688971D01*
G01X8609000Y-2730500D01*
G01X3773500Y-2171700D02*
G01X3773500Y-2048365D01*
G01X3737839Y-2012704D01*
G01X1746758Y-1638300D02*
G01X1746758Y-1862437D01*
G01X1742897Y-1866298D01*
G01X977900Y-2097100D02*
G01X765099Y-2097100D01*
G01X760702Y-2092703D01*
G01X977900Y-1712900D02*
G01X898096Y-1792704D01*
G01X760702Y-1792704D01*
G01X7645408Y-5533771D02*
G01X7645408Y-5457571D01*
G01X7391408Y-5203571D01*
G01X7315208Y-4813315D02*
G01X7315208Y-4499910D01*
G01X7301737Y-4486439D02*
G01X7391540Y-4396637D01*
G01X7391540Y-4189252D01*
G01X7415200Y-4165592D01*
G01X6629400Y-4576102D02*
G01X6536398Y-4483100D01*
G01X6358598Y-4305300D01*
G01X6358598Y-4203700D01*
G01X6422106Y-4140192D01*
G01X6665900Y-4140192D01*
G01X6629400Y-5279763D02*
G01X6883408Y-5533771D01*
G01X5867400Y-4588802D02*
G01X5774398Y-4495800D01*
G01X5864200Y-4405998D01*
G01X5864200Y-4192592D01*
G01X5891200Y-4165592D01*
G01X5867400Y-5279763D02*
G01X6121408Y-5533771D01*
G01X7685100Y-3702296D02*
G01X7557625Y-3702296D01*
G01X7449922Y-3810000D01*
G01X8194929Y-4343392D02*
G01X8437593Y-4343392D01*
G01X7200892Y-3390900D02*
G01X7200892Y-3579807D01*
G01X7196402Y-3584298D02*
G01X7704402Y-3584298D01*
G01X7794205Y-3674100D01*
G01X7794205Y-3706397D01*
G01X7885100Y-3797292D01*
G01X2044700Y-2679708D02*
G01X2044700Y-2958062D01*
G01X2043227Y-2959536D01*
G01X2298700Y-2679708D02*
G01X2298700Y-2955205D01*
G01X2303031Y-2959536D01*
G01X4800613Y-3479800D02*
G01X5054613Y-3733800D01*
G01X5840517Y-3733800D01*
G01X5938507Y-3831791D01*
G01X5675300Y-2882900D02*
G01X5675300Y-2924200D01*
G01X5405892Y-3193608D02*
G01X5405892Y-3389556D01*
G01X5417480Y-3401144D01*
G01X5618493Y-3381804D02*
G01X5618493Y-3400130D01*
G01X5417480Y-3601143D01*
G54D78*
G01X8788400Y-1701884D02*
G01X8988400Y-1901884D01*
G01X8988400Y-2292858D01*
G01X8788400Y-2492858D02*
G01X8588400Y-2292858D01*
G01X8153400Y-2292858D01*
G01X7886700Y-2292858D01*
G54D79*
G01X7886700Y-2292858D02*
G01X7694303Y-2292858D01*
G01X7575550Y-2411611D01*
G54D78*
G01X7694303Y-2292858D02*
G01X7694303Y-1452336D01*
G01X7385249Y-1143283D01*
G01X7185249Y-943283D02*
G01X6985249Y-943283D01*
G01X6851849Y-1076683D01*
G01X6851849Y-1143283D01*
G01X7190795Y-948829D02*
G01X7190795Y-645606D01*
G01X7213309Y-623091D01*
G01X8829301Y-2451957D02*
G01X9029301Y-2651957D01*
G01X9029301Y-3645383D01*
G01X8801100Y-3873584D01*
G01X8801100Y-4179900D01*
G01X8637600Y-4343400D01*
G01X8801100Y-3873584D02*
G01X8225587Y-3873584D01*
G01X8204200Y-3852197D01*
G01X8096903Y-3852197D01*
G01X7859700Y-4089400D01*
G01X7859700Y-4361802D01*
G01X7738402Y-4483100D01*
G01X7738402Y-4821906D01*
G01X6884332Y-4915840D02*
G01X6884332Y-4575170D01*
G01X6976402Y-4483100D01*
G01X6976402Y-4015702D01*
G01X6970700Y-4010000D01*
G01X7267691Y-5092616D02*
G01X7267691Y-5692617D01*
G01X7354717Y-5692617D01*
G01X7416800Y-5754700D01*
G01X7267691Y-5692617D02*
G01X7067691Y-5892617D01*
G01X6792717Y-5892617D01*
G01X6654800Y-5754700D01*
G01X6554800Y-5754700D01*
G01X6354800Y-4636198D02*
G01X6214402Y-4495800D01*
G01X6354800Y-4904700D02*
G01X6131608Y-4904700D01*
G01X6121400Y-4914908D01*
G01X6484089Y-5683989D02*
G01X6284089Y-5883990D01*
G01X6022089Y-5883990D01*
G01X5892800Y-5754700D01*
G01X5681700Y-5965800D01*
G01X3349600Y-5965800D01*
G01X3155146Y-5771346D02*
G01X2955145Y-5971346D01*
G01X2339146Y-5971346D01*
G01X2133600Y-5765800D01*
G54D77*
G01X4208450Y-1422400D02*
G01X4310050Y-1524000D01*
G01X4487850Y-1524000D01*
G01X4734242Y-1277608D01*
G01X4734242Y-229743D01*
G01X4665650Y-161150D01*
G01X3454349Y-161150D01*
G01X3337606Y-277894D02*
G01X3210606Y-150894D01*
G01X2733607Y-150894D01*
G01X2581207Y-303294D01*
G01X2581207Y-760306D01*
G01X4487850Y-1524000D02*
G01X4487850Y-2074857D01*
G01X5092700Y-2679708D01*
G01X5092700Y-2983974D02*
G01X5077772Y-2998902D01*
G01X5092700Y-2787658D02*
G01X5475054Y-2787658D01*
G01X2599167Y-778266D02*
G01X1152141Y-778266D01*
G01X774700Y-1155708D01*
G01X3060700Y-3302008D02*
G01X3060700Y-3659200D01*
G01X2993348Y-3726552D02*
G01X2993348Y-3728274D01*
G01X3152358Y-3887285D01*
G01X3577242Y-3887285D02*
G01X3650524Y-3814003D01*
G01X2391694Y-3883706D02*
G01X2221607Y-3883706D01*
G01X1617211Y-3811865D02*
G01X1612900Y-3807554D01*
G01X1124175Y-3883706D02*
G01X1118997Y-3888885D01*
G01X952453Y-3883706D02*
G01X876300Y-3807554D01*
G01X1787815Y-3811865D02*
G01X1787815Y-3304885D01*
G01X1790700Y-3302000D01*
G01X3650524Y-3814003D02*
G01X3919931Y-3544595D01*
G01X4485805Y-3544595D02*
G01X4550601Y-3479800D01*
G01X4478731Y-3544595D02*
G01X4478731Y-3921531D01*
G01X4633900Y-4076700D01*
G01X4633900Y-4279900D01*
G01X4649800Y-4295800D01*
G01X4878400Y-4295800D01*
G01X5005400Y-4422800D02*
G01X5005400Y-4621200D01*
G01X4915598Y-4711002D01*
G01X4864798Y-4711002D01*
G01X4648200Y-4927600D01*
G01X4882890Y-4300291D02*
G01X4882890Y-4097091D01*
G01X5062495Y-3917485D01*
G01X5532798Y-3917485D01*
G01X5618493Y-3831791D01*
G01X5720093Y-3933391D01*
G01X5999493Y-3933391D01*
G01X6024893Y-3907991D01*
G01X6024893Y-3629393D01*
G01X5597500Y-3202000D01*
G01X5697113Y-3301345D02*
G01X5810758Y-3187700D01*
G01X2645826Y-3807374D02*
G01X2645826Y-4696374D01*
G01X3213100Y-3149608D02*
G01X3213100Y-2946408D01*
G01X3422498Y-2737010D01*
G01X3422498Y-2171692D01*
G01X3422498Y-2044403D01*
G01X3576142Y-2044403D01*
G01X3607841Y-2012704D01*
G01X3377596Y-1999501D02*
G01X3377596Y-1697071D01*
G01X3607841Y-2012704D02*
G01X3607841Y-1936504D01*
G01X3887241Y-2088904D02*
G01X3890703Y-2088904D01*
G01X3973500Y-2171700D01*
G01X3368616Y-1688091D02*
G01X3394016Y-1688091D01*
G01X3444816Y-1637291D01*
G01X3902016Y-1764291D02*
G01X3902016Y-1763134D01*
G01X3988737Y-1676413D01*
G01X5810758Y-3187700D02*
G01X5912358Y-3187700D01*
G01X6140958Y-2959100D01*
G01X6318758Y-2781300D02*
G01X6864358Y-2781300D01*
G01X7004050Y-2641608D01*
G01X7575550Y-2641608D01*
G01X7752834Y-2641608D01*
G01X7886700Y-2507742D01*
G01X8153400Y-2507742D01*
G01X8186242Y-2507742D01*
G01X8409000Y-2730500D01*
G54D78*
G01X6805284Y-422101D02*
G01X6805284Y-262754D01*
G01X6851854Y-216183D01*
G01X7066733Y-216183D01*
G54D77*
G01X2836101Y-279400D02*
G01X2836101Y-807199D01*
G01X2832100Y-811200D01*
G01X3166301Y-609600D02*
G01X3295142Y-609600D01*
G01X3498342Y-812800D01*
G01X3677947Y-992405D01*
G01X3913398Y-992405D01*
G01X4076700Y-1155708D01*
G01X1228903Y-1966298D02*
G01X974903Y-1966298D01*
G01X924103Y-1915498D01*
G01X873303Y-1915498D02*
G01X846110Y-1942691D01*
G01X760702Y-1942691D01*
G01X886003Y-1915498D02*
G01X886003Y-1890098D01*
G01X838596Y-1842691D01*
G01X760702Y-1842691D01*
G01X1228903Y-1866298D02*
G01X1101903Y-1866298D01*
G01X898703Y-1993298D02*
G01X684744Y-1993298D01*
G01X670103Y-1978657D01*
G01X670103Y-1907345D01*
G01X684744Y-1892704D01*
G01X760702Y-1892704D01*
G01X1117600Y-4927600D02*
G01X1117600Y-4499237D01*
G01X937995Y-4319631D01*
G01X937995Y-4267734D01*
G01X879623Y-4209363D02*
G01X879623Y-4010877D01*
G01X700018Y-3831272D01*
G01X700018Y-3113026D01*
G01X266700Y-2679708D01*
G01X1371600Y-4927600D02*
G01X1371600Y-4499237D01*
G01X1551205Y-4319631D01*
G01X1551205Y-4267734D01*
G01X1612900Y-4206039D01*
G01X1612900Y-4007554D01*
G01X3124200Y-4927600D02*
G01X3124200Y-4524621D01*
G01X3149592Y-4499229D01*
G01X2969987Y-4319624D01*
G01X2969987Y-4267727D01*
G01X2911616Y-4209355D02*
G01X2911616Y-4014916D01*
G01X2908300Y-4011600D01*
G01X3378200Y-4927600D02*
G01X3378200Y-4524621D01*
G01X3403592Y-4499229D01*
G01X3403592Y-4452971D01*
G01X3650524Y-4206039D01*
G01X3650524Y-4014003D01*
G01X2489200Y-3733800D02*
G01X2311400Y-3733800D01*
G01X1905000Y-3327400D01*
G01X1905000Y-3200400D01*
G01X1815198Y-3110598D01*
G01X1459590Y-3110598D01*
G01X1028700Y-2679708D01*
G01X2387600Y-4927600D02*
G01X2387600Y-4499237D01*
G01X2207995Y-4319631D01*
G01X2207995Y-4267734D01*
G01X2149623Y-4209363D02*
G01X2149623Y-4011723D01*
G01X2022623Y-3884723D01*
G01X2378223Y-3427523D02*
G01X2429023Y-3376723D01*
G01X2429023Y-3260584D01*
G01X2518826Y-3170782D01*
G01X2569626Y-3170782D01*
G01X3060700Y-2679708D01*
G01X4394200Y-4927600D02*
G01X4394200Y-4524621D01*
G01X4419592Y-4499229D01*
G01X4646371Y-4499229D01*
G01X4649800Y-4495800D01*
G01X4868926Y-4495800D01*
G01X4894326Y-4521200D01*
G01X508000Y-5588008D02*
G01X508000Y-4892855D01*
G01X692095Y-4708760D02*
G01X1022295Y-5038960D01*
G01X1428695Y-5038960D01*
G01X1504895Y-4962760D01*
G01X1504895Y-4632560D01*
G01X1612900Y-4524555D01*
G01X2146300Y-4524555D01*
G01X2273300Y-4651555D01*
G01X2273300Y-4981755D01*
G01X2349500Y-5057955D01*
G01X2425700Y-5057955D02*
G01X2515502Y-4968153D01*
G01X2515502Y-4891953D01*
G01X2605305Y-4802150D01*
G01X2630705Y-4802150D01*
G01X2419350Y-5057955D02*
G01X2419350Y-5543550D01*
G01X2641600Y-5765800D01*
G01X2724998Y-4707857D02*
G01X2724998Y-4733257D01*
G01X3029798Y-5038057D01*
G01X3436198Y-5038057D01*
G01X3512398Y-4961857D02*
G01X3512398Y-4662681D01*
G01X3650524Y-4524555D01*
G01X3440688Y-5033567D02*
G01X3440688Y-5548888D01*
G01X3657600Y-5765800D01*
G01X3650524Y-4524555D02*
G01X3650524Y-4346755D01*
G01X2890944Y-3106826D02*
G01X2747874Y-3106826D01*
G01X2552700Y-3302000D01*
G01X3500544Y-2827426D02*
G01X3576744Y-2827426D01*
G01X3678344Y-2725826D01*
G01X3678344Y-2287534D02*
G01X3562502Y-2171692D01*
G01X3672840Y-2061355D01*
G01X3672840Y-2012704D01*
G01X3672840Y-1625354D02*
G01X3622040Y-1574554D01*
G01X3291840Y-1574554D01*
G01X3231998Y-1634396D02*
G01X3231998Y-1993908D01*
G01X3237958Y-1628435D02*
G01X3110958Y-1628435D01*
G01X2679158Y-1196635D02*
G01X2679158Y-1120435D01*
G01X2768961Y-1030633D01*
G01X2961993Y-1030633D01*
G01X3179826Y-812800D01*
G01X3090024Y-722998D01*
G01X3090024Y-283311D02*
G01X3086113Y-279400D01*
G01X3090024Y-532498D02*
G01X3854056Y-532498D01*
G01X3876506Y-554948D02*
G01X3876506Y-505002D01*
G01X4102100Y-279408D01*
G01X4432300Y-279408D01*
G01X4483100Y-330208D01*
G01X4806950Y-482608D02*
G01X4806950Y-701775D01*
G01X4897584Y-792409D01*
G01X2702357Y-1219833D02*
G01X2612554Y-1309636D01*
G01X2493506Y-1309636D01*
G01X2031023Y-1772119D02*
G01X2031023Y-1721319D01*
G01X1827823Y-1518119D01*
G01X1548423Y-1518119D01*
G01X978629Y-1513629D02*
G01X844781Y-1513629D01*
G01X786410Y-1572001D02*
G01X785007Y-1572001D01*
G01X704185Y-1491178D02*
G01X704185Y-1339192D01*
G01X270580Y-1159587D02*
G01X266700Y-1155708D01*
G01X270580Y-1159587D02*
G01X270580Y-1475581D01*
G01X280693Y-1485694D01*
G01X1291979Y-1634863D02*
G01X1342779Y-1685663D01*
G01X1342779Y-2015863D01*
G01X1292344Y-2066298D01*
G01X1158994Y-2066298D02*
G01X1082794Y-2142498D01*
G01X1082794Y-2192205D01*
G01X979522Y-2295478D02*
G01X818494Y-2295478D01*
G01X782573Y-2259557D02*
G01X782573Y-2265829D01*
G01X698701Y-2349701D01*
G01X280693Y-2349701D01*
G01X480130Y-1159587D02*
G01X480130Y-535878D01*
G01X508000Y-508008D01*
G01X3678344Y-2414676D02*
G01X3983144Y-2414676D01*
G01X3476609Y-4997646D02*
G01X3527409Y-5048446D01*
G01X4694054Y-5048446D01*
G01X5053264Y-4689236D01*
G01X5053264Y-4359036D02*
G01X5132400Y-4279900D01*
G01X5053264Y-4517786D02*
G01X5209428Y-4517786D01*
G01X5212842Y-4521200D01*
G01X5430589Y-4521200D01*
G01X5691200Y-4260588D01*
G01X5691200Y-4209788D01*
G01X5870805Y-4030183D01*
G01X5972405Y-4030183D01*
G01X6152011Y-3850578D01*
G01X6152011Y-3679390D01*
G01X6173800Y-3657600D01*
G01X6173800Y-3617097D01*
G01X5940313Y-3383610D02*
G01X5940313Y-3376661D01*
G01X6164820Y-3608117D02*
G01X6215620Y-3557317D01*
G01X6469620Y-3557317D01*
G01X6774420Y-3862117D01*
G01X6774420Y-4180669D02*
G01X6719900Y-4235188D01*
G01X6465900Y-4235188D01*
G01X6774420Y-3900217D02*
G01X7130020Y-3900217D01*
G01X7219822Y-3990019D01*
G01X7296022Y-3990019D01*
G01X7307820Y-4001817D01*
G01X7307820Y-4167969D01*
G01X7215200Y-4260588D01*
G01X7307820Y-4001817D02*
G01X7575572Y-4001817D01*
G01X6124409Y-3192565D02*
G01X6454609Y-3192565D01*
G01X6505409Y-3243365D01*
G01X6648335Y-3243365D01*
G01X6767500Y-3124200D01*
G01X7322955Y-3124200D01*
G01X7575550Y-2871605D01*
G01X7841353Y-2871605D01*
G01X7886700Y-2826258D01*
G01X8153400Y-2826258D01*
G01X8226171Y-2899029D01*
G01X8784971Y-2899029D02*
G01X8784971Y-2797429D01*
G01X8686800Y-2108284D02*
G01X8287342Y-2108284D01*
G01X8157128Y-1978070D02*
G01X7890428Y-1978070D01*
G01X7886700Y-1974342D01*
G01X4897584Y-792409D02*
G01X5659584Y-792409D01*
G01X6142184Y-1275009D01*
G01X6954984Y-1275009D02*
G01X7044786Y-1185206D01*
G01X7044786Y-1165231D01*
G01X7066733Y-1143283D01*
G01X6186634Y-1275009D02*
G01X6184900Y-1257308D01*
G01X6535884Y-1275009D02*
G01X6535884Y-1145833D01*
G01X6533333Y-1143283D01*
G01X6186634Y-1275009D02*
G01X6186634Y-1509574D01*
G01X6184900Y-1511308D01*
G01X6186634Y-1509574D02*
G01X6186634Y-1763574D01*
G01X6184900Y-1765308D01*
G01X6186634Y-1763574D02*
G01X6186634Y-2017574D01*
G01X6184900Y-2019308D01*
G01X6535884Y-1145833D02*
G01X6535884Y-1046517D01*
G01X6719979Y-862422D02*
G01X6694579Y-862422D01*
G01X6533338Y-701181D01*
G01X6533338Y-216183D01*
G01X6959309Y-623091D02*
G01X6959309Y-572291D01*
G01X7138914Y-392686D01*
G01X7208747Y-392686D01*
G01X7385249Y-216183D01*
G01X2362200Y-3657600D02*
G01X2844800Y-3175000D01*
G01X3149600Y-3175000D01*
G01X3200400Y-3225800D01*
G01X3200400Y-3352800D01*
G01X3276600Y-3429000D01*
G01X3860800Y-3429000D01*
G01X3950602Y-3339198D01*
G01X3950602Y-2805805D01*
G01X4076700Y-2679708D01*
G01X7099300Y-3797308D02*
G01X7243986Y-3797308D01*
G01X7256678Y-3810000D01*
G01X7358278Y-3911600D01*
G01X7518059Y-3911600D01*
G01X7607862Y-3821798D01*
G01X7773098Y-3821798D01*
G01X7786700Y-3835400D01*
G01X7786700Y-3962400D01*
G01X7659700Y-4089400D01*
G01X3568700Y-1155708D02*
G01X3568700Y-1333508D01*
G01X3797300Y-1562108D01*
G01X4051300Y-1562108D01*
G01X4141102Y-1651910D01*
G01X4141102Y-1804310D01*
G01X4949326Y-2612533D01*
G01X4949326Y-3044333D01*
G01X5016500Y-3111508D01*
G01X5143500Y-3111508D01*
G01X5168900Y-3086108D01*
G01X5168900Y-2933708D01*
G01X5245100Y-2857508D01*
G01X5549900Y-2857508D01*
G01X5600700Y-2806708D01*
G01X6078329Y-2806708D01*
G01X6375400Y-3103778D01*
G01X6547079Y-3103778D01*
G01X6567500Y-3124200D01*
G01X6286500Y-3644908D02*
G01X6361107Y-3644908D01*
G01X6373800Y-3657600D01*
G01X6373800Y-3828821D01*
G01X6405778Y-3860800D01*
G01X1282700Y-2679708D02*
G01X1460500Y-2501908D01*
G01X1866900Y-2501908D01*
G01X5016500Y-4051308D02*
G01X5317183Y-4051308D01*
G01X5332557Y-4066682D01*
G01X5332557Y-4279743D01*
G01X1742897Y-2066298D02*
G01X1841500Y-2066298D01*
G01X1892300Y-2015498D01*
G01X2070100Y-2015498D01*
G01X2120900Y-2066298D01*
G01X2120900Y-2349508D01*
G01X1790700Y-2679708D01*
G01X2044700Y-3302000D02*
G01X2044700Y-3073785D01*
G01X2043227Y-3072312D01*
G01X2298700Y-3302000D02*
G01X2298700Y-3076642D01*
G01X2303031Y-3072312D01*
G01X1742897Y-1966298D02*
G01X2098497Y-1966298D01*
G01X2174697Y-2042498D01*
G01X2174697Y-2372698D01*
G01X1905290Y-2642105D01*
G01X1905290Y-2718305D01*
G01X1819097Y-2804498D01*
G01X1661490Y-2804498D01*
G01X1536700Y-2679708D01*
G01X3949700Y-2654308D02*
G01X4039502Y-2564505D01*
G01X4113898Y-2564505D01*
G01X4203700Y-2654308D01*
G01X4203700Y-2705108D01*
G01X4652713Y-3154120D01*
G01X5160713Y-3154120D01*
G01X5250515Y-3064318D01*
G01X5250515Y-3026159D01*
G01X5277772Y-2998902D01*
G01X5454294Y-2998902D01*
G01X5475300Y-2977896D01*
G01X3644900Y-749308D02*
G01X3555098Y-659505D01*
G01X3428098Y-659505D01*
G01X3416300Y-647708D01*
G01X2984500Y-800108D02*
G01X2984500Y-825508D01*
G01X2894698Y-915310D01*
G01X2793098Y-915310D01*
G01X2552700Y-1155708D01*
G01X5676900Y-1765308D02*
G01X5549900Y-1765308D01*
G01X4965700Y-1181108D01*
G01X4965700Y-1104908D01*
G01X4813300Y-952508D01*
G01X5676900Y-2019308D02*
G01X4559300Y-2019308D01*
G01X3568700Y-3301982D02*
G01X3441700Y-3174982D01*
G01X3441700Y-2793982D01*
G01X3531502Y-2704180D01*
G01X3531502Y-2348580D01*
G01X3594100Y-2285982D01*
G01X3517900Y-1930382D02*
G01X3517900Y-1912653D01*
G01X3607841Y-1822712D01*
G01X3607841Y-1727317D01*
G01X3556937Y-1676413D01*
G01X3822700Y-3301982D02*
G01X3822700Y-2666982D01*
G01X4076700Y-2412982D01*
G01X4076700Y-2085373D01*
G01X3986898Y-1995571D01*
G01X3910698Y-1995571D01*
G01X3737839Y-1822712D01*
G01X3737839Y-1727312D01*
G01X3788738Y-1676413D01*
G01X4579068Y-792409D02*
G01X4579068Y-311666D01*
G01X4611326Y-279408D01*
G01X4579068Y-792409D02*
G01X4452068Y-919409D01*
G01X4452068Y-1388332D02*
G01X4418000Y-1422400D01*
G01X4452068Y-957509D02*
G01X3994868Y-957509D01*
G01X3815842Y-812800D02*
G01X3815842Y-685800D01*
G01X3358642Y-889000D02*
G01X3448444Y-978802D01*
G01X3550044Y-978802D01*
G01X3714242Y-1143000D01*
G01X3714242Y-1299642D01*
G01X3837000Y-1422400D01*
G01X3358642Y-882650D02*
G01X3268840Y-972452D01*
G01X3091040Y-972452D01*
G01X2911434Y-1152058D01*
G01X2810350Y-1152058D01*
G01X2806700Y-1155708D01*
G01X1981200Y-2140458D02*
G01X1768734Y-2140458D01*
G01X1746284Y-2162909D02*
G01X1695484Y-2162909D01*
G01X1619284Y-2239109D01*
G01X1619284Y-2264509D01*
G01X1441484Y-2442309D01*
G01X207109Y-2442309D01*
G01X156309Y-2391509D01*
G01X156309Y-2315309D01*
G01X246111Y-2225506D01*
G01X500111Y-2225506D01*
G01X588109Y-2137509D01*
G01X740509Y-2137509D02*
G01X760702Y-2157702D01*
G01X645259Y-2137509D02*
G01X619859Y-2112109D01*
G01X619859Y-1742336D01*
G01X684502Y-1677693D01*
G01X760702Y-1677693D01*
G01X7315208Y-4499910D02*
G01X7301737Y-4486439D01*
G01X7298398Y-4483100D01*
G01X6629400Y-4914908D02*
G01X6629400Y-5279763D01*
G01X5867400Y-4914908D02*
G01X5867400Y-5279763D01*
G01X7200892Y-3579807D02*
G01X7196402Y-3584298D01*
G01X6970700Y-3810000D01*
G01X5675300Y-2924200D02*
G01X5405892Y-3193608D01*
G01X5397500Y-3202000D01*
G54D78*
G01X8988400Y-2292858D02*
G01X8829301Y-2451957D01*
G01X8788400Y-2492858D01*
G01X7385249Y-1143283D02*
G01X7190795Y-948829D01*
G01X7185249Y-943283D01*
G01X7645400Y-4914908D02*
G01X7467691Y-5092616D01*
G01X7267691Y-5092616D01*
G01X7061109Y-5092616D01*
G01X6884332Y-4915840D01*
G01X6883400Y-4914908D01*
G01X6554800Y-5754700D02*
G01X6484089Y-5683989D01*
G01X6354800Y-5554700D01*
G01X6354800Y-4904700D01*
G01X6354800Y-4636198D01*
G01X3349600Y-5965800D02*
G01X3155146Y-5771346D01*
G01X3149600Y-5765800D01*
G54D77*
G01X4037000Y-1422400D02*
G01X4208450Y-1422400D01*
G01X4218000Y-1422400D01*
G01X3454349Y-161150D02*
G01X3337606Y-277894D01*
G01X3336100Y-279400D01*
G01X2581207Y-760306D02*
G01X2599167Y-778266D01*
G01X2632100Y-811200D01*
G01X5092700Y-2679708D02*
G01X5092700Y-2787658D01*
G01X5092700Y-2983974D01*
G01X3060700Y-3659200D02*
G01X2993348Y-3726552D01*
G01X2912526Y-3807374D01*
G01X2908300Y-3811600D01*
G01X2912526Y-3807374D02*
G01X2645826Y-3807374D01*
G01X2468026Y-3807374D01*
G01X2391694Y-3883706D01*
G01X2387600Y-3887800D01*
G01X2221607Y-3883706D02*
G01X2149765Y-3811865D01*
G01X2146300Y-3808400D01*
G01X2149765Y-3811865D02*
G01X1787815Y-3811865D01*
G01X1617211Y-3811865D02*
G01X1446817Y-3811865D01*
G01X1374975Y-3883706D01*
G01X1372997Y-3885684D01*
G01X1124175Y-3883706D02*
G01X952453Y-3883706D01*
G01X3919931Y-3544595D02*
G01X4478731Y-3544595D01*
G01X4485805Y-3544595D01*
G01X4878400Y-4295800D02*
G01X4882890Y-4300291D01*
G01X5005400Y-4422800D01*
G01X3422498Y-2044403D02*
G01X3377596Y-1999501D01*
G01X3372002Y-1993908D01*
G01X3377596Y-1697071D02*
G01X3368616Y-1688091D01*
G01X3356938Y-1676413D01*
G01X924103Y-1915498D02*
G01X886003Y-1915498D01*
G01X873303Y-1915498D01*
G01X937995Y-4267734D02*
G01X879623Y-4209363D01*
G01X876300Y-4206039D01*
G01X2969987Y-4267727D02*
G01X2911616Y-4209355D01*
G01X2908300Y-4206039D01*
G01X2207995Y-4267734D02*
G01X2149623Y-4209363D01*
G01X2146300Y-4206039D01*
G01X508000Y-4892855D02*
G01X692095Y-4708760D01*
G01X876300Y-4524555D01*
G01X2349500Y-5057955D02*
G01X2419350Y-5057955D01*
G01X2425700Y-5057955D01*
G01X2630705Y-4802150D02*
G01X2724998Y-4707857D01*
G01X2908300Y-4524555D01*
G01X3436198Y-5038057D02*
G01X3440688Y-5033567D01*
G01X3476609Y-4997646D01*
G01X3512398Y-4961857D01*
G01X3678344Y-2725826D02*
G01X3678344Y-2414676D01*
G01X3678344Y-2287534D01*
G01X3672840Y-1822712D02*
G01X3672840Y-1625354D01*
G01X3291840Y-1574554D02*
G01X3237958Y-1628435D01*
G01X3231998Y-1634396D01*
G01X3110958Y-1628435D02*
G01X2702357Y-1219833D01*
G01X2679158Y-1196635D01*
G01X3090024Y-722998D02*
G01X3090024Y-532498D01*
G01X3090024Y-283311D01*
G01X3854056Y-532498D02*
G01X3876506Y-554948D01*
G01X4134358Y-812800D01*
G01X2493506Y-1309636D02*
G01X2031023Y-1772119D01*
G01X1981200Y-1821942D01*
G01X1548423Y-1518119D02*
G01X1431679Y-1634863D01*
G01X1428242Y-1638300D01*
G01X1431679Y-1634863D02*
G01X1291979Y-1634863D01*
G01X1099862Y-1634863D01*
G01X978629Y-1513629D01*
G01X977900Y-1512900D01*
G01X844781Y-1513629D02*
G01X786410Y-1572001D01*
G01X760702Y-1597708D01*
G01X785007Y-1572001D02*
G01X704185Y-1491178D01*
G01X698701Y-1485694D01*
G01X704185Y-1339192D02*
G01X524580Y-1159587D01*
G01X520700Y-1155708D01*
G01X524580Y-1159587D02*
G01X480130Y-1159587D01*
G01X270580Y-1159587D01*
G01X1228903Y-2066298D02*
G01X1158994Y-2066298D01*
G01X1082794Y-2192205D02*
G01X979522Y-2295478D01*
G01X977900Y-2297100D01*
G01X818494Y-2295478D02*
G01X782573Y-2259557D01*
G01X760702Y-2237687D01*
G01X5053264Y-4689236D02*
G01X5053264Y-4517786D01*
G01X5053264Y-4359036D01*
G01X6173800Y-3617097D02*
G01X6164820Y-3608117D01*
G01X5940313Y-3383610D01*
G01X5938507Y-3381804D01*
G01X5940313Y-3376661D02*
G01X6124409Y-3192565D01*
G01X6129274Y-3187700D01*
G01X6774420Y-3862117D02*
G01X6774420Y-3900217D01*
G01X6774420Y-4180669D01*
G01X7575572Y-4001817D02*
G01X7615983Y-3961406D01*
G01X7685100Y-3892288D01*
G01X8226171Y-2899029D02*
G01X8784971Y-2899029D01*
G01X8813792Y-2899029D01*
G01X8287342Y-2108284D02*
G01X8157128Y-1978070D01*
G01X8153400Y-1974342D01*
G01X6142184Y-1275009D02*
G01X6186634Y-1275009D01*
G01X6535884Y-1275009D01*
G01X6954984Y-1275009D01*
G01X6535884Y-1046517D02*
G01X6719979Y-862422D01*
G01X6959309Y-623091D01*
G01X4452068Y-919409D02*
G01X4452068Y-957509D01*
G01X4452068Y-1388332D01*
G01X3358642Y-812800D02*
G01X3358642Y-882650D01*
G01X3358642Y-889000D01*
G01X1768734Y-2140458D02*
G01X1746284Y-2162909D01*
G01X1742897Y-2166295D01*
G01X588109Y-2137509D02*
G01X645259Y-2137509D01*
G01X740509Y-2137509D01*
G01X3152358Y-3887285D02*
G01X3577242Y-3887285D01*
G01X6629400Y-4914908D02*
G01X6629400Y-4576102D01*
G01X5867400Y-4914908D02*
G01X5867400Y-4588802D01*
G54D78*
G01X7738402Y-4821906D02*
G01X7645400Y-4914908D01*
G54D77*
G01X1787815Y-3811865D02*
G01X1617211Y-3811865D01*
G01X1374975Y-3883706D02*
G01X1124175Y-3883706D01*
G01X3672840Y-2012704D02*
G01X3672840Y-1822712D01*
G01X1292344Y-2066298D02*
G01X1228903Y-2066298D01*
G04 Track End*

M02*

