;TYPE=PLATED
;Layer: PTH_Through_Via
;EasyEDA Pro v2.2.34.8, 2025-01-04 05:44:47
;Gerber Generator version 0.3
M48
METRIC,LZ,0000.00000
;Hole size 1 = 0.30500 METRIC
T01C0.30500
%
G05
G90
T01
X71.136Y-39.68996
X68.596Y-37.14996
X82.169Y-40.25984
X73.152Y-48.89492
X72.98398Y-46.4409
X68.58Y-52.45092
X59.182Y-45.84692
X82.042Y-29.86084
X47.05008Y-43.16492
X43.88398Y-1.01883
X39.608Y-7.517
X26.503Y-3.048
X42.18Y-13.208
X53.721Y-26.162
X30.291Y-38.03807
X29.529Y-39.56207
X60.75693Y-26.63391
X62.02693Y-26.63391
X29.88501Y-7.112
X42.41792Y-9.398
X43.68792Y-15.62108
X17.545Y-42.48142
X25.908Y-46.79942
X32.385Y-46.60742
X19.177Y-35.93942
X36.283Y-40.70342
X50.506Y-41.21899
X45.172Y-46.55299
X38.568Y-47.06099
X18.561Y-40.58658
X39.243Y-20.19308
X21.717Y-11.55708
X34.163Y-28.06708
X70.993Y-37.97308
X62.53371Y-31.03778
X62.865Y-36.44908
X18.669Y-20.125
X48.895Y-13.84308
X41.021Y-15.87508
X48.641Y-16.38308
X40.767Y-20.19308
X33.655Y-13.33508
X29.591Y-13.58908
X21.209Y-12.57308
X44.577Y-10.28708
X35.941Y-19.17708
X37.465Y-19.17708
X9.144Y-18.796
X10.541Y-19.558
X6.477Y-19.91841
X10.541Y-18.288
M30