;TYPE=PLATED
;Layer: PTH_Through
;EasyEDA Pro v2.2.34.8, 2025-01-04 05:44:47
;Gerber Generator version 0.3
M48
METRIC,LZ,0000.00000
;Hole size 1 = 0.30500 METRIC
T01C0.30500
;Hole size 2 = 0.60000 METRIC
T02C0.60000
;Hole size 3 = 0.91440 METRIC
T03C0.91440
;Hole size 4 = 1.00000 METRIC
T04C1.00000
;Hole size 5 = 1.10002 METRIC
T05C1.10002
;Hole size 6 = 1.20000 METRIC
T06C1.20000
;Hole size 7 = 1.40000 METRIC
T07C1.40000
;Hole size 8 = 1.50002 METRIC
T08C1.50002
;Hole size 9 = 3.50002 METRIC
T09C3.50002
%
G05
G90
T01
X71.136Y-39.68996
X68.596Y-37.14996
X82.169Y-40.25984
X73.152Y-48.89492
X72.98398Y-46.4409
X68.58Y-52.45092
X59.182Y-45.84692
X82.042Y-29.86084
X47.05008Y-43.16492
X43.88398Y-1.01883
X39.608Y-7.517
X26.503Y-3.048
X42.18Y-13.208
X53.721Y-26.162
X30.291Y-38.03807
X29.529Y-39.56207
X60.75693Y-26.63391
X62.02693Y-26.63391
X29.88501Y-7.112
X42.41792Y-9.398
X43.68792Y-15.62108
X17.545Y-42.48142
X25.908Y-46.79942
X32.385Y-46.60742
X19.177Y-35.93942
X36.283Y-40.70342
X50.506Y-41.21899
X45.172Y-46.55299
X38.568Y-47.06099
X18.561Y-40.58658
X39.243Y-20.19308
X21.717Y-11.55708
X34.163Y-28.06708
X70.993Y-37.97308
X62.53371Y-31.03778
X62.865Y-36.44908
X18.669Y-20.125
X48.895Y-13.84308
X41.021Y-15.87508
X48.641Y-16.38308
X40.767Y-20.19308
X33.655Y-13.33508
X29.591Y-13.58908
X21.209Y-12.57308
X44.577Y-10.28708
X35.941Y-19.17708
X37.465Y-19.17708
X9.144Y-18.796
X10.541Y-19.558
X6.477Y-19.91841
X10.541Y-18.288
T02
X7.53708Y-14.85687G85X6.43708Y-14.85687
X3.207Y-14.85697G85X2.40701Y-14.85697
X3.2069Y-23.49703G85X2.4069Y-23.49703
X7.53698Y-23.49693G85X6.43698Y-23.49693
T03
X50.9272Y-26.79598
X48.3872Y-26.79598
X45.8472Y-26.79598
X43.3072Y-26.79598
X40.7672Y-26.79598
X38.2272Y-26.79598
X35.6872Y-26.79598
X33.1472Y-26.79598
X30.6072Y-26.79598
X28.0672Y-26.79598
X25.5272Y-26.79598
X22.9872Y-26.79598
X20.4472Y-26.79598
X17.9072Y-26.79598
X15.3672Y-26.79598
X12.8272Y-26.79598
X10.2872Y-26.79598
X7.7472Y-26.79598
X5.2072Y-26.79598
X2.6672Y-26.79598
X2.6672Y-11.55598
X5.2072Y-11.55598
X7.7472Y-11.55598
X10.2872Y-11.55598
X12.8272Y-11.55598
X15.3672Y-11.55598
X17.9072Y-11.55598
X20.4472Y-11.55598
X22.9872Y-11.55598
X25.5272Y-11.55598
X28.0672Y-11.55598
X30.6072Y-11.55598
X33.1472Y-11.55598
X35.6872Y-11.55598
X38.2272Y-11.55598
X40.7672Y-11.55598
X43.3072Y-11.55598
X45.8472Y-11.55598
X48.3872Y-11.55598
X50.9272Y-11.55598
T04
X38.481Y-2.79415
X41.021Y-2.79415
X46.11326Y-2.79415
X48.65326Y-2.79415
X68.834Y-50.16485
X66.294Y-50.16485
X61.214Y-50.16485
X58.674Y-50.16485
X76.454Y-50.16485
X73.914Y-50.16485
T05
X30.607Y-33.02
X33.147Y-33.02
X35.687Y-33.02
X38.227Y-33.02
X61.849Y-12.57315
X59.309Y-12.57315
X56.769Y-12.57315
X61.849Y-20.19315
X59.309Y-20.19315
X56.769Y-20.19315
X61.849Y-15.11315
X59.309Y-15.11315
X56.769Y-15.11315
X61.849Y-17.65315
X59.309Y-17.65315
X56.769Y-17.65315
X61.849Y-22.73315
X59.309Y-22.73315
X56.769Y-22.73315
X61.849Y-25.27315
X59.309Y-25.27315
X56.769Y-25.27315
X21.38299Y-2.75654
X18.883Y-2.75654
X16.383Y-2.75654
X13.88301Y-2.75654
X11.38301Y-2.75654
X21.00199Y-34.76054
X18.502Y-34.76054
X16.002Y-34.76054
X13.50201Y-34.76054
X11.00201Y-34.76054
T06
X69.59296Y-6.23096
X67.05261Y-6.2208
X72.13296Y-6.23096
X33.361Y-2.794
X30.86113Y-2.794
X28.36101Y-2.794
X50.506Y-34.798
X48.00613Y-34.798
X45.50601Y-34.798
X13.208Y-56.602
X13.208Y-54.10213
X13.208Y-51.602
X19.685Y-56.602
X19.685Y-54.10213
X19.685Y-51.602
X26.162Y-56.602
X26.162Y-54.10213
X26.162Y-51.602
X32.639Y-56.602
X32.639Y-54.10213
X32.639Y-51.602
X39.116Y-56.602
X39.116Y-54.10213
X39.116Y-51.602
X45.593Y-56.602
X45.593Y-54.10213
X45.593Y-51.602
T07
X74.54895Y-33.90905
X77.08895Y-33.90905
X72.00895Y-33.90905
T08
X87.884Y-17.01884
X87.884Y-22.09884
X88.011Y-33.65584
X88.011Y-38.73584
T09
X86.36Y-5.08
X86.36Y-55.88
X5.08Y-55.88
X5.08Y-5.08
M30