G04 Layer: BottomSilkscreenLayer*
G04 EasyEDA Pro v2.2.34.8, 2025-01-04 05:44:47*
G04 Gerber Generator version 0.3*
G04 Scale: 100 percent, Rotated: No, Reflected: No*
G04 Dimensions in millimeters*
G04 Leading zeros omitted, absolute positions, 4 integers and 5 decimals*
%FSLAX45Y45*%
%MOMM*%
%ADD10C,0.15*%
G75*


G04 Text Start*
G54D10*
G01X8883904Y-1462786D02*
G01X8883904Y-1510538D01*
G01X8907780Y-1486662D02*
G01X8860028Y-1486662D01*
G01X8832342Y-1465326D02*
G01X8827008Y-1462786D01*
G01X8818880Y-1454912D01*
G01X8818880Y-1510538D01*
G01X8788400Y-1468120D02*
G01X8788400Y-1465326D01*
G01X8785860Y-1460246D01*
G01X8783066Y-1457452D01*
G01X8777732Y-1454912D01*
G01X8767318Y-1454912D01*
G01X8761984Y-1457452D01*
G01X8759190Y-1460246D01*
G01X8756650Y-1465326D01*
G01X8756650Y-1470660D01*
G01X8759190Y-1475994D01*
G01X8764524Y-1484122D01*
G01X8791194Y-1510538D01*
G01X8753856Y-1510538D01*
G01X8726170Y-1454912D02*
G01X8704834Y-1510538D01*
G01X8683498Y-1454912D02*
G01X8704834Y-1510538D01*
G01X8855456Y-2420620D02*
G01X8857996Y-2415286D01*
G01X8863330Y-2409952D01*
G01X8868664Y-2407412D01*
G01X8879332Y-2407412D01*
G01X8884666Y-2409952D01*
G01X8890000Y-2415286D01*
G01X8892540Y-2420620D01*
G01X8895080Y-2428494D01*
G01X8895080Y-2441956D01*
G01X8892540Y-2449830D01*
G01X8890000Y-2455164D01*
G01X8884666Y-2460498D01*
G01X8879332Y-2463038D01*
G01X8868664Y-2463038D01*
G01X8863330Y-2460498D01*
G01X8857996Y-2455164D01*
G01X8855456Y-2449830D01*
G01X8855456Y-2441956D01*
G01X8868664Y-2441956D02*
G01X8855456Y-2441956D01*
G01X8827770Y-2407412D02*
G01X8827770Y-2463038D01*
G01X8827770Y-2407412D02*
G01X8790432Y-2463038D01*
G01X8790432Y-2407412D02*
G01X8790432Y-2463038D01*
G01X8762746Y-2407412D02*
G01X8762746Y-2463038D01*
G01X8762746Y-2407412D02*
G01X8744204Y-2407412D01*
G01X8736076Y-2409952D01*
G01X8730742Y-2415286D01*
G01X8728202Y-2420620D01*
G01X8725408Y-2428494D01*
G01X8725408Y-2441956D01*
G01X8728202Y-2449830D01*
G01X8730742Y-2455164D01*
G01X8736076Y-2460498D01*
G01X8744204Y-2463038D01*
G01X8762746Y-2463038D01*
G01X8889305Y-3125686D02*
G01X8889305Y-3173438D01*
G01X8913181Y-3149562D02*
G01X8865429Y-3149562D01*
G01X8837743Y-3128226D02*
G01X8832409Y-3125686D01*
G01X8824281Y-3117812D01*
G01X8824281Y-3173438D01*
G01X8793801Y-3131020D02*
G01X8793801Y-3128226D01*
G01X8791261Y-3123146D01*
G01X8788467Y-3120352D01*
G01X8783133Y-3117812D01*
G01X8772719Y-3117812D01*
G01X8767385Y-3120352D01*
G01X8764591Y-3123146D01*
G01X8762051Y-3128226D01*
G01X8762051Y-3133560D01*
G01X8764591Y-3138894D01*
G01X8769925Y-3147022D01*
G01X8796595Y-3173438D01*
G01X8759257Y-3173438D01*
G01X8731571Y-3117812D02*
G01X8710235Y-3173438D01*
G01X8688899Y-3117812D02*
G01X8710235Y-3173438D01*
G01X8831580Y-4077462D02*
G01X8783828Y-4077462D01*
G04 Text End*

M02*

