G04 Layer: DrillDrawingLayer*
G04 EasyEDA Pro v2.2.34.8, 2025-01-04 05:44:47*
G04 Gerber Generator version 0.3*
G04 Scale: 100 percent, Rotated: No, Reflected: No*
G04 Dimensions in millimeters*
G04 Leading zeros omitted, absolute positions, 4 integers and 5 decimals*
%FSLAX45Y45*%
%MOMM*%
%AMIconRect*4,1,4,0.2,-0.2,-0.2,-0.2,-0.2,0.2,0.2,0.2,0.2,-0.2,0*4,0,4,0.166667,-0.166667,0.166667,0.166667,-0.166667,0.166667,-0.166667,-0.166667,0.166667,-0.166667,0*%
%AMIconTriangle*4,1,3,-0.242567,0.171767,0.242567,0.171767,0,-0.2706,-0.242567,0.171767,0*4,0,3,-0.189767,0.1386,0,-0.1953,0.190167,0.1386,-0.189767,0.1386,0*%
%AMIconStar6*4,1,12,0.0862,0.1492,0.213233,0.123367,0.172367,0,0.213233,-0.1229,0.0862,-0.148733,0,-0.245767,-0.085767,-0.148733,-0.213267,-0.1229,-0.171933,0,-0.213267,0.1229,-0.085767,0.1492,0,0.245767,0.0862,0.1492,0*4,0,12,-0.000333,0.195333,-0.064333,0.122667,-0.169667,0.097667,-0.138333,-0.005333,-0.169667,-0.098,-0.064333,-0.122667,-0.000333,-0.195667,0.064333,-0.122667,0.169667,-0.098,0.138667,0.005,0.169667,0.098,0.064333,0.122333,-0.000333,0.195333,0*%
%AMIconStar4*4,1,8,-0.222667,0.222667,0,0.144667,0.222667,0.222667,0.144667,0,0.222667,-0.222667,0,-0.144667,-0.217433,-0.222667,-0.144667,0,-0.222667,0.222667,0*4,0,8,0.166667,-0.166667,0.108,0,0.166667,0.166667,0,0.108,-0.166667,0.166667,-0.108,0,-0.166667,-0.166667,0,-0.108,0.166667,-0.166667,0*%
%AMIconPlus*4,1,12,0.124,-0.2,-0.124,-0.2,-0.124,-0.124,-0.2,-0.124,-0.2,0.124,-0.124,0.124,-0.124,0.2,0.124,0.2,0.124,0.124,0.2,0.124,0.2,-0.124,0.124,-0.124,0.124,-0.2,0*4,0,12,0.090667,-0.166667,0.090667,-0.090667,0.166667,-0.090667,0.166667,0.090667,0.090667,0.090667,0.090667,0.166667,-0.090667,0.166667,-0.090667,0.090667,-0.166667,0.090667,-0.166667,-0.090667,-0.090667,-0.090667,-0.090667,-0.166667,0.090667,-0.166667,0*%
%AMIconX*4,1,16,0.2,-0.2,0.054533,-0.2,0,-0.145467,-0.054533,-0.2,-0.2,-0.2,-0.2,-0.054533,-0.145467,0,-0.2,0.054533,-0.2,0.2,-0.054533,0.2,0,0.145467,0.054533,0.2,0.2,0.2,0.2,0.054533,0.145467,0,0.2,-0.054533,0.2,-0.2,0*4,0,16,0.1668,-0.1664,0.1668,-0.068467,0.097933,0.000067,0.1668,0.068467,0.1668,0.1665,0.068467,0.1665,0,0.097933,-0.068467,0.1665,-0.1668,0.1665,-0.1668,0.068467,-0.097933,0.000067,-0.1668,-0.068467,-0.1668,-0.1664,-0.068467,-0.1664,0,-0.097933,0.068467,-0.1664,0.1668,-0.1664,0*%
%AMIconDiamond*4,1,4,0,-0.26,-0.26,0,0,0.26,0.26,0,0,-0.26,0*4,0,4,0,-0.203433,0.203433,0,0,0.2036,-0.203433,0,0,-0.203433,0*%
%AMIconRect2*4,1,6,0.2,-0.2,-0.2,-0.2,-0.2,0.2,-0.1668,0.1665,-0.166667,-0.166667,0.1668,-0.166667,0.2,-0.2,0*4,1,6,0.2,-0.2,0.1668,-0.166667,0.1668,0.1665,-0.1668,0.1665,-0.2,0.2,0.2,0.2,0.2,-0.2,0*4,1,6,0.133467,-0.133333,-0.133333,-0.133333,-0.133333,0.133467,-0.1,0.100133,-0.1,-0.1,0.100133,-0.1,0.133467,-0.133333,0*4,1,6,0.133467,-0.133333,0.100133,-0.1,0.100133,0.100133,-0.1,0.100133,-0.133333,0.133467,0.133467,0.133467,0.133467,-0.133333,0*%
%AMCharA*4,1,8,-0.122067,-0.1864,-0.1532,-0.174533,-0.015133,0.1864,0.016,0.1864,0.1532,-0.174533,0.122067,-0.1864,0.0764,-0.0662,-0.076133,-0.0662,-0.122067,-0.1864,0*4,0,3,-0.063333,-0.032867,0.063667,-0.032867,0.000333,0.1338,-0.063333,-0.032867,0*%
%AMCharB*4,1,17,-0.131133,-0.1894,-0.131133,0.1894,0.033533,0.1894,0.088067,0.172467,0.1114,0.151733,0.131133,0.114133,0.131,0.066467,0.114333,0.0338,0.094733,0.0128,0.086467,0.0084,0.094733,0.003867,0.114333,-0.017133,0.131,-0.0498,0.131133,-0.114133,0.1114,-0.151733,0.088067,-0.1726,0.033533,-0.1894,-0.131133,-0.1894,0*4,0,10,-0.0978,-0.156067,0.030867,-0.156067,0.073867,-0.142,0.085867,-0.130133,0.099533,-0.1028,0.099533,-0.0614,0.085867,-0.034533,0.073867,-0.0226,0.030867,-0.008667,-0.0978,-0.008667,-0.0978,-0.156067,0*4,0,10,-0.0978,0.024667,0.0308,0.024667,0.073867,0.039267,0.085867,0.051267,0.099533,0.078067,0.099533,0.102667,0.085867,0.130133,0.073867,0.142,0.030867,0.156067,-0.0978,0.156067,-0.0978,0.024667,0*%
%AMCharC*4,1,36,-0.027533,-0.1894,-0.071933,-0.1684,-0.1084,-0.130667,-0.125333,-0.096,-0.1428,-0.041333,-0.1428,0.041333,-0.1244,0.098,-0.105267,0.135067,-0.067533,0.171667,-0.027533,0.1894,0.038533,0.1894,0.083067,0.1684,0.119467,0.130667,0.1428,0.083,0.112867,0.0684,0.090867,0.113467,0.0614,0.142933,0.034733,0.156067,-0.0236,0.156067,-0.050333,0.142933,-0.079733,0.113467,-0.094067,0.084333,-0.109467,0.0386,-0.109467,-0.0386,-0.094067,-0.084333,-0.079733,-0.113467,-0.050333,-0.142867,-0.0236,-0.156067,0.034733,-0.156067,0.0614,-0.142867,0.090867,-0.113467,0.112867,-0.0684,0.1428,-0.083,0.119467,-0.130667,0.083067,-0.1684,0.038533,-0.1894,-0.027533,-0.1894,0*%
%ADD10IconRect*%
%ADD11C,0.44X0.373333*%
%ADD12IconTriangle*%
%ADD13IconStar6*%
%ADD14IconStar4*%
%ADD15IconPlus*%
%ADD16IconX*%
%ADD17IconDiamond*%
%ADD18IconRect2*%
%ADD19CharA*%
%ADD20CharB*%
%ADD21CharC*%
G75*


G04 Drill Drawing Start*
G54D10*
G01X698698Y-2349693D03*
G01X698708Y-1485687D03*
G54D11*
G01X280690Y-2349703D03*
G01X280700Y-1485697D03*
G54D12*
G01X648713Y-1627706D03*
G01X648713Y-2206699D03*
G54D13*
G01X7200895Y-3390905D03*
G01X7454895Y-3390905D03*
G01X7708895Y-3390905D03*
G54D14*
G01X508000Y-5588000D03*
G01X508000Y-508000D03*
G01X8636000Y-5588000D03*
G01X8636000Y-508000D03*
G54D15*
G01X8788400Y-2209884D03*
G01X8788400Y-1701884D03*
G01X8801100Y-3873584D03*
G01X8801100Y-3365584D03*
G54D16*
G01X1120800Y-5000201D03*
G01X1768500Y-5000201D03*
G01X2416200Y-5000201D03*
G01X2676101Y-479400D03*
G01X3063900Y-5000201D03*
G01X3711600Y-5000201D03*
G01X4359300Y-5000201D03*
G01X4390601Y-3679800D03*
G54D17*
G01X3848100Y-279415D03*
G01X4102100Y-279415D03*
G01X4611326Y-279415D03*
G01X4865326Y-279415D03*
G01X5867400Y-5016485D03*
G01X6121400Y-5016485D03*
G01X6629400Y-5016485D03*
G01X6883400Y-5016485D03*
G01X7391400Y-5016485D03*
G01X7645400Y-5016485D03*
G54D18*
G01X1320800Y-5660199D03*
G01X1320800Y-5410213D03*
G01X1320800Y-5160200D03*
G01X1968500Y-5660199D03*
G01X1968500Y-5410213D03*
G01X1968500Y-5160200D03*
G01X2616200Y-5660199D03*
G01X2616200Y-5410213D03*
G01X2616200Y-5160200D03*
G01X2836101Y-279400D03*
G01X3086113Y-279400D03*
G01X3263900Y-5660199D03*
G01X3263900Y-5410213D03*
G01X3263900Y-5160200D03*
G01X3336100Y-279400D03*
G01X3911600Y-5660199D03*
G01X3911600Y-5410213D03*
G01X3911600Y-5160200D03*
G01X4550601Y-3479800D03*
G01X4559300Y-5660199D03*
G01X4559300Y-5410213D03*
G01X4559300Y-5160200D03*
G01X4800613Y-3479800D03*
G01X5050600Y-3479800D03*
G01X6705261Y-622080D03*
G01X6959296Y-623096D03*
G01X7213296Y-623096D03*
G54D19*
G01X1100201Y-3476053D03*
G01X1138301Y-275653D03*
G01X1350201Y-3476053D03*
G01X1388301Y-275653D03*
G01X1600200Y-3476053D03*
G01X1638300Y-275653D03*
G01X1850200Y-3476053D03*
G01X1888300Y-275653D03*
G01X2100199Y-3476053D03*
G01X2138299Y-275653D03*
G01X3060700Y-3302000D03*
G01X3314700Y-3302000D03*
G01X3568700Y-3302000D03*
G01X3822700Y-3302000D03*
G01X5676900Y-2527315D03*
G01X5676900Y-2273315D03*
G01X5676900Y-2019315D03*
G01X5676900Y-1765315D03*
G01X5676900Y-1511315D03*
G01X5676900Y-1257315D03*
G01X5930900Y-2527315D03*
G01X5930900Y-2273315D03*
G01X5930900Y-2019315D03*
G01X5930900Y-1765315D03*
G01X5930900Y-1511315D03*
G01X5930900Y-1257315D03*
G01X6184900Y-2527315D03*
G01X6184900Y-2273315D03*
G01X6184900Y-2019315D03*
G01X6184900Y-1765315D03*
G01X6184900Y-1511315D03*
G01X6184900Y-1257315D03*
G54D20*
G01X266720Y-2679598D03*
G01X266720Y-1155598D03*
G01X520720Y-2679598D03*
G01X520720Y-1155598D03*
G01X774720Y-2679598D03*
G01X774720Y-1155598D03*
G01X1028720Y-2679598D03*
G01X1028720Y-1155598D03*
G01X1282720Y-2679598D03*
G01X1282720Y-1155598D03*
G01X1536720Y-2679598D03*
G01X1536720Y-1155598D03*
G01X1790720Y-2679598D03*
G01X1790720Y-1155598D03*
G01X2044720Y-2679598D03*
G01X2044720Y-1155598D03*
G01X2298720Y-2679598D03*
G01X2298720Y-1155598D03*
G01X2552720Y-2679598D03*
G01X2552720Y-1155598D03*
G01X2806720Y-2679598D03*
G01X2806720Y-1155598D03*
G01X3060720Y-2679598D03*
G01X3060720Y-1155598D03*
G01X3314720Y-2679598D03*
G01X3314720Y-1155598D03*
G01X3568720Y-2679598D03*
G01X3568720Y-1155598D03*
G01X3822720Y-2679598D03*
G01X3822720Y-1155598D03*
G01X4076720Y-2679598D03*
G01X4076720Y-1155598D03*
G01X4330720Y-2679598D03*
G01X4330720Y-1155598D03*
G01X4584720Y-2679598D03*
G01X4584720Y-1155598D03*
G01X4838720Y-2679598D03*
G01X4838720Y-1155598D03*
G01X5092720Y-2679598D03*
G01X5092720Y-1155598D03*
G54D21*
G01X647700Y-1991841D03*
G01X914400Y-1879600D03*
G01X1054100Y-1955800D03*
G01X1054100Y-1828800D03*
G01X1754500Y-4248142D03*
G01X1856100Y-4058658D03*
G01X1866900Y-2012500D03*
G01X1917700Y-3593942D03*
G01X2120900Y-1257308D03*
G01X2171700Y-1155708D03*
G01X2590800Y-4679942D03*
G01X2650300Y-304800D03*
G01X2952900Y-3956207D03*
G01X2959100Y-1358908D03*
G01X2988501Y-711200D03*
G01X3029100Y-3803807D03*
G01X3238500Y-4660742D03*
G01X3365500Y-1333508D03*
G01X3416300Y-2806708D03*
G01X3594100Y-1917708D03*
G01X3628300Y-4070342D03*
G01X3746500Y-1917708D03*
G01X3856800Y-4706099D03*
G01X3924300Y-2019308D03*
G01X3960800Y-751700D03*
G01X4076700Y-2019308D03*
G01X4102100Y-1587508D03*
G01X4218000Y-1320800D03*
G01X4241792Y-939800D03*
G01X4368792Y-1562108D03*
G01X4388398Y-101883D03*
G01X4457700Y-1028708D03*
G01X4517200Y-4655299D03*
G01X4705008Y-4316492D03*
G01X4864100Y-1638308D03*
G01X4889500Y-1384308D03*
G01X5050600Y-4121899D03*
G01X5372100Y-2616200D03*
G01X5918200Y-4584692D03*
G01X6075693Y-2663391D03*
G01X6202693Y-2663391D03*
G01X6253371Y-3103778D03*
G01X6286500Y-3644908D03*
G01X6858000Y-5245092D03*
G01X6859600Y-3714996D03*
G01X7099300Y-3797308D03*
G01X7113600Y-3968996D03*
G01X7298398Y-4644090D03*
G01X7315200Y-4889492D03*
G01X8204200Y-2986084D03*
G01X8216900Y-4025984D03*
G04 Drill Drawing End*

M02*

