G04 Layer: TopSilkscreenLayer*
G04 EasyEDA Pro v2.2.34.8, 2025-01-04 05:44:47*
G04 Gerber Generator version 0.3*
G04 Scale: 100 percent, Rotated: No, Reflected: No*
G04 Dimensions in millimeters*
G04 Leading zeros omitted, absolute positions, 4 integers and 5 decimals*
%FSLAX45Y45*%
%MOMM*%
%ADD10C,0.15*%
%ADD11C,0.152*%
%ADD12C,0.1524*%
%ADD13C,0.254*%
%ADD14C,0.2*%
%ADD15C,0.4019*%
%ADD16C,0.4*%
G75*


G04 Text Start*
G54D10*
G01X3332480Y-3501652D02*
G01X3337814Y-3499112D01*
G01X3343148Y-3493778D01*
G01X3345688Y-3488444D01*
G01X3345688Y-3477776D01*
G01X3343148Y-3472442D01*
G01X3337814Y-3467108D01*
G01X3332480Y-3464568D01*
G01X3324606Y-3462028D01*
G01X3311144Y-3462028D01*
G01X3303270Y-3464568D01*
G01X3297936Y-3467108D01*
G01X3292602Y-3472442D01*
G01X3290062Y-3477776D01*
G01X3290062Y-3488444D01*
G01X3292602Y-3493778D01*
G01X3297936Y-3499112D01*
G01X3303270Y-3501652D01*
G01X3311144Y-3501652D01*
G01X3311144Y-3488444D02*
G01X3311144Y-3501652D01*
G01X3345688Y-3529338D02*
G01X3290062Y-3529338D01*
G01X3345688Y-3529338D02*
G01X3290062Y-3566676D01*
G01X3345688Y-3566676D02*
G01X3290062Y-3566676D01*
G01X3345688Y-3594362D02*
G01X3290062Y-3594362D01*
G01X3345688Y-3594362D02*
G01X3345688Y-3612904D01*
G01X3343148Y-3621032D01*
G01X3337814Y-3626366D01*
G01X3332480Y-3628906D01*
G01X3324606Y-3631700D01*
G01X3311144Y-3631700D01*
G01X3303270Y-3628906D01*
G01X3297936Y-3626366D01*
G01X3292602Y-3621032D01*
G01X3290062Y-3612904D01*
G01X3290062Y-3594362D01*
G01X3091688Y-3493778D02*
G01X3091688Y-3467108D01*
G01X3067812Y-3464568D01*
G01X3070606Y-3467108D01*
G01X3073146Y-3475236D01*
G01X3073146Y-3483110D01*
G01X3070606Y-3491238D01*
G01X3065272Y-3496318D01*
G01X3057144Y-3499112D01*
G01X3051810Y-3499112D01*
G01X3043936Y-3496318D01*
G01X3038602Y-3491238D01*
G01X3036062Y-3483110D01*
G01X3036062Y-3475236D01*
G01X3038602Y-3467108D01*
G01X3041396Y-3464568D01*
G01X3046730Y-3462028D01*
G01X3091688Y-3526798D02*
G01X3036062Y-3548134D01*
G01X3091688Y-3569470D02*
G01X3036062Y-3548134D01*
G01X3591814Y-3499112D02*
G01X3597148Y-3493778D01*
G01X3599688Y-3485904D01*
G01X3599688Y-3475236D01*
G01X3597148Y-3467108D01*
G01X3591814Y-3462028D01*
G01X3586480Y-3462028D01*
G01X3581146Y-3464568D01*
G01X3578606Y-3467108D01*
G01X3575812Y-3472442D01*
G01X3570478Y-3488444D01*
G01X3567938Y-3493778D01*
G01X3565144Y-3496318D01*
G01X3559810Y-3499112D01*
G01X3551936Y-3499112D01*
G01X3546602Y-3493778D01*
G01X3544062Y-3485904D01*
G01X3544062Y-3475236D01*
G01X3546602Y-3467108D01*
G01X3551936Y-3462028D01*
G01X3586480Y-3566676D02*
G01X3591814Y-3564136D01*
G01X3597148Y-3558802D01*
G01X3599688Y-3553468D01*
G01X3599688Y-3542800D01*
G01X3597148Y-3537466D01*
G01X3591814Y-3532132D01*
G01X3586480Y-3529592D01*
G01X3578606Y-3526798D01*
G01X3565144Y-3526798D01*
G01X3557270Y-3529592D01*
G01X3551936Y-3532132D01*
G01X3546602Y-3537466D01*
G01X3544062Y-3542800D01*
G01X3544062Y-3553468D01*
G01X3546602Y-3558802D01*
G01X3551936Y-3564136D01*
G01X3557270Y-3566676D01*
G01X3599688Y-3594362D02*
G01X3544062Y-3594362D01*
G01X3544062Y-3594362D02*
G01X3544062Y-3626366D01*
G01X3858514Y-3499112D02*
G01X3863848Y-3493778D01*
G01X3866388Y-3485904D01*
G01X3866388Y-3475236D01*
G01X3863848Y-3467108D01*
G01X3858514Y-3462028D01*
G01X3853180Y-3462028D01*
G01X3847846Y-3464568D01*
G01X3845306Y-3467108D01*
G01X3842512Y-3472442D01*
G01X3837178Y-3488444D01*
G01X3834638Y-3493778D01*
G01X3831844Y-3496318D01*
G01X3826510Y-3499112D01*
G01X3818636Y-3499112D01*
G01X3813302Y-3493778D01*
G01X3810762Y-3485904D01*
G01X3810762Y-3475236D01*
G01X3813302Y-3467108D01*
G01X3818636Y-3462028D01*
G01X3866388Y-3526798D02*
G01X3810762Y-3526798D01*
G01X3866388Y-3526798D02*
G01X3866388Y-3545340D01*
G01X3863848Y-3553468D01*
G01X3858514Y-3558802D01*
G01X3853180Y-3561342D01*
G01X3845306Y-3564136D01*
G01X3831844Y-3564136D01*
G01X3823970Y-3561342D01*
G01X3818636Y-3558802D01*
G01X3813302Y-3553468D01*
G01X3810762Y-3545340D01*
G01X3810762Y-3526798D01*
G01X3866388Y-3613158D02*
G01X3810762Y-3591822D01*
G01X3866388Y-3613158D02*
G01X3810762Y-3634494D01*
G01X3829304Y-3599950D02*
G01X3829304Y-3626366D01*
G54D11*
G01X6213640Y-936879D02*
G01X6219990Y-933831D01*
G01X6226086Y-927481D01*
G01X6229134Y-921385D01*
G01X6229134Y-908939D01*
G01X6226086Y-902843D01*
G01X6219990Y-896493D01*
G01X6213640Y-893445D01*
G01X6204496Y-890397D01*
G01X6189002Y-890397D01*
G01X6179604Y-893445D01*
G01X6173508Y-896493D01*
G01X6167158Y-902843D01*
G01X6164110Y-908939D01*
G01X6164110Y-921385D01*
G01X6167158Y-927481D01*
G01X6173508Y-933831D01*
G01X6179604Y-936879D01*
G01X6189002Y-936879D01*
G01X6189002Y-921385D02*
G01X6189002Y-936879D01*
G01X6229134Y-966851D02*
G01X6164110Y-966851D01*
G01X6229134Y-966851D02*
G01X6164110Y-1010285D01*
G01X6229134Y-1010285D02*
G01X6164110Y-1010285D01*
G01X6229134Y-1040257D02*
G01X6164110Y-1040257D01*
G01X6229134Y-1040257D02*
G01X6229134Y-1062101D01*
G01X6226086Y-1071245D01*
G01X6219990Y-1077595D01*
G01X6213640Y-1080643D01*
G01X6204496Y-1083691D01*
G01X6189002Y-1083691D01*
G01X6179604Y-1080643D01*
G01X6173508Y-1077595D01*
G01X6167158Y-1071245D01*
G01X6164110Y-1062101D01*
G01X6164110Y-1040257D01*
G01X5965990Y-1001141D02*
G01X5972086Y-998093D01*
G01X5975134Y-988695D01*
G01X5975134Y-982599D01*
G01X5972086Y-973201D01*
G01X5962942Y-967105D01*
G01X5947448Y-964057D01*
G01X5931954Y-964057D01*
G01X5919508Y-967105D01*
G01X5913158Y-973201D01*
G01X5910110Y-982599D01*
G01X5910110Y-985647D01*
G01X5913158Y-995045D01*
G01X5919508Y-1001141D01*
G01X5928652Y-1004189D01*
G01X5931954Y-1004189D01*
G01X5941098Y-1001141D01*
G01X5947448Y-995045D01*
G01X5950496Y-985647D01*
G01X5950496Y-982599D01*
G01X5947448Y-973201D01*
G01X5941098Y-967105D01*
G01X5931954Y-964057D01*
G01X5975134Y-1034161D02*
G01X5910110Y-1059053D01*
G01X5975134Y-1083691D02*
G01X5910110Y-1059053D01*
G01X5711990Y-818769D02*
G01X5718086Y-812419D01*
G01X5721134Y-803275D01*
G01X5721134Y-790829D01*
G01X5718086Y-781431D01*
G01X5711990Y-775335D01*
G01X5705640Y-775335D01*
G01X5699544Y-778383D01*
G01X5696496Y-781431D01*
G01X5693448Y-787781D01*
G01X5687098Y-806323D01*
G01X5684050Y-812419D01*
G01X5681002Y-815467D01*
G01X5674652Y-818769D01*
G01X5665508Y-818769D01*
G01X5659158Y-812419D01*
G01X5656110Y-803275D01*
G01X5656110Y-790829D01*
G01X5659158Y-781431D01*
G01X5665508Y-775335D01*
G01X5721134Y-848741D02*
G01X5718086Y-852043D01*
G01X5721134Y-855091D01*
G01X5724436Y-852043D01*
G01X5721134Y-848741D01*
G01X5699544Y-852043D02*
G01X5656110Y-852043D01*
G01X5699544Y-922401D02*
G01X5650014Y-922401D01*
G01X5640616Y-919099D01*
G01X5637568Y-916051D01*
G01X5634520Y-909955D01*
G01X5634520Y-900557D01*
G01X5637568Y-894461D01*
G01X5690146Y-922401D02*
G01X5696496Y-916051D01*
G01X5699544Y-909955D01*
G01X5699544Y-900557D01*
G01X5696496Y-894461D01*
G01X5690146Y-888365D01*
G01X5681002Y-885063D01*
G01X5674652Y-885063D01*
G01X5665508Y-888365D01*
G01X5659158Y-894461D01*
G01X5656110Y-900557D01*
G01X5656110Y-909955D01*
G01X5659158Y-916051D01*
G01X5665508Y-922401D01*
G01X5699544Y-952373D02*
G01X5656110Y-952373D01*
G01X5687098Y-952373D02*
G01X5696496Y-961771D01*
G01X5699544Y-967867D01*
G01X5699544Y-977265D01*
G01X5696496Y-983361D01*
G01X5687098Y-986409D01*
G01X5656110Y-986409D01*
G01X5699544Y-1053719D02*
G01X5656110Y-1053719D01*
G01X5690146Y-1053719D02*
G01X5696496Y-1047369D01*
G01X5699544Y-1041273D01*
G01X5699544Y-1031875D01*
G01X5696496Y-1025779D01*
G01X5690146Y-1019683D01*
G01X5681002Y-1016381D01*
G01X5674652Y-1016381D01*
G01X5665508Y-1019683D01*
G01X5659158Y-1025779D01*
G01X5656110Y-1031875D01*
G01X5656110Y-1041273D01*
G01X5659158Y-1047369D01*
G01X5665508Y-1053719D01*
G01X5721134Y-1083691D02*
G01X5656110Y-1083691D01*
G54D10*
G01X8821420Y-2509012D02*
G01X8821420Y-2564638D01*
G01X8821420Y-2509012D02*
G01X8845296Y-2509012D01*
G01X8853170Y-2511552D01*
G01X8855710Y-2514346D01*
G01X8858504Y-2519426D01*
G01X8858504Y-2527554D01*
G01X8855710Y-2532888D01*
G01X8853170Y-2535428D01*
G01X8845296Y-2538222D01*
G01X8821420Y-2538222D01*
G01X8899652Y-2527554D02*
G01X8894318Y-2530094D01*
G01X8888984Y-2535428D01*
G01X8886190Y-2543556D01*
G01X8886190Y-2548890D01*
G01X8888984Y-2556764D01*
G01X8894318Y-2562098D01*
G01X8899652Y-2564638D01*
G01X8907526Y-2564638D01*
G01X8912860Y-2562098D01*
G01X8918194Y-2556764D01*
G01X8920734Y-2548890D01*
G01X8920734Y-2543556D01*
G01X8918194Y-2535428D01*
G01X8912860Y-2530094D01*
G01X8907526Y-2527554D01*
G01X8899652Y-2527554D01*
G01X8948420Y-2527554D02*
G01X8959088Y-2564638D01*
G01X8969756Y-2527554D02*
G01X8959088Y-2564638D01*
G01X8969756Y-2527554D02*
G01X8980424Y-2564638D01*
G01X8991092Y-2527554D02*
G01X8980424Y-2564638D01*
G01X9018778Y-2543556D02*
G01X9050782Y-2543556D01*
G01X9050782Y-2538222D01*
G01X9047988Y-2532888D01*
G01X9045448Y-2530094D01*
G01X9040114Y-2527554D01*
G01X9032240Y-2527554D01*
G01X9026906Y-2530094D01*
G01X9021572Y-2535428D01*
G01X9018778Y-2543556D01*
G01X9018778Y-2548890D01*
G01X9021572Y-2556764D01*
G01X9026906Y-2562098D01*
G01X9032240Y-2564638D01*
G01X9040114Y-2564638D01*
G01X9045448Y-2562098D01*
G01X9050782Y-2556764D01*
G01X9078468Y-2527554D02*
G01X9078468Y-2564638D01*
G01X9078468Y-2543556D02*
G01X9081262Y-2535428D01*
G01X9086596Y-2530094D01*
G01X9091930Y-2527554D01*
G01X9099804Y-2527554D01*
G01X8757726Y-4184612D02*
G01X8757726Y-4240238D01*
G01X8794810Y-4184612D02*
G01X8794810Y-4240238D01*
G01X8757726Y-4211028D02*
G01X8794810Y-4211028D01*
G01X8822496Y-4219156D02*
G01X8854500Y-4219156D01*
G01X8854500Y-4213822D01*
G01X8851706Y-4208488D01*
G01X8849166Y-4205694D01*
G01X8843832Y-4203154D01*
G01X8835958Y-4203154D01*
G01X8830624Y-4205694D01*
G01X8825290Y-4211028D01*
G01X8822496Y-4219156D01*
G01X8822496Y-4224490D01*
G01X8825290Y-4232364D01*
G01X8830624Y-4237698D01*
G01X8835958Y-4240238D01*
G01X8843832Y-4240238D01*
G01X8849166Y-4237698D01*
G01X8854500Y-4232364D01*
G01X8914190Y-4203154D02*
G01X8914190Y-4240238D01*
G01X8914190Y-4211028D02*
G01X8908856Y-4205694D01*
G01X8903522Y-4203154D01*
G01X8895648Y-4203154D01*
G01X8890314Y-4205694D01*
G01X8884980Y-4211028D01*
G01X8882186Y-4219156D01*
G01X8882186Y-4224490D01*
G01X8884980Y-4232364D01*
G01X8890314Y-4237698D01*
G01X8895648Y-4240238D01*
G01X8903522Y-4240238D01*
G01X8908856Y-4237698D01*
G01X8914190Y-4232364D01*
G01X8950004Y-4184612D02*
G01X8950004Y-4229570D01*
G01X8952544Y-4237698D01*
G01X8957878Y-4240238D01*
G01X8963212Y-4240238D01*
G01X8941876Y-4203154D02*
G01X8960418Y-4203154D01*
G01X8990898Y-4219156D02*
G01X9022902Y-4219156D01*
G01X9022902Y-4213822D01*
G01X9020108Y-4208488D01*
G01X9017568Y-4205694D01*
G01X9012234Y-4203154D01*
G01X9004360Y-4203154D01*
G01X8999026Y-4205694D01*
G01X8993692Y-4211028D01*
G01X8990898Y-4219156D01*
G01X8990898Y-4224490D01*
G01X8993692Y-4232364D01*
G01X8999026Y-4237698D01*
G01X9004360Y-4240238D01*
G01X9012234Y-4240238D01*
G01X9017568Y-4237698D01*
G01X9022902Y-4232364D01*
G01X9050588Y-4203154D02*
G01X9050588Y-4240238D01*
G01X9050588Y-4219156D02*
G01X9053382Y-4211028D01*
G01X9058716Y-4205694D01*
G01X9064050Y-4203154D01*
G01X9071924Y-4203154D01*
G01X6448590Y-1519361D02*
G01X6454686Y-1513011D01*
G01X6457988Y-1503613D01*
G01X6457988Y-1491421D01*
G01X6454686Y-1482023D01*
G01X6448590Y-1475927D01*
G01X6442494Y-1475927D01*
G01X6436144Y-1478975D01*
G01X6433096Y-1482023D01*
G01X6430048Y-1488119D01*
G01X6423698Y-1506915D01*
G01X6420650Y-1513011D01*
G01X6417602Y-1516059D01*
G01X6411252Y-1519361D01*
G01X6402108Y-1519361D01*
G01X6395758Y-1513011D01*
G01X6392710Y-1503613D01*
G01X6392710Y-1491421D01*
G01X6395758Y-1482023D01*
G01X6402108Y-1475927D01*
G01X6417602Y-1549333D02*
G01X6417602Y-1586417D01*
G01X6423698Y-1586417D01*
G01X6430048Y-1583369D01*
G01X6433096Y-1580321D01*
G01X6436144Y-1573971D01*
G01X6436144Y-1564827D01*
G01X6433096Y-1558477D01*
G01X6426746Y-1552381D01*
G01X6417602Y-1549333D01*
G01X6411252Y-1549333D01*
G01X6402108Y-1552381D01*
G01X6395758Y-1558477D01*
G01X6392710Y-1564827D01*
G01X6392710Y-1573971D01*
G01X6395758Y-1580321D01*
G01X6402108Y-1586417D01*
G01X6436144Y-1616389D02*
G01X6392710Y-1616389D01*
G01X6417602Y-1616389D02*
G01X6426746Y-1619437D01*
G01X6433096Y-1625533D01*
G01X6436144Y-1631883D01*
G01X6436144Y-1641027D01*
G01X6436144Y-1670999D02*
G01X6392710Y-1689541D01*
G01X6436144Y-1708083D02*
G01X6392710Y-1689541D01*
G01X6436144Y-1753549D02*
G01X6433096Y-1747199D01*
G01X6426746Y-1741103D01*
G01X6417602Y-1738055D01*
G01X6411252Y-1738055D01*
G01X6402108Y-1741103D01*
G01X6395758Y-1747199D01*
G01X6392710Y-1753549D01*
G01X6392710Y-1762693D01*
G01X6395758Y-1769043D01*
G01X6402108Y-1775139D01*
G01X6411252Y-1778441D01*
G01X6417602Y-1778441D01*
G01X6426746Y-1775139D01*
G01X6433096Y-1769043D01*
G01X6436144Y-1762693D01*
G01X6436144Y-1753549D01*
G01X6426746Y-1842449D02*
G01X6433096Y-1839401D01*
G01X6436144Y-1830003D01*
G01X6436144Y-1820859D01*
G01X6433096Y-1811461D01*
G01X6426746Y-1808413D01*
G01X6420650Y-1811461D01*
G01X6417602Y-1817557D01*
G01X6414554Y-1833051D01*
G01X6411252Y-1839401D01*
G01X6405156Y-1842449D01*
G01X6402108Y-1842449D01*
G01X6395758Y-1839401D01*
G01X6392710Y-1830003D01*
G01X6392710Y-1820859D01*
G01X6395758Y-1811461D01*
G01X6402108Y-1808413D01*
G54D12*
G01X4336034Y-677164D02*
G01X4271010Y-677164D01*
G01X4336034Y-655574D02*
G01X4336034Y-699008D01*
G01X4336034Y-729234D02*
G01X4271010Y-729234D01*
G01X4336034Y-772414D02*
G01X4271010Y-772414D01*
G01X4305046Y-729234D02*
G01X4305046Y-772414D01*
G01X4323588Y-802640D02*
G01X4326890Y-808736D01*
G01X4336034Y-817880D01*
G01X4271010Y-817880D01*
G01X5104384Y-674497D02*
G01X5039360Y-674497D01*
G01X5104384Y-652907D02*
G01X5104384Y-696341D01*
G01X5104384Y-726567D02*
G01X5039360Y-726567D01*
G01X5104384Y-769747D02*
G01X5039360Y-769747D01*
G01X5073396Y-726567D02*
G01X5073396Y-769747D01*
G01X5104384Y-818515D02*
G01X5101336Y-809117D01*
G01X5091938Y-803021D01*
G01X5076698Y-799973D01*
G01X5067300Y-799973D01*
G01X5051806Y-803021D01*
G01X5042408Y-809117D01*
G01X5039360Y-818515D01*
G01X5039360Y-824611D01*
G01X5042408Y-834009D01*
G01X5051806Y-840105D01*
G01X5067300Y-843153D01*
G01X5076698Y-843153D01*
G01X5091938Y-840105D01*
G01X5101336Y-834009D01*
G01X5104384Y-824611D01*
G01X5104384Y-818515D01*
G54D10*
G01X4326636Y-2382012D02*
G01X4326636Y-2424430D01*
G01X4324096Y-2432304D01*
G01X4321302Y-2435098D01*
G01X4315968Y-2437638D01*
G01X4310634Y-2437638D01*
G01X4305300Y-2435098D01*
G01X4302760Y-2432304D01*
G01X4300220Y-2424430D01*
G01X4300220Y-2419096D01*
G01X4354322Y-2382012D02*
G01X4354322Y-2437638D01*
G01X4354322Y-2437638D02*
G01X4386326Y-2437638D01*
G01X4453890Y-2395220D02*
G01X4451350Y-2389886D01*
G01X4446016Y-2384552D01*
G01X4440682Y-2382012D01*
G01X4430014Y-2382012D01*
G01X4424680Y-2384552D01*
G01X4419346Y-2389886D01*
G01X4416806Y-2395220D01*
G01X4414012Y-2403094D01*
G01X4414012Y-2416556D01*
G01X4416806Y-2424430D01*
G01X4419346Y-2429764D01*
G01X4424680Y-2435098D01*
G01X4430014Y-2437638D01*
G01X4440682Y-2437638D01*
G01X4446016Y-2435098D01*
G01X4451350Y-2429764D01*
G01X4453890Y-2424430D01*
G01X4508246Y-2382012D02*
G01X4508246Y-2424430D01*
G01X4505452Y-2432304D01*
G01X4502912Y-2435098D01*
G01X4497578Y-2437638D01*
G01X4492244Y-2437638D01*
G01X4486910Y-2435098D01*
G01X4484370Y-2432304D01*
G01X4481576Y-2424430D01*
G01X4481576Y-2419096D01*
G01X4535932Y-2382012D02*
G01X4535932Y-2437638D01*
G01X4535932Y-2437638D02*
G01X4567936Y-2437638D01*
G01X4635500Y-2395220D02*
G01X4632960Y-2389886D01*
G01X4627626Y-2384552D01*
G01X4622292Y-2382012D01*
G01X4611624Y-2382012D01*
G01X4606290Y-2384552D01*
G01X4600956Y-2389886D01*
G01X4598416Y-2395220D01*
G01X4595622Y-2403094D01*
G01X4595622Y-2416556D01*
G01X4598416Y-2424430D01*
G01X4600956Y-2429764D01*
G01X4606290Y-2435098D01*
G01X4611624Y-2437638D01*
G01X4622292Y-2437638D01*
G01X4627626Y-2435098D01*
G01X4632960Y-2429764D01*
G01X4635500Y-2424430D01*
G01X4689856Y-2382012D02*
G01X4689856Y-2424430D01*
G01X4687062Y-2432304D01*
G01X4684522Y-2435098D01*
G01X4679188Y-2437638D01*
G01X4673854Y-2437638D01*
G01X4668520Y-2435098D01*
G01X4665980Y-2432304D01*
G01X4663186Y-2424430D01*
G01X4663186Y-2419096D01*
G01X4717542Y-2382012D02*
G01X4717542Y-2437638D01*
G01X4717542Y-2437638D02*
G01X4749546Y-2437638D01*
G01X4817110Y-2395220D02*
G01X4814570Y-2389886D01*
G01X4809236Y-2384552D01*
G01X4803902Y-2382012D01*
G01X4793234Y-2382012D01*
G01X4787900Y-2384552D01*
G01X4782566Y-2389886D01*
G01X4780026Y-2395220D01*
G01X4777232Y-2403094D01*
G01X4777232Y-2416556D01*
G01X4780026Y-2424430D01*
G01X4782566Y-2429764D01*
G01X4787900Y-2435098D01*
G01X4793234Y-2437638D01*
G01X4803902Y-2437638D01*
G01X4809236Y-2435098D01*
G01X4814570Y-2429764D01*
G01X4817110Y-2424430D01*
G01X4871466Y-2382012D02*
G01X4871466Y-2424430D01*
G01X4868672Y-2432304D01*
G01X4866132Y-2435098D01*
G01X4860798Y-2437638D01*
G01X4855464Y-2437638D01*
G01X4850130Y-2435098D01*
G01X4847590Y-2432304D01*
G01X4844796Y-2424430D01*
G01X4844796Y-2419096D01*
G01X4899152Y-2382012D02*
G01X4899152Y-2437638D01*
G01X4899152Y-2437638D02*
G01X4931156Y-2437638D01*
G01X4998720Y-2395220D02*
G01X4996180Y-2389886D01*
G01X4990846Y-2384552D01*
G01X4985512Y-2382012D01*
G01X4974844Y-2382012D01*
G01X4969510Y-2384552D01*
G01X4964176Y-2389886D01*
G01X4961636Y-2395220D01*
G01X4958842Y-2403094D01*
G01X4958842Y-2416556D01*
G01X4961636Y-2424430D01*
G01X4964176Y-2429764D01*
G01X4969510Y-2435098D01*
G01X4974844Y-2437638D01*
G01X4985512Y-2437638D01*
G01X4990846Y-2435098D01*
G01X4996180Y-2429764D01*
G01X4998720Y-2424430D01*
G54D12*
G01X201676Y-2954020D02*
G01X159512Y-2987802D01*
G01X113284Y-2987802D01*
G01X201676Y-3021330D02*
G01X159512Y-2987802D01*
G01X201676Y-3090418D02*
G01X113284Y-3056890D01*
G01X201676Y-3090418D02*
G01X113284Y-3124200D01*
G01X142748Y-3069336D02*
G01X142748Y-3111500D01*
G01X201676Y-3159760D02*
G01X113284Y-3159760D01*
G01X201676Y-3159760D02*
G01X113284Y-3193288D01*
G01X201676Y-3227070D02*
G01X113284Y-3193288D01*
G01X201676Y-3227070D02*
G01X113284Y-3227070D01*
G01X201676Y-3262630D02*
G01X113284Y-3262630D01*
G01X201676Y-3262630D02*
G01X113284Y-3296158D01*
G01X201676Y-3329940D02*
G01X113284Y-3296158D01*
G01X201676Y-3329940D02*
G01X113284Y-3329940D01*
G01X201676Y-3365500D02*
G01X138684Y-3365500D01*
G01X125984Y-3369564D01*
G01X117602Y-3377946D01*
G01X113284Y-3390646D01*
G01X113284Y-3399028D01*
G01X117602Y-3411728D01*
G01X125984Y-3420110D01*
G01X138684Y-3424428D01*
G01X201676Y-3424428D01*
G01X180594Y-3617468D02*
G01X188976Y-3613150D01*
G01X197612Y-3604768D01*
G01X201676Y-3596386D01*
G01X201676Y-3579368D01*
G01X197612Y-3570986D01*
G01X188976Y-3562604D01*
G01X180594Y-3558540D01*
G01X168148Y-3554222D01*
G01X147066Y-3554222D01*
G01X134366Y-3558540D01*
G01X125984Y-3562604D01*
G01X117602Y-3570986D01*
G01X113284Y-3579368D01*
G01X113284Y-3596386D01*
G01X117602Y-3604768D01*
G01X125984Y-3613150D01*
G01X134366Y-3617468D01*
G01X172212Y-3673856D02*
G01X168148Y-3665474D01*
G01X159512Y-3657092D01*
G01X147066Y-3653028D01*
G01X138684Y-3653028D01*
G01X125984Y-3657092D01*
G01X117602Y-3665474D01*
G01X113284Y-3673856D01*
G01X113284Y-3686556D01*
G01X117602Y-3694938D01*
G01X125984Y-3703574D01*
G01X138684Y-3707638D01*
G01X147066Y-3707638D01*
G01X159512Y-3703574D01*
G01X168148Y-3694938D01*
G01X172212Y-3686556D01*
G01X172212Y-3673856D01*
G01X172212Y-3743198D02*
G01X113284Y-3743198D01*
G01X155448Y-3743198D02*
G01X168148Y-3755644D01*
G01X172212Y-3764026D01*
G01X172212Y-3776726D01*
G01X168148Y-3785108D01*
G01X155448Y-3789426D01*
G01X113284Y-3789426D01*
G01X201676Y-3837432D02*
G01X130048Y-3837432D01*
G01X117602Y-3841750D01*
G01X113284Y-3850132D01*
G01X113284Y-3858514D01*
G01X172212Y-3824986D02*
G01X172212Y-3854450D01*
G01X172212Y-3894074D02*
G01X113284Y-3894074D01*
G01X147066Y-3894074D02*
G01X159512Y-3898138D01*
G01X168148Y-3906520D01*
G01X172212Y-3914902D01*
G01X172212Y-3927602D01*
G01X172212Y-3983990D02*
G01X168148Y-3975608D01*
G01X159512Y-3967226D01*
G01X147066Y-3963162D01*
G01X138684Y-3963162D01*
G01X125984Y-3967226D01*
G01X117602Y-3975608D01*
G01X113284Y-3983990D01*
G01X113284Y-3996690D01*
G01X117602Y-4005072D01*
G01X125984Y-4013708D01*
G01X138684Y-4017772D01*
G01X147066Y-4017772D01*
G01X159512Y-4013708D01*
G01X168148Y-4005072D01*
G01X172212Y-3996690D01*
G01X172212Y-3983990D01*
G01X201676Y-4053332D02*
G01X113284Y-4053332D01*
G01X201676Y-4183126D02*
G01X113284Y-4183126D01*
G01X201676Y-4183126D02*
G01X201676Y-4220972D01*
G01X197612Y-4233672D01*
G01X193294Y-4237990D01*
G01X184912Y-4242054D01*
G01X176530Y-4242054D01*
G01X168148Y-4237990D01*
G01X163830Y-4233672D01*
G01X159512Y-4220972D01*
G01X159512Y-4183126D02*
G01X159512Y-4220972D01*
G01X155448Y-4233672D01*
G01X151130Y-4237990D01*
G01X142748Y-4242054D01*
G01X130048Y-4242054D01*
G01X121666Y-4237990D01*
G01X117602Y-4233672D01*
G01X113284Y-4220972D01*
G01X113284Y-4183126D01*
G01X172212Y-4298442D02*
G01X168148Y-4290060D01*
G01X159512Y-4281678D01*
G01X147066Y-4277614D01*
G01X138684Y-4277614D01*
G01X125984Y-4281678D01*
G01X117602Y-4290060D01*
G01X113284Y-4298442D01*
G01X113284Y-4311142D01*
G01X117602Y-4319524D01*
G01X125984Y-4328160D01*
G01X138684Y-4332224D01*
G01X147066Y-4332224D01*
G01X159512Y-4328160D01*
G01X168148Y-4319524D01*
G01X172212Y-4311142D01*
G01X172212Y-4298442D01*
G01X172212Y-4418330D02*
G01X113284Y-4418330D01*
G01X159512Y-4418330D02*
G01X168148Y-4409694D01*
G01X172212Y-4401312D01*
G01X172212Y-4388612D01*
G01X168148Y-4380230D01*
G01X159512Y-4371848D01*
G01X147066Y-4367784D01*
G01X138684Y-4367784D01*
G01X125984Y-4371848D01*
G01X117602Y-4380230D01*
G01X113284Y-4388612D01*
G01X113284Y-4401312D01*
G01X117602Y-4409694D01*
G01X125984Y-4418330D01*
G01X172212Y-4453890D02*
G01X113284Y-4453890D01*
G01X147066Y-4453890D02*
G01X159512Y-4457954D01*
G01X168148Y-4466336D01*
G01X172212Y-4474718D01*
G01X172212Y-4487418D01*
G01X201676Y-4573524D02*
G01X113284Y-4573524D01*
G01X159512Y-4573524D02*
G01X168148Y-4564888D01*
G01X172212Y-4556506D01*
G01X172212Y-4543806D01*
G01X168148Y-4535424D01*
G01X159512Y-4527042D01*
G01X147066Y-4522978D01*
G01X138684Y-4522978D01*
G01X125984Y-4527042D01*
G01X117602Y-4535424D01*
G01X113284Y-4543806D01*
G01X113284Y-4556506D01*
G01X117602Y-4564888D01*
G01X125984Y-4573524D01*
G01X172212Y-4703318D02*
G01X113284Y-4728464D01*
G01X172212Y-4753864D02*
G01X113284Y-4728464D01*
G01X201676Y-4797806D02*
G01X201676Y-4844034D01*
G01X168148Y-4818888D01*
G01X168148Y-4831334D01*
G01X163830Y-4839970D01*
G01X159512Y-4844034D01*
G01X147066Y-4848352D01*
G01X138684Y-4848352D01*
G01X125984Y-4844034D01*
G01X117602Y-4835652D01*
G01X113284Y-4822952D01*
G01X113284Y-4810252D01*
G01X117602Y-4797806D01*
G01X121666Y-4793488D01*
G01X130048Y-4789424D01*
G01X134366Y-4887976D02*
G01X130048Y-4883912D01*
G01X125984Y-4887976D01*
G01X130048Y-4892294D01*
G01X134366Y-4887976D01*
G01X180594Y-4931918D02*
G01X184912Y-4931918D01*
G01X193294Y-4936236D01*
G01X197612Y-4940300D01*
G01X201676Y-4948682D01*
G01X201676Y-4965700D01*
G01X197612Y-4974082D01*
G01X193294Y-4978400D01*
G01X184912Y-4982464D01*
G01X176530Y-4982464D01*
G01X168148Y-4978400D01*
G01X155448Y-4969764D01*
G01X113284Y-4927854D01*
G01X113284Y-4986782D01*
G01X6040120Y-5137912D02*
G01X6046216Y-5134610D01*
G01X6055614Y-5125466D01*
G01X6055614Y-5190490D01*
G01X6088888Y-5140960D02*
G01X6088888Y-5137912D01*
G01X6091936Y-5131562D01*
G01X6094984Y-5128514D01*
G01X6101080Y-5125466D01*
G01X6113526Y-5125466D01*
G01X6119876Y-5128514D01*
G01X6122924Y-5131562D01*
G01X6125972Y-5137912D01*
G01X6125972Y-5144008D01*
G01X6122924Y-5150104D01*
G01X6116574Y-5159502D01*
G01X6085840Y-5190490D01*
G01X6129020Y-5190490D01*
G01X6159246Y-5125466D02*
G01X6183884Y-5190490D01*
G01X6208776Y-5125466D02*
G01X6183884Y-5190490D01*
G01X6799072Y-5144262D02*
G01X6805168Y-5140960D01*
G01X6814566Y-5131816D01*
G01X6814566Y-5196840D01*
G01X6847840Y-5147310D02*
G01X6847840Y-5144262D01*
G01X6850888Y-5137912D01*
G01X6853936Y-5134864D01*
G01X6860032Y-5131816D01*
G01X6872478Y-5131816D01*
G01X6878828Y-5134864D01*
G01X6881876Y-5137912D01*
G01X6884924Y-5144262D01*
G01X6884924Y-5150358D01*
G01X6881876Y-5156454D01*
G01X6875526Y-5165852D01*
G01X6844792Y-5196840D01*
G01X6887972Y-5196840D01*
G01X6918198Y-5131816D02*
G01X6942836Y-5196840D01*
G01X6967728Y-5131816D02*
G01X6942836Y-5196840D01*
G01X7561072Y-5144262D02*
G01X7567168Y-5140960D01*
G01X7576566Y-5131816D01*
G01X7576566Y-5196840D01*
G01X7609840Y-5147310D02*
G01X7609840Y-5144262D01*
G01X7612888Y-5137912D01*
G01X7615936Y-5134864D01*
G01X7622032Y-5131816D01*
G01X7634478Y-5131816D01*
G01X7640828Y-5134864D01*
G01X7643876Y-5137912D01*
G01X7646924Y-5144262D01*
G01X7646924Y-5150358D01*
G01X7643876Y-5156454D01*
G01X7637526Y-5165852D01*
G01X7606792Y-5196840D01*
G01X7649972Y-5196840D01*
G01X7680198Y-5131816D02*
G01X7704836Y-5196840D01*
G01X7729728Y-5131816D02*
G01X7704836Y-5196840D01*
G01X4499356Y-3633216D02*
G01X4468368Y-3633216D01*
G01X4465320Y-3660902D01*
G01X4468368Y-3657854D01*
G01X4477766Y-3654806D01*
G01X4487164Y-3654806D01*
G01X4496308Y-3657854D01*
G01X4502404Y-3664204D01*
G01X4505706Y-3673348D01*
G01X4505706Y-3679698D01*
G01X4502404Y-3688842D01*
G01X4496308Y-3695192D01*
G01X4487164Y-3698240D01*
G01X4477766Y-3698240D01*
G01X4468368Y-3695192D01*
G01X4465320Y-3691890D01*
G01X4462272Y-3685794D01*
G01X4535932Y-3633216D02*
G01X4560570Y-3698240D01*
G01X4585462Y-3633216D02*
G01X4560570Y-3698240D01*
G01X5039487Y-3661410D02*
G01X5036439Y-3655060D01*
G01X5030089Y-3648964D01*
G01X5023993Y-3645916D01*
G01X5011547Y-3645916D01*
G01X5005451Y-3648964D01*
G01X4999101Y-3655060D01*
G01X4996053Y-3661410D01*
G01X4993005Y-3670554D01*
G01X4993005Y-3686048D01*
G01X4996053Y-3695446D01*
G01X4999101Y-3701542D01*
G01X5005451Y-3707892D01*
G01X5011547Y-3710940D01*
G01X5023993Y-3710940D01*
G01X5030089Y-3707892D01*
G01X5036439Y-3701542D01*
G01X5039487Y-3695446D01*
G01X5039487Y-3686048D01*
G01X5023993Y-3686048D02*
G01X5039487Y-3686048D01*
G01X5069713Y-3645916D02*
G01X5069713Y-3710940D01*
G01X5069713Y-3645916D02*
G01X5112893Y-3710940D01*
G01X5112893Y-3645916D02*
G01X5112893Y-3710940D01*
G01X5143119Y-3645916D02*
G01X5143119Y-3710940D01*
G01X5143119Y-3645916D02*
G01X5164709Y-3645916D01*
G01X5173853Y-3648964D01*
G01X5180203Y-3655060D01*
G01X5183251Y-3661410D01*
G01X5186299Y-3670554D01*
G01X5186299Y-3686048D01*
G01X5183251Y-3695446D01*
G01X5180203Y-3701542D01*
G01X5173853Y-3707892D01*
G01X5164709Y-3710940D01*
G01X5143119Y-3710940D01*
G01X4156202Y-454660D02*
G01X4153154Y-448310D01*
G01X4146804Y-442214D01*
G01X4140708Y-439166D01*
G01X4128262Y-439166D01*
G01X4122166Y-442214D01*
G01X4115816Y-448310D01*
G01X4112768Y-454660D01*
G01X4109720Y-463804D01*
G01X4109720Y-479298D01*
G01X4112768Y-488696D01*
G01X4115816Y-494792D01*
G01X4122166Y-501142D01*
G01X4128262Y-504190D01*
G01X4140708Y-504190D01*
G01X4146804Y-501142D01*
G01X4153154Y-494792D01*
G01X4156202Y-488696D01*
G01X4156202Y-479298D01*
G01X4140708Y-479298D02*
G01X4156202Y-479298D01*
G01X4186428Y-439166D02*
G01X4186428Y-504190D01*
G01X4186428Y-439166D02*
G01X4229608Y-504190D01*
G01X4229608Y-439166D02*
G01X4229608Y-504190D01*
G01X4259834Y-439166D02*
G01X4259834Y-504190D01*
G01X4259834Y-439166D02*
G01X4281424Y-439166D01*
G01X4290568Y-442214D01*
G01X4296918Y-448310D01*
G01X4299966Y-454660D01*
G01X4303014Y-463804D01*
G01X4303014Y-479298D01*
G01X4299966Y-488696D01*
G01X4296918Y-494792D01*
G01X4290568Y-501142D01*
G01X4281424Y-504190D01*
G01X4259834Y-504190D01*
G01X4912487Y-461010D02*
G01X4909439Y-454660D01*
G01X4903089Y-448564D01*
G01X4896993Y-445516D01*
G01X4884547Y-445516D01*
G01X4878451Y-448564D01*
G01X4872101Y-454660D01*
G01X4869053Y-461010D01*
G01X4866005Y-470154D01*
G01X4866005Y-485648D01*
G01X4869053Y-495046D01*
G01X4872101Y-501142D01*
G01X4878451Y-507492D01*
G01X4884547Y-510540D01*
G01X4896993Y-510540D01*
G01X4903089Y-507492D01*
G01X4909439Y-501142D01*
G01X4912487Y-495046D01*
G01X4912487Y-485648D01*
G01X4896993Y-485648D02*
G01X4912487Y-485648D01*
G01X4942713Y-445516D02*
G01X4942713Y-510540D01*
G01X4942713Y-445516D02*
G01X4985893Y-510540D01*
G01X4985893Y-445516D02*
G01X4985893Y-510540D01*
G01X5016119Y-445516D02*
G01X5016119Y-510540D01*
G01X5016119Y-445516D02*
G01X5037709Y-445516D01*
G01X5046853Y-448564D01*
G01X5053203Y-454660D01*
G01X5056251Y-461010D01*
G01X5059299Y-470154D01*
G01X5059299Y-485648D01*
G01X5056251Y-495046D01*
G01X5053203Y-501142D01*
G01X5046853Y-507492D01*
G01X5037709Y-510540D01*
G01X5016119Y-510540D01*
G01X3049511Y-466127D02*
G01X3046463Y-459777D01*
G01X3040113Y-453681D01*
G01X3034017Y-450633D01*
G01X3021571Y-450633D01*
G01X3015475Y-453681D01*
G01X3009125Y-459777D01*
G01X3006077Y-466127D01*
G01X3003029Y-475271D01*
G01X3003029Y-490765D01*
G01X3006077Y-500163D01*
G01X3009125Y-506259D01*
G01X3015475Y-512609D01*
G01X3021571Y-515657D01*
G01X3034017Y-515657D01*
G01X3040113Y-512609D01*
G01X3046463Y-506259D01*
G01X3049511Y-500163D01*
G01X3049511Y-490765D01*
G01X3034017Y-490765D02*
G01X3049511Y-490765D01*
G01X3079737Y-450633D02*
G01X3079737Y-515657D01*
G01X3079737Y-450633D02*
G01X3122917Y-515657D01*
G01X3122917Y-450633D02*
G01X3122917Y-515657D01*
G01X3153143Y-450633D02*
G01X3153143Y-515657D01*
G01X3153143Y-450633D02*
G01X3174733Y-450633D01*
G01X3183877Y-453681D01*
G01X3190227Y-459777D01*
G01X3193275Y-466127D01*
G01X3196323Y-475271D01*
G01X3196323Y-490765D01*
G01X3193275Y-500163D01*
G01X3190227Y-506259D01*
G01X3183877Y-512609D01*
G01X3174733Y-515657D01*
G01X3153143Y-515657D01*
G01X8744458Y-2377552D02*
G01X8741410Y-2371202D01*
G01X8735060Y-2365106D01*
G01X8728964Y-2362058D01*
G01X8716518Y-2362058D01*
G01X8710422Y-2365106D01*
G01X8704072Y-2371202D01*
G01X8701024Y-2377552D01*
G01X8697976Y-2386696D01*
G01X8697976Y-2402190D01*
G01X8701024Y-2411588D01*
G01X8704072Y-2417684D01*
G01X8710422Y-2424034D01*
G01X8716518Y-2427082D01*
G01X8728964Y-2427082D01*
G01X8735060Y-2424034D01*
G01X8741410Y-2417684D01*
G01X8744458Y-2411588D01*
G01X8744458Y-2402190D01*
G01X8728964Y-2402190D02*
G01X8744458Y-2402190D01*
G01X8774684Y-2362058D02*
G01X8774684Y-2427082D01*
G01X8774684Y-2362058D02*
G01X8817864Y-2427082D01*
G01X8817864Y-2362058D02*
G01X8817864Y-2427082D01*
G01X8848090Y-2362058D02*
G01X8848090Y-2427082D01*
G01X8848090Y-2362058D02*
G01X8869680Y-2362058D01*
G01X8878824Y-2365106D01*
G01X8885174Y-2371202D01*
G01X8888222Y-2377552D01*
G01X8891270Y-2386696D01*
G01X8891270Y-2402190D01*
G01X8888222Y-2411588D01*
G01X8885174Y-2417684D01*
G01X8878824Y-2424034D01*
G01X8869680Y-2427082D01*
G01X8848090Y-2427082D01*
G01X3246501Y-445516D02*
G01X3280537Y-445516D01*
G01X3261995Y-470154D01*
G01X3271393Y-470154D01*
G01X3277489Y-473202D01*
G01X3280537Y-476504D01*
G01X3283839Y-485648D01*
G01X3283839Y-491998D01*
G01X3280537Y-501142D01*
G01X3274441Y-507492D01*
G01X3265297Y-510540D01*
G01X3255899Y-510540D01*
G01X3246501Y-507492D01*
G01X3243453Y-504190D01*
G01X3240405Y-498094D01*
G01X3314065Y-445516D02*
G01X3338703Y-510540D01*
G01X3363595Y-445516D02*
G01X3338703Y-510540D01*
G01X3399917Y-445516D02*
G01X3433953Y-445516D01*
G01X3415411Y-470154D01*
G01X3424555Y-470154D01*
G01X3430905Y-473202D01*
G01X3433953Y-476504D01*
G01X3437001Y-485648D01*
G01X3437001Y-491998D01*
G01X3433953Y-501142D01*
G01X3427857Y-507492D01*
G01X3418459Y-510540D01*
G01X3409061Y-510540D01*
G01X3399917Y-507492D01*
G01X3396869Y-504190D01*
G01X3393821Y-498094D01*
G01X8701405Y-1867662D02*
G01X8707501Y-1864360D01*
G01X8716899Y-1855216D01*
G01X8716899Y-1920240D01*
G01X8750173Y-1870710D02*
G01X8750173Y-1867662D01*
G01X8753221Y-1861312D01*
G01X8756269Y-1858264D01*
G01X8762365Y-1855216D01*
G01X8774811Y-1855216D01*
G01X8781161Y-1858264D01*
G01X8784209Y-1861312D01*
G01X8787257Y-1867662D01*
G01X8787257Y-1873758D01*
G01X8784209Y-1879854D01*
G01X8777859Y-1889252D01*
G01X8747125Y-1920240D01*
G01X8790305Y-1920240D01*
G01X8820531Y-1855216D02*
G01X8845169Y-1920240D01*
G01X8870061Y-1855216D02*
G01X8845169Y-1920240D01*
G01X8714105Y-4025351D02*
G01X8720201Y-4022049D01*
G01X8729599Y-4012905D01*
G01X8729599Y-4077929D01*
G01X8762873Y-4028399D02*
G01X8762873Y-4025351D01*
G01X8765921Y-4019001D01*
G01X8768969Y-4015953D01*
G01X8775065Y-4012905D01*
G01X8787511Y-4012905D01*
G01X8793861Y-4015953D01*
G01X8796909Y-4019001D01*
G01X8799957Y-4025351D01*
G01X8799957Y-4031447D01*
G01X8796909Y-4037543D01*
G01X8790559Y-4046941D01*
G01X8759825Y-4077929D01*
G01X8803005Y-4077929D01*
G01X8833231Y-4012905D02*
G01X8857869Y-4077929D01*
G01X8882761Y-4012905D02*
G01X8857869Y-4077929D01*
G01X1105916Y-5697235D02*
G01X1105916Y-5728223D01*
G01X1133602Y-5731271D01*
G01X1130554Y-5728223D01*
G01X1127506Y-5718825D01*
G01X1127506Y-5709427D01*
G01X1130554Y-5700283D01*
G01X1136904Y-5694187D01*
G01X1146048Y-5690885D01*
G01X1152398Y-5690885D01*
G01X1161542Y-5694187D01*
G01X1167892Y-5700283D01*
G01X1170940Y-5709427D01*
G01X1170940Y-5718825D01*
G01X1167892Y-5728223D01*
G01X1164590Y-5731271D01*
G01X1158494Y-5734319D01*
G01X1105916Y-5660659D02*
G01X1170940Y-5636021D01*
G01X1105916Y-5611129D02*
G01X1170940Y-5636021D01*
G01X1119420Y-5468267D02*
G01X1113070Y-5471315D01*
G01X1106974Y-5477665D01*
G01X1103926Y-5483761D01*
G01X1103926Y-5496207D01*
G01X1106974Y-5502303D01*
G01X1113070Y-5508653D01*
G01X1119420Y-5511701D01*
G01X1128564Y-5514749D01*
G01X1144058Y-5514749D01*
G01X1153456Y-5511701D01*
G01X1159552Y-5508653D01*
G01X1165902Y-5502303D01*
G01X1168950Y-5496207D01*
G01X1168950Y-5483761D01*
G01X1165902Y-5477665D01*
G01X1159552Y-5471315D01*
G01X1153456Y-5468267D01*
G01X1144058Y-5468267D01*
G01X1144058Y-5483761D02*
G01X1144058Y-5468267D01*
G01X1103926Y-5438041D02*
G01X1168950Y-5438041D01*
G01X1103926Y-5438041D02*
G01X1168950Y-5394861D01*
G01X1103926Y-5394861D02*
G01X1168950Y-5394861D01*
G01X1103926Y-5364635D02*
G01X1168950Y-5364635D01*
G01X1103926Y-5364635D02*
G01X1103926Y-5343045D01*
G01X1106974Y-5333901D01*
G01X1113070Y-5327551D01*
G01X1119420Y-5324503D01*
G01X1128564Y-5321455D01*
G01X1144058Y-5321455D01*
G01X1153456Y-5324503D01*
G01X1159552Y-5327551D01*
G01X1165902Y-5333901D01*
G01X1168950Y-5343045D01*
G01X1168950Y-5364635D01*
G01X1756355Y-5697235D02*
G01X1756355Y-5728223D01*
G01X1784041Y-5731271D01*
G01X1780993Y-5728223D01*
G01X1777945Y-5718825D01*
G01X1777945Y-5709427D01*
G01X1780993Y-5700283D01*
G01X1787343Y-5694187D01*
G01X1796487Y-5690885D01*
G01X1802837Y-5690885D01*
G01X1811981Y-5694187D01*
G01X1818331Y-5700283D01*
G01X1821379Y-5709427D01*
G01X1821379Y-5718825D01*
G01X1818331Y-5728223D01*
G01X1815029Y-5731271D01*
G01X1808933Y-5734319D01*
G01X1756355Y-5660659D02*
G01X1821379Y-5636021D01*
G01X1756355Y-5611129D02*
G01X1821379Y-5636021D01*
G01X1769859Y-5468267D02*
G01X1763509Y-5471315D01*
G01X1757413Y-5477665D01*
G01X1754365Y-5483761D01*
G01X1754365Y-5496207D01*
G01X1757413Y-5502303D01*
G01X1763509Y-5508653D01*
G01X1769859Y-5511701D01*
G01X1779003Y-5514749D01*
G01X1794497Y-5514749D01*
G01X1803895Y-5511701D01*
G01X1809991Y-5508653D01*
G01X1816341Y-5502303D01*
G01X1819389Y-5496207D01*
G01X1819389Y-5483761D01*
G01X1816341Y-5477665D01*
G01X1809991Y-5471315D01*
G01X1803895Y-5468267D01*
G01X1794497Y-5468267D01*
G01X1794497Y-5483761D02*
G01X1794497Y-5468267D01*
G01X1754365Y-5438041D02*
G01X1819389Y-5438041D01*
G01X1754365Y-5438041D02*
G01X1819389Y-5394861D01*
G01X1754365Y-5394861D02*
G01X1819389Y-5394861D01*
G01X1754365Y-5364635D02*
G01X1819389Y-5364635D01*
G01X1754365Y-5364635D02*
G01X1754365Y-5343045D01*
G01X1757413Y-5333901D01*
G01X1763509Y-5327551D01*
G01X1769859Y-5324503D01*
G01X1779003Y-5321455D01*
G01X1794497Y-5321455D01*
G01X1803895Y-5324503D01*
G01X1809991Y-5327551D01*
G01X1816341Y-5333901D01*
G01X1819389Y-5343045D01*
G01X1819389Y-5364635D01*
G01X2406794Y-5697235D02*
G01X2406794Y-5728223D01*
G01X2434480Y-5731271D01*
G01X2431432Y-5728223D01*
G01X2428384Y-5718825D01*
G01X2428384Y-5709427D01*
G01X2431432Y-5700283D01*
G01X2437782Y-5694187D01*
G01X2446926Y-5690885D01*
G01X2453276Y-5690885D01*
G01X2462420Y-5694187D01*
G01X2468770Y-5700283D01*
G01X2471818Y-5709427D01*
G01X2471818Y-5718825D01*
G01X2468770Y-5728223D01*
G01X2465468Y-5731271D01*
G01X2459372Y-5734319D01*
G01X2406794Y-5660659D02*
G01X2471818Y-5636021D01*
G01X2406794Y-5611129D02*
G01X2471818Y-5636021D01*
G01X2420298Y-5468267D02*
G01X2413948Y-5471315D01*
G01X2407852Y-5477665D01*
G01X2404804Y-5483761D01*
G01X2404804Y-5496207D01*
G01X2407852Y-5502303D01*
G01X2413948Y-5508653D01*
G01X2420298Y-5511701D01*
G01X2429442Y-5514749D01*
G01X2444936Y-5514749D01*
G01X2454334Y-5511701D01*
G01X2460430Y-5508653D01*
G01X2466780Y-5502303D01*
G01X2469828Y-5496207D01*
G01X2469828Y-5483761D01*
G01X2466780Y-5477665D01*
G01X2460430Y-5471315D01*
G01X2454334Y-5468267D01*
G01X2444936Y-5468267D01*
G01X2444936Y-5483761D02*
G01X2444936Y-5468267D01*
G01X2404804Y-5438041D02*
G01X2469828Y-5438041D01*
G01X2404804Y-5438041D02*
G01X2469828Y-5394861D01*
G01X2404804Y-5394861D02*
G01X2469828Y-5394861D01*
G01X2404804Y-5364635D02*
G01X2469828Y-5364635D01*
G01X2404804Y-5364635D02*
G01X2404804Y-5343045D01*
G01X2407852Y-5333901D01*
G01X2413948Y-5327551D01*
G01X2420298Y-5324503D01*
G01X2429442Y-5321455D01*
G01X2444936Y-5321455D01*
G01X2454334Y-5324503D01*
G01X2460430Y-5327551D01*
G01X2466780Y-5333901D01*
G01X2469828Y-5343045D01*
G01X2469828Y-5364635D01*
G01X3057233Y-5697235D02*
G01X3057233Y-5728223D01*
G01X3084919Y-5731271D01*
G01X3081871Y-5728223D01*
G01X3078823Y-5718825D01*
G01X3078823Y-5709427D01*
G01X3081871Y-5700283D01*
G01X3088221Y-5694187D01*
G01X3097365Y-5690885D01*
G01X3103715Y-5690885D01*
G01X3112859Y-5694187D01*
G01X3119209Y-5700283D01*
G01X3122257Y-5709427D01*
G01X3122257Y-5718825D01*
G01X3119209Y-5728223D01*
G01X3115907Y-5731271D01*
G01X3109811Y-5734319D01*
G01X3057233Y-5660659D02*
G01X3122257Y-5636021D01*
G01X3057233Y-5611129D02*
G01X3122257Y-5636021D01*
G01X3070737Y-5468267D02*
G01X3064387Y-5471315D01*
G01X3058291Y-5477665D01*
G01X3055243Y-5483761D01*
G01X3055243Y-5496207D01*
G01X3058291Y-5502303D01*
G01X3064387Y-5508653D01*
G01X3070737Y-5511701D01*
G01X3079881Y-5514749D01*
G01X3095375Y-5514749D01*
G01X3104773Y-5511701D01*
G01X3110869Y-5508653D01*
G01X3117219Y-5502303D01*
G01X3120267Y-5496207D01*
G01X3120267Y-5483761D01*
G01X3117219Y-5477665D01*
G01X3110869Y-5471315D01*
G01X3104773Y-5468267D01*
G01X3095375Y-5468267D01*
G01X3095375Y-5483761D02*
G01X3095375Y-5468267D01*
G01X3055243Y-5438041D02*
G01X3120267Y-5438041D01*
G01X3055243Y-5438041D02*
G01X3120267Y-5394861D01*
G01X3055243Y-5394861D02*
G01X3120267Y-5394861D01*
G01X3055243Y-5364635D02*
G01X3120267Y-5364635D01*
G01X3055243Y-5364635D02*
G01X3055243Y-5343045D01*
G01X3058291Y-5333901D01*
G01X3064387Y-5327551D01*
G01X3070737Y-5324503D01*
G01X3079881Y-5321455D01*
G01X3095375Y-5321455D01*
G01X3104773Y-5324503D01*
G01X3110869Y-5327551D01*
G01X3117219Y-5333901D01*
G01X3120267Y-5343045D01*
G01X3120267Y-5364635D01*
G01X3707672Y-5697235D02*
G01X3707672Y-5728223D01*
G01X3735358Y-5731271D01*
G01X3732310Y-5728223D01*
G01X3729262Y-5718825D01*
G01X3729262Y-5709427D01*
G01X3732310Y-5700283D01*
G01X3738660Y-5694187D01*
G01X3747804Y-5690885D01*
G01X3754154Y-5690885D01*
G01X3763298Y-5694187D01*
G01X3769648Y-5700283D01*
G01X3772696Y-5709427D01*
G01X3772696Y-5718825D01*
G01X3769648Y-5728223D01*
G01X3766346Y-5731271D01*
G01X3760250Y-5734319D01*
G01X3707672Y-5660659D02*
G01X3772696Y-5636021D01*
G01X3707672Y-5611129D02*
G01X3772696Y-5636021D01*
G01X3721176Y-5468267D02*
G01X3714826Y-5471315D01*
G01X3708730Y-5477665D01*
G01X3705682Y-5483761D01*
G01X3705682Y-5496207D01*
G01X3708730Y-5502303D01*
G01X3714826Y-5508653D01*
G01X3721176Y-5511701D01*
G01X3730320Y-5514749D01*
G01X3745814Y-5514749D01*
G01X3755212Y-5511701D01*
G01X3761308Y-5508653D01*
G01X3767658Y-5502303D01*
G01X3770706Y-5496207D01*
G01X3770706Y-5483761D01*
G01X3767658Y-5477665D01*
G01X3761308Y-5471315D01*
G01X3755212Y-5468267D01*
G01X3745814Y-5468267D01*
G01X3745814Y-5483761D02*
G01X3745814Y-5468267D01*
G01X3705682Y-5438041D02*
G01X3770706Y-5438041D01*
G01X3705682Y-5438041D02*
G01X3770706Y-5394861D01*
G01X3705682Y-5394861D02*
G01X3770706Y-5394861D01*
G01X3705682Y-5364635D02*
G01X3770706Y-5364635D01*
G01X3705682Y-5364635D02*
G01X3705682Y-5343045D01*
G01X3708730Y-5333901D01*
G01X3714826Y-5327551D01*
G01X3721176Y-5324503D01*
G01X3730320Y-5321455D01*
G01X3745814Y-5321455D01*
G01X3755212Y-5324503D01*
G01X3761308Y-5327551D01*
G01X3767658Y-5333901D01*
G01X3770706Y-5343045D01*
G01X3770706Y-5364635D01*
G01X4358111Y-5697235D02*
G01X4358111Y-5728223D01*
G01X4385797Y-5731271D01*
G01X4382749Y-5728223D01*
G01X4379701Y-5718825D01*
G01X4379701Y-5709427D01*
G01X4382749Y-5700283D01*
G01X4389099Y-5694187D01*
G01X4398243Y-5690885D01*
G01X4404593Y-5690885D01*
G01X4413737Y-5694187D01*
G01X4420087Y-5700283D01*
G01X4423135Y-5709427D01*
G01X4423135Y-5718825D01*
G01X4420087Y-5728223D01*
G01X4416785Y-5731271D01*
G01X4410689Y-5734319D01*
G01X4358111Y-5660659D02*
G01X4423135Y-5636021D01*
G01X4358111Y-5611129D02*
G01X4423135Y-5636021D01*
G01X4371615Y-5468267D02*
G01X4365265Y-5471315D01*
G01X4359169Y-5477665D01*
G01X4356121Y-5483761D01*
G01X4356121Y-5496207D01*
G01X4359169Y-5502303D01*
G01X4365265Y-5508653D01*
G01X4371615Y-5511701D01*
G01X4380759Y-5514749D01*
G01X4396253Y-5514749D01*
G01X4405651Y-5511701D01*
G01X4411747Y-5508653D01*
G01X4418097Y-5502303D01*
G01X4421145Y-5496207D01*
G01X4421145Y-5483761D01*
G01X4418097Y-5477665D01*
G01X4411747Y-5471315D01*
G01X4405651Y-5468267D01*
G01X4396253Y-5468267D01*
G01X4396253Y-5483761D02*
G01X4396253Y-5468267D01*
G01X4356121Y-5438041D02*
G01X4421145Y-5438041D01*
G01X4356121Y-5438041D02*
G01X4421145Y-5394861D01*
G01X4356121Y-5394861D02*
G01X4421145Y-5394861D01*
G01X4356121Y-5364635D02*
G01X4421145Y-5364635D01*
G01X4356121Y-5364635D02*
G01X4356121Y-5343045D01*
G01X4359169Y-5333901D01*
G01X4365265Y-5327551D01*
G01X4371615Y-5324503D01*
G01X4380759Y-5321455D01*
G01X4396253Y-5321455D01*
G01X4405651Y-5324503D01*
G01X4411747Y-5327551D01*
G01X4418097Y-5333901D01*
G01X4421145Y-5343045D01*
G01X4421145Y-5364635D01*
G01X1068705Y-3595116D02*
G01X1068705Y-3660140D01*
G01X1068705Y-3595116D02*
G01X1093597Y-3660140D01*
G01X1118235Y-3595116D02*
G01X1093597Y-3660140D01*
G01X1118235Y-3595116D02*
G01X1118235Y-3660140D01*
G01X1221899Y-3595116D02*
G01X1221899Y-3660140D01*
G01X1221899Y-3595116D02*
G01X1249839Y-3595116D01*
G01X1258983Y-3598164D01*
G01X1262031Y-3601212D01*
G01X1265333Y-3607562D01*
G01X1265333Y-3613658D01*
G01X1262031Y-3619754D01*
G01X1258983Y-3622802D01*
G01X1249839Y-3626104D01*
G01X1221899Y-3626104D01*
G01X1243489Y-3626104D02*
G01X1265333Y-3660140D01*
G01X1295559Y-3595116D02*
G01X1295559Y-3660140D01*
G01X1295559Y-3595116D02*
G01X1323245Y-3595116D01*
G01X1332643Y-3598164D01*
G01X1335691Y-3601212D01*
G01X1338739Y-3607562D01*
G01X1338739Y-3616706D01*
G01X1335691Y-3622802D01*
G01X1332643Y-3626104D01*
G01X1323245Y-3629152D01*
G01X1295559Y-3629152D01*
G01X1368965Y-3595116D02*
G01X1368965Y-3660140D01*
G01X1368965Y-3595116D02*
G01X1393603Y-3660140D01*
G01X1418495Y-3595116D02*
G01X1393603Y-3660140D01*
G01X1418495Y-3595116D02*
G01X1418495Y-3660140D01*
G01X1568641Y-3610610D02*
G01X1565593Y-3604260D01*
G01X1559243Y-3598164D01*
G01X1553147Y-3595116D01*
G01X1540701Y-3595116D01*
G01X1534605Y-3598164D01*
G01X1528255Y-3604260D01*
G01X1525207Y-3610610D01*
G01X1522159Y-3619754D01*
G01X1522159Y-3635248D01*
G01X1525207Y-3644646D01*
G01X1528255Y-3650742D01*
G01X1534605Y-3657092D01*
G01X1540701Y-3660140D01*
G01X1553147Y-3660140D01*
G01X1559243Y-3657092D01*
G01X1565593Y-3650742D01*
G01X1568641Y-3644646D01*
G01X1598867Y-3595116D02*
G01X1614107Y-3660140D01*
G01X1629601Y-3595116D02*
G01X1614107Y-3660140D01*
G01X1629601Y-3595116D02*
G01X1645095Y-3660140D01*
G01X1660589Y-3595116D02*
G01X1645095Y-3660140D01*
G01X1810734Y-3610610D02*
G01X1807686Y-3604260D01*
G01X1801336Y-3598164D01*
G01X1795240Y-3595116D01*
G01X1782794Y-3595116D01*
G01X1776698Y-3598164D01*
G01X1770348Y-3604260D01*
G01X1767300Y-3610610D01*
G01X1764252Y-3619754D01*
G01X1764252Y-3635248D01*
G01X1767300Y-3644646D01*
G01X1770348Y-3650742D01*
G01X1776698Y-3657092D01*
G01X1782794Y-3660140D01*
G01X1795240Y-3660140D01*
G01X1801336Y-3657092D01*
G01X1807686Y-3650742D01*
G01X1810734Y-3644646D01*
G01X1810734Y-3635248D01*
G01X1795240Y-3635248D02*
G01X1810734Y-3635248D01*
G01X1840960Y-3595116D02*
G01X1840960Y-3660140D01*
G01X1840960Y-3595116D02*
G01X1884140Y-3660140D01*
G01X1884140Y-3595116D02*
G01X1884140Y-3660140D01*
G01X1914366Y-3595116D02*
G01X1914366Y-3660140D01*
G01X1914366Y-3595116D02*
G01X1935956Y-3595116D01*
G01X1945100Y-3598164D01*
G01X1951450Y-3604260D01*
G01X1954498Y-3610610D01*
G01X1957546Y-3619754D01*
G01X1957546Y-3635248D01*
G01X1954498Y-3644646D01*
G01X1951450Y-3650742D01*
G01X1945100Y-3657092D01*
G01X1935956Y-3660140D01*
G01X1914366Y-3660140D01*
G01X2036572Y-3607562D02*
G01X2042668Y-3604260D01*
G01X2052066Y-3595116D01*
G01X2052066Y-3660140D01*
G01X2085340Y-3610610D02*
G01X2085340Y-3607562D01*
G01X2088388Y-3601212D01*
G01X2091436Y-3598164D01*
G01X2097532Y-3595116D01*
G01X2109978Y-3595116D01*
G01X2116328Y-3598164D01*
G01X2119376Y-3601212D01*
G01X2122424Y-3607562D01*
G01X2122424Y-3613658D01*
G01X2119376Y-3619754D01*
G01X2113026Y-3629152D01*
G01X2082292Y-3660140D01*
G01X2125472Y-3660140D01*
G01X2155698Y-3595116D02*
G01X2180336Y-3660140D01*
G01X2205228Y-3595116D02*
G01X2180336Y-3660140D01*
G01X2076006Y-407162D02*
G01X2082102Y-403860D01*
G01X2091500Y-394716D01*
G01X2091500Y-459740D01*
G01X2124774Y-410210D02*
G01X2124774Y-407162D01*
G01X2127822Y-400812D01*
G01X2130870Y-397764D01*
G01X2136966Y-394716D01*
G01X2149412Y-394716D01*
G01X2155762Y-397764D01*
G01X2158810Y-400812D01*
G01X2161858Y-407162D01*
G01X2161858Y-413258D01*
G01X2158810Y-419354D01*
G01X2152460Y-428752D01*
G01X2121726Y-459740D01*
G01X2164906Y-459740D01*
G01X2195132Y-394716D02*
G01X2219770Y-459740D01*
G01X2244662Y-394716D02*
G01X2219770Y-459740D01*
G01X1850168Y-410210D02*
G01X1847120Y-403860D01*
G01X1840770Y-397764D01*
G01X1834674Y-394716D01*
G01X1822228Y-394716D01*
G01X1816132Y-397764D01*
G01X1809782Y-403860D01*
G01X1806734Y-410210D01*
G01X1803686Y-419354D01*
G01X1803686Y-434848D01*
G01X1806734Y-444246D01*
G01X1809782Y-450342D01*
G01X1816132Y-456692D01*
G01X1822228Y-459740D01*
G01X1834674Y-459740D01*
G01X1840770Y-456692D01*
G01X1847120Y-450342D01*
G01X1850168Y-444246D01*
G01X1850168Y-434848D01*
G01X1834674Y-434848D02*
G01X1850168Y-434848D01*
G01X1880394Y-394716D02*
G01X1880394Y-459740D01*
G01X1880394Y-394716D02*
G01X1923574Y-459740D01*
G01X1923574Y-394716D02*
G01X1923574Y-459740D01*
G01X1953800Y-394716D02*
G01X1953800Y-459740D01*
G01X1953800Y-394716D02*
G01X1975390Y-394716D01*
G01X1984534Y-397764D01*
G01X1990884Y-403860D01*
G01X1993932Y-410210D01*
G01X1996980Y-419354D01*
G01X1996980Y-434848D01*
G01X1993932Y-444246D01*
G01X1990884Y-450342D01*
G01X1984534Y-456692D01*
G01X1975390Y-459740D01*
G01X1953800Y-459740D01*
G01X1608074Y-410210D02*
G01X1605026Y-403860D01*
G01X1598676Y-397764D01*
G01X1592580Y-394716D01*
G01X1580134Y-394716D01*
G01X1574038Y-397764D01*
G01X1567688Y-403860D01*
G01X1564640Y-410210D01*
G01X1561592Y-419354D01*
G01X1561592Y-434848D01*
G01X1564640Y-444246D01*
G01X1567688Y-450342D01*
G01X1574038Y-456692D01*
G01X1580134Y-459740D01*
G01X1592580Y-459740D01*
G01X1598676Y-456692D01*
G01X1605026Y-450342D01*
G01X1608074Y-444246D01*
G01X1638300Y-394716D02*
G01X1653540Y-459740D01*
G01X1669034Y-394716D02*
G01X1653540Y-459740D01*
G01X1669034Y-394716D02*
G01X1684528Y-459740D01*
G01X1700022Y-394716D02*
G01X1684528Y-459740D01*
G01X1261332Y-394716D02*
G01X1261332Y-459740D01*
G01X1261332Y-394716D02*
G01X1289272Y-394716D01*
G01X1298416Y-397764D01*
G01X1301464Y-400812D01*
G01X1304766Y-407162D01*
G01X1304766Y-413258D01*
G01X1301464Y-419354D01*
G01X1298416Y-422402D01*
G01X1289272Y-425704D01*
G01X1261332Y-425704D01*
G01X1282922Y-425704D02*
G01X1304766Y-459740D01*
G01X1334992Y-394716D02*
G01X1334992Y-459740D01*
G01X1334992Y-394716D02*
G01X1362678Y-394716D01*
G01X1372076Y-397764D01*
G01X1375124Y-400812D01*
G01X1378172Y-407162D01*
G01X1378172Y-416306D01*
G01X1375124Y-422402D01*
G01X1372076Y-425704D01*
G01X1362678Y-428752D01*
G01X1334992Y-428752D01*
G01X1408398Y-394716D02*
G01X1408398Y-459740D01*
G01X1408398Y-394716D02*
G01X1433036Y-459740D01*
G01X1457928Y-394716D02*
G01X1433036Y-459740D01*
G01X1457928Y-394716D02*
G01X1457928Y-459740D01*
G01X1108139Y-394716D02*
G01X1108139Y-459740D01*
G01X1108139Y-394716D02*
G01X1133031Y-459740D01*
G01X1157669Y-394716D02*
G01X1133031Y-459740D01*
G01X1157669Y-394716D02*
G01X1157669Y-459740D01*
G01X4008120Y-3268530D02*
G01X4008120Y-3333554D01*
G01X4041394Y-3284024D02*
G01X4041394Y-3280976D01*
G01X4044442Y-3274626D01*
G01X4047490Y-3271578D01*
G01X4053586Y-3268530D01*
G01X4066032Y-3268530D01*
G01X4072382Y-3271578D01*
G01X4075430Y-3274626D01*
G01X4078478Y-3280976D01*
G01X4078478Y-3287072D01*
G01X4075430Y-3293168D01*
G01X4069080Y-3302566D01*
G01X4038346Y-3333554D01*
G01X4081526Y-3333554D01*
G01X4157980Y-3284024D02*
G01X4154932Y-3277674D01*
G01X4148836Y-3271578D01*
G01X4142486Y-3268530D01*
G01X4130294Y-3268530D01*
G01X4123944Y-3271578D01*
G01X4117848Y-3277674D01*
G01X4114800Y-3284024D01*
G01X4111752Y-3293168D01*
G01X4111752Y-3308662D01*
G01X4114800Y-3318060D01*
G01X4117848Y-3324156D01*
G01X4123944Y-3330506D01*
G01X4130294Y-3333554D01*
G01X4142486Y-3333554D01*
G01X4148836Y-3330506D01*
G01X4154932Y-3324156D01*
G01X4157980Y-3318060D01*
G01X2519934Y-183642D02*
G01X2454910Y-183642D01*
G01X2519934Y-183642D02*
G01X2519934Y-211582D01*
G01X2516886Y-220726D01*
G01X2513838Y-223774D01*
G01X2507488Y-227076D01*
G01X2501392Y-227076D01*
G01X2495296Y-223774D01*
G01X2492248Y-220726D01*
G01X2488946Y-211582D01*
G01X2488946Y-183642D02*
G01X2488946Y-211582D01*
G01X2485898Y-220726D01*
G01X2482850Y-223774D01*
G01X2476754Y-227076D01*
G01X2467356Y-227076D01*
G01X2461260Y-223774D01*
G01X2457958Y-220726D01*
G01X2454910Y-211582D01*
G01X2454910Y-183642D01*
G01X2479802Y-257302D02*
G01X2479802Y-294386D01*
G01X2485898Y-294386D01*
G01X2492248Y-291338D01*
G01X2495296Y-288036D01*
G01X2498344Y-281940D01*
G01X2498344Y-272542D01*
G01X2495296Y-266446D01*
G01X2488946Y-260350D01*
G01X2479802Y-257302D01*
G01X2473452Y-257302D01*
G01X2464308Y-260350D01*
G01X2457958Y-266446D01*
G01X2454910Y-272542D01*
G01X2454910Y-281940D01*
G01X2457958Y-288036D01*
G01X2464308Y-294386D01*
G01X2519934Y-324612D02*
G01X2454910Y-324612D01*
G01X2498344Y-391922D02*
G01X2454910Y-391922D01*
G01X2488946Y-391922D02*
G01X2495296Y-385572D01*
G01X2498344Y-379476D01*
G01X2498344Y-370078D01*
G01X2495296Y-363982D01*
G01X2488946Y-357886D01*
G01X2479802Y-354838D01*
G01X2473452Y-354838D01*
G01X2464308Y-357886D01*
G01X2457958Y-363982D01*
G01X2454910Y-370078D01*
G01X2454910Y-379476D01*
G01X2457958Y-385572D01*
G01X2464308Y-391922D01*
G01X2498344Y-425196D02*
G01X2454910Y-443738D01*
G01X2498344Y-462280D02*
G01X2454910Y-443738D01*
G01X2442718Y-437388D01*
G01X2436368Y-431292D01*
G01X2433320Y-425196D01*
G01X2433320Y-422148D01*
G01X4795520Y-3868166D02*
G01X4795520Y-3933190D01*
G01X4795520Y-3868166D02*
G01X4823460Y-3868166D01*
G01X4832604Y-3871214D01*
G01X4835652Y-3874262D01*
G01X4838954Y-3880612D01*
G01X4838954Y-3886708D01*
G01X4835652Y-3892804D01*
G01X4832604Y-3895852D01*
G01X4823460Y-3899154D01*
G01X4795520Y-3899154D01*
G01X4817110Y-3899154D02*
G01X4838954Y-3933190D01*
G01X4915408Y-3883660D02*
G01X4912360Y-3877310D01*
G01X4906264Y-3871214D01*
G01X4899914Y-3868166D01*
G01X4887722Y-3868166D01*
G01X4881372Y-3871214D01*
G01X4875276Y-3877310D01*
G01X4872228Y-3883660D01*
G01X4869180Y-3892804D01*
G01X4869180Y-3908298D01*
G01X4872228Y-3917696D01*
G01X4875276Y-3923792D01*
G01X4881372Y-3930142D01*
G01X4887722Y-3933190D01*
G01X4899914Y-3933190D01*
G01X4906264Y-3930142D01*
G01X4912360Y-3923792D01*
G01X4915408Y-3917696D01*
G01X4915408Y-3908298D01*
G01X4899914Y-3908298D02*
G01X4915408Y-3908298D01*
G01X4945634Y-3868166D02*
G01X4945634Y-3933190D01*
G01X4945634Y-3868166D02*
G01X4973320Y-3868166D01*
G01X4982718Y-3871214D01*
G01X4985766Y-3874262D01*
G01X4988814Y-3880612D01*
G01X4988814Y-3886708D01*
G01X4985766Y-3892804D01*
G01X4982718Y-3895852D01*
G01X4973320Y-3899154D01*
G01X4945634Y-3899154D02*
G01X4973320Y-3899154D01*
G01X4982718Y-3902202D01*
G01X4985766Y-3905250D01*
G01X4988814Y-3911346D01*
G01X4988814Y-3920744D01*
G01X4985766Y-3926840D01*
G01X4982718Y-3930142D01*
G01X4973320Y-3933190D01*
G01X4945634Y-3933190D01*
G01X6891020Y-5303266D02*
G01X6891020Y-5368290D01*
G01X6891020Y-5303266D02*
G01X6931152Y-5303266D01*
G01X6891020Y-5334254D02*
G01X6915912Y-5334254D01*
G01X6986016Y-5303266D02*
G01X6961378Y-5368290D01*
G01X6986016Y-5303266D02*
G01X7010908Y-5368290D01*
G01X6970522Y-5346446D02*
G01X7001510Y-5346446D01*
G01X7041134Y-5303266D02*
G01X7041134Y-5368290D01*
G01X7041134Y-5303266D02*
G01X7084314Y-5368290D01*
G01X7084314Y-5303266D02*
G01X7084314Y-5368290D01*
G01X7114540Y-5315712D02*
G01X7120636Y-5312410D01*
G01X7129780Y-5303266D01*
G01X7129780Y-5368290D01*
G01X6103620Y-5290566D02*
G01X6103620Y-5355590D01*
G01X6103620Y-5290566D02*
G01X6143752Y-5290566D01*
G01X6103620Y-5321554D02*
G01X6128512Y-5321554D01*
G01X6198616Y-5290566D02*
G01X6173978Y-5355590D01*
G01X6198616Y-5290566D02*
G01X6223508Y-5355590D01*
G01X6183122Y-5333746D02*
G01X6214110Y-5333746D01*
G01X6253734Y-5290566D02*
G01X6253734Y-5355590D01*
G01X6253734Y-5290566D02*
G01X6296914Y-5355590D01*
G01X6296914Y-5290566D02*
G01X6296914Y-5355590D01*
G01X6330188Y-5306060D02*
G01X6330188Y-5303012D01*
G01X6333236Y-5296662D01*
G01X6336284Y-5293614D01*
G01X6342380Y-5290566D01*
G01X6354826Y-5290566D01*
G01X6361176Y-5293614D01*
G01X6364224Y-5296662D01*
G01X6367272Y-5303012D01*
G01X6367272Y-5309108D01*
G01X6364224Y-5315204D01*
G01X6357874Y-5324602D01*
G01X6327140Y-5355590D01*
G01X6370320Y-5355590D01*
G01X7627620Y-5303266D02*
G01X7627620Y-5368290D01*
G01X7627620Y-5303266D02*
G01X7667752Y-5303266D01*
G01X7627620Y-5334254D02*
G01X7652512Y-5334254D01*
G01X7722616Y-5303266D02*
G01X7697978Y-5368290D01*
G01X7722616Y-5303266D02*
G01X7747508Y-5368290D01*
G01X7707122Y-5346446D02*
G01X7738110Y-5346446D01*
G01X7777734Y-5303266D02*
G01X7777734Y-5368290D01*
G01X7777734Y-5303266D02*
G01X7820914Y-5368290D01*
G01X7820914Y-5303266D02*
G01X7820914Y-5368290D01*
G01X7869682Y-5303266D02*
G01X7860284Y-5306314D01*
G01X7854188Y-5315712D01*
G01X7851140Y-5330952D01*
G01X7851140Y-5340350D01*
G01X7854188Y-5355844D01*
G01X7860284Y-5365242D01*
G01X7869682Y-5368290D01*
G01X7875778Y-5368290D01*
G01X7885176Y-5365242D01*
G01X7891272Y-5355844D01*
G01X7894320Y-5340350D01*
G01X7894320Y-5330952D01*
G01X7891272Y-5315712D01*
G01X7885176Y-5306314D01*
G01X7875778Y-5303266D01*
G01X7869682Y-5303266D01*
G01X1216878Y-5968637D02*
G01X1216878Y-6033661D01*
G01X1216878Y-5968637D02*
G01X1257010Y-5968637D01*
G01X1216878Y-5999625D02*
G01X1241770Y-5999625D01*
G01X1216878Y-6033661D02*
G01X1257010Y-6033661D01*
G01X1287236Y-5968637D02*
G01X1287236Y-6033661D01*
G01X1287236Y-5968637D02*
G01X1330416Y-6033661D01*
G01X1330416Y-5968637D02*
G01X1330416Y-6033661D01*
G01X1379184Y-5968637D02*
G01X1369786Y-5971685D01*
G01X1363690Y-5981083D01*
G01X1360642Y-5996323D01*
G01X1360642Y-6005721D01*
G01X1363690Y-6021215D01*
G01X1369786Y-6030613D01*
G01X1379184Y-6033661D01*
G01X1385280Y-6033661D01*
G01X1394678Y-6030613D01*
G01X1400774Y-6021215D01*
G01X1403822Y-6005721D01*
G01X1403822Y-5996323D01*
G01X1400774Y-5981083D01*
G01X1394678Y-5971685D01*
G01X1385280Y-5968637D01*
G01X1379184Y-5968637D01*
G01X1861820Y-5963666D02*
G01X1861820Y-6028690D01*
G01X1861820Y-5963666D02*
G01X1901952Y-5963666D01*
G01X1861820Y-5994654D02*
G01X1886712Y-5994654D01*
G01X1861820Y-6028690D02*
G01X1901952Y-6028690D01*
G01X1932178Y-5963666D02*
G01X1932178Y-6028690D01*
G01X1932178Y-5963666D02*
G01X1975358Y-6028690D01*
G01X1975358Y-5963666D02*
G01X1975358Y-6028690D01*
G01X2005584Y-5976112D02*
G01X2011680Y-5972810D01*
G01X2020824Y-5963666D01*
G01X2020824Y-6028690D01*
G01X2509520Y-5963666D02*
G01X2509520Y-6028690D01*
G01X2509520Y-5963666D02*
G01X2549652Y-5963666D01*
G01X2509520Y-5994654D02*
G01X2534412Y-5994654D01*
G01X2509520Y-6028690D02*
G01X2549652Y-6028690D01*
G01X2579878Y-5963666D02*
G01X2579878Y-6028690D01*
G01X2579878Y-5963666D02*
G01X2623058Y-6028690D01*
G01X2623058Y-5963666D02*
G01X2623058Y-6028690D01*
G01X2656332Y-5979160D02*
G01X2656332Y-5976112D01*
G01X2659380Y-5969762D01*
G01X2662428Y-5966714D01*
G01X2668524Y-5963666D01*
G01X2680970Y-5963666D01*
G01X2687320Y-5966714D01*
G01X2690368Y-5969762D01*
G01X2693416Y-5976112D01*
G01X2693416Y-5982208D01*
G01X2690368Y-5988304D01*
G01X2684018Y-5997702D01*
G01X2653284Y-6028690D01*
G01X2696464Y-6028690D01*
G01X3157578Y-5968637D02*
G01X3157578Y-6033661D01*
G01X3157578Y-5968637D02*
G01X3197710Y-5968637D01*
G01X3157578Y-5999625D02*
G01X3182470Y-5999625D01*
G01X3157578Y-6033661D02*
G01X3197710Y-6033661D01*
G01X3227936Y-5968637D02*
G01X3227936Y-6033661D01*
G01X3227936Y-5968637D02*
G01X3271116Y-6033661D01*
G01X3271116Y-5968637D02*
G01X3271116Y-6033661D01*
G01X3307438Y-5968637D02*
G01X3341474Y-5968637D01*
G01X3322932Y-5993275D01*
G01X3332076Y-5993275D01*
G01X3338426Y-5996323D01*
G01X3341474Y-5999625D01*
G01X3344522Y-6008769D01*
G01X3344522Y-6015119D01*
G01X3341474Y-6024263D01*
G01X3335378Y-6030613D01*
G01X3325980Y-6033661D01*
G01X3316582Y-6033661D01*
G01X3307438Y-6030613D01*
G01X3304390Y-6027311D01*
G01X3301342Y-6021215D01*
G01X3804478Y-5968637D02*
G01X3804478Y-6033661D01*
G01X3804478Y-5968637D02*
G01X3844610Y-5968637D01*
G01X3804478Y-5999625D02*
G01X3829370Y-5999625D01*
G01X3804478Y-6033661D02*
G01X3844610Y-6033661D01*
G01X3874836Y-5968637D02*
G01X3874836Y-6033661D01*
G01X3874836Y-5968637D02*
G01X3918016Y-6033661D01*
G01X3918016Y-5968637D02*
G01X3918016Y-6033661D01*
G01X3978976Y-5968637D02*
G01X3948242Y-6011817D01*
G01X3994470Y-6011817D01*
G01X3978976Y-5968637D02*
G01X3978976Y-6033661D01*
G01X4451378Y-5968637D02*
G01X4451378Y-6033661D01*
G01X4451378Y-5968637D02*
G01X4491510Y-5968637D01*
G01X4451378Y-5999625D02*
G01X4476270Y-5999625D01*
G01X4451378Y-6033661D02*
G01X4491510Y-6033661D01*
G01X4521736Y-5968637D02*
G01X4521736Y-6033661D01*
G01X4521736Y-5968637D02*
G01X4564916Y-6033661D01*
G01X4564916Y-5968637D02*
G01X4564916Y-6033661D01*
G01X4632226Y-5968637D02*
G01X4601238Y-5968637D01*
G01X4598190Y-5996323D01*
G01X4601238Y-5993275D01*
G01X4610382Y-5990227D01*
G01X4619780Y-5990227D01*
G01X4629178Y-5993275D01*
G01X4635274Y-5999625D01*
G01X4638322Y-6008769D01*
G01X4638322Y-6015119D01*
G01X4635274Y-6024263D01*
G01X4629178Y-6030613D01*
G01X4619780Y-6033661D01*
G01X4610382Y-6033661D01*
G01X4601238Y-6030613D01*
G01X4598190Y-6027311D01*
G01X4595142Y-6021215D01*
G01X1468120Y-664019D02*
G01X1468120Y-729043D01*
G01X1468120Y-664019D02*
G01X1493012Y-729043D01*
G01X1517650Y-664019D02*
G01X1493012Y-729043D01*
G01X1517650Y-664019D02*
G01X1517650Y-729043D01*
G01X1563116Y-685609D02*
G01X1557020Y-688657D01*
G01X1550924Y-695007D01*
G01X1547876Y-704151D01*
G01X1547876Y-710501D01*
G01X1550924Y-719645D01*
G01X1557020Y-725995D01*
G01X1563116Y-729043D01*
G01X1572514Y-729043D01*
G01X1578610Y-725995D01*
G01X1584960Y-719645D01*
G01X1588008Y-710501D01*
G01X1588008Y-704151D01*
G01X1584960Y-695007D01*
G01X1578610Y-688657D01*
G01X1572514Y-685609D01*
G01X1563116Y-685609D01*
G01X1627378Y-664019D02*
G01X1627378Y-716597D01*
G01X1630426Y-725995D01*
G01X1636776Y-729043D01*
G01X1642872Y-729043D01*
G01X1618234Y-685609D02*
G01X1639824Y-685609D01*
G01X1688338Y-685609D02*
G01X1682242Y-688657D01*
G01X1676146Y-695007D01*
G01X1673098Y-704151D01*
G01X1673098Y-710501D01*
G01X1676146Y-719645D01*
G01X1682242Y-725995D01*
G01X1688338Y-729043D01*
G01X1697736Y-729043D01*
G01X1703832Y-725995D01*
G01X1710182Y-719645D01*
G01X1713230Y-710501D01*
G01X1713230Y-704151D01*
G01X1710182Y-695007D01*
G01X1703832Y-688657D01*
G01X1697736Y-685609D01*
G01X1688338Y-685609D01*
G01X1743456Y-685609D02*
G01X1743456Y-729043D01*
G01X1743456Y-704151D02*
G01X1746504Y-695007D01*
G01X1752600Y-688657D01*
G01X1758696Y-685609D01*
G01X1768094Y-685609D01*
G01X1798320Y-676465D02*
G01X1804416Y-673163D01*
G01X1813560Y-664019D01*
G01X1813560Y-729043D01*
G01X731266Y-3709733D02*
G01X796290Y-3709733D01*
G01X731266Y-3709733D02*
G01X796290Y-3684841D01*
G01X731266Y-3660203D02*
G01X796290Y-3684841D01*
G01X731266Y-3660203D02*
G01X796290Y-3660203D01*
G01X752856Y-3614737D02*
G01X755904Y-3620833D01*
G01X762254Y-3626929D01*
G01X771398Y-3629977D01*
G01X777748Y-3629977D01*
G01X786892Y-3626929D01*
G01X793242Y-3620833D01*
G01X796290Y-3614737D01*
G01X796290Y-3605339D01*
G01X793242Y-3599243D01*
G01X786892Y-3592893D01*
G01X777748Y-3589845D01*
G01X771398Y-3589845D01*
G01X762254Y-3592893D01*
G01X755904Y-3599243D01*
G01X752856Y-3605339D01*
G01X752856Y-3614737D01*
G01X731266Y-3550475D02*
G01X783844Y-3550475D01*
G01X793242Y-3547427D01*
G01X796290Y-3541077D01*
G01X796290Y-3534981D01*
G01X752856Y-3559619D02*
G01X752856Y-3538029D01*
G01X752856Y-3489515D02*
G01X755904Y-3495611D01*
G01X762254Y-3501707D01*
G01X771398Y-3504755D01*
G01X777748Y-3504755D01*
G01X786892Y-3501707D01*
G01X793242Y-3495611D01*
G01X796290Y-3489515D01*
G01X796290Y-3480117D01*
G01X793242Y-3474021D01*
G01X786892Y-3467671D01*
G01X777748Y-3464623D01*
G01X771398Y-3464623D01*
G01X762254Y-3467671D01*
G01X755904Y-3474021D01*
G01X752856Y-3480117D01*
G01X752856Y-3489515D01*
G01X752856Y-3434397D02*
G01X796290Y-3434397D01*
G01X771398Y-3434397D02*
G01X762254Y-3431349D01*
G01X755904Y-3425253D01*
G01X752856Y-3419157D01*
G01X752856Y-3409759D01*
G01X746760Y-3376485D02*
G01X743712Y-3376485D01*
G01X737362Y-3373437D01*
G01X734314Y-3370389D01*
G01X731266Y-3364293D01*
G01X731266Y-3351847D01*
G01X734314Y-3345497D01*
G01X737362Y-3342449D01*
G01X743712Y-3339401D01*
G01X749808Y-3339401D01*
G01X755904Y-3342449D01*
G01X765302Y-3348799D01*
G01X796290Y-3379533D01*
G01X796290Y-3336353D01*
G04 Text End*

G04 PolygonModel Start*
G01X1828620Y-1529039D02*
G01X1680121Y-1529039D01*
G01X1680121Y-1747561D02*
G01X1828620Y-1747561D01*
G01X1843860Y-1732321D02*
G01X1843860Y-1544279D01*
G01X1346380Y-1529039D02*
G01X1494879Y-1529039D01*
G01X1494879Y-1747561D02*
G01X1346380Y-1747561D01*
G01X1331140Y-1732321D02*
G01X1331140Y-1544279D01*
G01X1828620Y-1747561D02*
G03X1843860Y-1732321I0J15240D01*
G01X1843860Y-1544279D02*
G03X1828620Y-1529039I-15240J0D01*
G01X1346380Y-1747561D02*
G02X1331140Y-1732321I0J15240D01*
G01X1331140Y-1544279D02*
G02X1346380Y-1529039I15240J0D01*
G01X2090461Y-2222320D02*
G01X2090461Y-2073821D01*
G01X1871939Y-2073821D02*
G01X1871939Y-2222320D01*
G01X1887179Y-2237560D02*
G01X2075221Y-2237560D01*
G01X2090461Y-1740080D02*
G01X2090461Y-1888579D01*
G01X1871939Y-1888579D02*
G01X1871939Y-1740080D01*
G01X1887179Y-1724840D02*
G01X2075221Y-1724840D01*
G01X1871939Y-2222320D02*
G03X1887179Y-2237560I15240J0D01*
G01X2075221Y-2237560D02*
G03X2090461Y-2222320I0J15240D01*
G01X1871939Y-1740080D02*
G02X1887179Y-1724840I15240J0D01*
G01X2075221Y-1724840D02*
G02X2090461Y-1740080I0J-15240D01*
G01X1069609Y-2149480D02*
G01X1069609Y-2020987D01*
G01X1069609Y-2020987D02*
G01X886191Y-2020987D01*
G01X886191Y-2020987D02*
G01X886191Y-2149480D01*
G01X1069609Y-2244720D02*
G01X1069609Y-2373213D01*
G01X1069609Y-2373213D02*
G01X886191Y-2373213D01*
G01X886191Y-2373213D02*
G01X886191Y-2244720D01*
G01X886191Y-1660520D02*
G01X886191Y-1789013D01*
G01X886191Y-1789013D02*
G01X1069609Y-1789013D01*
G01X1069609Y-1789013D02*
G01X1069609Y-1660520D01*
G01X886191Y-1565280D02*
G01X886191Y-1436787D01*
G01X886191Y-1436787D02*
G01X1069609Y-1436787D01*
G01X1069609Y-1436787D02*
G01X1069609Y-1565280D01*
G01X1341379Y-1813679D02*
G01X1630418Y-1813679D01*
G01X1630418Y-1813679D02*
G01X1630418Y-2318918D01*
G01X1630418Y-2318918D02*
G01X1341379Y-2318918D01*
G01X1341379Y-2318918D02*
G01X1341379Y-1813679D01*
G54D13*
G01X388549Y-2367697D02*
G01X589839Y-2367697D01*
G01X17694Y-2367697D02*
G01X186837Y-2367697D01*
G01X388549Y-1467696D02*
G01X589839Y-1467696D01*
G01X17694Y-1467696D02*
G01X186837Y-1467696D01*
G01X17694Y-2367697D02*
G01X17694Y-1467696D01*
G01X9138399Y-1813245D02*
G01X8928100Y-1813245D01*
G01X8928100Y-1813245D02*
G01X8928100Y-1587584D01*
G01X8928100Y-1587584D02*
G01X9138399Y-1587584D01*
G01X9138399Y-2321245D02*
G01X8928100Y-2321245D01*
G01X8928100Y-2321245D02*
G01X8928100Y-2095584D01*
G01X8928100Y-2095584D02*
G01X9138399Y-2095584D01*
G01X9138399Y-2463884D02*
G01X9138399Y-1447884D01*
G01X9138399Y-2463884D02*
G01X8378401Y-2463884D01*
G01X8378403Y-1447884D02*
G01X9138399Y-1447884D01*
G01X8378403Y-2463884D02*
G01X8378401Y-1447884D01*
G01X8534400Y-2463884D02*
G01X8534400Y-1447884D01*
G01X8445500Y-2463884D02*
G01X8445500Y-2469584D01*
G01X8445500Y-2469584D02*
G01X8400400Y-2514684D01*
G01X8400400Y-2514684D02*
G01X8400400Y-2540084D01*
G01X8400400Y-2540084D02*
G01X8527400Y-2540084D01*
G01X8527400Y-2540084D02*
G01X8527400Y-2514684D01*
G01X8527400Y-2514684D02*
G01X8527400Y-2509500D01*
G01X8527400Y-2509500D02*
G01X8481784Y-2463884D01*
G36*
G01X9004300Y-2222584D02*
G01X9067800Y-2222584D01*
G01X9067800Y-2197184D01*
G01X9004300Y-2197184D01*
G01X9004300Y-2222584D01*
G37*
G36*
G01X9004300Y-2235284D02*
G01X9004300Y-2184484D01*
G01X8978900Y-2209884D01*
G01X9004300Y-2235284D01*
G37*
G36*
G01X9004300Y-1727284D02*
G01X9004300Y-1676484D01*
G01X8978900Y-1701884D01*
G01X9004300Y-1727284D01*
G37*
G36*
G01X9004300Y-1714584D02*
G01X9067800Y-1714584D01*
G01X9067800Y-1689184D01*
G01X9004300Y-1689184D01*
G01X9004300Y-1714584D01*
G37*
G01X9151099Y-3476945D02*
G01X8940800Y-3476945D01*
G01X8940800Y-3476945D02*
G01X8940800Y-3251284D01*
G01X8940800Y-3251284D02*
G01X9151099Y-3251284D01*
G01X9151099Y-3984945D02*
G01X8940800Y-3984945D01*
G01X8940800Y-3984945D02*
G01X8940800Y-3759284D01*
G01X8940800Y-3759284D02*
G01X9151099Y-3759284D01*
G01X9151099Y-4127584D02*
G01X9151099Y-3111584D01*
G01X9151099Y-4127584D02*
G01X8391101Y-4127584D01*
G01X8391103Y-3111584D02*
G01X9151099Y-3111584D01*
G01X8391103Y-4127584D02*
G01X8391101Y-3111584D01*
G01X8547100Y-4127584D02*
G01X8547100Y-3111584D01*
G01X8458200Y-4127584D02*
G01X8458200Y-4133284D01*
G01X8458200Y-4133284D02*
G01X8413100Y-4178384D01*
G01X8413100Y-4178384D02*
G01X8413100Y-4203784D01*
G01X8413100Y-4203784D02*
G01X8540100Y-4203784D01*
G01X8540100Y-4203784D02*
G01X8540100Y-4178384D01*
G01X8540100Y-4178384D02*
G01X8540100Y-4173200D01*
G01X8540100Y-4173200D02*
G01X8494484Y-4127584D01*
G36*
G01X9017000Y-3886284D02*
G01X9080500Y-3886284D01*
G01X9080500Y-3860884D01*
G01X9017000Y-3860884D01*
G01X9017000Y-3886284D01*
G37*
G36*
G01X9017000Y-3898984D02*
G01X9017000Y-3848184D01*
G01X8991600Y-3873584D01*
G01X9017000Y-3898984D01*
G37*
G36*
G01X9017000Y-3390984D02*
G01X9017000Y-3340184D01*
G01X8991600Y-3365584D01*
G01X9017000Y-3390984D01*
G37*
G36*
G01X9017000Y-3378284D02*
G01X9080500Y-3378284D01*
G01X9080500Y-3352884D01*
G01X9017000Y-3352884D01*
G01X9017000Y-3378284D01*
G37*
G01X3190052Y-3175000D02*
G01X3949700Y-3175000D01*
G01X3949700Y-3175000D02*
G01X3949700Y-3429000D01*
G01X3949700Y-3429000D02*
G01X2933700Y-3429000D01*
G01X2933700Y-3429000D02*
G01X2933700Y-3175000D01*
G01X2933700Y-3175000D02*
G01X3190052Y-3175000D01*
G01X3190052Y-3175000D02*
G01X3190052Y-3429000D01*
G01X3441002Y-1953923D02*
G01X3441002Y-2033925D01*
G01X3330026Y-1922937D02*
G01X3410024Y-1922937D01*
G01X3330026Y-2064903D02*
G01X3410024Y-2064903D01*
G01X3272437Y-1922356D02*
G01X3192437Y-1922356D01*
G01X3161454Y-1953339D02*
G01X3161454Y-2033336D01*
G01X3272437Y-2064316D02*
G01X3192437Y-2064316D01*
G01X3161449Y-1953339D02*
G02X3192432Y-1922356I30983J0D01*
G01X3192432Y-2064321D02*
G02X3161449Y-2033336I0J30983D01*
G01X3410019Y-1922937D02*
G02X3441002Y-1953923I0J-30983D01*
G01X3441002Y-2033920D02*
G02X3410019Y-2064903I-30983J0D01*
G01X3353499Y-2211677D02*
G01X3353499Y-2131675D01*
G01X3464474Y-2242663D02*
G01X3384476Y-2242663D01*
G01X3464474Y-2100697D02*
G01X3384476Y-2100697D01*
G01X3522063Y-2243244D02*
G01X3602063Y-2243244D01*
G01X3633046Y-2212261D02*
G01X3633046Y-2132264D01*
G01X3522063Y-2101284D02*
G01X3602063Y-2101284D01*
G01X3633051Y-2212261D02*
G02X3602068Y-2243244I-30983J0D01*
G01X3602068Y-2101278D02*
G02X3633051Y-2132264I0J-30983D01*
G01X3384481Y-2242663D02*
G02X3353499Y-2211677I0J30983D01*
G01X3353499Y-2131680D02*
G02X3384481Y-2100697I30983J0D01*
G54D12*
G01X3921120Y-2263409D02*
G01X4049613Y-2263409D01*
G01X4049613Y-2263409D02*
G01X4049613Y-2079991D01*
G01X4049613Y-2079991D02*
G01X3921120Y-2079991D01*
G01X3825880Y-2263409D02*
G01X3697387Y-2263409D01*
G01X3697387Y-2263409D02*
G01X3697387Y-2079991D01*
G01X3697387Y-2079991D02*
G01X3825880Y-2079991D01*
G01X3409318Y-1584703D02*
G01X3280824Y-1584703D01*
G01X3280824Y-1584703D02*
G01X3280824Y-1768122D01*
G01X3280824Y-1768122D02*
G01X3409318Y-1768122D01*
G01X3504557Y-1584703D02*
G01X3633051Y-1584703D01*
G01X3633051Y-1584703D02*
G01X3633051Y-1768122D01*
G01X3633051Y-1768122D02*
G01X3504557Y-1768122D01*
G01X3936357Y-1768122D02*
G01X4064851Y-1768122D01*
G01X4064851Y-1768122D02*
G01X4064851Y-1584703D01*
G01X4064851Y-1584703D02*
G01X3936357Y-1584703D01*
G01X3841118Y-1768122D02*
G01X3712624Y-1768122D01*
G01X3712624Y-1768122D02*
G01X3712624Y-1584703D01*
G01X3712624Y-1584703D02*
G01X3841118Y-1584703D01*
G54D14*
G01X3562838Y-1847713D02*
G01X3562838Y-1987713D01*
G01X3782837Y-1847713D02*
G01X3782837Y-1987713D01*
G01X3563417Y-2026806D02*
G03X3538419Y-2026933I-12499J-127D01*
G03X3563417Y-2027060I12499J0D01*
G54D13*
G01X5528899Y-1384300D02*
G01X5528899Y-1130300D01*
G01X6332901Y-1384300D02*
G01X5528899Y-1384300D01*
G01X6055548Y-1384300D02*
G01X6055548Y-1130300D01*
G01X6332901Y-1130300D02*
G01X5528899Y-1130300D01*
G01X6332901Y-1384300D02*
G01X6332901Y-1130300D01*
G01X5528899Y-2146300D02*
G01X5528899Y-1892300D01*
G01X6332901Y-2146300D02*
G01X5528899Y-2146300D01*
G01X6055548Y-2146300D02*
G01X6055548Y-1892300D01*
G01X6332901Y-1892300D02*
G01X5528899Y-1892300D01*
G01X6332901Y-2146300D02*
G01X6332901Y-1892300D01*
G01X5528899Y-1638300D02*
G01X5528899Y-1384300D01*
G01X6332901Y-1638300D02*
G01X5528899Y-1638300D01*
G01X6055548Y-1638300D02*
G01X6055548Y-1384300D01*
G01X6332901Y-1384300D02*
G01X5528899Y-1384300D01*
G01X6332901Y-1638300D02*
G01X6332901Y-1384300D01*
G01X5528899Y-1892300D02*
G01X5528899Y-1638300D01*
G01X6332901Y-1892300D02*
G01X5528899Y-1892300D01*
G01X6055548Y-1892300D02*
G01X6055548Y-1638300D01*
G01X6332901Y-1638300D02*
G01X5528899Y-1638300D01*
G01X6332901Y-1892300D02*
G01X6332901Y-1638300D01*
G01X7695400Y-5658800D02*
G01X7655400Y-5618800D01*
G01X7655400Y-5618800D02*
G01X7645400Y-5608800D01*
G01X7645400Y-5608800D02*
G01X7635375Y-5618800D01*
G01X7635375Y-5618800D02*
G01X7595375Y-5658800D01*
G01X7695400Y-5658800D02*
G01X7595375Y-5658800D01*
G01X7543673Y-5683123D02*
G01X7543673Y-5838063D01*
G01X7543673Y-5838063D02*
G01X7746873Y-5838063D01*
G01X7746873Y-5838063D02*
G01X7746873Y-5683123D01*
G01X7541133Y-5604383D02*
G01X7541133Y-5457063D01*
G01X7541133Y-5457063D02*
G01X7581773Y-5416423D01*
G01X7581773Y-5416423D02*
G01X7708773Y-5416423D01*
G01X7708773Y-5416423D02*
G01X7746873Y-5454523D01*
G01X7746873Y-5454523D02*
G01X7746873Y-5606923D01*
G54D12*
G01X7508509Y-5607080D02*
G01X7508509Y-5478587D01*
G01X7508509Y-5478587D02*
G01X7325091Y-5478587D01*
G01X7325091Y-5478587D02*
G01X7325091Y-5607080D01*
G01X7508509Y-5702320D02*
G01X7508509Y-5830814D01*
G01X7508509Y-5830814D02*
G01X7325091Y-5830814D01*
G01X7325091Y-5830814D02*
G01X7325091Y-5702320D01*
G01X6933711Y-1034023D02*
G01X6785212Y-1034023D01*
G01X6785212Y-1252544D02*
G01X6933711Y-1252544D01*
G01X6948951Y-1237304D02*
G01X6948951Y-1049263D01*
G01X6451472Y-1034023D02*
G01X6599970Y-1034023D01*
G01X6599970Y-1252544D02*
G01X6451472Y-1252544D01*
G01X6436232Y-1237304D02*
G01X6436232Y-1049263D01*
G01X6933711Y-1252544D02*
G03X6948951Y-1237304I0J15240D01*
G01X6948951Y-1049263D02*
G03X6933711Y-1034023I-15240J0D01*
G01X6451472Y-1252544D02*
G02X6436232Y-1237304I0J15240D01*
G01X6436232Y-1049263D02*
G02X6451472Y-1034023I15240J0D01*
G01X6984872Y-325444D02*
G01X7133370Y-325444D01*
G01X7133370Y-106923D02*
G01X6984872Y-106923D01*
G01X6969632Y-122163D02*
G01X6969632Y-310204D01*
G01X7467111Y-325444D02*
G01X7318612Y-325444D01*
G01X7318612Y-106923D02*
G01X7467111Y-106923D01*
G01X7482351Y-122163D02*
G01X7482351Y-310204D01*
G01X6984872Y-106923D02*
G03X6969632Y-122163I0J-15240D01*
G01X6969632Y-310204D02*
G03X6984872Y-325444I15240J0D01*
G01X7467111Y-106923D02*
G02X7482351Y-122163I0J-15240D01*
G01X7482351Y-310204D02*
G02X7467111Y-325444I-15240J0D01*
G01X7467111Y-1034023D02*
G01X7318612Y-1034023D01*
G01X7318612Y-1252544D02*
G01X7467111Y-1252544D01*
G01X7482351Y-1237304D02*
G01X7482351Y-1049263D01*
G01X6984872Y-1034023D02*
G01X7133370Y-1034023D01*
G01X7133370Y-1252544D02*
G01X6984872Y-1252544D01*
G01X6969632Y-1237304D02*
G01X6969632Y-1049263D01*
G01X7467111Y-1252544D02*
G03X7482351Y-1237304I0J15240D01*
G01X7482351Y-1049263D02*
G03X7467111Y-1034023I-15240J0D01*
G01X6984872Y-1252544D02*
G02X6969632Y-1237304I0J15240D01*
G01X6969632Y-1049263D02*
G02X6984872Y-1034023I15240J0D01*
G01X6933716Y-106923D02*
G01X6785218Y-106923D01*
G01X6785218Y-325444D02*
G01X6933716Y-325444D01*
G01X6948956Y-310204D02*
G01X6948956Y-122163D01*
G01X6451477Y-106923D02*
G01X6599975Y-106923D01*
G01X6599975Y-325444D02*
G01X6451477Y-325444D01*
G01X6436237Y-310204D02*
G01X6436237Y-122163D01*
G01X6933716Y-325444D02*
G03X6948956Y-310204I0J15240D01*
G01X6948956Y-122163D02*
G03X6933716Y-106923I-15240J0D01*
G01X6451477Y-325444D02*
G02X6436237Y-310204I0J15240D01*
G01X6436237Y-122163D02*
G02X6451477Y-106923I15240J0D01*
G54D13*
G01X7489405Y-931986D02*
G01X6429204Y-931986D01*
G01X6429204Y-931986D02*
G01X6429204Y-452177D01*
G01X6429204Y-452177D02*
G01X7489405Y-452177D01*
G01X7489405Y-452177D02*
G01X7489405Y-931478D01*
G01X7489405Y-931478D02*
G01X7489405Y-931986D01*
G01X6429308Y-872070D02*
G01X7489300Y-872070D01*
G54D16*
G01X7236301Y-389579D02*
G03X7236174Y-349579I-127J20000D01*
G03X7236047Y-389579I0J-20000D01*
G54D13*
G01X7962897Y-3200397D02*
G01X6921497Y-3200397D01*
G01X6922186Y-3150895D02*
G01X7962189Y-3150895D01*
G01X7962189Y-3150895D02*
G01X7962189Y-3610889D01*
G01X7962189Y-3610889D02*
G01X6922186Y-3610889D01*
G01X6922186Y-3610889D02*
G01X6922186Y-3150895D01*
G54D16*
G01X7175500Y-3644900D02*
G03X7175627Y-3684900I127J-20000D01*
G03X7175754Y-3644900I0J20000D01*
G54D12*
G01X4216220Y-703539D02*
G01X4067721Y-703539D01*
G01X4067721Y-922061D02*
G01X4216220Y-922061D01*
G01X4231460Y-906821D02*
G01X4231460Y-718779D01*
G01X3733980Y-703539D02*
G01X3882479Y-703539D01*
G01X3882479Y-922061D02*
G01X3733980Y-922061D01*
G01X3718740Y-906821D02*
G01X3718740Y-718779D01*
G01X4216220Y-922061D02*
G03X4231460Y-906821I0J15240D01*
G01X4231460Y-718779D02*
G03X4216220Y-703539I-15240J0D01*
G01X3733980Y-922061D02*
G02X3718740Y-906821I0J15240D01*
G01X3718740Y-718779D02*
G02X3733980Y-703539I15240J0D01*
G01X3889380Y-1330691D02*
G01X3760887Y-1330691D01*
G01X3760887Y-1330691D02*
G01X3760887Y-1514109D01*
G01X3760887Y-1514109D02*
G01X3889380Y-1514109D01*
G01X3984620Y-1330691D02*
G01X4113113Y-1330691D01*
G01X4113113Y-1330691D02*
G01X4113113Y-1514109D01*
G01X4113113Y-1514109D02*
G01X3984620Y-1514109D01*
G54D13*
G01X3606800Y-38100D02*
G01X3606800Y-63500D01*
G01X4343400Y-38100D02*
G01X4343400Y-63500D01*
G01X3606800Y-38100D02*
G01X3721100Y-38100D01*
G01X4102100Y-38100D02*
G01X3848100Y-38100D01*
G01X4343400Y-38100D02*
G01X4241800Y-38100D01*
G01X4343400Y-177800D02*
G01X4343400Y-622300D01*
G01X4343400Y-622300D02*
G01X3606800Y-622300D01*
G01X3606800Y-622300D02*
G01X3606800Y-177800D01*
G01X8763800Y-2774000D02*
G01X8803800Y-2814000D01*
G01X8803800Y-2814000D02*
G01X8813800Y-2824000D01*
G01X8813800Y-2824000D02*
G01X8823825Y-2814000D01*
G01X8823825Y-2814000D02*
G01X8863825Y-2774000D01*
G01X8763800Y-2774000D02*
G01X8863825Y-2774000D01*
G01X8915527Y-2749677D02*
G01X8915527Y-2594737D01*
G01X8915527Y-2594737D02*
G01X8712327Y-2594737D01*
G01X8712327Y-2594737D02*
G01X8712327Y-2749677D01*
G01X8918067Y-2828417D02*
G01X8918067Y-2975737D01*
G01X8918067Y-2975737D02*
G01X8877427Y-3016377D01*
G01X8877427Y-3016377D02*
G01X8750427Y-3016377D01*
G01X8750427Y-3016377D02*
G01X8712327Y-2978277D01*
G01X8712327Y-2978277D02*
G01X8712327Y-2825877D01*
G54D12*
G01X8262661Y-2374720D02*
G01X8262661Y-2226221D01*
G01X8044139Y-2226221D02*
G01X8044139Y-2374720D01*
G01X8059379Y-2389960D02*
G01X8247421Y-2389960D01*
G01X8262661Y-1892480D02*
G01X8262661Y-2040979D01*
G01X8044139Y-2040979D02*
G01X8044139Y-1892480D01*
G01X8059379Y-1877240D02*
G01X8247421Y-1877240D01*
G01X8044139Y-2374720D02*
G03X8059379Y-2389960I15240J0D01*
G01X8247421Y-2389960D02*
G03X8262661Y-2374720I0J15240D01*
G01X8044139Y-1892480D02*
G02X8059379Y-1877240I15240J0D01*
G01X8247421Y-1877240D02*
G02X8262661Y-1892480I0J-15240D01*
G01X8044139Y-2425880D02*
G01X8044139Y-2574379D01*
G01X8262661Y-2574379D02*
G01X8262661Y-2425880D01*
G01X8247421Y-2410640D02*
G01X8059379Y-2410640D01*
G01X8044139Y-2908120D02*
G01X8044139Y-2759621D01*
G01X8262661Y-2759621D02*
G01X8262661Y-2908120D01*
G01X8247421Y-2923360D02*
G01X8059379Y-2923360D01*
G01X8262661Y-2425880D02*
G03X8247421Y-2410640I-15240J0D01*
G01X8059379Y-2410640D02*
G03X8044139Y-2425880I0J-15240D01*
G01X8262661Y-2908120D02*
G02X8247421Y-2923360I-15240J0D01*
G01X8059379Y-2923360D02*
G02X8044139Y-2908120I0J15240D01*
G01X7995961Y-2374720D02*
G01X7995961Y-2226221D01*
G01X7777439Y-2226221D02*
G01X7777439Y-2374720D01*
G01X7792679Y-2389960D02*
G01X7980721Y-2389960D01*
G01X7995961Y-1892480D02*
G01X7995961Y-2040979D01*
G01X7777439Y-2040979D02*
G01X7777439Y-1892480D01*
G01X7792679Y-1877240D02*
G01X7980721Y-1877240D01*
G01X7777439Y-2374720D02*
G03X7792679Y-2389960I15240J0D01*
G01X7980721Y-2389960D02*
G03X7995961Y-2374720I0J15240D01*
G01X7777439Y-1892480D02*
G02X7792679Y-1877240I15240J0D01*
G01X7980721Y-1877240D02*
G02X7995961Y-1892480I0J-15240D01*
G01X7777439Y-2425880D02*
G01X7777439Y-2574379D01*
G01X7995961Y-2574379D02*
G01X7995961Y-2425880D01*
G01X7980721Y-2410640D02*
G01X7792679Y-2410640D01*
G01X7777439Y-2908120D02*
G01X7777439Y-2759621D01*
G01X7995961Y-2759621D02*
G01X7995961Y-2908120D01*
G01X7980721Y-2923360D02*
G01X7792679Y-2923360D01*
G01X7995961Y-2425880D02*
G03X7980721Y-2410640I-15240J0D01*
G01X7792679Y-2410640D02*
G03X7777439Y-2425880I0J-15240D01*
G01X7995961Y-2908120D02*
G02X7980721Y-2923360I-15240J0D01*
G01X7792679Y-2923360D02*
G02X7777439Y-2908120I0J15240D01*
G01X8461380Y-2638791D02*
G01X8332887Y-2638791D01*
G01X8332887Y-2638791D02*
G01X8332887Y-2822209D01*
G01X8332887Y-2822209D02*
G01X8461380Y-2822209D01*
G01X8556620Y-2638791D02*
G01X8685113Y-2638791D01*
G01X8685113Y-2638791D02*
G01X8685113Y-2822209D01*
G01X8685113Y-2822209D02*
G01X8556620Y-2822209D01*
G01X7150161Y-2981721D02*
G01X7150161Y-2301479D01*
G01X7150161Y-2301479D02*
G01X7429439Y-2301479D01*
G01X7429439Y-2301479D02*
G01X7429439Y-2981721D01*
G01X7429439Y-2981721D02*
G01X7150161Y-2981721D01*
G01X3595239Y-4318680D02*
G01X3595239Y-4467179D01*
G01X3813761Y-4467179D02*
G01X3813761Y-4318680D01*
G01X3798521Y-4303440D02*
G01X3610479Y-4303440D01*
G01X3595239Y-4800920D02*
G01X3595239Y-4652421D01*
G01X3813761Y-4652421D02*
G01X3813761Y-4800920D01*
G01X3798521Y-4816160D02*
G01X3610479Y-4816160D01*
G01X3813761Y-4318680D02*
G03X3798521Y-4303440I-15240J0D01*
G01X3610479Y-4303440D02*
G03X3595239Y-4318680I0J-15240D01*
G01X3813761Y-4800920D02*
G02X3798521Y-4816160I-15240J0D01*
G01X3610479Y-4816160D02*
G02X3595239Y-4800920I0J15240D01*
G01X995639Y-4318180D02*
G01X995639Y-4466679D01*
G01X1214161Y-4466679D02*
G01X1214161Y-4318180D01*
G01X1198921Y-4302940D02*
G01X1010879Y-4302940D01*
G01X995639Y-4800420D02*
G01X995639Y-4651921D01*
G01X1214161Y-4651921D02*
G01X1214161Y-4800420D01*
G01X1198921Y-4815660D02*
G01X1010879Y-4815660D01*
G01X1214161Y-4318180D02*
G03X1198921Y-4302940I-15240J0D01*
G01X1010879Y-4302940D02*
G03X995639Y-4318180I0J-15240D01*
G01X1214161Y-4800420D02*
G02X1198921Y-4815660I-15240J0D01*
G01X1010879Y-4815660D02*
G02X995639Y-4800420I0J15240D01*
G01X1645239Y-4318680D02*
G01X1645239Y-4467179D01*
G01X1863761Y-4467179D02*
G01X1863761Y-4318680D01*
G01X1848521Y-4303440D02*
G01X1660479Y-4303440D01*
G01X1645239Y-4800920D02*
G01X1645239Y-4652421D01*
G01X1863761Y-4652421D02*
G01X1863761Y-4800920D01*
G01X1848521Y-4816160D02*
G01X1660479Y-4816160D01*
G01X1863761Y-4318680D02*
G03X1848521Y-4303440I-15240J0D01*
G01X1660479Y-4303440D02*
G03X1645239Y-4318680I0J-15240D01*
G01X1863761Y-4800920D02*
G02X1848521Y-4816160I-15240J0D01*
G01X1660479Y-4816160D02*
G02X1645239Y-4800920I0J15240D01*
G01X2295239Y-4318680D02*
G01X2295239Y-4467179D01*
G01X2513761Y-4467179D02*
G01X2513761Y-4318680D01*
G01X2498521Y-4303440D02*
G01X2310479Y-4303440D01*
G01X2295239Y-4800920D02*
G01X2295239Y-4652421D01*
G01X2513761Y-4652421D02*
G01X2513761Y-4800920D01*
G01X2498521Y-4816160D02*
G01X2310479Y-4816160D01*
G01X2513761Y-4318680D02*
G03X2498521Y-4303440I-15240J0D01*
G01X2310479Y-4303440D02*
G03X2295239Y-4318680I0J-15240D01*
G01X2513761Y-4800920D02*
G02X2498521Y-4816160I-15240J0D01*
G01X2310479Y-4816160D02*
G02X2295239Y-4800920I0J15240D01*
G01X2945239Y-4318680D02*
G01X2945239Y-4467179D01*
G01X3163761Y-4467179D02*
G01X3163761Y-4318680D01*
G01X3148521Y-4303440D02*
G01X2960479Y-4303440D01*
G01X2945239Y-4800920D02*
G01X2945239Y-4652421D01*
G01X3163761Y-4652421D02*
G01X3163761Y-4800920D01*
G01X3148521Y-4816160D02*
G01X2960479Y-4816160D01*
G01X3163761Y-4318680D02*
G03X3148521Y-4303440I-15240J0D01*
G01X2960479Y-4303440D02*
G03X2945239Y-4318680I0J-15240D01*
G01X3163761Y-4800920D02*
G02X3148521Y-4816160I-15240J0D01*
G01X2960479Y-4816160D02*
G02X2945239Y-4800920I0J15240D01*
G01X4246839Y-4318680D02*
G01X4246839Y-4467179D01*
G01X4465361Y-4467179D02*
G01X4465361Y-4318680D01*
G01X4450121Y-4303440D02*
G01X4262079Y-4303440D01*
G01X4246839Y-4800920D02*
G01X4246839Y-4652421D01*
G01X4465361Y-4652421D02*
G01X4465361Y-4800920D01*
G01X4450121Y-4816160D02*
G01X4262079Y-4816160D01*
G01X4465361Y-4318680D02*
G03X4450121Y-4303440I-15240J0D01*
G01X4262079Y-4303440D02*
G03X4246839Y-4318680I0J-15240D01*
G01X4465361Y-4800920D02*
G02X4450121Y-4816160I-15240J0D01*
G01X4262079Y-4816160D02*
G02X4246839Y-4800920I0J15240D01*
G54D13*
G01X3954500Y-4539800D02*
G01X3994500Y-4579800D01*
G01X3994500Y-4579800D02*
G01X4004500Y-4589800D01*
G01X4004500Y-4589800D02*
G01X4014525Y-4579800D01*
G01X4014525Y-4579800D02*
G01X4054525Y-4539800D01*
G01X3954500Y-4539800D02*
G01X4054525Y-4539800D01*
G01X4106227Y-4515477D02*
G01X4106227Y-4360537D01*
G01X4106227Y-4360537D02*
G01X3903027Y-4360537D01*
G01X3903027Y-4360537D02*
G01X3903027Y-4515477D01*
G01X4108767Y-4594217D02*
G01X4108767Y-4741537D01*
G01X4108767Y-4741537D02*
G01X4068127Y-4782177D01*
G01X4068127Y-4782177D02*
G01X3941127Y-4782177D01*
G01X3941127Y-4782177D02*
G01X3903027Y-4744077D01*
G01X3903027Y-4744077D02*
G01X3903027Y-4591677D01*
G01X1354500Y-4539800D02*
G01X1394500Y-4579800D01*
G01X1394500Y-4579800D02*
G01X1404500Y-4589800D01*
G01X1404500Y-4589800D02*
G01X1414525Y-4579800D01*
G01X1414525Y-4579800D02*
G01X1454525Y-4539800D01*
G01X1354500Y-4539800D02*
G01X1454525Y-4539800D01*
G01X1506227Y-4515477D02*
G01X1506227Y-4360537D01*
G01X1506227Y-4360537D02*
G01X1303027Y-4360537D01*
G01X1303027Y-4360537D02*
G01X1303027Y-4515477D01*
G01X1508767Y-4594217D02*
G01X1508767Y-4741537D01*
G01X1508767Y-4741537D02*
G01X1468127Y-4782177D01*
G01X1468127Y-4782177D02*
G01X1341127Y-4782177D01*
G01X1341127Y-4782177D02*
G01X1303027Y-4744077D01*
G01X1303027Y-4744077D02*
G01X1303027Y-4591677D01*
G01X2004500Y-4539800D02*
G01X2044500Y-4579800D01*
G01X2044500Y-4579800D02*
G01X2054500Y-4589800D01*
G01X2054500Y-4589800D02*
G01X2064525Y-4579800D01*
G01X2064525Y-4579800D02*
G01X2104525Y-4539800D01*
G01X2004500Y-4539800D02*
G01X2104525Y-4539800D01*
G01X2156227Y-4515477D02*
G01X2156227Y-4360537D01*
G01X2156227Y-4360537D02*
G01X1953027Y-4360537D01*
G01X1953027Y-4360537D02*
G01X1953027Y-4515477D01*
G01X2158767Y-4594217D02*
G01X2158767Y-4741537D01*
G01X2158767Y-4741537D02*
G01X2118127Y-4782177D01*
G01X2118127Y-4782177D02*
G01X1991127Y-4782177D01*
G01X1991127Y-4782177D02*
G01X1953027Y-4744077D01*
G01X1953027Y-4744077D02*
G01X1953027Y-4591677D01*
G01X2654500Y-4539800D02*
G01X2694500Y-4579800D01*
G01X2694500Y-4579800D02*
G01X2704500Y-4589800D01*
G01X2704500Y-4589800D02*
G01X2714525Y-4579800D01*
G01X2714525Y-4579800D02*
G01X2754525Y-4539800D01*
G01X2654500Y-4539800D02*
G01X2754525Y-4539800D01*
G01X2806227Y-4515477D02*
G01X2806227Y-4360537D01*
G01X2806227Y-4360537D02*
G01X2603027Y-4360537D01*
G01X2603027Y-4360537D02*
G01X2603027Y-4515477D01*
G01X2808767Y-4594217D02*
G01X2808767Y-4741537D01*
G01X2808767Y-4741537D02*
G01X2768127Y-4782177D01*
G01X2768127Y-4782177D02*
G01X2641127Y-4782177D01*
G01X2641127Y-4782177D02*
G01X2603027Y-4744077D01*
G01X2603027Y-4744077D02*
G01X2603027Y-4591677D01*
G01X3304500Y-4539800D02*
G01X3344500Y-4579800D01*
G01X3344500Y-4579800D02*
G01X3354500Y-4589800D01*
G01X3354500Y-4589800D02*
G01X3364525Y-4579800D01*
G01X3364525Y-4579800D02*
G01X3404525Y-4539800D01*
G01X3304500Y-4539800D02*
G01X3404525Y-4539800D01*
G01X3456227Y-4515477D02*
G01X3456227Y-4360537D01*
G01X3456227Y-4360537D02*
G01X3253027Y-4360537D01*
G01X3253027Y-4360537D02*
G01X3253027Y-4515477D01*
G01X3458767Y-4594217D02*
G01X3458767Y-4741537D01*
G01X3458767Y-4741537D02*
G01X3418127Y-4782177D01*
G01X3418127Y-4782177D02*
G01X3291127Y-4782177D01*
G01X3291127Y-4782177D02*
G01X3253027Y-4744077D01*
G01X3253027Y-4744077D02*
G01X3253027Y-4591677D01*
G01X4604500Y-4539800D02*
G01X4644500Y-4579800D01*
G01X4644500Y-4579800D02*
G01X4654500Y-4589800D01*
G01X4654500Y-4589800D02*
G01X4664525Y-4579800D01*
G01X4664525Y-4579800D02*
G01X4704525Y-4539800D01*
G01X4604500Y-4539800D02*
G01X4704525Y-4539800D01*
G01X4756227Y-4515477D02*
G01X4756227Y-4360537D01*
G01X4756227Y-4360537D02*
G01X4553027Y-4360537D01*
G01X4553027Y-4360537D02*
G01X4553027Y-4515477D01*
G01X4758767Y-4594217D02*
G01X4758767Y-4741537D01*
G01X4758767Y-4741537D02*
G01X4718127Y-4782177D01*
G01X4718127Y-4782177D02*
G01X4591127Y-4782177D01*
G01X4591127Y-4782177D02*
G01X4553027Y-4744077D01*
G01X4553027Y-4744077D02*
G01X4553027Y-4591677D01*
G54D12*
G01X3796209Y-4012180D02*
G01X3796209Y-3883687D01*
G01X3796209Y-3883687D02*
G01X3612791Y-3883687D01*
G01X3612791Y-3883687D02*
G01X3612791Y-4012180D01*
G01X3796209Y-4107420D02*
G01X3796209Y-4235914D01*
G01X3796209Y-4235914D02*
G01X3612791Y-4235914D01*
G01X3612791Y-4235914D02*
G01X3612791Y-4107420D01*
G01X1196209Y-4012180D02*
G01X1196209Y-3883687D01*
G01X1196209Y-3883687D02*
G01X1012791Y-3883687D01*
G01X1012791Y-3883687D02*
G01X1012791Y-4012180D01*
G01X1196209Y-4107420D02*
G01X1196209Y-4235914D01*
G01X1196209Y-4235914D02*
G01X1012791Y-4235914D01*
G01X1012791Y-4235914D02*
G01X1012791Y-4107420D01*
G01X1846209Y-4012180D02*
G01X1846209Y-3883687D01*
G01X1846209Y-3883687D02*
G01X1662791Y-3883687D01*
G01X1662791Y-3883687D02*
G01X1662791Y-4012180D01*
G01X1846209Y-4107420D02*
G01X1846209Y-4235914D01*
G01X1846209Y-4235914D02*
G01X1662791Y-4235914D01*
G01X1662791Y-4235914D02*
G01X1662791Y-4107420D01*
G01X2496209Y-4012180D02*
G01X2496209Y-3883687D01*
G01X2496209Y-3883687D02*
G01X2312791Y-3883687D01*
G01X2312791Y-3883687D02*
G01X2312791Y-4012180D01*
G01X2496209Y-4107420D02*
G01X2496209Y-4235914D01*
G01X2496209Y-4235914D02*
G01X2312791Y-4235914D01*
G01X2312791Y-4235914D02*
G01X2312791Y-4107420D01*
G01X3146209Y-4012180D02*
G01X3146209Y-3883687D01*
G01X3146209Y-3883687D02*
G01X2962791Y-3883687D01*
G01X2962791Y-3883687D02*
G01X2962791Y-4012180D01*
G01X3146209Y-4107420D02*
G01X3146209Y-4235914D01*
G01X3146209Y-4235914D02*
G01X2962791Y-4235914D01*
G01X2962791Y-4235914D02*
G01X2962791Y-4107420D01*
G01X4446209Y-4012180D02*
G01X4446209Y-3883687D01*
G01X4446209Y-3883687D02*
G01X4262791Y-3883687D01*
G01X4262791Y-3883687D02*
G01X4262791Y-4012180D01*
G01X4446209Y-4107420D02*
G01X4446209Y-4235914D01*
G01X4446209Y-4235914D02*
G01X4262791Y-4235914D01*
G01X4262791Y-4235914D02*
G01X4262791Y-4107420D01*
G54D13*
G01X2586101Y-169400D02*
G01X2616101Y-169400D01*
G01X3536099Y-169400D02*
G01X3576099Y-169400D01*
G01X3536099Y-249400D02*
G01X3576099Y-249400D01*
G01X2586101Y-249400D02*
G01X2626101Y-249400D01*
G01X2832113Y-88900D02*
G01X2832113Y-38100D01*
G01X3340113Y-76200D02*
G01X3340113Y-38100D01*
G54D12*
G01X3097964Y-922061D02*
G01X3246463Y-922061D01*
G01X3246463Y-703539D02*
G01X3097964Y-703539D01*
G01X3082724Y-718779D02*
G01X3082724Y-906821D01*
G01X3580204Y-922061D02*
G01X3431705Y-922061D01*
G01X3431705Y-703539D02*
G01X3580204Y-703539D01*
G01X3595444Y-718779D02*
G01X3595444Y-906821D01*
G01X3097964Y-703539D02*
G03X3082724Y-718779I0J-15240D01*
G01X3082724Y-906821D02*
G03X3097964Y-922061I15240J0D01*
G01X3580204Y-703539D02*
G02X3595444Y-718779I0J-15240D01*
G01X3595444Y-906821D02*
G02X3580204Y-922061I-15240J0D01*
G01X2779720Y-902909D02*
G01X2908214Y-902909D01*
G01X2908214Y-902909D02*
G01X2908214Y-719491D01*
G01X2908214Y-719491D02*
G01X2779720Y-719491D01*
G01X2684480Y-902909D02*
G01X2555987Y-902909D01*
G01X2555987Y-902909D02*
G01X2555987Y-719491D01*
G01X2555987Y-719491D02*
G01X2684480Y-719491D01*
G54D13*
G01X4300601Y-3369800D02*
G01X4330601Y-3369800D01*
G01X5250599Y-3369800D02*
G01X5290599Y-3369800D01*
G01X5250599Y-3449800D02*
G01X5290599Y-3449800D01*
G01X4300601Y-3449800D02*
G01X4340601Y-3449800D01*
G01X4546613Y-3289300D02*
G01X4546613Y-3238500D01*
G01X5054613Y-3276600D02*
G01X5054613Y-3238500D01*
G54D12*
G01X4979445Y-683148D02*
G01X4830947Y-683148D01*
G01X4830947Y-901670D02*
G01X4979445Y-901670D01*
G01X4994685Y-886430D02*
G01X4994685Y-698388D01*
G01X4497206Y-683148D02*
G01X4645704Y-683148D01*
G01X4645704Y-901670D02*
G01X4497206Y-901670D01*
G01X4481966Y-886430D02*
G01X4481966Y-698388D01*
G01X4979445Y-901670D02*
G03X4994685Y-886430I0J15240D01*
G01X4994685Y-698388D02*
G03X4979445Y-683148I-15240J0D01*
G01X4497206Y-901670D02*
G02X4481966Y-886430I0J15240D01*
G01X4481966Y-698388D02*
G02X4497206Y-683148I15240J0D01*
G01X4365620Y-1514109D02*
G01X4494113Y-1514109D01*
G01X4494113Y-1514109D02*
G01X4494113Y-1330691D01*
G01X4494113Y-1330691D02*
G01X4365620Y-1330691D01*
G01X4270380Y-1514109D02*
G01X4141887Y-1514109D01*
G01X4141887Y-1514109D02*
G01X4141887Y-1330691D01*
G01X4141887Y-1330691D02*
G01X4270380Y-1330691D01*
G54D13*
G01X4370026Y-38100D02*
G01X4370026Y-63500D01*
G01X5106626Y-38100D02*
G01X5106626Y-63500D01*
G01X4370026Y-38100D02*
G01X4484326Y-38100D01*
G01X4865326Y-38100D02*
G01X4611326Y-38100D01*
G01X5106626Y-38100D02*
G01X5005026Y-38100D01*
G01X5106626Y-177800D02*
G01X5106626Y-622300D01*
G01X5106626Y-622300D02*
G01X4370026Y-622300D01*
G01X4370026Y-622300D02*
G01X4370026Y-177800D01*
G54D12*
G01X7606797Y-4625721D02*
G01X7606797Y-4340479D01*
G01X7778024Y-4625721D02*
G01X7258787Y-4625721D01*
G01X7259076Y-4365539D02*
G01X7258408Y-4341617D01*
G01X7258787Y-4625721D02*
G01X7258119Y-4601799D01*
G01X7778024Y-4340479D02*
G01X7258787Y-4340479D01*
G36*
G01X7770406Y-4633341D02*
G01X7770538Y-4592681D01*
G01X7816492Y-4593133D01*
G01X7816126Y-4633341D01*
G01X7770406Y-4633341D01*
G37*
G36*
G01X7769583Y-4373504D02*
G01X7769715Y-4332844D01*
G01X7815669Y-4333296D01*
G01X7815303Y-4373504D01*
G01X7769583Y-4373504D01*
G37*
G54D13*
G01X7124700Y-5257800D02*
G01X7124700Y-5232400D01*
G01X6388100Y-5257800D02*
G01X6388100Y-5232400D01*
G01X7124700Y-5257800D02*
G01X7010400Y-5257800D01*
G01X6629400Y-5257800D02*
G01X6883400Y-5257800D01*
G01X6388100Y-5257800D02*
G01X6489700Y-5257800D01*
G01X6388100Y-5118100D02*
G01X6388100Y-4673600D01*
G01X6388100Y-4673600D02*
G01X7124700Y-4673600D01*
G01X7124700Y-4673600D02*
G01X7124700Y-5118100D01*
G01X6362700Y-5257800D02*
G01X6362700Y-5232400D01*
G01X5626100Y-5257800D02*
G01X5626100Y-5232400D01*
G01X6362700Y-5257800D02*
G01X6248400Y-5257800D01*
G01X5867400Y-5257800D02*
G01X6121400Y-5257800D01*
G01X5626100Y-5257800D02*
G01X5727700Y-5257800D01*
G01X5626100Y-5118100D02*
G01X5626100Y-4673600D01*
G01X5626100Y-4673600D02*
G01X6362700Y-4673600D01*
G01X6362700Y-4673600D02*
G01X6362700Y-5118100D01*
G01X6933400Y-5658800D02*
G01X6893400Y-5618800D01*
G01X6893400Y-5618800D02*
G01X6883400Y-5608800D01*
G01X6883400Y-5608800D02*
G01X6873375Y-5618800D01*
G01X6873375Y-5618800D02*
G01X6833375Y-5658800D01*
G01X6933400Y-5658800D02*
G01X6833375Y-5658800D01*
G01X6781673Y-5683123D02*
G01X6781673Y-5838063D01*
G01X6781673Y-5838063D02*
G01X6984873Y-5838063D01*
G01X6984873Y-5838063D02*
G01X6984873Y-5683123D01*
G01X6779133Y-5604383D02*
G01X6779133Y-5457063D01*
G01X6779133Y-5457063D02*
G01X6819773Y-5416423D01*
G01X6819773Y-5416423D02*
G01X6946773Y-5416423D01*
G01X6946773Y-5416423D02*
G01X6984873Y-5454523D01*
G01X6984873Y-5454523D02*
G01X6984873Y-5606923D01*
G01X6171400Y-5658800D02*
G01X6131400Y-5618800D01*
G01X6131400Y-5618800D02*
G01X6121400Y-5608800D01*
G01X6121400Y-5608800D02*
G01X6111375Y-5618800D01*
G01X6111375Y-5618800D02*
G01X6071375Y-5658800D01*
G01X6171400Y-5658800D02*
G01X6071375Y-5658800D01*
G01X6019673Y-5683123D02*
G01X6019673Y-5838063D01*
G01X6019673Y-5838063D02*
G01X6222873Y-5838063D01*
G01X6222873Y-5838063D02*
G01X6222873Y-5683123D01*
G01X6017133Y-5604383D02*
G01X6017133Y-5457063D01*
G01X6017133Y-5457063D02*
G01X6057773Y-5416423D01*
G01X6057773Y-5416423D02*
G01X6184773Y-5416423D01*
G01X6184773Y-5416423D02*
G01X6222873Y-5454523D01*
G01X6222873Y-5454523D02*
G01X6222873Y-5606923D01*
G54D12*
G01X7242579Y-4318221D02*
G01X7387821Y-4318221D01*
G01X7387821Y-4318221D02*
G01X7387821Y-4215059D01*
G01X7242579Y-4012979D02*
G01X7387821Y-4012979D01*
G01X7387821Y-4012979D02*
G01X7387821Y-4116141D01*
G01X7242579Y-4211140D02*
G01X7242579Y-4120060D01*
G01X6746509Y-5607080D02*
G01X6746509Y-5478587D01*
G01X6746509Y-5478587D02*
G01X6563091Y-5478587D01*
G01X6563091Y-5478587D02*
G01X6563091Y-5607080D01*
G01X6746509Y-5702320D02*
G01X6746509Y-5830814D01*
G01X6746509Y-5830814D02*
G01X6563091Y-5830814D01*
G01X6563091Y-5830814D02*
G01X6563091Y-5702320D01*
G01X5984509Y-5607080D02*
G01X5984509Y-5478587D01*
G01X5984509Y-5478587D02*
G01X5801091Y-5478587D01*
G01X5801091Y-5478587D02*
G01X5801091Y-5607080D01*
G01X5984509Y-5702320D02*
G01X5984509Y-5830814D01*
G01X5984509Y-5830814D02*
G01X5801091Y-5830814D01*
G01X5801091Y-5830814D02*
G01X5801091Y-5702320D01*
G01X6844797Y-4625721D02*
G01X6844797Y-4340479D01*
G01X7016024Y-4625721D02*
G01X6496787Y-4625721D01*
G01X6497076Y-4365539D02*
G01X6496408Y-4341617D01*
G01X6496787Y-4625721D02*
G01X6496119Y-4601799D01*
G01X7016024Y-4340479D02*
G01X6496787Y-4340479D01*
G36*
G01X7008406Y-4633341D02*
G01X7008538Y-4592681D01*
G01X7054492Y-4593133D01*
G01X7054126Y-4633341D01*
G01X7008406Y-4633341D01*
G37*
G36*
G01X7007583Y-4373504D02*
G01X7007715Y-4332844D01*
G01X7053669Y-4333296D01*
G01X7053303Y-4373504D01*
G01X7007583Y-4373504D01*
G37*
G01X6082797Y-4638421D02*
G01X6082797Y-4353179D01*
G01X6254024Y-4638421D02*
G01X5734787Y-4638421D01*
G01X5735076Y-4378239D02*
G01X5734408Y-4354317D01*
G01X5734787Y-4638421D02*
G01X5734119Y-4614499D01*
G01X6254024Y-4353179D02*
G01X5734787Y-4353179D01*
G36*
G01X6246406Y-4646041D02*
G01X6246538Y-4605381D01*
G01X6292492Y-4605833D01*
G01X6292126Y-4646041D01*
G01X6246406Y-4646041D01*
G37*
G36*
G01X6245583Y-4386204D02*
G01X6245715Y-4345544D01*
G01X6291669Y-4345996D01*
G01X6291303Y-4386204D01*
G01X6245583Y-4386204D01*
G37*
G54D13*
G01X7886700Y-5257800D02*
G01X7886700Y-5232400D01*
G01X7150100Y-5257800D02*
G01X7150100Y-5232400D01*
G01X7886700Y-5257800D02*
G01X7772400Y-5257800D01*
G01X7391400Y-5257800D02*
G01X7645400Y-5257800D01*
G01X7150100Y-5257800D02*
G01X7251700Y-5257800D01*
G01X7150100Y-5118100D02*
G01X7150100Y-4673600D01*
G01X7150100Y-4673600D02*
G01X7886700Y-4673600D01*
G01X7886700Y-4673600D02*
G01X7886700Y-5118100D01*
G54D12*
G01X6493279Y-4292821D02*
G01X6638521Y-4292821D01*
G01X6638521Y-4292821D02*
G01X6638521Y-4189659D01*
G01X6493279Y-3987579D02*
G01X6638521Y-3987579D01*
G01X6638521Y-3987579D02*
G01X6638521Y-4090741D01*
G01X6493279Y-4185740D02*
G01X6493279Y-4094660D01*
G01X5718579Y-4318221D02*
G01X5863821Y-4318221D01*
G01X5863821Y-4318221D02*
G01X5863821Y-4215059D01*
G01X5718579Y-4012979D02*
G01X5863821Y-4012979D01*
G01X5863821Y-4012979D02*
G01X5863821Y-4116141D01*
G01X5718579Y-4211140D02*
G01X5718579Y-4120060D01*
G54D13*
G01X12700Y-2298700D02*
G01X520700Y-2298700D01*
G01X520700Y-2298700D02*
G01X520700Y-1536700D01*
G01X520700Y-1536700D02*
G01X12700Y-1536700D01*
G54D12*
G01X8061579Y-3720592D02*
G01X8346821Y-3720592D01*
G01X8061579Y-3891818D02*
G01X8061579Y-3372582D01*
G01X8321761Y-3372871D02*
G01X8345683Y-3372203D01*
G01X8061579Y-3372582D02*
G01X8085501Y-3371913D01*
G01X8346821Y-3891818D02*
G01X8346821Y-3372582D01*
G36*
G01X8053959Y-3884201D02*
G01X8094619Y-3884333D01*
G01X8094167Y-3930287D01*
G01X8053959Y-3929921D01*
G01X8053959Y-3884201D01*
G37*
G36*
G01X8313796Y-3883378D02*
G01X8354456Y-3883510D01*
G01X8354004Y-3929464D01*
G01X8313796Y-3929098D01*
G01X8313796Y-3883378D01*
G37*
G54D13*
G01X8244921Y-4258363D02*
G01X8204921Y-4218363D01*
G01X8204921Y-4218363D02*
G01X8194921Y-4208363D01*
G01X8194921Y-4208363D02*
G01X8184896Y-4218363D01*
G01X8184896Y-4218363D02*
G01X8144896Y-4258363D01*
G01X8244921Y-4258363D02*
G01X8144896Y-4258363D01*
G01X8093194Y-4282686D02*
G01X8093194Y-4437626D01*
G01X8093194Y-4437626D02*
G01X8296394Y-4437626D01*
G01X8296394Y-4437626D02*
G01X8296394Y-4282686D01*
G01X8090654Y-4203946D02*
G01X8090654Y-4056626D01*
G01X8090654Y-4056626D02*
G01X8131294Y-4015986D01*
G01X8131294Y-4015986D02*
G01X8258294Y-4015986D01*
G01X8258294Y-4015986D02*
G01X8296394Y-4054086D01*
G01X8296394Y-4054086D02*
G01X8296394Y-4206486D01*
G54D12*
G01X7712479Y-3949921D02*
G01X7857721Y-3949921D01*
G01X7857721Y-3949921D02*
G01X7857721Y-3846759D01*
G01X7712479Y-3644679D02*
G01X7857721Y-3644679D01*
G01X7857721Y-3644679D02*
G01X7857721Y-3747841D01*
G01X7712479Y-3842840D02*
G01X7712479Y-3751760D01*
G01X6283691Y-3248020D02*
G01X6283691Y-3376513D01*
G01X6283691Y-3376513D02*
G01X6467109Y-3376513D01*
G01X6467109Y-3376513D02*
G01X6467109Y-3248020D01*
G01X6283691Y-3152780D02*
G01X6283691Y-3024287D01*
G01X6283691Y-3024287D02*
G01X6467109Y-3024287D01*
G01X6467109Y-3024287D02*
G01X6467109Y-3152780D01*
G01X6550020Y-3952509D02*
G01X6678513Y-3952509D01*
G01X6678513Y-3952509D02*
G01X6678513Y-3769091D01*
G01X6678513Y-3769091D02*
G01X6550020Y-3769091D01*
G01X6454780Y-3952509D02*
G01X6326287Y-3952509D01*
G01X6326287Y-3952509D02*
G01X6326287Y-3769091D01*
G01X6326287Y-3769091D02*
G01X6454780Y-3769091D01*
G01X6321420Y-3749309D02*
G01X6449913Y-3749309D01*
G01X6449913Y-3749309D02*
G01X6449913Y-3565891D01*
G01X6449913Y-3565891D02*
G01X6321420Y-3565891D01*
G01X6226180Y-3749309D02*
G01X6097687Y-3749309D01*
G01X6097687Y-3749309D02*
G01X6097687Y-3565891D01*
G01X6097687Y-3565891D02*
G01X6226180Y-3565891D01*
G01X5476799Y-4158391D02*
G01X5605292Y-4158391D01*
G01X5605292Y-4158391D02*
G01X5605292Y-3974973D01*
G01X5605292Y-3974973D02*
G01X5476799Y-3974973D01*
G01X5381559Y-4158391D02*
G01X5253065Y-4158391D01*
G01X5253065Y-4158391D02*
G01X5253065Y-3974973D01*
G01X5253065Y-3974973D02*
G01X5381559Y-3974973D01*
G01X5280020Y-4371609D02*
G01X5408513Y-4371609D01*
G01X5408513Y-4371609D02*
G01X5408513Y-4188191D01*
G01X5408513Y-4188191D02*
G01X5280020Y-4188191D01*
G01X5184780Y-4371609D02*
G01X5056287Y-4371609D01*
G01X5056287Y-4371609D02*
G01X5056287Y-4188191D01*
G01X5056287Y-4188191D02*
G01X5184780Y-4188191D01*
G01X8489980Y-4251691D02*
G01X8361487Y-4251691D01*
G01X8361487Y-4251691D02*
G01X8361487Y-4435109D01*
G01X8361487Y-4435109D02*
G01X8489980Y-4435109D01*
G01X8585220Y-4251691D02*
G01X8713714Y-4251691D01*
G01X8713714Y-4251691D02*
G01X8713714Y-4435109D01*
G01X8713714Y-4435109D02*
G01X8585220Y-4435109D01*
G01X7712080Y-3997691D02*
G01X7583587Y-3997691D01*
G01X7583587Y-3997691D02*
G01X7583587Y-4181109D01*
G01X7583587Y-4181109D02*
G01X7712080Y-4181109D01*
G01X7807320Y-3997691D02*
G01X7935813Y-3997691D01*
G01X7935813Y-3997691D02*
G01X7935813Y-4181109D01*
G01X7935813Y-4181109D02*
G01X7807320Y-4181109D01*
G01X7400920Y-3901709D02*
G01X7529413Y-3901709D01*
G01X7529413Y-3901709D02*
G01X7529413Y-3718291D01*
G01X7529413Y-3718291D02*
G01X7400920Y-3718291D01*
G01X7305680Y-3901709D02*
G01X7177187Y-3901709D01*
G01X7177187Y-3901709D02*
G01X7177187Y-3718291D01*
G01X7177187Y-3718291D02*
G01X7305680Y-3718291D01*
G01X6878991Y-3957620D02*
G01X6878991Y-4086113D01*
G01X6878991Y-4086113D02*
G01X7062409Y-4086113D01*
G01X7062409Y-4086113D02*
G01X7062409Y-3957620D01*
G01X6878991Y-3862380D02*
G01X6878991Y-3733886D01*
G01X6878991Y-3733886D02*
G01X7062409Y-3733886D01*
G01X7062409Y-3733886D02*
G01X7062409Y-3862380D01*
G01X6619880Y-3032491D02*
G01X6491387Y-3032491D01*
G01X6491387Y-3032491D02*
G01X6491387Y-3215909D01*
G01X6491387Y-3215909D02*
G01X6619880Y-3215909D01*
G01X6715120Y-3032491D02*
G01X6843613Y-3032491D01*
G01X6843613Y-3032491D02*
G01X6843613Y-3215909D01*
G01X6843613Y-3215909D02*
G01X6715120Y-3215909D01*
G01X5728896Y-3296961D02*
G01X5877395Y-3296961D01*
G01X5877395Y-3078439D02*
G01X5728896Y-3078439D01*
G01X5713656Y-3093679D02*
G01X5713656Y-3281721D01*
G01X6211136Y-3296961D02*
G01X6062637Y-3296961D01*
G01X6062637Y-3078439D02*
G01X6211136Y-3078439D01*
G01X6226376Y-3093679D02*
G01X6226376Y-3281721D01*
G01X5728896Y-3078439D02*
G03X5713656Y-3093679I0J-15240D01*
G01X5713656Y-3281721D02*
G03X5728896Y-3296961I15240J0D01*
G01X6211136Y-3078439D02*
G02X6226376Y-3093679I0J-15240D01*
G01X6226376Y-3281721D02*
G02X6211136Y-3296961I-15240J0D01*
G54D13*
G01X6006615Y-3361799D02*
G01X6019698Y-3361799D01*
G01X5686613Y-3361799D02*
G01X5870387Y-3361799D01*
G01X5550388Y-3851798D02*
G01X5533499Y-3851798D01*
G01X5533499Y-3851798D02*
G01X5533499Y-3361799D01*
G01X5533499Y-3361799D02*
G01X5550388Y-3361799D01*
G01X5870387Y-3851798D02*
G01X5686613Y-3851798D01*
G01X6023498Y-3361799D02*
G01X6023498Y-3851798D01*
G01X6023498Y-3851798D02*
G01X6006615Y-3851798D01*
G36*
G01X5469969Y-3816944D02*
G01X5469969Y-3884254D01*
G01X5542359Y-3884254D01*
G01X5469969Y-3816944D01*
G37*
G54D12*
G01X5502679Y-3035521D02*
G01X5647921Y-3035521D01*
G01X5647921Y-3035521D02*
G01X5647921Y-2932359D01*
G01X5502679Y-2730279D02*
G01X5647921Y-2730279D01*
G01X5647921Y-2730279D02*
G01X5647921Y-2833441D01*
G01X5502679Y-2928440D02*
G01X5502679Y-2837360D01*
G01X3956880Y-4068091D02*
G01X3828387Y-4068091D01*
G01X3828387Y-4068091D02*
G01X3828387Y-4251509D01*
G01X3828387Y-4251509D02*
G01X3956880Y-4251509D01*
G01X4052120Y-4068091D02*
G01X4180613Y-4068091D01*
G01X4180613Y-4068091D02*
G01X4180613Y-4251509D01*
G01X4180613Y-4251509D02*
G01X4052120Y-4251509D01*
G01X1356880Y-4068091D02*
G01X1228387Y-4068091D01*
G01X1228387Y-4068091D02*
G01X1228387Y-4251509D01*
G01X1228387Y-4251509D02*
G01X1356880Y-4251509D01*
G01X1452120Y-4068091D02*
G01X1580614Y-4068091D01*
G01X1580614Y-4068091D02*
G01X1580614Y-4251509D01*
G01X1580614Y-4251509D02*
G01X1452120Y-4251509D01*
G01X2006880Y-4068091D02*
G01X1878387Y-4068091D01*
G01X1878387Y-4068091D02*
G01X1878387Y-4251509D01*
G01X1878387Y-4251509D02*
G01X2006880Y-4251509D01*
G01X2102120Y-4068091D02*
G01X2230614Y-4068091D01*
G01X2230614Y-4068091D02*
G01X2230614Y-4251509D01*
G01X2230614Y-4251509D02*
G01X2102120Y-4251509D01*
G01X2656880Y-4068091D02*
G01X2528387Y-4068091D01*
G01X2528387Y-4068091D02*
G01X2528387Y-4251509D01*
G01X2528387Y-4251509D02*
G01X2656880Y-4251509D01*
G01X2752120Y-4068091D02*
G01X2880613Y-4068091D01*
G01X2880613Y-4068091D02*
G01X2880613Y-4251509D01*
G01X2880613Y-4251509D02*
G01X2752120Y-4251509D01*
G01X3306880Y-4068091D02*
G01X3178387Y-4068091D01*
G01X3178387Y-4068091D02*
G01X3178387Y-4251509D01*
G01X3178387Y-4251509D02*
G01X3306880Y-4251509D01*
G01X3402120Y-4068091D02*
G01X3530613Y-4068091D01*
G01X3530613Y-4068091D02*
G01X3530613Y-4251509D01*
G01X3530613Y-4251509D02*
G01X3402120Y-4251509D01*
G01X4606880Y-4068091D02*
G01X4478387Y-4068091D01*
G01X4478387Y-4068091D02*
G01X4478387Y-4251509D01*
G01X4478387Y-4251509D02*
G01X4606880Y-4251509D01*
G01X4702120Y-4068091D02*
G01X4830613Y-4068091D01*
G01X4830613Y-4068091D02*
G01X4830613Y-4251509D01*
G01X4830613Y-4251509D02*
G01X4702120Y-4251509D01*
G01X5130152Y-2907193D02*
G01X5001659Y-2907193D01*
G01X5001659Y-2907193D02*
G01X5001659Y-3090611D01*
G01X5001659Y-3090611D02*
G01X5130152Y-3090611D01*
G01X5225392Y-2907193D02*
G01X5353886Y-2907193D01*
G01X5353886Y-2907193D02*
G01X5353886Y-3090611D01*
G01X5353886Y-3090611D02*
G01X5225392Y-3090611D01*
G01X5545120Y-3293709D02*
G01X5673613Y-3293709D01*
G01X5673613Y-3293709D02*
G01X5673613Y-3110291D01*
G01X5673613Y-3110291D02*
G01X5545120Y-3110291D01*
G01X5449880Y-3293709D02*
G01X5321386Y-3293709D01*
G01X5321386Y-3293709D02*
G01X5321386Y-3110291D01*
G01X5321386Y-3110291D02*
G01X5449880Y-3110291D01*
G01X5325770Y-3548764D02*
G01X5325770Y-3677257D01*
G01X5325770Y-3677257D02*
G01X5509189Y-3677257D01*
G01X5509189Y-3677257D02*
G01X5509189Y-3548764D01*
G01X5325770Y-3453524D02*
G01X5325770Y-3325030D01*
G01X5325770Y-3325030D02*
G01X5509189Y-3325030D01*
G01X5509189Y-3325030D02*
G01X5509189Y-3453524D01*
G54D13*
G01X5528899Y-2400300D02*
G01X5528899Y-2146300D01*
G01X6332901Y-2400300D02*
G01X5528899Y-2400300D01*
G01X6055548Y-2400300D02*
G01X6055548Y-2146300D01*
G01X6332901Y-2146300D02*
G01X5528899Y-2146300D01*
G01X6332901Y-2400300D02*
G01X6332901Y-2146300D01*
G01X5528899Y-2654300D02*
G01X5528899Y-2400300D01*
G01X6332901Y-2654300D02*
G01X5528899Y-2654300D01*
G01X6055548Y-2654300D02*
G01X6055548Y-2400300D01*
G01X6332901Y-2400300D02*
G01X5528899Y-2400300D01*
G01X6332901Y-2654300D02*
G01X6332901Y-2400300D01*
G01X1430800Y-4910201D02*
G01X1430800Y-4940201D01*
G01X1430800Y-5860199D02*
G01X1430800Y-5900199D01*
G01X1350800Y-5860199D02*
G01X1350800Y-5900199D01*
G01X1350800Y-4910201D02*
G01X1350800Y-4950201D01*
G01X1511300Y-5156213D02*
G01X1562100Y-5156213D01*
G01X1524000Y-5664213D02*
G01X1562100Y-5664213D01*
G01X2078500Y-4910201D02*
G01X2078500Y-4940201D01*
G01X2078500Y-5860199D02*
G01X2078500Y-5900199D01*
G01X1998500Y-5860199D02*
G01X1998500Y-5900199D01*
G01X1998500Y-4910201D02*
G01X1998500Y-4950201D01*
G01X2159000Y-5156213D02*
G01X2209800Y-5156213D01*
G01X2171700Y-5664213D02*
G01X2209800Y-5664213D01*
G01X2726200Y-4910201D02*
G01X2726200Y-4940201D01*
G01X2726200Y-5860199D02*
G01X2726200Y-5900199D01*
G01X2646200Y-5860199D02*
G01X2646200Y-5900199D01*
G01X2646200Y-4910201D02*
G01X2646200Y-4950201D01*
G01X2806700Y-5156213D02*
G01X2857500Y-5156213D01*
G01X2819400Y-5664213D02*
G01X2857500Y-5664213D01*
G01X3373900Y-4910201D02*
G01X3373900Y-4940201D01*
G01X3373900Y-5860199D02*
G01X3373900Y-5900199D01*
G01X3293900Y-5860199D02*
G01X3293900Y-5900199D01*
G01X3293900Y-4910201D02*
G01X3293900Y-4950201D01*
G01X3454400Y-5156213D02*
G01X3505200Y-5156213D01*
G01X3467100Y-5664213D02*
G01X3505200Y-5664213D01*
G01X4021600Y-4910201D02*
G01X4021600Y-4940201D01*
G01X4021600Y-5860199D02*
G01X4021600Y-5900199D01*
G01X3941600Y-5860199D02*
G01X3941600Y-5900199D01*
G01X3941600Y-4910201D02*
G01X3941600Y-4950201D01*
G01X4102100Y-5156213D02*
G01X4152900Y-5156213D01*
G01X4114800Y-5664213D02*
G01X4152900Y-5664213D01*
G01X4669300Y-4910201D02*
G01X4669300Y-4940201D01*
G01X4669300Y-5860199D02*
G01X4669300Y-5900199D01*
G01X4589300Y-5860199D02*
G01X4589300Y-5900199D01*
G01X4589300Y-4910201D02*
G01X4589300Y-4950201D01*
G01X4749800Y-5156213D02*
G01X4800600Y-5156213D01*
G01X4762500Y-5664213D02*
G01X4800600Y-5664213D01*
G01X2379297Y-40653D02*
G01X897303Y-40653D01*
G01X897303Y-40653D02*
G01X897303Y-615650D01*
G01X897303Y-615650D02*
G01X2379297Y-615650D01*
G01X2379297Y-615650D02*
G01X2379297Y-40653D01*
G01X2044700Y-47053D02*
G01X2044700Y-97853D01*
G01X2044700Y-97853D02*
G01X1231900Y-97853D01*
G01X1231900Y-97853D02*
G01X1231900Y-47053D01*
G01X2341197Y-3241053D02*
G01X859203Y-3241053D01*
G01X859203Y-3241053D02*
G01X859203Y-3816050D01*
G01X859203Y-3816050D02*
G01X2341197Y-3816050D01*
G01X2341197Y-3816050D02*
G01X2341197Y-3241053D01*
G01X2006600Y-3247453D02*
G01X2006600Y-3298253D01*
G01X2006600Y-3298253D02*
G01X1193800Y-3298253D01*
G01X1193800Y-3298253D02*
G01X1193800Y-3247453D01*

G04 Rect Start*
G01X2628913Y-571500D02*
G01X2628913Y-88900D01*
G01X3530613Y-88900D01*
G01X3530613Y-571500D01*
G01X2628913Y-571500D01*
G01X2578113Y-622300D02*
G01X2578113Y-38100D01*
G01X3581413Y-38100D01*
G01X3581413Y-622300D01*
G01X2578113Y-622300D01*
G01X4343413Y-3771900D02*
G01X4343413Y-3289300D01*
G01X5245113Y-3289300D01*
G01X5245113Y-3771900D01*
G01X4343413Y-3771900D01*
G01X4292613Y-3822700D02*
G01X4292613Y-3238500D01*
G01X5295913Y-3238500D01*
G01X5295913Y-3822700D01*
G01X4292613Y-3822700D01*
G01X5346700Y-2882900D02*
G01X0Y-2882900D01*
G01X0Y-952500D01*
G01X5346700Y-952500D01*
G01X5346700Y-2882900D01*
G01X1028700Y-4953013D02*
G01X1511300Y-4953013D01*
G01X1511300Y-5854713D01*
G01X1028700Y-5854713D01*
G01X1028700Y-4953013D01*
G01X977900Y-4902213D02*
G01X1562100Y-4902213D01*
G01X1562100Y-5905513D01*
G01X977900Y-5905513D01*
G01X977900Y-4902213D01*
G01X1676400Y-4953013D02*
G01X2159000Y-4953013D01*
G01X2159000Y-5854713D01*
G01X1676400Y-5854713D01*
G01X1676400Y-4953013D01*
G01X1625600Y-4902213D02*
G01X2209800Y-4902213D01*
G01X2209800Y-5905513D01*
G01X1625600Y-5905513D01*
G01X1625600Y-4902213D01*
G01X2324100Y-4953013D02*
G01X2806700Y-4953013D01*
G01X2806700Y-5854713D01*
G01X2324100Y-5854713D01*
G01X2324100Y-4953013D01*
G01X2273300Y-4902213D02*
G01X2857500Y-4902213D01*
G01X2857500Y-5905513D01*
G01X2273300Y-5905513D01*
G01X2273300Y-4902213D01*
G01X2971800Y-4953013D02*
G01X3454400Y-4953013D01*
G01X3454400Y-5854713D01*
G01X2971800Y-5854713D01*
G01X2971800Y-4953013D01*
G01X2921000Y-4902213D02*
G01X3505200Y-4902213D01*
G01X3505200Y-5905513D01*
G01X2921000Y-5905513D01*
G01X2921000Y-4902213D01*
G01X3619500Y-4953013D02*
G01X4102100Y-4953013D01*
G01X4102100Y-5854713D01*
G01X3619500Y-5854713D01*
G01X3619500Y-4953013D01*
G01X3568700Y-4902213D02*
G01X4152900Y-4902213D01*
G01X4152900Y-5905513D01*
G01X3568700Y-5905513D01*
G01X3568700Y-4902213D01*
G01X4267200Y-4953013D02*
G01X4749800Y-4953013D01*
G01X4749800Y-5854713D01*
G01X4267200Y-5854713D01*
G01X4267200Y-4953013D01*
G01X4216400Y-4902213D02*
G01X4800600Y-4902213D01*
G01X4800600Y-5905513D01*
G01X4216400Y-5905513D01*
G01X4216400Y-4902213D01*
G04 Rect End*

G04 Circle Start*
G01X1371600Y-1863098D02*
G03X1397000Y-1863098I12700J0D01*
G03X1371600Y-1863098I-12700J0D01*
G01X8432800Y-2209884D02*
G03X8509000Y-2209884I38100J0D01*
G03X8432800Y-2209884I-38100J0D01*
G01X8432800Y-1701884D02*
G03X8509000Y-1701884I38100J0D01*
G03X8432800Y-1701884I-38100J0D01*
G01X8445500Y-3873584D02*
G03X8521700Y-3873584I38100J0D01*
G03X8445500Y-3873584I-38100J0D01*
G01X8445500Y-3365584D02*
G03X8521700Y-3365584I38100J0D01*
G03X8445500Y-3365584I-38100J0D01*
G04 Circle End*

M02*

