G04 Layer: TopPasteMaskLayer*
G04 EasyEDA Pro v2.2.34.8, 2025-01-04 05:44:47*
G04 Gerber Generator version 0.3*
G04 Scale: 100 percent, Rotated: No, Reflected: No*
G04 Dimensions in millimeters*
G04 Leading zeros omitted, absolute positions, 4 integers and 5 decimals*
%FSLAX45Y45*%
%MOMM*%
%AMPolygonMacro1*4,1,5,-0.41275,-0.35052,-0.41275,0.35052,0.41275,0.35052,0.18669,0.0,0.41275,-0.35052,-0.41275,-0.35052,0*%
%AMPolygonMacro2*4,1,5,-0.18669,-0.35052,-0.41275,0.0,-0.18669,0.35052,0.41275,0.35052,0.41275,-0.35052,-0.18669,-0.35052,0*%
%ADD10R,1.64X0.55999*%
%ADD11R,2.1X3.29999*%
%ADD12R,0.8X0.9*%
%ADD13R,0.8X0.9*%
%ADD14R,0.41999X0.6*%
%ADD15R,0.41999X0.6*%
%ADD16R,1.39954X1.0*%
%ADD17R,1.39954X1.0*%
%ADD18R,2.4646X1.05001*%
%ADD19R,2.46499X1.05001*%
%ADD20R,2.46499X3.54*%
%ADD21R,2.0X2.0*%
%ADD22R,1.25001X0.7*%
%ADD23R,2.0X2.0*%
%ADD24R,0.9X1.3*%
%ADD25PolygonMacro1*%
%ADD26PolygonMacro2*%
G75*


G04 PolygonModel Start*
G36*
G01X1672501Y-1714701D02*
G01X1672501Y-1677675D01*
G01X1682501Y-1667675D01*
G01X1712991Y-1667675D01*
G01X1722991Y-1657675D01*
G01X1722991Y-1618925D01*
G01X1712991Y-1608925D01*
G01X1682501Y-1608925D01*
G01X1672501Y-1598925D01*
G01X1672501Y-1561899D01*
G01X1682501Y-1551899D01*
G01X1811000Y-1551899D01*
G01X1821000Y-1561899D01*
G01X1821000Y-1714701D01*
G01X1811000Y-1724701D01*
G01X1682501Y-1724701D01*
G01X1672501Y-1714701D01*
G37*
G36*
G01X1502499Y-1714701D02*
G01X1502499Y-1677675D01*
G01X1492499Y-1667675D01*
G01X1462009Y-1667675D01*
G01X1452009Y-1657675D01*
G01X1452009Y-1618925D01*
G01X1462009Y-1608925D01*
G01X1492499Y-1608925D01*
G01X1502499Y-1598925D01*
G01X1502499Y-1561899D01*
G01X1492499Y-1551899D01*
G01X1364000Y-1551899D01*
G01X1354000Y-1561899D01*
G01X1354000Y-1714701D01*
G01X1364000Y-1724701D01*
G01X1492499Y-1724701D01*
G01X1502499Y-1714701D01*
G37*
G36*
G01X1904799Y-2066201D02*
G01X1941825Y-2066201D01*
G01X1951825Y-2076201D01*
G01X1951825Y-2106691D01*
G01X1961825Y-2116691D01*
G01X2000575Y-2116691D01*
G01X2010575Y-2106691D01*
G01X2010575Y-2076201D01*
G01X2020575Y-2066201D01*
G01X2057601Y-2066201D01*
G01X2067601Y-2076201D01*
G01X2067601Y-2204700D01*
G01X2057601Y-2214700D01*
G01X1904799Y-2214700D01*
G01X1894799Y-2204700D01*
G01X1894799Y-2076201D01*
G01X1904799Y-2066201D01*
G37*
G36*
G01X1904799Y-1896199D02*
G01X1941825Y-1896199D01*
G01X1951825Y-1886199D01*
G01X1951825Y-1855709D01*
G01X1961825Y-1845709D01*
G01X2000575Y-1845709D01*
G01X2010575Y-1855709D01*
G01X2010575Y-1886199D01*
G01X2020575Y-1896199D01*
G01X2057601Y-1896199D01*
G01X2067601Y-1886199D01*
G01X2067601Y-1757700D01*
G01X2057601Y-1747700D01*
G01X1904799Y-1747700D01*
G01X1894799Y-1757700D01*
G01X1894799Y-1886199D01*
G01X1904799Y-1896199D01*
G37*
G36*
G01X1041900Y-2367102D02*
G01X913902Y-2367102D01*
G01X908901Y-2362101D01*
G01X908901Y-2247100D01*
G01X913902Y-2242101D01*
G01X954905Y-2241598D01*
G01X954905Y-2286599D01*
G01X999904Y-2286599D01*
G01X999904Y-2242599D01*
G01X1041900Y-2242101D01*
G01X1046902Y-2247100D01*
G01X1046902Y-2362101D01*
G01X1041900Y-2367102D01*
G37*
G36*
G01X1041900Y-2152101D02*
G01X999904Y-2152099D01*
G01X999904Y-2107601D01*
G01X954905Y-2107601D01*
G01X954905Y-2151598D01*
G01X913902Y-2152101D01*
G01X908901Y-2147100D01*
G01X908901Y-2032102D01*
G01X913902Y-2027100D01*
G01X1041900Y-2027100D01*
G01X1046902Y-2032102D01*
G01X1046902Y-2147100D01*
G01X1041900Y-2152101D01*
G37*
G36*
G01X913900Y-1442898D02*
G01X1041898Y-1442898D01*
G01X1046899Y-1447899D01*
G01X1046899Y-1562900D01*
G01X1041898Y-1567899D01*
G01X1000895Y-1568402D01*
G01X1000895Y-1523401D01*
G01X955896Y-1523401D01*
G01X955896Y-1567401D01*
G01X913900Y-1567899D01*
G01X908898Y-1562900D01*
G01X908898Y-1447899D01*
G01X913900Y-1442898D01*
G37*
G36*
G01X913900Y-1657899D02*
G01X955896Y-1657901D01*
G01X955896Y-1702399D01*
G01X1000895Y-1702399D01*
G01X1000895Y-1658402D01*
G01X1041898Y-1657899D01*
G01X1046899Y-1662900D01*
G01X1046899Y-1777898D01*
G01X1041898Y-1782900D01*
G01X913900Y-1782900D01*
G01X908898Y-1777898D01*
G01X908898Y-1662900D01*
G01X913900Y-1657899D01*
G37*
G36*
G01X822681Y-1567706D02*
G01X822681Y-1627706D01*
G01X698678Y-1627706D01*
G01X698678Y-1567706D01*
G01X822681Y-1567706D01*
G37*
G36*
G01X822681Y-1647706D02*
G01X822681Y-1707711D01*
G01X698678Y-1707711D01*
G01X698678Y-1647706D01*
G01X822681Y-1647706D01*
G37*
G36*
G01X822681Y-1727708D02*
G01X822681Y-1757710D01*
G01X698678Y-1757710D01*
G01X698678Y-1727708D01*
G01X822681Y-1727708D01*
G37*
G36*
G01X822681Y-1777708D02*
G01X822681Y-1807710D01*
G01X698678Y-1807710D01*
G01X698678Y-1777708D01*
G01X822681Y-1777708D01*
G37*
G36*
G01X822681Y-1827708D02*
G01X822681Y-1857713D01*
G01X698678Y-1857713D01*
G01X698678Y-1827708D01*
G01X822681Y-1827708D01*
G37*
G36*
G01X822681Y-1877713D02*
G01X822681Y-1907713D01*
G01X698678Y-1907713D01*
G01X698678Y-1877713D01*
G01X822681Y-1877713D01*
G37*
G36*
G01X822681Y-1927713D02*
G01X822681Y-1957708D01*
G01X698678Y-1957708D01*
G01X698678Y-1927713D01*
G01X822681Y-1927713D01*
G37*
G36*
G01X822681Y-1977705D02*
G01X822681Y-2007705D01*
G01X698678Y-2007705D01*
G01X698678Y-1977705D01*
G01X822681Y-1977705D01*
G37*
G36*
G01X822681Y-2027705D02*
G01X822681Y-2057705D01*
G01X698678Y-2057705D01*
G01X698678Y-2027705D01*
G01X822681Y-2027705D01*
G37*
G36*
G01X822681Y-2077705D02*
G01X822681Y-2107705D01*
G01X698678Y-2107705D01*
G01X698678Y-2077705D01*
G01X822681Y-2077705D01*
G37*
G36*
G01X822681Y-2127705D02*
G01X822681Y-2187707D01*
G01X698678Y-2187707D01*
G01X698678Y-2127705D01*
G01X822681Y-2127705D01*
G37*
G36*
G01X822681Y-2207707D02*
G01X822681Y-2267707D01*
G01X698678Y-2267707D01*
G01X698678Y-2207707D01*
G01X822681Y-2207707D01*
G37*
G36*
G01X803562Y-1489438D02*
G01X803686Y-1486944D01*
G01X803686Y-1484450D01*
G01X803562Y-1481963D01*
G01X803311Y-1479481D01*
G01X802940Y-1477015D01*
G01X802447Y-1474574D01*
G01X801827Y-1472161D01*
G01X801096Y-1469774D01*
G01X800240Y-1467432D01*
G01X799275Y-1465138D01*
G01X798190Y-1462890D01*
G01X797001Y-1460703D01*
G01X795703Y-1458575D01*
G01X794299Y-1456515D01*
G01X792787Y-1454526D01*
G01X791187Y-1452613D01*
G01X789493Y-1450787D01*
G01X787710Y-1449050D01*
G01X785838Y-1447394D01*
G01X783890Y-1445842D01*
G01X781868Y-1444389D01*
G01X779772Y-1443037D01*
G01X777613Y-1441790D01*
G01X775393Y-1440650D01*
G01X773120Y-1439626D01*
G01X770801Y-1438714D01*
G01X768436Y-1437924D01*
G01X766039Y-1437246D01*
G01X763610Y-1436687D01*
G01X761152Y-1436258D01*
G01X758678Y-1435948D01*
G01X756194Y-1435763D01*
G01X753699Y-1435699D01*
G01X643697Y-1435699D01*
G01X641208Y-1435763D01*
G01X638719Y-1435948D01*
G01X636242Y-1436258D01*
G01X633791Y-1436687D01*
G01X631363Y-1437246D01*
G01X628960Y-1437924D01*
G01X626595Y-1438714D01*
G01X624276Y-1439626D01*
G01X622000Y-1440650D01*
G01X619788Y-1441790D01*
G01X617629Y-1443037D01*
G01X615533Y-1444389D01*
G01X613507Y-1445842D01*
G01X611556Y-1447394D01*
G01X609691Y-1449050D01*
G01X607901Y-1450787D01*
G01X606209Y-1452613D01*
G01X604609Y-1454526D01*
G01X603103Y-1456515D01*
G01X601698Y-1458575D01*
G01X600395Y-1460703D01*
G01X599204Y-1462890D01*
G01X598119Y-1465138D01*
G01X597154Y-1467432D01*
G01X596301Y-1469774D01*
G01X595567Y-1472161D01*
G01X594949Y-1474574D01*
G01X594457Y-1477015D01*
G01X594086Y-1479481D01*
G01X593839Y-1481963D01*
G01X593715Y-1484450D01*
G01X593715Y-1486944D01*
G01X593839Y-1489438D01*
G01X594086Y-1491920D01*
G01X594457Y-1494384D01*
G01X594949Y-1496825D01*
G01X595567Y-1499240D01*
G01X596301Y-1501620D01*
G01X597154Y-1503967D01*
G01X598119Y-1506263D01*
G01X599204Y-1508514D01*
G01X600395Y-1510701D01*
G01X601698Y-1512824D01*
G01X603103Y-1514886D01*
G01X604609Y-1516873D01*
G01X606209Y-1518785D01*
G01X607901Y-1520612D01*
G01X609691Y-1522349D01*
G01X611556Y-1524000D01*
G01X613507Y-1525557D01*
G01X615533Y-1527015D01*
G01X617629Y-1528366D01*
G01X619788Y-1529611D01*
G01X622000Y-1530749D01*
G01X624276Y-1531772D01*
G01X626595Y-1532684D01*
G01X628960Y-1533479D01*
G01X631363Y-1534152D01*
G01X633791Y-1534706D01*
G01X636242Y-1535140D01*
G01X638719Y-1535453D01*
G01X641208Y-1535638D01*
G01X643697Y-1535699D01*
G01X753699Y-1535699D01*
G01X756194Y-1535638D01*
G01X758678Y-1535453D01*
G01X761152Y-1535140D01*
G01X763610Y-1534706D01*
G01X766039Y-1534152D01*
G01X768436Y-1533479D01*
G01X770801Y-1532684D01*
G01X773120Y-1531772D01*
G01X775393Y-1530749D01*
G01X777613Y-1529611D01*
G01X779772Y-1528366D01*
G01X781868Y-1527015D01*
G01X783890Y-1525557D01*
G01X785838Y-1524000D01*
G01X787710Y-1522349D01*
G01X789493Y-1520612D01*
G01X791187Y-1518785D01*
G01X792787Y-1516873D01*
G01X794299Y-1514886D01*
G01X795703Y-1512824D01*
G01X797001Y-1510701D01*
G01X798190Y-1508514D01*
G01X799275Y-1506263D01*
G01X800240Y-1503967D01*
G01X801096Y-1501620D01*
G01X801827Y-1499240D01*
G01X802447Y-1496825D01*
G01X802940Y-1494384D01*
G01X803311Y-1491920D01*
G01X803562Y-1489438D01*
G37*
G36*
G01X370556Y-1489438D02*
G01X370677Y-1486944D01*
G01X370677Y-1484450D01*
G01X370556Y-1481963D01*
G01X370302Y-1479481D01*
G01X369933Y-1477015D01*
G01X369438Y-1474574D01*
G01X368826Y-1472161D01*
G01X368089Y-1469774D01*
G01X367238Y-1467432D01*
G01X366268Y-1465138D01*
G01X365189Y-1462890D01*
G01X363995Y-1460703D01*
G01X362694Y-1458575D01*
G01X361290Y-1456515D01*
G01X359786Y-1454526D01*
G01X358178Y-1452613D01*
G01X356486Y-1450787D01*
G01X354703Y-1449050D01*
G01X352831Y-1447394D01*
G01X350883Y-1445842D01*
G01X348859Y-1444389D01*
G01X346766Y-1443037D01*
G01X344604Y-1441790D01*
G01X342387Y-1440650D01*
G01X340114Y-1439626D01*
G01X337792Y-1438714D01*
G01X335427Y-1437924D01*
G01X333030Y-1437246D01*
G01X330601Y-1436687D01*
G01X328145Y-1436258D01*
G01X325669Y-1435948D01*
G01X323185Y-1435763D01*
G01X320693Y-1435699D01*
G01X240690Y-1435699D01*
G01X238196Y-1435763D01*
G01X235712Y-1435948D01*
G01X233238Y-1436258D01*
G01X230782Y-1436687D01*
G01X228351Y-1437246D01*
G01X225953Y-1437924D01*
G01X223589Y-1438714D01*
G01X221270Y-1439626D01*
G01X218996Y-1440650D01*
G01X216776Y-1441790D01*
G01X214622Y-1443037D01*
G01X212522Y-1444389D01*
G01X210500Y-1445842D01*
G01X208552Y-1447394D01*
G01X206685Y-1449050D01*
G01X204897Y-1450787D01*
G01X203203Y-1452613D01*
G01X201602Y-1454526D01*
G01X200094Y-1456515D01*
G01X198689Y-1458575D01*
G01X197388Y-1460703D01*
G01X196200Y-1462890D01*
G01X195115Y-1465138D01*
G01X194150Y-1467432D01*
G01X193294Y-1469774D01*
G01X192562Y-1472161D01*
G01X191945Y-1474574D01*
G01X191450Y-1477015D01*
G01X191079Y-1479481D01*
G01X190833Y-1481963D01*
G01X190706Y-1484450D01*
G01X190706Y-1486944D01*
G01X190833Y-1489438D01*
G01X191079Y-1491920D01*
G01X191450Y-1494384D01*
G01X191945Y-1496825D01*
G01X192562Y-1499240D01*
G01X193294Y-1501620D01*
G01X194150Y-1503967D01*
G01X195115Y-1506263D01*
G01X196200Y-1508514D01*
G01X197388Y-1510701D01*
G01X198689Y-1512824D01*
G01X200094Y-1514886D01*
G01X201602Y-1516873D01*
G01X203203Y-1518785D01*
G01X204897Y-1520612D01*
G01X206685Y-1522349D01*
G01X208552Y-1524000D01*
G01X210500Y-1525557D01*
G01X212522Y-1527015D01*
G01X214622Y-1528366D01*
G01X216776Y-1529611D01*
G01X218996Y-1530749D01*
G01X221270Y-1531772D01*
G01X223589Y-1532684D01*
G01X225953Y-1533479D01*
G01X228351Y-1534152D01*
G01X230782Y-1534706D01*
G01X233238Y-1535140D01*
G01X235712Y-1535453D01*
G01X238196Y-1535638D01*
G01X240690Y-1535699D01*
G01X320693Y-1535699D01*
G01X323185Y-1535638D01*
G01X325669Y-1535453D01*
G01X328145Y-1535140D01*
G01X330601Y-1534706D01*
G01X333030Y-1534152D01*
G01X335427Y-1533479D01*
G01X337792Y-1532684D01*
G01X340114Y-1531772D01*
G01X342387Y-1530749D01*
G01X344604Y-1529611D01*
G01X346766Y-1528366D01*
G01X348859Y-1527015D01*
G01X350883Y-1525557D01*
G01X352831Y-1524000D01*
G01X354703Y-1522349D01*
G01X356486Y-1520612D01*
G01X358178Y-1518785D01*
G01X359786Y-1516873D01*
G01X361290Y-1514886D01*
G01X362694Y-1512824D01*
G01X363995Y-1510701D01*
G01X365189Y-1508514D01*
G01X366268Y-1506263D01*
G01X367238Y-1503967D01*
G01X368089Y-1501620D01*
G01X368826Y-1499240D01*
G01X369438Y-1496825D01*
G01X369933Y-1494384D01*
G01X370302Y-1491920D01*
G01X370556Y-1489438D01*
G37*
G36*
G01X803562Y-2353445D02*
G01X803686Y-2350950D01*
G01X803686Y-2348461D01*
G01X803562Y-2345972D01*
G01X803311Y-2343490D01*
G01X802940Y-2341027D01*
G01X802447Y-2338583D01*
G01X801827Y-2336165D01*
G01X801096Y-2333785D01*
G01X800240Y-2331438D01*
G01X799275Y-2329142D01*
G01X798190Y-2326891D01*
G01X797001Y-2324710D01*
G01X795703Y-2322581D01*
G01X794299Y-2320519D01*
G01X792787Y-2318532D01*
G01X791187Y-2316620D01*
G01X789493Y-2314796D01*
G01X787710Y-2313056D01*
G01X785838Y-2311400D01*
G01X783890Y-2309851D01*
G01X781868Y-2308390D01*
G01X779772Y-2307041D01*
G01X777613Y-2305797D01*
G01X775393Y-2304656D01*
G01X773120Y-2303635D01*
G01X770801Y-2302723D01*
G01X768436Y-2301926D01*
G01X766039Y-2301253D01*
G01X763610Y-2300699D01*
G01X761152Y-2300265D01*
G01X758678Y-2299957D01*
G01X756194Y-2299767D01*
G01X753699Y-2299708D01*
G01X643697Y-2299708D01*
G01X641208Y-2299767D01*
G01X638719Y-2299957D01*
G01X636242Y-2300265D01*
G01X633791Y-2300699D01*
G01X631363Y-2301253D01*
G01X628960Y-2301926D01*
G01X626595Y-2302723D01*
G01X624276Y-2303635D01*
G01X622000Y-2304656D01*
G01X619788Y-2305797D01*
G01X617629Y-2307041D01*
G01X615533Y-2308390D01*
G01X613507Y-2309851D01*
G01X611556Y-2311400D01*
G01X609691Y-2313056D01*
G01X607901Y-2314796D01*
G01X606209Y-2316620D01*
G01X604609Y-2318532D01*
G01X603103Y-2320519D01*
G01X601698Y-2322581D01*
G01X600395Y-2324710D01*
G01X599204Y-2326891D01*
G01X598119Y-2329142D01*
G01X597154Y-2331438D01*
G01X596301Y-2333785D01*
G01X595567Y-2336165D01*
G01X594949Y-2338583D01*
G01X594457Y-2341027D01*
G01X594086Y-2343490D01*
G01X593839Y-2345972D01*
G01X593715Y-2348461D01*
G01X593715Y-2350950D01*
G01X593839Y-2353445D01*
G01X594086Y-2355924D01*
G01X594457Y-2358390D01*
G01X594949Y-2360833D01*
G01X595567Y-2363244D01*
G01X596301Y-2365626D01*
G01X597154Y-2367973D01*
G01X598119Y-2370272D01*
G01X599204Y-2372517D01*
G01X600395Y-2374709D01*
G01X601698Y-2376830D01*
G01X603103Y-2378890D01*
G01X604609Y-2380879D01*
G01X606209Y-2382792D01*
G01X607901Y-2384621D01*
G01X609691Y-2386355D01*
G01X611556Y-2388011D01*
G01X613507Y-2389563D01*
G01X615533Y-2391019D01*
G01X617629Y-2392368D01*
G01X619788Y-2393620D01*
G01X622000Y-2394755D01*
G01X624276Y-2395781D01*
G01X626595Y-2396691D01*
G01X628960Y-2397483D01*
G01X631363Y-2398159D01*
G01X633791Y-2398712D01*
G01X636242Y-2399147D01*
G01X638719Y-2399459D01*
G01X641208Y-2399642D01*
G01X643697Y-2399706D01*
G01X753699Y-2399706D01*
G01X756194Y-2399642D01*
G01X758678Y-2399459D01*
G01X761152Y-2399147D01*
G01X763610Y-2398712D01*
G01X766039Y-2398159D01*
G01X768436Y-2397483D01*
G01X770801Y-2396691D01*
G01X773120Y-2395781D01*
G01X775393Y-2394755D01*
G01X777613Y-2393620D01*
G01X779772Y-2392368D01*
G01X781868Y-2391019D01*
G01X783890Y-2389563D01*
G01X785838Y-2388011D01*
G01X787710Y-2386355D01*
G01X789493Y-2384621D01*
G01X791187Y-2382792D01*
G01X792787Y-2380879D01*
G01X794299Y-2378890D01*
G01X795703Y-2376830D01*
G01X797001Y-2374709D01*
G01X798190Y-2372517D01*
G01X799275Y-2370272D01*
G01X800240Y-2367973D01*
G01X801096Y-2365626D01*
G01X801827Y-2363244D01*
G01X802447Y-2360833D01*
G01X802940Y-2358390D01*
G01X803311Y-2355924D01*
G01X803562Y-2353445D01*
G37*
G36*
G01X370556Y-2353445D02*
G01X370677Y-2350950D01*
G01X370677Y-2348461D01*
G01X370556Y-2345972D01*
G01X370302Y-2343490D01*
G01X369933Y-2341027D01*
G01X369438Y-2338583D01*
G01X368826Y-2336165D01*
G01X368089Y-2333785D01*
G01X367238Y-2331438D01*
G01X366268Y-2329142D01*
G01X365189Y-2326891D01*
G01X363995Y-2324710D01*
G01X362694Y-2322581D01*
G01X361290Y-2320519D01*
G01X359786Y-2318532D01*
G01X358178Y-2316620D01*
G01X356486Y-2314796D01*
G01X354703Y-2313056D01*
G01X352831Y-2311400D01*
G01X350883Y-2309851D01*
G01X348859Y-2308390D01*
G01X346766Y-2307041D01*
G01X344604Y-2305797D01*
G01X342387Y-2304656D01*
G01X340114Y-2303635D01*
G01X337792Y-2302723D01*
G01X335427Y-2301926D01*
G01X333030Y-2301253D01*
G01X330601Y-2300699D01*
G01X328145Y-2300265D01*
G01X325669Y-2299957D01*
G01X323185Y-2299767D01*
G01X320693Y-2299708D01*
G01X240690Y-2299708D01*
G01X238196Y-2299767D01*
G01X235712Y-2299957D01*
G01X233238Y-2300265D01*
G01X230782Y-2300699D01*
G01X228351Y-2301253D01*
G01X225953Y-2301926D01*
G01X223589Y-2302723D01*
G01X221270Y-2303635D01*
G01X218996Y-2304656D01*
G01X216776Y-2305797D01*
G01X214622Y-2307041D01*
G01X212522Y-2308390D01*
G01X210500Y-2309851D01*
G01X208552Y-2311400D01*
G01X206685Y-2313056D01*
G01X204897Y-2314796D01*
G01X203203Y-2316620D01*
G01X201602Y-2318532D01*
G01X200094Y-2320519D01*
G01X198689Y-2322581D01*
G01X197388Y-2324710D01*
G01X196200Y-2326891D01*
G01X195115Y-2329142D01*
G01X194150Y-2331438D01*
G01X193294Y-2333785D01*
G01X192562Y-2336165D01*
G01X191945Y-2338583D01*
G01X191450Y-2341027D01*
G01X191079Y-2343490D01*
G01X190833Y-2345972D01*
G01X190706Y-2348461D01*
G01X190706Y-2350950D01*
G01X190833Y-2353445D01*
G01X191079Y-2355924D01*
G01X191450Y-2358390D01*
G01X191945Y-2360833D01*
G01X192562Y-2363244D01*
G01X193294Y-2365626D01*
G01X194150Y-2367973D01*
G01X195115Y-2370272D01*
G01X196200Y-2372517D01*
G01X197388Y-2374709D01*
G01X198689Y-2376830D01*
G01X200094Y-2378890D01*
G01X201602Y-2380879D01*
G01X203203Y-2382792D01*
G01X204897Y-2384621D01*
G01X206685Y-2386355D01*
G01X208552Y-2388011D01*
G01X210500Y-2389563D01*
G01X212522Y-2391019D01*
G01X214622Y-2392368D01*
G01X216776Y-2393620D01*
G01X218996Y-2394755D01*
G01X221270Y-2395781D01*
G01X223589Y-2396691D01*
G01X225953Y-2397483D01*
G01X228351Y-2398159D01*
G01X230782Y-2398712D01*
G01X233238Y-2399147D01*
G01X235712Y-2399459D01*
G01X238196Y-2399642D01*
G01X240690Y-2399706D01*
G01X320693Y-2399706D01*
G01X323185Y-2399642D01*
G01X325669Y-2399459D01*
G01X328145Y-2399147D01*
G01X330601Y-2398712D01*
G01X333030Y-2398159D01*
G01X335427Y-2397483D01*
G01X337792Y-2396691D01*
G01X340114Y-2395781D01*
G01X342387Y-2394755D01*
G01X344604Y-2393620D01*
G01X346766Y-2392368D01*
G01X348859Y-2391019D01*
G01X350883Y-2389563D01*
G01X352831Y-2388011D01*
G01X354703Y-2386355D01*
G01X356486Y-2384621D01*
G01X358178Y-2382792D01*
G01X359786Y-2380879D01*
G01X361290Y-2378890D01*
G01X362694Y-2376830D01*
G01X363995Y-2374709D01*
G01X365189Y-2372517D01*
G01X366268Y-2370272D01*
G01X367238Y-2367973D01*
G01X368089Y-2365626D01*
G01X368826Y-2363244D01*
G01X369438Y-2360833D01*
G01X369933Y-2358390D01*
G01X370302Y-2355924D01*
G01X370556Y-2353445D01*
G37*
G36*
G01X3703498Y-2235700D02*
G01X3703498Y-2107702D01*
G01X3708499Y-2102701D01*
G01X3823500Y-2102701D01*
G01X3828499Y-2107702D01*
G01X3829002Y-2148705D01*
G01X3784001Y-2148705D01*
G01X3784001Y-2193704D01*
G01X3828001Y-2193704D01*
G01X3828499Y-2235700D01*
G01X3823500Y-2240702D01*
G01X3708499Y-2240702D01*
G01X3703498Y-2235700D01*
G37*
G36*
G01X3918499Y-2235700D02*
G01X3918501Y-2193704D01*
G01X3962999Y-2193704D01*
G01X3962999Y-2148705D01*
G01X3919002Y-2148705D01*
G01X3918499Y-2107702D01*
G01X3923500Y-2102701D01*
G01X4038498Y-2102701D01*
G01X4043500Y-2107702D01*
G01X4043500Y-2235700D01*
G01X4038498Y-2240702D01*
G01X3923500Y-2240702D01*
G01X3918499Y-2235700D01*
G37*
G36*
G01X3626940Y-1612412D02*
G01X3626940Y-1740411D01*
G01X3621938Y-1745412D01*
G01X3506937Y-1745412D01*
G01X3501939Y-1740411D01*
G01X3501436Y-1699407D01*
G01X3546437Y-1699407D01*
G01X3546437Y-1654409D01*
G01X3502436Y-1654409D01*
G01X3501939Y-1612412D01*
G01X3506937Y-1607411D01*
G01X3621938Y-1607411D01*
G01X3626940Y-1612412D01*
G37*
G36*
G01X3411939Y-1612412D02*
G01X3411936Y-1654409D01*
G01X3367438Y-1654409D01*
G01X3367438Y-1699407D01*
G01X3411436Y-1699407D01*
G01X3411939Y-1740411D01*
G01X3406938Y-1745412D01*
G01X3291939Y-1745412D01*
G01X3286938Y-1740411D01*
G01X3286938Y-1612412D01*
G01X3291939Y-1607411D01*
G01X3406938Y-1607411D01*
G01X3411939Y-1612412D01*
G37*
G36*
G01X3718735Y-1740413D02*
G01X3718735Y-1612415D01*
G01X3723737Y-1607414D01*
G01X3838738Y-1607414D01*
G01X3843736Y-1612415D01*
G01X3844239Y-1653418D01*
G01X3799238Y-1653418D01*
G01X3799238Y-1698417D01*
G01X3843238Y-1698417D01*
G01X3843736Y-1740413D01*
G01X3838738Y-1745414D01*
G01X3723737Y-1745414D01*
G01X3718735Y-1740413D01*
G37*
G36*
G01X3933736Y-1740413D02*
G01X3933739Y-1698417D01*
G01X3978237Y-1698417D01*
G01X3978237Y-1653418D01*
G01X3934239Y-1653418D01*
G01X3933736Y-1612415D01*
G01X3938737Y-1607414D01*
G01X4053736Y-1607414D01*
G01X4058737Y-1612415D01*
G01X4058737Y-1740413D01*
G01X4053736Y-1745414D01*
G01X3938737Y-1745414D01*
G01X3933736Y-1740413D01*
G37*
G36*
G01X7480800Y-5824703D02*
G01X7352802Y-5824703D01*
G01X7347801Y-5819701D01*
G01X7347801Y-5704700D01*
G01X7352802Y-5699702D01*
G01X7393805Y-5699199D01*
G01X7393805Y-5744200D01*
G01X7438804Y-5744200D01*
G01X7438804Y-5700199D01*
G01X7480800Y-5699702D01*
G01X7485802Y-5704700D01*
G01X7485802Y-5819701D01*
G01X7480800Y-5824703D01*
G37*
G36*
G01X7480800Y-5609702D02*
G01X7438804Y-5609699D01*
G01X7438804Y-5565201D01*
G01X7393805Y-5565201D01*
G01X7393805Y-5609199D01*
G01X7352802Y-5609702D01*
G01X7347801Y-5604700D01*
G01X7347801Y-5489702D01*
G01X7352802Y-5484701D01*
G01X7480800Y-5484701D01*
G01X7485802Y-5489702D01*
G01X7485802Y-5604700D01*
G01X7480800Y-5609702D01*
G37*
G36*
G01X6777592Y-1219684D02*
G01X6777592Y-1182658D01*
G01X6787592Y-1172658D01*
G01X6818083Y-1172658D01*
G01X6828083Y-1162658D01*
G01X6828083Y-1123908D01*
G01X6818083Y-1113908D01*
G01X6787592Y-1113908D01*
G01X6777592Y-1103908D01*
G01X6777592Y-1066883D01*
G01X6787592Y-1056883D01*
G01X6916091Y-1056883D01*
G01X6926091Y-1066883D01*
G01X6926091Y-1219684D01*
G01X6916091Y-1229684D01*
G01X6787592Y-1229684D01*
G01X6777592Y-1219684D01*
G37*
G36*
G01X6607590Y-1219684D02*
G01X6607590Y-1182658D01*
G01X6597590Y-1172658D01*
G01X6567100Y-1172658D01*
G01X6557100Y-1162658D01*
G01X6557100Y-1123908D01*
G01X6567100Y-1113908D01*
G01X6597590Y-1113908D01*
G01X6607590Y-1103908D01*
G01X6607590Y-1066883D01*
G01X6597590Y-1056883D01*
G01X6469092Y-1056883D01*
G01X6459092Y-1066883D01*
G01X6459092Y-1219684D01*
G01X6469092Y-1229684D01*
G01X6597590Y-1229684D01*
G01X6607590Y-1219684D01*
G37*
G36*
G01X7140990Y-139783D02*
G01X7140990Y-176808D01*
G01X7130990Y-186808D01*
G01X7100500Y-186808D01*
G01X7090500Y-196808D01*
G01X7090500Y-235558D01*
G01X7100500Y-245558D01*
G01X7130990Y-245558D01*
G01X7140990Y-255558D01*
G01X7140990Y-292584D01*
G01X7130990Y-302584D01*
G01X7002492Y-302584D01*
G01X6992492Y-292584D01*
G01X6992492Y-139783D01*
G01X7002492Y-129783D01*
G01X7130990Y-129783D01*
G01X7140990Y-139783D01*
G37*
G36*
G01X7310992Y-139783D02*
G01X7310992Y-176808D01*
G01X7320992Y-186808D01*
G01X7351483Y-186808D01*
G01X7361483Y-196808D01*
G01X7361483Y-235558D01*
G01X7351483Y-245558D01*
G01X7320992Y-245558D01*
G01X7310992Y-255558D01*
G01X7310992Y-292584D01*
G01X7320992Y-302584D01*
G01X7449491Y-302584D01*
G01X7459491Y-292584D01*
G01X7459491Y-139783D01*
G01X7449491Y-129783D01*
G01X7320992Y-129783D01*
G01X7310992Y-139783D01*
G37*
G36*
G01X7310992Y-1219684D02*
G01X7310992Y-1182658D01*
G01X7320992Y-1172658D01*
G01X7351483Y-1172658D01*
G01X7361483Y-1162658D01*
G01X7361483Y-1123908D01*
G01X7351483Y-1113908D01*
G01X7320992Y-1113908D01*
G01X7310992Y-1103908D01*
G01X7310992Y-1066883D01*
G01X7320992Y-1056883D01*
G01X7449491Y-1056883D01*
G01X7459491Y-1066883D01*
G01X7459491Y-1219684D01*
G01X7449491Y-1229684D01*
G01X7320992Y-1229684D01*
G01X7310992Y-1219684D01*
G37*
G36*
G01X7140990Y-1219684D02*
G01X7140990Y-1182658D01*
G01X7130990Y-1172658D01*
G01X7100500Y-1172658D01*
G01X7090500Y-1162658D01*
G01X7090500Y-1123908D01*
G01X7100500Y-1113908D01*
G01X7130990Y-1113908D01*
G01X7140990Y-1103908D01*
G01X7140990Y-1066883D01*
G01X7130990Y-1056883D01*
G01X7002492Y-1056883D01*
G01X6992492Y-1066883D01*
G01X6992492Y-1219684D01*
G01X7002492Y-1229684D01*
G01X7130990Y-1229684D01*
G01X7140990Y-1219684D01*
G37*
G36*
G01X6777598Y-292584D02*
G01X6777598Y-255558D01*
G01X6787598Y-245558D01*
G01X6818088Y-245558D01*
G01X6828088Y-235558D01*
G01X6828088Y-196808D01*
G01X6818088Y-186808D01*
G01X6787598Y-186808D01*
G01X6777598Y-176808D01*
G01X6777598Y-139783D01*
G01X6787598Y-129783D01*
G01X6916096Y-129783D01*
G01X6926096Y-139783D01*
G01X6926096Y-292584D01*
G01X6916096Y-302584D01*
G01X6787598Y-302584D01*
G01X6777598Y-292584D01*
G37*
G36*
G01X6607595Y-292584D02*
G01X6607595Y-255558D01*
G01X6597595Y-245558D01*
G01X6567105Y-245558D01*
G01X6557105Y-235558D01*
G01X6557105Y-196808D01*
G01X6567105Y-186808D01*
G01X6597595Y-186808D01*
G01X6607595Y-176808D01*
G01X6607595Y-139783D01*
G01X6597595Y-129783D01*
G01X6469097Y-129783D01*
G01X6459097Y-139783D01*
G01X6459097Y-292584D01*
G01X6469097Y-302584D01*
G01X6597595Y-302584D01*
G01X6607595Y-292584D01*
G37*
G36*
G01X4060101Y-889201D02*
G01X4060101Y-852175D01*
G01X4070101Y-842175D01*
G01X4100591Y-842175D01*
G01X4110591Y-832175D01*
G01X4110591Y-793425D01*
G01X4100591Y-783425D01*
G01X4070101Y-783425D01*
G01X4060101Y-773425D01*
G01X4060101Y-736399D01*
G01X4070101Y-726399D01*
G01X4198600Y-726399D01*
G01X4208600Y-736399D01*
G01X4208600Y-889201D01*
G01X4198600Y-899201D01*
G01X4070101Y-899201D01*
G01X4060101Y-889201D01*
G37*
G36*
G01X3890099Y-889201D02*
G01X3890099Y-852175D01*
G01X3880099Y-842175D01*
G01X3849609Y-842175D01*
G01X3839609Y-832175D01*
G01X3839609Y-793425D01*
G01X3849609Y-783425D01*
G01X3880099Y-783425D01*
G01X3890099Y-773425D01*
G01X3890099Y-736399D01*
G01X3880099Y-726399D01*
G01X3751600Y-726399D01*
G01X3741600Y-736399D01*
G01X3741600Y-889201D01*
G01X3751600Y-899201D01*
G01X3880099Y-899201D01*
G01X3890099Y-889201D01*
G37*
G36*
G01X4107002Y-1358400D02*
G01X4107002Y-1486398D01*
G01X4102001Y-1491399D01*
G01X3987000Y-1491399D01*
G01X3982001Y-1486398D01*
G01X3981498Y-1445395D01*
G01X4026499Y-1445395D01*
G01X4026499Y-1400396D01*
G01X3982499Y-1400396D01*
G01X3982001Y-1358400D01*
G01X3987000Y-1353398D01*
G01X4102001Y-1353398D01*
G01X4107002Y-1358400D01*
G37*
G36*
G01X3892001Y-1358400D02*
G01X3891999Y-1400396D01*
G01X3847501Y-1400396D01*
G01X3847501Y-1445395D01*
G01X3891498Y-1445395D01*
G01X3892001Y-1486398D01*
G01X3887000Y-1491399D01*
G01X3772002Y-1491399D01*
G01X3767000Y-1486398D01*
G01X3767000Y-1358400D01*
G01X3772002Y-1353398D01*
G01X3887000Y-1353398D01*
G01X3892001Y-1358400D01*
G37*
G36*
G01X8076999Y-2218601D02*
G01X8114025Y-2218601D01*
G01X8124025Y-2228601D01*
G01X8124025Y-2259091D01*
G01X8134025Y-2269091D01*
G01X8172775Y-2269091D01*
G01X8182775Y-2259091D01*
G01X8182775Y-2228601D01*
G01X8192775Y-2218601D01*
G01X8229801Y-2218601D01*
G01X8239801Y-2228601D01*
G01X8239801Y-2357100D01*
G01X8229801Y-2367100D01*
G01X8076999Y-2367100D01*
G01X8066999Y-2357100D01*
G01X8066999Y-2228601D01*
G01X8076999Y-2218601D01*
G37*
G36*
G01X8076999Y-2048599D02*
G01X8114025Y-2048599D01*
G01X8124025Y-2038599D01*
G01X8124025Y-2008109D01*
G01X8134025Y-1998109D01*
G01X8172775Y-1998109D01*
G01X8182775Y-2008109D01*
G01X8182775Y-2038599D01*
G01X8192775Y-2048599D01*
G01X8229801Y-2048599D01*
G01X8239801Y-2038599D01*
G01X8239801Y-1910100D01*
G01X8229801Y-1900100D01*
G01X8076999Y-1900100D01*
G01X8066999Y-1910100D01*
G01X8066999Y-2038599D01*
G01X8076999Y-2048599D01*
G37*
G36*
G01X8229801Y-2581999D02*
G01X8192775Y-2581999D01*
G01X8182775Y-2571999D01*
G01X8182775Y-2541509D01*
G01X8172775Y-2531509D01*
G01X8134025Y-2531509D01*
G01X8124025Y-2541509D01*
G01X8124025Y-2571999D01*
G01X8114025Y-2581999D01*
G01X8076999Y-2581999D01*
G01X8066999Y-2571999D01*
G01X8066999Y-2443500D01*
G01X8076999Y-2433500D01*
G01X8229801Y-2433500D01*
G01X8239801Y-2443500D01*
G01X8239801Y-2571999D01*
G01X8229801Y-2581999D01*
G37*
G36*
G01X8229801Y-2752001D02*
G01X8192775Y-2752001D01*
G01X8182775Y-2762001D01*
G01X8182775Y-2792491D01*
G01X8172775Y-2802491D01*
G01X8134025Y-2802491D01*
G01X8124025Y-2792491D01*
G01X8124025Y-2762001D01*
G01X8114025Y-2752001D01*
G01X8076999Y-2752001D01*
G01X8066999Y-2762001D01*
G01X8066999Y-2890500D01*
G01X8076999Y-2900500D01*
G01X8229801Y-2900500D01*
G01X8239801Y-2890500D01*
G01X8239801Y-2762001D01*
G01X8229801Y-2752001D01*
G37*
G36*
G01X7810299Y-2218601D02*
G01X7847325Y-2218601D01*
G01X7857325Y-2228601D01*
G01X7857325Y-2259091D01*
G01X7867325Y-2269091D01*
G01X7906075Y-2269091D01*
G01X7916075Y-2259091D01*
G01X7916075Y-2228601D01*
G01X7926075Y-2218601D01*
G01X7963101Y-2218601D01*
G01X7973101Y-2228601D01*
G01X7973101Y-2357100D01*
G01X7963101Y-2367100D01*
G01X7810299Y-2367100D01*
G01X7800299Y-2357100D01*
G01X7800299Y-2228601D01*
G01X7810299Y-2218601D01*
G37*
G36*
G01X7810299Y-2048599D02*
G01X7847325Y-2048599D01*
G01X7857325Y-2038599D01*
G01X7857325Y-2008109D01*
G01X7867325Y-1998109D01*
G01X7906075Y-1998109D01*
G01X7916075Y-2008109D01*
G01X7916075Y-2038599D01*
G01X7926075Y-2048599D01*
G01X7963101Y-2048599D01*
G01X7973101Y-2038599D01*
G01X7973101Y-1910100D01*
G01X7963101Y-1900100D01*
G01X7810299Y-1900100D01*
G01X7800299Y-1910100D01*
G01X7800299Y-2038599D01*
G01X7810299Y-2048599D01*
G37*
G36*
G01X7963101Y-2581999D02*
G01X7926075Y-2581999D01*
G01X7916075Y-2571999D01*
G01X7916075Y-2541509D01*
G01X7906075Y-2531509D01*
G01X7867325Y-2531509D01*
G01X7857325Y-2541509D01*
G01X7857325Y-2571999D01*
G01X7847325Y-2581999D01*
G01X7810299Y-2581999D01*
G01X7800299Y-2571999D01*
G01X7800299Y-2443500D01*
G01X7810299Y-2433500D01*
G01X7963101Y-2433500D01*
G01X7973101Y-2443500D01*
G01X7973101Y-2571999D01*
G01X7963101Y-2581999D01*
G37*
G36*
G01X7963101Y-2752001D02*
G01X7926075Y-2752001D01*
G01X7916075Y-2762001D01*
G01X7916075Y-2792491D01*
G01X7906075Y-2802491D01*
G01X7867325Y-2802491D01*
G01X7857325Y-2792491D01*
G01X7857325Y-2762001D01*
G01X7847325Y-2752001D01*
G01X7810299Y-2752001D01*
G01X7800299Y-2762001D01*
G01X7800299Y-2890500D01*
G01X7810299Y-2900500D01*
G01X7963101Y-2900500D01*
G01X7973101Y-2890500D01*
G01X7973101Y-2762001D01*
G01X7963101Y-2752001D01*
G37*
G36*
G01X8679002Y-2666500D02*
G01X8679002Y-2794498D01*
G01X8674001Y-2799499D01*
G01X8559000Y-2799499D01*
G01X8554001Y-2794498D01*
G01X8553498Y-2753495D01*
G01X8598499Y-2753495D01*
G01X8598499Y-2708496D01*
G01X8554499Y-2708496D01*
G01X8554001Y-2666500D01*
G01X8559000Y-2661498D01*
G01X8674001Y-2661498D01*
G01X8679002Y-2666500D01*
G37*
G36*
G01X8464001Y-2666500D02*
G01X8463999Y-2708496D01*
G01X8419501Y-2708496D01*
G01X8419501Y-2753495D01*
G01X8463498Y-2753495D01*
G01X8464001Y-2794498D01*
G01X8459000Y-2799499D01*
G01X8344002Y-2799499D01*
G01X8339000Y-2794498D01*
G01X8339000Y-2666500D01*
G01X8344002Y-2661498D01*
G01X8459000Y-2661498D01*
G01X8464001Y-2666500D01*
G37*
G36*
G01X3780901Y-4474799D02*
G01X3743875Y-4474799D01*
G01X3733875Y-4464799D01*
G01X3733875Y-4434309D01*
G01X3723875Y-4424309D01*
G01X3685125Y-4424309D01*
G01X3675125Y-4434309D01*
G01X3675125Y-4464799D01*
G01X3665125Y-4474799D01*
G01X3628099Y-4474799D01*
G01X3618099Y-4464799D01*
G01X3618099Y-4336300D01*
G01X3628099Y-4326300D01*
G01X3780901Y-4326300D01*
G01X3790901Y-4336300D01*
G01X3790901Y-4464799D01*
G01X3780901Y-4474799D01*
G37*
G36*
G01X3780901Y-4644801D02*
G01X3743875Y-4644801D01*
G01X3733875Y-4654801D01*
G01X3733875Y-4685291D01*
G01X3723875Y-4695291D01*
G01X3685125Y-4695291D01*
G01X3675125Y-4685291D01*
G01X3675125Y-4654801D01*
G01X3665125Y-4644801D01*
G01X3628099Y-4644801D01*
G01X3618099Y-4654801D01*
G01X3618099Y-4783300D01*
G01X3628099Y-4793300D01*
G01X3780901Y-4793300D01*
G01X3790901Y-4783300D01*
G01X3790901Y-4654801D01*
G01X3780901Y-4644801D01*
G37*
G36*
G01X1181301Y-4474299D02*
G01X1144275Y-4474299D01*
G01X1134275Y-4464299D01*
G01X1134275Y-4433809D01*
G01X1124275Y-4423809D01*
G01X1085525Y-4423809D01*
G01X1075525Y-4433809D01*
G01X1075525Y-4464299D01*
G01X1065525Y-4474299D01*
G01X1028499Y-4474299D01*
G01X1018499Y-4464299D01*
G01X1018499Y-4335800D01*
G01X1028499Y-4325800D01*
G01X1181301Y-4325800D01*
G01X1191301Y-4335800D01*
G01X1191301Y-4464299D01*
G01X1181301Y-4474299D01*
G37*
G36*
G01X1181301Y-4644301D02*
G01X1144275Y-4644301D01*
G01X1134275Y-4654301D01*
G01X1134275Y-4684791D01*
G01X1124275Y-4694791D01*
G01X1085525Y-4694791D01*
G01X1075525Y-4684791D01*
G01X1075525Y-4654301D01*
G01X1065525Y-4644301D01*
G01X1028499Y-4644301D01*
G01X1018499Y-4654301D01*
G01X1018499Y-4782800D01*
G01X1028499Y-4792800D01*
G01X1181301Y-4792800D01*
G01X1191301Y-4782800D01*
G01X1191301Y-4654301D01*
G01X1181301Y-4644301D01*
G37*
G36*
G01X1830901Y-4474799D02*
G01X1793875Y-4474799D01*
G01X1783875Y-4464799D01*
G01X1783875Y-4434309D01*
G01X1773875Y-4424309D01*
G01X1735125Y-4424309D01*
G01X1725125Y-4434309D01*
G01X1725125Y-4464799D01*
G01X1715125Y-4474799D01*
G01X1678099Y-4474799D01*
G01X1668099Y-4464799D01*
G01X1668099Y-4336300D01*
G01X1678099Y-4326300D01*
G01X1830901Y-4326300D01*
G01X1840901Y-4336300D01*
G01X1840901Y-4464799D01*
G01X1830901Y-4474799D01*
G37*
G36*
G01X1830901Y-4644801D02*
G01X1793875Y-4644801D01*
G01X1783875Y-4654801D01*
G01X1783875Y-4685291D01*
G01X1773875Y-4695291D01*
G01X1735125Y-4695291D01*
G01X1725125Y-4685291D01*
G01X1725125Y-4654801D01*
G01X1715125Y-4644801D01*
G01X1678099Y-4644801D01*
G01X1668099Y-4654801D01*
G01X1668099Y-4783300D01*
G01X1678099Y-4793300D01*
G01X1830901Y-4793300D01*
G01X1840901Y-4783300D01*
G01X1840901Y-4654801D01*
G01X1830901Y-4644801D01*
G37*
G36*
G01X2480901Y-4474799D02*
G01X2443875Y-4474799D01*
G01X2433875Y-4464799D01*
G01X2433875Y-4434309D01*
G01X2423875Y-4424309D01*
G01X2385125Y-4424309D01*
G01X2375125Y-4434309D01*
G01X2375125Y-4464799D01*
G01X2365125Y-4474799D01*
G01X2328099Y-4474799D01*
G01X2318099Y-4464799D01*
G01X2318099Y-4336300D01*
G01X2328099Y-4326300D01*
G01X2480901Y-4326300D01*
G01X2490901Y-4336300D01*
G01X2490901Y-4464799D01*
G01X2480901Y-4474799D01*
G37*
G36*
G01X2480901Y-4644801D02*
G01X2443875Y-4644801D01*
G01X2433875Y-4654801D01*
G01X2433875Y-4685291D01*
G01X2423875Y-4695291D01*
G01X2385125Y-4695291D01*
G01X2375125Y-4685291D01*
G01X2375125Y-4654801D01*
G01X2365125Y-4644801D01*
G01X2328099Y-4644801D01*
G01X2318099Y-4654801D01*
G01X2318099Y-4783300D01*
G01X2328099Y-4793300D01*
G01X2480901Y-4793300D01*
G01X2490901Y-4783300D01*
G01X2490901Y-4654801D01*
G01X2480901Y-4644801D01*
G37*
G36*
G01X3130901Y-4474799D02*
G01X3093875Y-4474799D01*
G01X3083875Y-4464799D01*
G01X3083875Y-4434309D01*
G01X3073875Y-4424309D01*
G01X3035125Y-4424309D01*
G01X3025125Y-4434309D01*
G01X3025125Y-4464799D01*
G01X3015125Y-4474799D01*
G01X2978099Y-4474799D01*
G01X2968099Y-4464799D01*
G01X2968099Y-4336300D01*
G01X2978099Y-4326300D01*
G01X3130901Y-4326300D01*
G01X3140901Y-4336300D01*
G01X3140901Y-4464799D01*
G01X3130901Y-4474799D01*
G37*
G36*
G01X3130901Y-4644801D02*
G01X3093875Y-4644801D01*
G01X3083875Y-4654801D01*
G01X3083875Y-4685291D01*
G01X3073875Y-4695291D01*
G01X3035125Y-4695291D01*
G01X3025125Y-4685291D01*
G01X3025125Y-4654801D01*
G01X3015125Y-4644801D01*
G01X2978099Y-4644801D01*
G01X2968099Y-4654801D01*
G01X2968099Y-4783300D01*
G01X2978099Y-4793300D01*
G01X3130901Y-4793300D01*
G01X3140901Y-4783300D01*
G01X3140901Y-4654801D01*
G01X3130901Y-4644801D01*
G37*
G36*
G01X4432501Y-4474799D02*
G01X4395475Y-4474799D01*
G01X4385475Y-4464799D01*
G01X4385475Y-4434309D01*
G01X4375475Y-4424309D01*
G01X4336725Y-4424309D01*
G01X4326725Y-4434309D01*
G01X4326725Y-4464799D01*
G01X4316725Y-4474799D01*
G01X4279699Y-4474799D01*
G01X4269699Y-4464799D01*
G01X4269699Y-4336300D01*
G01X4279699Y-4326300D01*
G01X4432501Y-4326300D01*
G01X4442501Y-4336300D01*
G01X4442501Y-4464799D01*
G01X4432501Y-4474799D01*
G37*
G36*
G01X4432501Y-4644801D02*
G01X4395475Y-4644801D01*
G01X4385475Y-4654801D01*
G01X4385475Y-4685291D01*
G01X4375475Y-4695291D01*
G01X4336725Y-4695291D01*
G01X4326725Y-4685291D01*
G01X4326725Y-4654801D01*
G01X4316725Y-4644801D01*
G01X4279699Y-4644801D01*
G01X4269699Y-4654801D01*
G01X4269699Y-4783300D01*
G01X4279699Y-4793300D01*
G01X4432501Y-4793300D01*
G01X4442501Y-4783300D01*
G01X4442501Y-4654801D01*
G01X4432501Y-4644801D01*
G37*
G36*
G01X3768500Y-4229802D02*
G01X3640502Y-4229802D01*
G01X3635501Y-4224801D01*
G01X3635501Y-4109800D01*
G01X3640502Y-4104801D01*
G01X3681505Y-4104298D01*
G01X3681505Y-4149300D01*
G01X3726504Y-4149300D01*
G01X3726504Y-4105299D01*
G01X3768500Y-4104801D01*
G01X3773502Y-4109800D01*
G01X3773502Y-4224801D01*
G01X3768500Y-4229802D01*
G37*
G36*
G01X3768500Y-4014801D02*
G01X3726504Y-4014799D01*
G01X3726504Y-3970301D01*
G01X3681505Y-3970301D01*
G01X3681505Y-4014299D01*
G01X3640502Y-4014801D01*
G01X3635501Y-4009800D01*
G01X3635501Y-3894802D01*
G01X3640502Y-3889800D01*
G01X3768500Y-3889800D01*
G01X3773502Y-3894802D01*
G01X3773502Y-4009800D01*
G01X3768500Y-4014801D01*
G37*
G36*
G01X1168500Y-4229802D02*
G01X1040502Y-4229802D01*
G01X1035501Y-4224801D01*
G01X1035501Y-4109800D01*
G01X1040502Y-4104801D01*
G01X1081505Y-4104298D01*
G01X1081505Y-4149300D01*
G01X1126504Y-4149300D01*
G01X1126504Y-4105299D01*
G01X1168500Y-4104801D01*
G01X1173502Y-4109800D01*
G01X1173502Y-4224801D01*
G01X1168500Y-4229802D01*
G37*
G36*
G01X1168500Y-4014801D02*
G01X1126504Y-4014799D01*
G01X1126504Y-3970301D01*
G01X1081505Y-3970301D01*
G01X1081505Y-4014299D01*
G01X1040502Y-4014801D01*
G01X1035501Y-4009800D01*
G01X1035501Y-3894802D01*
G01X1040502Y-3889800D01*
G01X1168500Y-3889800D01*
G01X1173502Y-3894802D01*
G01X1173502Y-4009800D01*
G01X1168500Y-4014801D01*
G37*
G36*
G01X1818500Y-4229802D02*
G01X1690502Y-4229802D01*
G01X1685501Y-4224801D01*
G01X1685501Y-4109800D01*
G01X1690502Y-4104801D01*
G01X1731505Y-4104298D01*
G01X1731505Y-4149300D01*
G01X1776504Y-4149300D01*
G01X1776504Y-4105299D01*
G01X1818500Y-4104801D01*
G01X1823502Y-4109800D01*
G01X1823502Y-4224801D01*
G01X1818500Y-4229802D01*
G37*
G36*
G01X1818500Y-4014801D02*
G01X1776504Y-4014799D01*
G01X1776504Y-3970301D01*
G01X1731505Y-3970301D01*
G01X1731505Y-4014299D01*
G01X1690502Y-4014801D01*
G01X1685501Y-4009800D01*
G01X1685501Y-3894802D01*
G01X1690502Y-3889800D01*
G01X1818500Y-3889800D01*
G01X1823502Y-3894802D01*
G01X1823502Y-4009800D01*
G01X1818500Y-4014801D01*
G37*
G36*
G01X2468500Y-4229802D02*
G01X2340502Y-4229802D01*
G01X2335501Y-4224801D01*
G01X2335501Y-4109800D01*
G01X2340502Y-4104801D01*
G01X2381505Y-4104298D01*
G01X2381505Y-4149300D01*
G01X2426504Y-4149300D01*
G01X2426504Y-4105299D01*
G01X2468500Y-4104801D01*
G01X2473502Y-4109800D01*
G01X2473502Y-4224801D01*
G01X2468500Y-4229802D01*
G37*
G36*
G01X2468500Y-4014801D02*
G01X2426504Y-4014799D01*
G01X2426504Y-3970301D01*
G01X2381505Y-3970301D01*
G01X2381505Y-4014299D01*
G01X2340502Y-4014801D01*
G01X2335501Y-4009800D01*
G01X2335501Y-3894802D01*
G01X2340502Y-3889800D01*
G01X2468500Y-3889800D01*
G01X2473502Y-3894802D01*
G01X2473502Y-4009800D01*
G01X2468500Y-4014801D01*
G37*
G36*
G01X3118500Y-4229802D02*
G01X2990502Y-4229802D01*
G01X2985501Y-4224801D01*
G01X2985501Y-4109800D01*
G01X2990502Y-4104801D01*
G01X3031505Y-4104298D01*
G01X3031505Y-4149300D01*
G01X3076504Y-4149300D01*
G01X3076504Y-4105299D01*
G01X3118500Y-4104801D01*
G01X3123502Y-4109800D01*
G01X3123502Y-4224801D01*
G01X3118500Y-4229802D01*
G37*
G36*
G01X3118500Y-4014801D02*
G01X3076504Y-4014799D01*
G01X3076504Y-3970301D01*
G01X3031505Y-3970301D01*
G01X3031505Y-4014299D01*
G01X2990502Y-4014801D01*
G01X2985501Y-4009800D01*
G01X2985501Y-3894802D01*
G01X2990502Y-3889800D01*
G01X3118500Y-3889800D01*
G01X3123502Y-3894802D01*
G01X3123502Y-4009800D01*
G01X3118500Y-4014801D01*
G37*
G36*
G01X4418500Y-4229802D02*
G01X4290502Y-4229802D01*
G01X4285501Y-4224801D01*
G01X4285501Y-4109800D01*
G01X4290502Y-4104801D01*
G01X4331505Y-4104298D01*
G01X4331505Y-4149300D01*
G01X4376504Y-4149300D01*
G01X4376504Y-4105299D01*
G01X4418500Y-4104801D01*
G01X4423502Y-4109800D01*
G01X4423502Y-4224801D01*
G01X4418500Y-4229802D01*
G37*
G36*
G01X4418500Y-4014801D02*
G01X4376504Y-4014799D01*
G01X4376504Y-3970301D01*
G01X4331505Y-3970301D01*
G01X4331505Y-4014299D01*
G01X4290502Y-4014801D01*
G01X4285501Y-4009800D01*
G01X4285501Y-3894802D01*
G01X4290502Y-3889800D01*
G01X4418500Y-3889800D01*
G01X4423502Y-3894802D01*
G01X4423502Y-4009800D01*
G01X4418500Y-4014801D01*
G37*
G36*
G01X3254083Y-736399D02*
G01X3254083Y-773425D01*
G01X3244083Y-783425D01*
G01X3213593Y-783425D01*
G01X3203593Y-793425D01*
G01X3203593Y-832175D01*
G01X3213593Y-842175D01*
G01X3244083Y-842175D01*
G01X3254083Y-852175D01*
G01X3254083Y-889201D01*
G01X3244083Y-899201D01*
G01X3115584Y-899201D01*
G01X3105584Y-889201D01*
G01X3105584Y-736399D01*
G01X3115584Y-726399D01*
G01X3244083Y-726399D01*
G01X3254083Y-736399D01*
G37*
G36*
G01X3424085Y-736399D02*
G01X3424085Y-773425D01*
G01X3434085Y-783425D01*
G01X3464575Y-783425D01*
G01X3474575Y-793425D01*
G01X3474575Y-832175D01*
G01X3464575Y-842175D01*
G01X3434085Y-842175D01*
G01X3424085Y-852175D01*
G01X3424085Y-889201D01*
G01X3434085Y-899201D01*
G01X3562584Y-899201D01*
G01X3572584Y-889201D01*
G01X3572584Y-736399D01*
G01X3562584Y-726399D01*
G01X3434085Y-726399D01*
G01X3424085Y-736399D01*
G37*
G36*
G01X2562098Y-875200D02*
G01X2562098Y-747202D01*
G01X2567099Y-742201D01*
G01X2682100Y-742201D01*
G01X2687099Y-747202D01*
G01X2687602Y-788205D01*
G01X2642601Y-788205D01*
G01X2642601Y-833204D01*
G01X2686601Y-833204D01*
G01X2687099Y-875200D01*
G01X2682100Y-880201D01*
G01X2567099Y-880201D01*
G01X2562098Y-875200D01*
G37*
G36*
G01X2777099Y-875200D02*
G01X2777101Y-833204D01*
G01X2821600Y-833204D01*
G01X2821600Y-788205D01*
G01X2777602Y-788205D01*
G01X2777099Y-747202D01*
G01X2782100Y-742201D01*
G01X2897099Y-742201D01*
G01X2902100Y-747202D01*
G01X2902100Y-875200D01*
G01X2897099Y-880201D01*
G01X2782100Y-880201D01*
G01X2777099Y-875200D01*
G37*
G36*
G01X4823327Y-868810D02*
G01X4823327Y-831784D01*
G01X4833327Y-821784D01*
G01X4863817Y-821784D01*
G01X4873817Y-811784D01*
G01X4873817Y-773034D01*
G01X4863817Y-763034D01*
G01X4833327Y-763034D01*
G01X4823327Y-753034D01*
G01X4823327Y-716008D01*
G01X4833327Y-706008D01*
G01X4961825Y-706008D01*
G01X4971825Y-716008D01*
G01X4971825Y-868810D01*
G01X4961825Y-878810D01*
G01X4833327Y-878810D01*
G01X4823327Y-868810D01*
G37*
G36*
G01X4653324Y-868810D02*
G01X4653324Y-831784D01*
G01X4643324Y-821784D01*
G01X4612834Y-821784D01*
G01X4602834Y-811784D01*
G01X4602834Y-773034D01*
G01X4612834Y-763034D01*
G01X4643324Y-763034D01*
G01X4653324Y-753034D01*
G01X4653324Y-716008D01*
G01X4643324Y-706008D01*
G01X4514826Y-706008D01*
G01X4504826Y-716008D01*
G01X4504826Y-868810D01*
G01X4514826Y-878810D01*
G01X4643324Y-878810D01*
G01X4653324Y-868810D01*
G37*
G36*
G01X4147998Y-1486400D02*
G01X4147998Y-1358402D01*
G01X4152999Y-1353401D01*
G01X4268000Y-1353401D01*
G01X4272999Y-1358402D01*
G01X4273502Y-1399405D01*
G01X4228501Y-1399405D01*
G01X4228501Y-1444404D01*
G01X4272501Y-1444404D01*
G01X4272999Y-1486400D01*
G01X4268000Y-1491402D01*
G01X4152999Y-1491402D01*
G01X4147998Y-1486400D01*
G37*
G36*
G01X4362999Y-1486400D02*
G01X4363001Y-1444404D01*
G01X4407499Y-1444404D01*
G01X4407499Y-1399405D01*
G01X4363502Y-1399405D01*
G01X4362999Y-1358402D01*
G01X4368000Y-1353401D01*
G01X4482998Y-1353401D01*
G01X4488000Y-1358402D01*
G01X4488000Y-1486400D01*
G01X4482998Y-1491402D01*
G01X4368000Y-1491402D01*
G01X4362999Y-1486400D01*
G37*
G36*
G01X6718800Y-5824703D02*
G01X6590802Y-5824703D01*
G01X6585801Y-5819701D01*
G01X6585801Y-5704700D01*
G01X6590802Y-5699702D01*
G01X6631805Y-5699199D01*
G01X6631805Y-5744200D01*
G01X6676804Y-5744200D01*
G01X6676804Y-5700199D01*
G01X6718800Y-5699702D01*
G01X6723802Y-5704700D01*
G01X6723802Y-5819701D01*
G01X6718800Y-5824703D01*
G37*
G36*
G01X6718800Y-5609702D02*
G01X6676804Y-5609699D01*
G01X6676804Y-5565201D01*
G01X6631805Y-5565201D01*
G01X6631805Y-5609199D01*
G01X6590802Y-5609702D01*
G01X6585801Y-5604700D01*
G01X6585801Y-5489702D01*
G01X6590802Y-5484701D01*
G01X6718800Y-5484701D01*
G01X6723802Y-5489702D01*
G01X6723802Y-5604700D01*
G01X6718800Y-5609702D01*
G37*
G36*
G01X5956800Y-5824703D02*
G01X5828802Y-5824703D01*
G01X5823801Y-5819701D01*
G01X5823801Y-5704700D01*
G01X5828802Y-5699702D01*
G01X5869805Y-5699199D01*
G01X5869805Y-5744200D01*
G01X5914804Y-5744200D01*
G01X5914804Y-5700199D01*
G01X5956800Y-5699702D01*
G01X5961802Y-5704700D01*
G01X5961802Y-5819701D01*
G01X5956800Y-5824703D01*
G37*
G36*
G01X5956800Y-5609702D02*
G01X5914804Y-5609699D01*
G01X5914804Y-5565201D01*
G01X5869805Y-5565201D01*
G01X5869805Y-5609199D01*
G01X5828802Y-5609702D01*
G01X5823801Y-5604700D01*
G01X5823801Y-5489702D01*
G01X5828802Y-5484701D01*
G01X5956800Y-5484701D01*
G01X5961802Y-5489702D01*
G01X5961802Y-5604700D01*
G01X5956800Y-5609702D01*
G37*
G36*
G01X6311400Y-3237398D02*
G01X6353396Y-3237400D01*
G01X6353396Y-3281898D01*
G01X6398395Y-3281898D01*
G01X6398395Y-3237901D01*
G01X6439398Y-3237398D01*
G01X6444399Y-3242399D01*
G01X6444399Y-3357397D01*
G01X6439398Y-3362399D01*
G01X6311400Y-3362399D01*
G01X6306398Y-3357397D01*
G01X6306398Y-3242399D01*
G01X6311400Y-3237398D01*
G37*
G36*
G01X6311400Y-3038399D02*
G01X6439398Y-3038399D01*
G01X6444399Y-3043400D01*
G01X6444399Y-3158401D01*
G01X6439398Y-3163400D01*
G01X6398395Y-3163903D01*
G01X6398395Y-3118902D01*
G01X6353396Y-3118902D01*
G01X6353396Y-3162902D01*
G01X6311400Y-3163400D01*
G01X6306398Y-3158401D01*
G01X6306398Y-3043400D01*
G01X6311400Y-3038399D01*
G37*
G36*
G01X6539398Y-3924800D02*
G01X6539400Y-3882804D01*
G01X6583898Y-3882804D01*
G01X6583898Y-3837805D01*
G01X6539901Y-3837805D01*
G01X6539398Y-3796802D01*
G01X6544399Y-3791801D01*
G01X6659397Y-3791801D01*
G01X6664399Y-3796802D01*
G01X6664399Y-3924800D01*
G01X6659397Y-3929802D01*
G01X6544399Y-3929802D01*
G01X6539398Y-3924800D01*
G37*
G36*
G01X6340399Y-3924800D02*
G01X6340399Y-3796802D01*
G01X6345400Y-3791801D01*
G01X6460401Y-3791801D01*
G01X6465400Y-3796802D01*
G01X6465903Y-3837805D01*
G01X6420902Y-3837805D01*
G01X6420902Y-3882804D01*
G01X6464902Y-3882804D01*
G01X6465400Y-3924800D01*
G01X6460401Y-3929802D01*
G01X6345400Y-3929802D01*
G01X6340399Y-3924800D01*
G37*
G36*
G01X6103798Y-3721600D02*
G01X6103798Y-3593602D01*
G01X6108799Y-3588601D01*
G01X6223800Y-3588601D01*
G01X6228799Y-3593602D01*
G01X6229302Y-3634605D01*
G01X6184301Y-3634605D01*
G01X6184301Y-3679604D01*
G01X6228301Y-3679604D01*
G01X6228799Y-3721600D01*
G01X6223800Y-3726602D01*
G01X6108799Y-3726602D01*
G01X6103798Y-3721600D01*
G37*
G36*
G01X6318799Y-3721600D02*
G01X6318801Y-3679604D01*
G01X6363299Y-3679604D01*
G01X6363299Y-3634605D01*
G01X6319302Y-3634605D01*
G01X6318799Y-3593602D01*
G01X6323800Y-3588601D01*
G01X6438798Y-3588601D01*
G01X6443800Y-3593602D01*
G01X6443800Y-3721600D01*
G01X6438798Y-3726602D01*
G01X6323800Y-3726602D01*
G01X6318799Y-3721600D01*
G37*
G36*
G01X5466177Y-4130683D02*
G01X5466179Y-4088686D01*
G01X5510677Y-4088686D01*
G01X5510677Y-4043688D01*
G01X5466679Y-4043688D01*
G01X5466177Y-4002684D01*
G01X5471178Y-3997683D01*
G01X5586176Y-3997683D01*
G01X5591178Y-4002684D01*
G01X5591178Y-4130683D01*
G01X5586176Y-4135684D01*
G01X5471178Y-4135684D01*
G01X5466177Y-4130683D01*
G37*
G36*
G01X5267178Y-4130683D02*
G01X5267178Y-4002684D01*
G01X5272179Y-3997683D01*
G01X5387180Y-3997683D01*
G01X5392179Y-4002684D01*
G01X5392682Y-4043688D01*
G01X5347680Y-4043688D01*
G01X5347680Y-4088686D01*
G01X5391681Y-4088686D01*
G01X5392179Y-4130683D01*
G01X5387180Y-4135684D01*
G01X5272179Y-4135684D01*
G01X5267178Y-4130683D01*
G37*
G36*
G01X5062398Y-4343900D02*
G01X5062398Y-4215902D01*
G01X5067399Y-4210901D01*
G01X5182400Y-4210901D01*
G01X5187399Y-4215902D01*
G01X5187902Y-4256905D01*
G01X5142901Y-4256905D01*
G01X5142901Y-4301904D01*
G01X5186901Y-4301904D01*
G01X5187399Y-4343900D01*
G01X5182400Y-4348902D01*
G01X5067399Y-4348902D01*
G01X5062398Y-4343900D01*
G37*
G36*
G01X5277399Y-4343900D02*
G01X5277401Y-4301904D01*
G01X5321899Y-4301904D01*
G01X5321899Y-4256905D01*
G01X5277902Y-4256905D01*
G01X5277399Y-4215902D01*
G01X5282400Y-4210901D01*
G01X5397398Y-4210901D01*
G01X5402400Y-4215902D01*
G01X5402400Y-4343900D01*
G01X5397398Y-4348902D01*
G01X5282400Y-4348902D01*
G01X5277399Y-4343900D01*
G37*
G36*
G01X8707603Y-4279400D02*
G01X8707603Y-4407398D01*
G01X8702601Y-4412399D01*
G01X8587600Y-4412399D01*
G01X8582602Y-4407398D01*
G01X8582099Y-4366395D01*
G01X8627100Y-4366395D01*
G01X8627100Y-4321396D01*
G01X8583099Y-4321396D01*
G01X8582602Y-4279400D01*
G01X8587600Y-4274398D01*
G01X8702601Y-4274398D01*
G01X8707603Y-4279400D01*
G37*
G36*
G01X8492602Y-4279400D02*
G01X8492599Y-4321396D01*
G01X8448101Y-4321396D01*
G01X8448101Y-4366395D01*
G01X8492099Y-4366395D01*
G01X8492602Y-4407398D01*
G01X8487601Y-4412399D01*
G01X8372602Y-4412399D01*
G01X8367601Y-4407398D01*
G01X8367601Y-4279400D01*
G01X8372602Y-4274398D01*
G01X8487601Y-4274398D01*
G01X8492602Y-4279400D01*
G37*
G36*
G01X7929702Y-4025400D02*
G01X7929702Y-4153398D01*
G01X7924701Y-4158399D01*
G01X7809700Y-4158399D01*
G01X7804701Y-4153398D01*
G01X7804198Y-4112395D01*
G01X7849199Y-4112395D01*
G01X7849199Y-4067396D01*
G01X7805199Y-4067396D01*
G01X7804701Y-4025400D01*
G01X7809700Y-4020398D01*
G01X7924701Y-4020398D01*
G01X7929702Y-4025400D01*
G37*
G36*
G01X7714701Y-4025400D02*
G01X7714699Y-4067396D01*
G01X7670201Y-4067396D01*
G01X7670201Y-4112395D01*
G01X7714198Y-4112395D01*
G01X7714701Y-4153398D01*
G01X7709700Y-4158399D01*
G01X7594702Y-4158399D01*
G01X7589700Y-4153398D01*
G01X7589700Y-4025400D01*
G01X7594702Y-4020398D01*
G01X7709700Y-4020398D01*
G01X7714701Y-4025400D01*
G37*
G36*
G01X7390298Y-3874000D02*
G01X7390300Y-3832004D01*
G01X7434798Y-3832004D01*
G01X7434798Y-3787005D01*
G01X7390801Y-3787005D01*
G01X7390298Y-3746002D01*
G01X7395299Y-3741001D01*
G01X7510297Y-3741001D01*
G01X7515299Y-3746002D01*
G01X7515299Y-3874000D01*
G01X7510297Y-3879002D01*
G01X7395299Y-3879002D01*
G01X7390298Y-3874000D01*
G37*
G36*
G01X7191299Y-3874000D02*
G01X7191299Y-3746002D01*
G01X7196300Y-3741001D01*
G01X7311301Y-3741001D01*
G01X7316300Y-3746002D01*
G01X7316803Y-3787005D01*
G01X7271802Y-3787005D01*
G01X7271802Y-3832004D01*
G01X7315802Y-3832004D01*
G01X7316300Y-3874000D01*
G01X7311301Y-3879002D01*
G01X7196300Y-3879002D01*
G01X7191299Y-3874000D01*
G37*
G36*
G01X6906699Y-3739998D02*
G01X7034698Y-3739998D01*
G01X7039699Y-3744999D01*
G01X7039699Y-3860000D01*
G01X7034698Y-3864999D01*
G01X6993694Y-3865502D01*
G01X6993694Y-3820500D01*
G01X6948696Y-3820500D01*
G01X6948696Y-3864501D01*
G01X6906699Y-3864999D01*
G01X6901698Y-3860000D01*
G01X6901698Y-3744999D01*
G01X6906699Y-3739998D01*
G37*
G36*
G01X6906699Y-3954998D02*
G01X6948696Y-3955001D01*
G01X6948696Y-3999499D01*
G01X6993694Y-3999499D01*
G01X6993694Y-3955501D01*
G01X7034698Y-3954998D01*
G01X7039699Y-3960000D01*
G01X7039699Y-4074998D01*
G01X7034698Y-4079999D01*
G01X6906699Y-4079999D01*
G01X6901698Y-4074998D01*
G01X6901698Y-3960000D01*
G01X6906699Y-3954998D01*
G37*
G36*
G01X6837502Y-3060200D02*
G01X6837502Y-3188198D01*
G01X6832501Y-3193199D01*
G01X6717500Y-3193199D01*
G01X6712501Y-3188198D01*
G01X6711998Y-3147195D01*
G01X6756999Y-3147195D01*
G01X6756999Y-3102196D01*
G01X6712999Y-3102196D01*
G01X6712501Y-3060200D01*
G01X6717500Y-3055198D01*
G01X6832501Y-3055198D01*
G01X6837502Y-3060200D01*
G37*
G36*
G01X6622501Y-3060200D02*
G01X6622499Y-3102196D01*
G01X6578001Y-3102196D01*
G01X6578001Y-3147195D01*
G01X6621998Y-3147195D01*
G01X6622501Y-3188198D01*
G01X6617500Y-3193199D01*
G01X6502502Y-3193199D01*
G01X6497500Y-3188198D01*
G01X6497500Y-3060200D01*
G01X6502502Y-3055198D01*
G01X6617500Y-3055198D01*
G01X6622501Y-3060200D01*
G37*
G36*
G01X5885015Y-3111299D02*
G01X5885015Y-3148325D01*
G01X5875015Y-3158325D01*
G01X5844525Y-3158325D01*
G01X5834525Y-3168325D01*
G01X5834525Y-3207075D01*
G01X5844525Y-3217075D01*
G01X5875015Y-3217075D01*
G01X5885015Y-3227075D01*
G01X5885015Y-3264101D01*
G01X5875015Y-3274101D01*
G01X5746516Y-3274101D01*
G01X5736516Y-3264101D01*
G01X5736516Y-3111299D01*
G01X5746516Y-3101299D01*
G01X5875015Y-3101299D01*
G01X5885015Y-3111299D01*
G37*
G36*
G01X6055017Y-3111299D02*
G01X6055017Y-3148325D01*
G01X6065017Y-3158325D01*
G01X6095507Y-3158325D01*
G01X6105507Y-3168325D01*
G01X6105507Y-3207075D01*
G01X6095507Y-3217075D01*
G01X6065017Y-3217075D01*
G01X6055017Y-3227075D01*
G01X6055017Y-3264101D01*
G01X6065017Y-3274101D01*
G01X6193516Y-3274101D01*
G01X6203516Y-3264101D01*
G01X6203516Y-3111299D01*
G01X6193516Y-3101299D01*
G01X6065017Y-3101299D01*
G01X6055017Y-3111299D01*
G37*
G36*
G01X4174502Y-4095800D02*
G01X4174502Y-4223798D01*
G01X4169501Y-4228799D01*
G01X4054500Y-4228799D01*
G01X4049501Y-4223798D01*
G01X4048998Y-4182795D01*
G01X4093999Y-4182795D01*
G01X4093999Y-4137796D01*
G01X4049999Y-4137796D01*
G01X4049501Y-4095800D01*
G01X4054500Y-4090798D01*
G01X4169501Y-4090798D01*
G01X4174502Y-4095800D01*
G37*
G36*
G01X3959501Y-4095800D02*
G01X3959499Y-4137796D01*
G01X3915001Y-4137796D01*
G01X3915001Y-4182795D01*
G01X3958998Y-4182795D01*
G01X3959501Y-4223798D01*
G01X3954500Y-4228799D01*
G01X3839502Y-4228799D01*
G01X3834500Y-4223798D01*
G01X3834500Y-4095800D01*
G01X3839502Y-4090798D01*
G01X3954500Y-4090798D01*
G01X3959501Y-4095800D01*
G37*
G36*
G01X1574502Y-4095800D02*
G01X1574502Y-4223798D01*
G01X1569501Y-4228799D01*
G01X1454500Y-4228799D01*
G01X1449501Y-4223798D01*
G01X1448998Y-4182795D01*
G01X1494000Y-4182795D01*
G01X1494000Y-4137796D01*
G01X1449999Y-4137796D01*
G01X1449501Y-4095800D01*
G01X1454500Y-4090798D01*
G01X1569501Y-4090798D01*
G01X1574502Y-4095800D01*
G37*
G36*
G01X1359501Y-4095800D02*
G01X1359499Y-4137796D01*
G01X1315001Y-4137796D01*
G01X1315001Y-4182795D01*
G01X1358999Y-4182795D01*
G01X1359501Y-4223798D01*
G01X1354500Y-4228799D01*
G01X1239502Y-4228799D01*
G01X1234500Y-4223798D01*
G01X1234500Y-4095800D01*
G01X1239502Y-4090798D01*
G01X1354500Y-4090798D01*
G01X1359501Y-4095800D01*
G37*
G36*
G01X2224502Y-4095800D02*
G01X2224502Y-4223798D01*
G01X2219501Y-4228799D01*
G01X2104500Y-4228799D01*
G01X2099501Y-4223798D01*
G01X2098998Y-4182795D01*
G01X2144000Y-4182795D01*
G01X2144000Y-4137796D01*
G01X2099999Y-4137796D01*
G01X2099501Y-4095800D01*
G01X2104500Y-4090798D01*
G01X2219501Y-4090798D01*
G01X2224502Y-4095800D01*
G37*
G36*
G01X2009501Y-4095800D02*
G01X2009499Y-4137796D01*
G01X1965001Y-4137796D01*
G01X1965001Y-4182795D01*
G01X2008999Y-4182795D01*
G01X2009501Y-4223798D01*
G01X2004500Y-4228799D01*
G01X1889502Y-4228799D01*
G01X1884500Y-4223798D01*
G01X1884500Y-4095800D01*
G01X1889502Y-4090798D01*
G01X2004500Y-4090798D01*
G01X2009501Y-4095800D01*
G37*
G36*
G01X2874502Y-4095800D02*
G01X2874502Y-4223798D01*
G01X2869501Y-4228799D01*
G01X2754500Y-4228799D01*
G01X2749501Y-4223798D01*
G01X2748998Y-4182795D01*
G01X2793999Y-4182795D01*
G01X2793999Y-4137796D01*
G01X2749999Y-4137796D01*
G01X2749501Y-4095800D01*
G01X2754500Y-4090798D01*
G01X2869501Y-4090798D01*
G01X2874502Y-4095800D01*
G37*
G36*
G01X2659501Y-4095800D02*
G01X2659499Y-4137796D01*
G01X2615001Y-4137796D01*
G01X2615001Y-4182795D01*
G01X2658998Y-4182795D01*
G01X2659501Y-4223798D01*
G01X2654500Y-4228799D01*
G01X2539502Y-4228799D01*
G01X2534500Y-4223798D01*
G01X2534500Y-4095800D01*
G01X2539502Y-4090798D01*
G01X2654500Y-4090798D01*
G01X2659501Y-4095800D01*
G37*
G36*
G01X3524502Y-4095800D02*
G01X3524502Y-4223798D01*
G01X3519501Y-4228799D01*
G01X3404500Y-4228799D01*
G01X3399501Y-4223798D01*
G01X3398998Y-4182795D01*
G01X3443999Y-4182795D01*
G01X3443999Y-4137796D01*
G01X3399999Y-4137796D01*
G01X3399501Y-4095800D01*
G01X3404500Y-4090798D01*
G01X3519501Y-4090798D01*
G01X3524502Y-4095800D01*
G37*
G36*
G01X3309501Y-4095800D02*
G01X3309499Y-4137796D01*
G01X3265001Y-4137796D01*
G01X3265001Y-4182795D01*
G01X3308998Y-4182795D01*
G01X3309501Y-4223798D01*
G01X3304500Y-4228799D01*
G01X3189502Y-4228799D01*
G01X3184500Y-4223798D01*
G01X3184500Y-4095800D01*
G01X3189502Y-4090798D01*
G01X3304500Y-4090798D01*
G01X3309501Y-4095800D01*
G37*
G36*
G01X4824502Y-4095800D02*
G01X4824502Y-4223798D01*
G01X4819501Y-4228799D01*
G01X4704500Y-4228799D01*
G01X4699501Y-4223798D01*
G01X4698998Y-4182795D01*
G01X4743999Y-4182795D01*
G01X4743999Y-4137796D01*
G01X4699999Y-4137796D01*
G01X4699501Y-4095800D01*
G01X4704500Y-4090798D01*
G01X4819501Y-4090798D01*
G01X4824502Y-4095800D01*
G37*
G36*
G01X4609501Y-4095800D02*
G01X4609499Y-4137796D01*
G01X4565001Y-4137796D01*
G01X4565001Y-4182795D01*
G01X4608998Y-4182795D01*
G01X4609501Y-4223798D01*
G01X4604500Y-4228799D01*
G01X4489502Y-4228799D01*
G01X4484500Y-4223798D01*
G01X4484500Y-4095800D01*
G01X4489502Y-4090798D01*
G01X4604500Y-4090798D01*
G01X4609501Y-4095800D01*
G37*
G36*
G01X5347774Y-2934901D02*
G01X5347774Y-3062900D01*
G01X5342773Y-3067901D01*
G01X5227772Y-3067901D01*
G01X5222773Y-3062900D01*
G01X5222270Y-3021896D01*
G01X5267272Y-3021896D01*
G01X5267272Y-2976898D01*
G01X5223271Y-2976898D01*
G01X5222773Y-2934901D01*
G01X5227772Y-2929900D01*
G01X5342773Y-2929900D01*
G01X5347774Y-2934901D01*
G37*
G36*
G01X5132774Y-2934901D02*
G01X5132771Y-2976898D01*
G01X5088273Y-2976898D01*
G01X5088273Y-3021896D01*
G01X5132271Y-3021896D01*
G01X5132774Y-3062900D01*
G01X5127772Y-3067901D01*
G01X5012774Y-3067901D01*
G01X5007773Y-3062900D01*
G01X5007773Y-2934901D01*
G01X5012774Y-2929900D01*
G01X5127772Y-2929900D01*
G01X5132774Y-2934901D01*
G37*
G36*
G01X5327498Y-3266001D02*
G01X5327498Y-3138002D01*
G01X5332499Y-3133001D01*
G01X5447500Y-3133001D01*
G01X5452499Y-3138002D01*
G01X5453002Y-3179006D01*
G01X5408000Y-3179006D01*
G01X5408000Y-3224004D01*
G01X5452001Y-3224004D01*
G01X5452499Y-3266001D01*
G01X5447500Y-3271002D01*
G01X5332499Y-3271002D01*
G01X5327498Y-3266001D01*
G37*
G36*
G01X5542498Y-3266001D02*
G01X5542501Y-3224004D01*
G01X5586999Y-3224004D01*
G01X5586999Y-3179006D01*
G01X5543001Y-3179006D01*
G01X5542498Y-3138002D01*
G01X5547500Y-3133001D01*
G01X5662498Y-3133001D01*
G01X5667499Y-3138002D01*
G01X5667499Y-3266001D01*
G01X5662498Y-3271002D01*
G01X5547500Y-3271002D01*
G01X5542498Y-3266001D01*
G37*
G36*
G01X5353479Y-3331141D02*
G01X5481477Y-3331141D01*
G01X5486479Y-3336143D01*
G01X5486479Y-3451144D01*
G01X5481477Y-3456142D01*
G01X5440474Y-3456645D01*
G01X5440474Y-3411644D01*
G01X5395476Y-3411644D01*
G01X5395476Y-3455645D01*
G01X5353479Y-3456142D01*
G01X5348478Y-3451144D01*
G01X5348478Y-3336143D01*
G01X5353479Y-3331141D01*
G37*
G36*
G01X5353479Y-3546142D02*
G01X5395476Y-3546145D01*
G01X5395476Y-3590643D01*
G01X5440474Y-3590643D01*
G01X5440474Y-3546645D01*
G01X5481477Y-3546142D01*
G01X5486479Y-3551144D01*
G01X5486479Y-3666142D01*
G01X5481477Y-3671143D01*
G01X5353479Y-3671143D01*
G01X5348478Y-3666142D01*
G01X5348478Y-3551144D01*
G01X5353479Y-3546142D01*
G37*

G04 Pad Start*
G54D10*
G01X1228903Y-1866298D03*
G01X1228903Y-1966298D03*
G01X1228903Y-2066298D03*
G01X1228903Y-2166295D03*
G01X1228903Y-2266295D03*
G01X1742897Y-2266295D03*
G01X1742897Y-2166295D03*
G01X1742897Y-2066298D03*
G01X1742897Y-1966298D03*
G01X1742897Y-1866298D03*
G54D11*
G01X1485900Y-2066298D03*
G54D12*
G01X3372002Y-1993908D03*
G01X3231998Y-1993908D03*
G54D13*
G01X3422498Y-2171692D03*
G01X3562502Y-2171692D03*
G54D14*
G01X3607841Y-2012704D03*
G01X3672840Y-2012704D03*
G01X3737839Y-2012704D03*
G54D15*
G01X3737839Y-1822712D03*
G01X3672840Y-1822712D03*
G01X3607841Y-1822712D03*
G54D16*
G01X7645408Y-5533771D03*
G01X7645408Y-5743829D03*
G54D17*
G01X8813792Y-2899029D03*
G01X8813792Y-2688971D03*
G54D19*
G01X7575550Y-2871605D03*
G01X7575550Y-2641608D03*
G01X7575550Y-2411611D03*
G54D20*
G01X7004050Y-2641608D03*
G54D17*
G01X4004492Y-4664829D03*
G01X4004492Y-4454771D03*
G01X1404492Y-4664829D03*
G01X1404492Y-4454771D03*
G01X2054492Y-4664829D03*
G01X2054492Y-4454771D03*
G01X2704492Y-4664829D03*
G01X2704492Y-4454771D03*
G01X3354492Y-4664829D03*
G01X3354492Y-4454771D03*
G01X4654492Y-4664829D03*
G01X4654492Y-4454771D03*
G54D21*
G01X7298398Y-4483100D03*
G01X7738402Y-4483100D03*
G54D16*
G01X6883408Y-5533771D03*
G01X6883408Y-5743829D03*
G01X6121408Y-5533771D03*
G01X6121408Y-5743829D03*
G54D22*
G01X7215200Y-4070596D03*
G01X7215200Y-4260588D03*
G01X7415200Y-4165592D03*
G54D21*
G01X6536398Y-4483100D03*
G01X6976402Y-4483100D03*
G01X5774398Y-4495800D03*
G01X6214402Y-4495800D03*
G54D22*
G01X6465900Y-4045196D03*
G01X6465900Y-4235188D03*
G01X6665900Y-4140192D03*
G01X5691200Y-4070596D03*
G01X5691200Y-4260588D03*
G01X5891200Y-4165592D03*
G54D23*
G01X8204200Y-3412193D03*
G01X8204200Y-3852197D03*
G54D16*
G01X8194929Y-4133334D03*
G01X8194929Y-4343392D03*
G54D22*
G01X7685100Y-3702296D03*
G01X7685100Y-3892288D03*
G01X7885100Y-3797292D03*
G54D24*
G01X5938507Y-3831791D03*
G01X5618493Y-3831791D03*
G01X5618493Y-3381804D03*
G01X5938507Y-3381804D03*
G54D22*
G01X5475300Y-2787904D03*
G01X5475300Y-2977896D03*
G01X5675300Y-2882900D03*
G54D25*
G01X5331892Y-2272974D03*
G54D26*
G01X5422062Y-2272974D03*
G54D25*
G01X5333365Y-2527300D03*
G54D26*
G01X5423535Y-2527300D03*
G04 Pad End*

M02*

