G04 Layer: TopSolderMaskLayer*
G04 EasyEDA Pro v2.2.34.8, 2025-01-04 05:44:47*
G04 Gerber Generator version 0.3*
G04 Scale: 100 percent, Rotated: No, Reflected: No*
G04 Dimensions in millimeters*
G04 Leading zeros omitted, absolute positions, 4 integers and 5 decimals*
%FSLAX45Y45*%
%MOMM*%
%AMRoundRect*1,1,$1,$2,$3*1,1,$1,$4,$5*1,1,$1,0-$2,0-$3*1,1,$1,0-$4,0-$5*20,1,$1,$2,$3,$4,$5,0*20,1,$1,$4,$5,0-$2,0-$3,0*20,1,$1,0-$2,0-$3,0-$4,0-$5,0*20,1,$1,0-$4,0-$5,$2,$3,0*4,1,4,$2,$3,$4,$5,0-$2,0-$3,0-$4,0-$5,$2,$3,0*%
%ADD10C,6.10159*%
%ADD11RoundRect,0.09549X-0.74556X0.86705X0.74556X0.86705*%
%ADD12RoundRect,0.09549X0.86705X0.74556X0.86705X-0.74556*%
%ADD13RoundRect,0.09387X-0.69237X-0.57013X-0.69237X0.57013*%
%ADD14RoundRect,0.09387X0.69237X0.57013X0.69237X-0.57013*%
%ADD15RoundRect,0.08838X0.82681X0.28681X0.82681X-0.28681*%
%ADD16RoundRect,0.1038X1.05226X1.65225X1.05226X-1.65225*%
%ADD17RoundRect,0.09749X1.05226X1.65225X1.05226X-1.65225*%
%ADD18RoundRect,0.08752X0.62625X0.30625X0.62625X-0.30625*%
%ADD19RoundRect,0.08002X0.63001X0.16X0.63001X-0.16*%
%ADD20O,2.20002X1.10002*%
%ADD21O,1.90002X1.10002*%
%ADD22C,2.302*%
%ADD23RoundRect,0.09654X-0.85273X0.85273X0.85273X0.85273*%
%ADD24C,1.802*%
%ADD25RoundRect,0.09164X-0.40518X0.45518X0.40518X0.45518*%
%ADD26RoundRect,0.09164X0.40518X-0.45518X-0.40518X-0.45518*%
%ADD27RoundRect,0.09387X-0.57013X0.69237X0.57013X0.69237*%
%ADD28RoundRect,0.09387X0.57013X-0.69237X-0.57013X-0.69237*%
%ADD29RoundRect,0.08533X-0.21833X0.30834X0.21833X0.30834*%
%ADD30RoundRect,0.08533X0.21833X-0.30834X-0.21833X-0.30834*%
%ADD31RoundRect,0.09654X0.85273X-0.85273X-0.85273X-0.85273*%
%ADD32RoundRect,0.09336X-0.70409X-0.50432X-0.70409X0.50432*%
%ADD33RoundRect,0.09549X0.74556X-0.86705X-0.74556X-0.86705*%
%ADD34O,1.902X2.702*%
%ADD35RoundRect,0.09681X0.90259X-1.30259X-0.90259X-1.30259*%
%ADD36O,2.102X2.602*%
%ADD37RoundRect,0.09728X-1.00236X1.25236X1.00236X1.25236*%
%ADD38RoundRect,0.09336X0.70409X0.50432X0.70409X-0.50432*%
%ADD39RoundRect,0.09549X-0.86705X-0.74556X-0.86705X0.74556*%
%ADD40RoundRect,0.0937X-1.23665X0.52915X1.23665X0.52915*%
%ADD41RoundRect,0.0981X-1.23445X1.77195X1.23445X1.77195*%
%ADD42C,1.9016*%
%ADD43RoundRect,0.09645X0.90257X-0.90257X-0.90257X-0.90257*%
%ADD44RoundRect,0.09728X-1.00236X1.00236X1.00236X1.00236*%
%ADD45RoundRect,0.09049X0.63076X-0.35575X-0.63076X-0.35575*%
%ADD46C,1.626*%
%ADD47RoundRect,0.09728X1.00236X1.00236X1.00236X-1.00236*%
%ADD48RoundRect,0.09093X0.45455X0.65455X0.45455X-0.65455*%
%ADD49RoundRect,0.09017X0.63072X-0.35571X-0.63072X-0.35571*%
%ADD50RoundRect,0.09645X-0.90257X-0.90257X-0.90257X0.90257*%
G75*


G04 Pad Start*
G54D10*
G01X8636000Y-508008D03*
G01X8636000Y-5588008D03*
G01X508000Y-5588008D03*
G01X508000Y-508008D03*
G54D11*
G01X1746758Y-1638300D03*
G01X1428242Y-1638300D03*
G54D12*
G01X1981200Y-2140458D03*
G01X1981200Y-1821942D03*
G54D13*
G01X977900Y-2097100D03*
G01X977900Y-2297100D03*
G54D14*
G01X977900Y-1712900D03*
G01X977900Y-1512900D03*
G54D15*
G01X1228903Y-1866298D03*
G01X1228903Y-1966298D03*
G01X1228903Y-2066298D03*
G01X1228903Y-2166295D03*
G01X1228903Y-2266295D03*
G01X1742897Y-2266295D03*
G01X1742897Y-2166295D03*
G01X1742897Y-2066298D03*
G01X1742897Y-1966298D03*
G01X1742897Y-1866298D03*
G54D17*
G01X1485900Y-2066298D03*
G54D18*
G01X760702Y-2237687D03*
G01X760702Y-2157702D03*
G54D19*
G01X760702Y-2092703D03*
G01X760702Y-2042691D03*
G01X760702Y-1992704D03*
G01X760702Y-1942691D03*
G01X760702Y-1892704D03*
G01X760702Y-1842691D03*
G01X760702Y-1792704D03*
G01X760702Y-1742691D03*
G54D18*
G01X760702Y-1677693D03*
G01X760702Y-1597708D03*
G54D20*
G01X698701Y-1485694D03*
G54D21*
G01X280693Y-1485694D03*
G01X280693Y-2349701D03*
G54D20*
G01X698701Y-2349701D03*
G54D22*
G01X8788400Y-1701884D03*
G01X8788400Y-2209884D03*
G01X8801100Y-3365584D03*
G01X8801100Y-3873584D03*
G54D23*
G01X3060700Y-3302008D03*
G54D24*
G01X3314700Y-3301982D03*
G01X3568700Y-3301982D03*
G01X3822700Y-3301982D03*
G54D25*
G01X3372002Y-1993908D03*
G01X3231998Y-1993908D03*
G54D26*
G01X3422498Y-2171692D03*
G01X3562502Y-2171692D03*
G54D27*
G01X3973500Y-2171700D03*
G01X3773500Y-2171700D03*
G54D28*
G01X3356938Y-1676413D03*
G01X3556937Y-1676413D03*
G54D27*
G01X3988737Y-1676413D03*
G01X3788738Y-1676413D03*
G54D29*
G01X3607841Y-2012704D03*
G01X3672840Y-2012704D03*
G01X3737839Y-2012704D03*
G54D30*
G01X3737839Y-1822712D03*
G01X3672840Y-1822712D03*
G01X3607841Y-1822712D03*
G54D31*
G01X6184900Y-1257308D03*
G54D24*
G01X5930900Y-1257308D03*
G01X5676900Y-1257308D03*
G54D31*
G01X6184900Y-2019308D03*
G54D24*
G01X5930900Y-2019308D03*
G01X5676900Y-2019308D03*
G54D31*
G01X6184900Y-1511308D03*
G54D24*
G01X5930900Y-1511308D03*
G01X5676900Y-1511308D03*
G54D31*
G01X6184900Y-1765308D03*
G54D24*
G01X5930900Y-1765308D03*
G01X5676900Y-1765308D03*
G54D32*
G01X7645408Y-5533771D03*
G01X7645408Y-5743829D03*
G54D13*
G01X7416800Y-5554701D03*
G01X7416800Y-5754700D03*
G54D11*
G01X6851849Y-1143283D03*
G01X6533333Y-1143283D03*
G54D33*
G01X7066733Y-216183D03*
G01X7385249Y-216183D03*
G54D11*
G01X7385249Y-1143283D03*
G01X7066733Y-1143283D03*
G01X6851854Y-216183D03*
G01X6533338Y-216183D03*
G54D34*
G01X6959309Y-623091D03*
G01X6705284Y-622101D03*
G54D35*
G01X7213309Y-623091D03*
G54D36*
G01X7454892Y-3390900D03*
G01X7708892Y-3390900D03*
G54D37*
G01X7200892Y-3390900D03*
G54D11*
G01X4134358Y-812800D03*
G01X3815842Y-812800D03*
G54D28*
G01X3837000Y-1422400D03*
G01X4037000Y-1422400D03*
G54D24*
G01X3848100Y-279408D03*
G01X4102100Y-279408D03*
G54D38*
G01X8813792Y-2899029D03*
G01X8813792Y-2688971D03*
G54D12*
G01X8153400Y-2292858D03*
G01X8153400Y-1974342D03*
G54D39*
G01X8153400Y-2507742D03*
G01X8153400Y-2826258D03*
G54D12*
G01X7886700Y-2292858D03*
G01X7886700Y-1974342D03*
G54D39*
G01X7886700Y-2507742D03*
G01X7886700Y-2826258D03*
G54D28*
G01X8409000Y-2730500D03*
G01X8609000Y-2730500D03*
G54D40*
G01X7575550Y-2871605D03*
G01X7575550Y-2641608D03*
G01X7575550Y-2411611D03*
G54D41*
G01X7004050Y-2641608D03*
G54D39*
G01X3704500Y-4400542D03*
G01X3704500Y-4719058D03*
G01X1104900Y-4400042D03*
G01X1104900Y-4718558D03*
G01X1754500Y-4400542D03*
G01X1754500Y-4719058D03*
G01X2404500Y-4400542D03*
G01X2404500Y-4719058D03*
G01X3054500Y-4400542D03*
G01X3054500Y-4719058D03*
G01X4356100Y-4400542D03*
G01X4356100Y-4719058D03*
G54D38*
G01X4004492Y-4664829D03*
G01X4004492Y-4454771D03*
G01X1404492Y-4664829D03*
G01X1404492Y-4454771D03*
G01X2054492Y-4664829D03*
G01X2054492Y-4454771D03*
G01X2704492Y-4664829D03*
G01X2704492Y-4454771D03*
G01X3354492Y-4664829D03*
G01X3354492Y-4454771D03*
G01X4654492Y-4664829D03*
G01X4654492Y-4454771D03*
G54D13*
G01X3704500Y-3959800D03*
G01X3704500Y-4159800D03*
G01X1104500Y-3959800D03*
G01X1104500Y-4159800D03*
G01X1754500Y-3959800D03*
G01X1754500Y-4159800D03*
G01X2404500Y-3959800D03*
G01X2404500Y-4159800D03*
G01X3054500Y-3959800D03*
G01X3054500Y-4159800D03*
G01X4354500Y-3959800D03*
G01X4354500Y-4159800D03*
G54D42*
G01X3336100Y-279400D03*
G01X3086113Y-279400D03*
G54D43*
G01X2836101Y-279400D03*
G54D33*
G01X3179826Y-812800D03*
G01X3498342Y-812800D03*
G54D27*
G01X2832100Y-811200D03*
G01X2632100Y-811200D03*
G54D42*
G01X5050600Y-3479800D03*
G01X4800613Y-3479800D03*
G54D43*
G01X4550601Y-3479800D03*
G54D11*
G01X4897584Y-792409D03*
G01X4579068Y-792409D03*
G54D27*
G01X4418000Y-1422400D03*
G01X4218000Y-1422400D03*
G54D24*
G01X4611326Y-279408D03*
G01X4865326Y-279408D03*
G54D44*
G01X7298398Y-4483100D03*
G01X7738402Y-4483100D03*
G54D24*
G01X6883400Y-5016492D03*
G01X6629400Y-5016492D03*
G01X6121400Y-5016492D03*
G01X5867400Y-5016492D03*
G54D32*
G01X6883408Y-5533771D03*
G01X6883408Y-5743829D03*
G01X6121408Y-5533771D03*
G01X6121408Y-5743829D03*
G54D45*
G01X7215200Y-4070596D03*
G01X7215200Y-4260588D03*
G01X7415200Y-4165592D03*
G54D13*
G01X6654800Y-5554701D03*
G01X6654800Y-5754700D03*
G01X5892800Y-5554701D03*
G01X5892800Y-5754700D03*
G54D44*
G01X6536398Y-4483100D03*
G01X6976402Y-4483100D03*
G01X5774398Y-4495800D03*
G01X6214402Y-4495800D03*
G54D24*
G01X7645400Y-5016492D03*
G01X7391400Y-5016492D03*
G54D45*
G01X6465900Y-4045196D03*
G01X6465900Y-4235188D03*
G01X6665900Y-4140192D03*
G01X5691200Y-4070596D03*
G01X5691200Y-4260588D03*
G01X5891200Y-4165592D03*
G54D46*
G01X5092700Y-2679708D03*
G01X4838700Y-2679708D03*
G01X4584700Y-2679708D03*
G01X4330700Y-2679708D03*
G01X4076700Y-2679708D03*
G01X3822700Y-2679708D03*
G01X3568700Y-2679708D03*
G01X3314700Y-2679708D03*
G01X3060700Y-2679708D03*
G01X2806700Y-2679708D03*
G01X2552700Y-2679708D03*
G01X2298700Y-2679708D03*
G01X2044700Y-2679708D03*
G01X1790700Y-2679708D03*
G01X1536700Y-2679708D03*
G01X1282700Y-2679708D03*
G01X1028700Y-2679708D03*
G01X774700Y-2679708D03*
G01X520700Y-2679708D03*
G01X266700Y-2679708D03*
G01X266700Y-1155708D03*
G01X520700Y-1155708D03*
G01X774700Y-1155708D03*
G01X1028700Y-1155708D03*
G01X1282700Y-1155708D03*
G01X1536700Y-1155708D03*
G01X1790700Y-1155708D03*
G01X2044700Y-1155708D03*
G01X2298700Y-1155708D03*
G01X2552700Y-1155708D03*
G01X2806700Y-1155708D03*
G01X3060700Y-1155708D03*
G01X3314700Y-1155708D03*
G01X3568700Y-1155708D03*
G01X3822700Y-1155708D03*
G01X4076700Y-1155708D03*
G01X4330700Y-1155708D03*
G01X4584700Y-1155708D03*
G01X4838700Y-1155708D03*
G01X5092700Y-1155708D03*
G54D47*
G01X8204200Y-3412193D03*
G01X8204200Y-3852197D03*
G54D32*
G01X8194929Y-4133334D03*
G01X8194929Y-4343392D03*
G54D45*
G01X7685100Y-3702296D03*
G01X7685100Y-3892288D03*
G01X7885100Y-3797292D03*
G54D14*
G01X6375400Y-3297022D03*
G01X6375400Y-3103778D03*
G54D27*
G01X6599022Y-3860800D03*
G01X6405778Y-3860800D03*
G01X6373800Y-3657600D03*
G01X6173800Y-3657600D03*
G01X5525800Y-4066682D03*
G01X5332557Y-4066682D03*
G01X5332400Y-4279900D03*
G01X5132400Y-4279900D03*
G54D28*
G01X8437601Y-4343400D03*
G01X8637600Y-4343400D03*
G01X7659700Y-4089400D03*
G01X7859700Y-4089400D03*
G54D27*
G01X7449922Y-3810000D03*
G01X7256678Y-3810000D03*
G54D14*
G01X6970700Y-4010000D03*
G01X6970700Y-3810000D03*
G54D28*
G01X6567500Y-3124200D03*
G01X6767500Y-3124200D03*
G54D33*
G01X5810758Y-3187700D03*
G01X6129274Y-3187700D03*
G54D48*
G01X5938507Y-3831791D03*
G01X5618493Y-3831791D03*
G01X5618493Y-3381804D03*
G01X5938507Y-3381804D03*
G54D49*
G01X5475300Y-2787904D03*
G01X5475300Y-2977896D03*
G01X5675300Y-2882900D03*
G54D28*
G01X3904500Y-4159800D03*
G01X4104500Y-4159800D03*
G01X1304500Y-4159800D03*
G01X1504500Y-4159800D03*
G01X1954500Y-4159800D03*
G01X2154500Y-4159800D03*
G01X2604500Y-4159800D03*
G01X2804500Y-4159800D03*
G01X3254500Y-4159800D03*
G01X3454500Y-4159800D03*
G01X4554500Y-4159800D03*
G01X4754500Y-4159800D03*
G01X5077772Y-2998902D03*
G01X5277772Y-2998902D03*
G54D27*
G01X5597500Y-3202000D03*
G01X5397500Y-3202000D03*
G54D14*
G01X5417480Y-3601143D03*
G01X5417480Y-3401144D03*
G36*
G01X5362650Y-2272974D02*
G01X5381705Y-2302519D01*
G02X5373167Y-2318186I-8538J-5507D01*
G01X5290617Y-2318186D01*
G02X5280457Y-2308026I0J10160D01*
G01X5280457Y-2237922D01*
G02X5290617Y-2227762I10160J0D01*
G01X5373167Y-2227762D01*
G02X5381705Y-2243428I0J-10160D01*
G01X5362650Y-2272974D01*
G37*
G36*
G01X5473497Y-2237922D02*
G01X5473497Y-2308026D01*
G02X5463337Y-2318186I-10160J0D01*
G01X5403393Y-2318186D01*
G02X5394854Y-2313532I0J10160D01*
G01X5372248Y-2278480D01*
G02X5372248Y-2267467I8538J5507D01*
G01X5394854Y-2232415D01*
G02X5403393Y-2227762I8538J-5507D01*
G01X5463337Y-2227762D01*
G02X5473497Y-2237922I0J-10160D01*
G37*
G36*
G01X5364124Y-2527300D02*
G01X5383178Y-2556845D01*
G02X5374640Y-2572512I-8538J-5507D01*
G01X5292090Y-2572512D01*
G02X5281930Y-2562352I0J10160D01*
G01X5281930Y-2492248D01*
G02X5292090Y-2482088I10160J0D01*
G01X5374640Y-2482088D01*
G02X5383178Y-2497755I0J-10160D01*
G01X5364124Y-2527300D01*
G37*
G36*
G01X5474970Y-2492248D02*
G01X5474970Y-2562352D01*
G02X5464810Y-2572512I-10160J0D01*
G01X5404866Y-2572512D01*
G02X5396328Y-2567859I0J10160D01*
G01X5373722Y-2532807D01*
G02X5373722Y-2521793I8538J5507D01*
G01X5396328Y-2486741D01*
G02X5404866Y-2482088I8538J-5507D01*
G01X5464810Y-2482088D01*
G02X5474970Y-2492248I0J-10160D01*
G37*
G54D31*
G01X6184900Y-2273308D03*
G54D24*
G01X5930900Y-2273308D03*
G01X5676900Y-2273308D03*
G54D31*
G01X6184900Y-2527308D03*
G54D24*
G01X5930900Y-2527308D03*
G01X5676900Y-2527308D03*
G54D42*
G01X1320800Y-5660199D03*
G01X1320800Y-5410213D03*
G54D50*
G01X1320800Y-5160200D03*
G54D42*
G01X1968500Y-5660199D03*
G01X1968500Y-5410213D03*
G54D50*
G01X1968500Y-5160200D03*
G54D42*
G01X2616200Y-5660199D03*
G01X2616200Y-5410213D03*
G54D50*
G01X2616200Y-5160200D03*
G54D42*
G01X3263900Y-5660199D03*
G01X3263900Y-5410213D03*
G54D50*
G01X3263900Y-5160200D03*
G54D42*
G01X3911600Y-5660199D03*
G01X3911600Y-5410213D03*
G54D50*
G01X3911600Y-5160200D03*
G54D42*
G01X4559300Y-5660199D03*
G01X4559300Y-5410213D03*
G54D50*
G01X4559300Y-5160200D03*
G54D24*
G01X2138299Y-275653D03*
G01X1888287Y-275653D03*
G01X1638300Y-275653D03*
G01X1388288Y-275653D03*
G54D31*
G01X1138301Y-275653D03*
G54D24*
G01X2100199Y-3476053D03*
G01X1850187Y-3476053D03*
G01X1600200Y-3476053D03*
G01X1350188Y-3476053D03*
G54D31*
G01X1100201Y-3476053D03*
G04 Pad End*

M02*

